G04 #@! TF.GenerationSoftware,KiCad,Pcbnew,5.1.5+dfsg1-2build2*
G04 #@! TF.CreationDate,2021-02-18T18:31:01+01:00*
G04 #@! TF.ProjectId,Edgerails,45646765-7261-4696-9c73-2e6b69636164,rev?*
G04 #@! TF.SameCoordinates,Original*
G04 #@! TF.FileFunction,Legend,Top*
G04 #@! TF.FilePolarity,Positive*
%FSLAX46Y46*%
G04 Gerber Fmt 4.6, Leading zero omitted, Abs format (unit mm)*
G04 Created by KiCad (PCBNEW 5.1.5+dfsg1-2build2) date 2021-02-18 18:31:01*
%MOMM*%
%LPD*%
G04 APERTURE LIST*
%ADD10C,0.100000*%
%ADD11C,0.150000*%
G04 APERTURE END LIST*
D10*
X52328571Y-92228571D02*
X51900000Y-92228571D01*
X51814285Y-92200000D01*
X51757142Y-92142857D01*
X51728571Y-92057142D01*
X51728571Y-92000000D01*
X51728571Y-92800000D02*
X51728571Y-92514285D01*
X52328571Y-92514285D01*
X51785714Y-93342857D02*
X51757142Y-93314285D01*
X51728571Y-93228571D01*
X51728571Y-93171428D01*
X51757142Y-93085714D01*
X51814285Y-93028571D01*
X51871428Y-93000000D01*
X51985714Y-92971428D01*
X52071428Y-92971428D01*
X52185714Y-93000000D01*
X52242857Y-93028571D01*
X52300000Y-93085714D01*
X52328571Y-93171428D01*
X52328571Y-93228571D01*
X52300000Y-93314285D01*
X52271428Y-93342857D01*
X52328571Y-93771428D02*
X51900000Y-93771428D01*
X51814285Y-93742857D01*
X51757142Y-93685714D01*
X51728571Y-93600000D01*
X51728571Y-93542857D01*
X51728571Y-94342857D02*
X51728571Y-94057142D01*
X52328571Y-94057142D01*
X51785714Y-94885714D02*
X51757142Y-94857142D01*
X51728571Y-94771428D01*
X51728571Y-94714285D01*
X51757142Y-94628571D01*
X51814285Y-94571428D01*
X51871428Y-94542857D01*
X51985714Y-94514285D01*
X52071428Y-94514285D01*
X52185714Y-94542857D01*
X52242857Y-94571428D01*
X52300000Y-94628571D01*
X52328571Y-94714285D01*
X52328571Y-94771428D01*
X52300000Y-94857142D01*
X52271428Y-94885714D01*
X52328571Y-95314285D02*
X51900000Y-95314285D01*
X51814285Y-95285714D01*
X51757142Y-95228571D01*
X51728571Y-95142857D01*
X51728571Y-95085714D01*
X51728571Y-95885714D02*
X51728571Y-95600000D01*
X52328571Y-95600000D01*
X51785714Y-96428571D02*
X51757142Y-96400000D01*
X51728571Y-96314285D01*
X51728571Y-96257142D01*
X51757142Y-96171428D01*
X51814285Y-96114285D01*
X51871428Y-96085714D01*
X51985714Y-96057142D01*
X52071428Y-96057142D01*
X52185714Y-96085714D01*
X52242857Y-96114285D01*
X52300000Y-96171428D01*
X52328571Y-96257142D01*
X52328571Y-96314285D01*
X52300000Y-96400000D01*
X52271428Y-96428571D01*
X52328571Y-96857142D02*
X51900000Y-96857142D01*
X51814285Y-96828571D01*
X51757142Y-96771428D01*
X51728571Y-96685714D01*
X51728571Y-96628571D01*
X51728571Y-97428571D02*
X51728571Y-97142857D01*
X52328571Y-97142857D01*
X51785714Y-97971428D02*
X51757142Y-97942857D01*
X51728571Y-97857142D01*
X51728571Y-97800000D01*
X51757142Y-97714285D01*
X51814285Y-97657142D01*
X51871428Y-97628571D01*
X51985714Y-97600000D01*
X52071428Y-97600000D01*
X52185714Y-97628571D01*
X52242857Y-97657142D01*
X52300000Y-97714285D01*
X52328571Y-97800000D01*
X52328571Y-97857142D01*
X52300000Y-97942857D01*
X52271428Y-97971428D01*
D11*
X52821428Y-63107142D02*
X52821428Y-63392857D01*
X52750000Y-63535714D01*
X52607142Y-63678571D01*
X52321428Y-63750000D01*
X51821428Y-63750000D01*
X51535714Y-63678571D01*
X51392857Y-63535714D01*
X51321428Y-63392857D01*
X51321428Y-63107142D01*
X51392857Y-62964285D01*
X51535714Y-62821428D01*
X51821428Y-62750000D01*
X52321428Y-62750000D01*
X52607142Y-62821428D01*
X52750000Y-62964285D01*
X52821428Y-63107142D01*
X52321428Y-64178571D02*
X52321428Y-64750000D01*
X52821428Y-64392857D02*
X51535714Y-64392857D01*
X51392857Y-64464285D01*
X51321428Y-64607142D01*
X51321428Y-64750000D01*
X52321428Y-65035714D02*
X52321428Y-65607142D01*
X52821428Y-65250000D02*
X51535714Y-65250000D01*
X51392857Y-65321428D01*
X51321428Y-65464285D01*
X51321428Y-65607142D01*
X51392857Y-66678571D02*
X51321428Y-66535714D01*
X51321428Y-66250000D01*
X51392857Y-66107142D01*
X51535714Y-66035714D01*
X52107142Y-66035714D01*
X52250000Y-66107142D01*
X52321428Y-66250000D01*
X52321428Y-66535714D01*
X52250000Y-66678571D01*
X52107142Y-66750000D01*
X51964285Y-66750000D01*
X51821428Y-66035714D01*
X51321428Y-67392857D02*
X52321428Y-67392857D01*
X52035714Y-67392857D02*
X52178571Y-67464285D01*
X52250000Y-67535714D01*
X52321428Y-67678571D01*
X52321428Y-67821428D01*
X51464285Y-69178571D02*
X51392857Y-69107142D01*
X51321428Y-68892857D01*
X51321428Y-68750000D01*
X51392857Y-68535714D01*
X51535714Y-68392857D01*
X51678571Y-68321428D01*
X51964285Y-68250000D01*
X52178571Y-68250000D01*
X52464285Y-68321428D01*
X52607142Y-68392857D01*
X52750000Y-68535714D01*
X52821428Y-68750000D01*
X52821428Y-68892857D01*
X52750000Y-69107142D01*
X52678571Y-69178571D01*
X51321428Y-70464285D02*
X52107142Y-70464285D01*
X52250000Y-70392857D01*
X52321428Y-70250000D01*
X52321428Y-69964285D01*
X52250000Y-69821428D01*
X51392857Y-70464285D02*
X51321428Y-70321428D01*
X51321428Y-69964285D01*
X51392857Y-69821428D01*
X51535714Y-69750000D01*
X51678571Y-69750000D01*
X51821428Y-69821428D01*
X51892857Y-69964285D01*
X51892857Y-70321428D01*
X51964285Y-70464285D01*
X51392857Y-71107142D02*
X51321428Y-71250000D01*
X51321428Y-71535714D01*
X51392857Y-71678571D01*
X51535714Y-71750000D01*
X51607142Y-71750000D01*
X51750000Y-71678571D01*
X51821428Y-71535714D01*
X51821428Y-71321428D01*
X51892857Y-71178571D01*
X52035714Y-71107142D01*
X52107142Y-71107142D01*
X52250000Y-71178571D01*
X52321428Y-71321428D01*
X52321428Y-71535714D01*
X52250000Y-71678571D01*
X52321428Y-72178571D02*
X52321428Y-72750000D01*
X52821428Y-72392857D02*
X51535714Y-72392857D01*
X51392857Y-72464285D01*
X51321428Y-72607142D01*
X51321428Y-72750000D01*
X51750000Y-73178571D02*
X51750000Y-73892857D01*
X51321428Y-73035714D02*
X52821428Y-73535714D01*
X51321428Y-74035714D01*
X52321428Y-75178571D02*
X51321428Y-75178571D01*
X52321428Y-74535714D02*
X51535714Y-74535714D01*
X51392857Y-74607142D01*
X51321428Y-74750000D01*
X51321428Y-74964285D01*
X51392857Y-75107142D01*
X51464285Y-75178571D01*
X51321428Y-76535714D02*
X52821428Y-76535714D01*
X51392857Y-76535714D02*
X51321428Y-76392857D01*
X51321428Y-76107142D01*
X51392857Y-75964285D01*
X51464285Y-75892857D01*
X51607142Y-75821428D01*
X52035714Y-75821428D01*
X52178571Y-75892857D01*
X52250000Y-75964285D01*
X52321428Y-76107142D01*
X52321428Y-76392857D01*
X52250000Y-76535714D01*
X51321428Y-77250000D02*
X52321428Y-77250000D01*
X52821428Y-77250000D02*
X52750000Y-77178571D01*
X52678571Y-77250000D01*
X52750000Y-77321428D01*
X52821428Y-77250000D01*
X52678571Y-77250000D01*
X51321428Y-78178571D02*
X51392857Y-78035714D01*
X51464285Y-77964285D01*
X51607142Y-77892857D01*
X52035714Y-77892857D01*
X52178571Y-77964285D01*
X52250000Y-78035714D01*
X52321428Y-78178571D01*
X52321428Y-78392857D01*
X52250000Y-78535714D01*
X52178571Y-78607142D01*
X52035714Y-78678571D01*
X51607142Y-78678571D01*
X51464285Y-78607142D01*
X51392857Y-78535714D01*
X51321428Y-78392857D01*
X51321428Y-78178571D01*
X52821428Y-79107142D02*
X51321428Y-79607142D01*
X52821428Y-80107142D01*
X52678571Y-80535714D02*
X52750000Y-80607142D01*
X52821428Y-80750000D01*
X52821428Y-81107142D01*
X52750000Y-81250000D01*
X52678571Y-81321428D01*
X52535714Y-81392857D01*
X52392857Y-81392857D01*
X52178571Y-81321428D01*
X51321428Y-80464285D01*
X51321428Y-81392857D01*
X52321428Y-83035714D02*
X51321428Y-83392857D01*
X52321428Y-83750000D01*
X52678571Y-84250000D02*
X52750000Y-84321428D01*
X52821428Y-84464285D01*
X52821428Y-84821428D01*
X52750000Y-84964285D01*
X52678571Y-85035714D01*
X52535714Y-85107142D01*
X52392857Y-85107142D01*
X52178571Y-85035714D01*
X51321428Y-84178571D01*
X51321428Y-85107142D01*
X51464285Y-85750000D02*
X51392857Y-85821428D01*
X51321428Y-85750000D01*
X51392857Y-85678571D01*
X51464285Y-85750000D01*
X51321428Y-85750000D01*
X51321428Y-87250000D02*
X51321428Y-86392857D01*
X51321428Y-86821428D02*
X52821428Y-86821428D01*
X52607142Y-86678571D01*
X52464285Y-86535714D01*
X52392857Y-86392857D01*
M02*
