G04 #@! TF.GenerationSoftware,KiCad,Pcbnew,5.1.5+dfsg1-2build2*
G04 #@! TF.CreationDate,2021-02-18T18:31:01+01:00*
G04 #@! TF.ProjectId,Edgerails,45646765-7261-4696-9c73-2e6b69636164,rev?*
G04 #@! TF.SameCoordinates,Original*
G04 #@! TF.FileFunction,Soldermask,Top*
G04 #@! TF.FilePolarity,Negative*
%FSLAX46Y46*%
G04 Gerber Fmt 4.6, Leading zero omitted, Abs format (unit mm)*
G04 Created by KiCad (PCBNEW 5.1.5+dfsg1-2build2) date 2021-02-18 18:31:01*
%MOMM*%
%LPD*%
G04 APERTURE LIST*
%ADD10C,0.100000*%
G04 APERTURE END LIST*
D10*
G36*
X52122321Y-51385047D02*
G01*
X52182889Y-51397095D01*
X52239943Y-51420728D01*
X52296997Y-51444360D01*
X52399687Y-51512975D01*
X52487025Y-51600313D01*
X52555640Y-51703003D01*
X52602905Y-51817112D01*
X52627000Y-51938245D01*
X52627000Y-52061755D01*
X52602905Y-52182888D01*
X52555640Y-52296997D01*
X52487025Y-52399687D01*
X52399687Y-52487025D01*
X52296997Y-52555640D01*
X52239943Y-52579272D01*
X52182889Y-52602905D01*
X52122321Y-52614953D01*
X52061755Y-52627000D01*
X51938245Y-52627000D01*
X51877679Y-52614953D01*
X51817111Y-52602905D01*
X51760058Y-52579273D01*
X51703003Y-52555640D01*
X51600313Y-52487025D01*
X51512975Y-52399687D01*
X51444360Y-52296997D01*
X51397095Y-52182888D01*
X51373000Y-52061755D01*
X51373000Y-51938245D01*
X51397095Y-51817112D01*
X51444360Y-51703003D01*
X51512975Y-51600313D01*
X51600313Y-51512975D01*
X51703003Y-51444360D01*
X51760058Y-51420727D01*
X51817111Y-51397095D01*
X51877678Y-51385048D01*
X51938245Y-51373000D01*
X52061755Y-51373000D01*
X52122321Y-51385047D01*
G37*
M02*
