G04 #@! TF.GenerationSoftware,KiCad,Pcbnew,7.0.10*
G04 #@! TF.CreationDate,2024-04-11T11:42:19+02:00*
G04 #@! TF.ProjectId,Edgerails,45646765-7261-4696-9c73-2e6b69636164,rev?*
G04 #@! TF.SameCoordinates,Original*
G04 #@! TF.FileFunction,Soldermask,Top*
G04 #@! TF.FilePolarity,Negative*
%FSLAX46Y46*%
G04 Gerber Fmt 4.6, Leading zero omitted, Abs format (unit mm)*
G04 Created by KiCad (PCBNEW 7.0.10) date 2024-04-11 11:42:19*
%MOMM*%
%LPD*%
G01*
G04 APERTURE LIST*
G04 APERTURE END LIST*
G36*
X52033565Y-51377572D02*
G01*
X52075576Y-51377572D01*
X52110954Y-51386291D01*
X52139346Y-51389491D01*
X52176070Y-51402341D01*
X52222337Y-51413745D01*
X52249696Y-51428104D01*
X52271701Y-51435804D01*
X52308885Y-51459168D01*
X52356177Y-51483989D01*
X52375180Y-51500824D01*
X52390432Y-51510408D01*
X52424870Y-51544846D01*
X52469316Y-51584222D01*
X52480614Y-51600590D01*
X52489591Y-51609567D01*
X52517814Y-51654484D01*
X52555181Y-51708619D01*
X52560283Y-51722072D01*
X52564195Y-51728298D01*
X52582688Y-51781150D01*
X52608781Y-51849949D01*
X52609853Y-51858782D01*
X52610508Y-51860653D01*
X52616015Y-51909529D01*
X52627000Y-52000000D01*
X52616014Y-52090479D01*
X52610508Y-52139346D01*
X52609853Y-52141215D01*
X52608781Y-52150051D01*
X52582684Y-52218861D01*
X52564195Y-52271701D01*
X52560284Y-52277924D01*
X52555181Y-52291381D01*
X52517807Y-52345525D01*
X52489591Y-52390432D01*
X52480616Y-52399406D01*
X52469316Y-52415778D01*
X52424861Y-52455161D01*
X52390432Y-52489591D01*
X52375184Y-52499171D01*
X52356177Y-52516011D01*
X52308876Y-52540836D01*
X52271701Y-52564195D01*
X52249702Y-52571892D01*
X52222337Y-52586255D01*
X52176060Y-52597660D01*
X52139346Y-52610508D01*
X52110962Y-52613706D01*
X52075576Y-52622428D01*
X52033556Y-52622428D01*
X52000000Y-52626209D01*
X51966443Y-52622428D01*
X51924424Y-52622428D01*
X51889038Y-52613706D01*
X51860653Y-52610508D01*
X51823935Y-52597660D01*
X51777663Y-52586255D01*
X51750299Y-52571893D01*
X51728298Y-52564195D01*
X51691117Y-52540832D01*
X51643823Y-52516011D01*
X51624817Y-52499173D01*
X51609567Y-52489591D01*
X51575129Y-52455153D01*
X51530684Y-52415778D01*
X51519385Y-52399409D01*
X51510408Y-52390432D01*
X51482181Y-52345509D01*
X51444819Y-52291381D01*
X51439717Y-52277928D01*
X51435804Y-52271701D01*
X51417302Y-52218827D01*
X51391219Y-52150051D01*
X51390146Y-52141220D01*
X51389491Y-52139346D01*
X51383971Y-52090364D01*
X51373000Y-52000000D01*
X51383970Y-51909643D01*
X51389491Y-51860653D01*
X51390146Y-51858778D01*
X51391219Y-51849949D01*
X51417298Y-51781184D01*
X51435804Y-51728298D01*
X51439718Y-51722068D01*
X51444819Y-51708619D01*
X51482174Y-51654500D01*
X51510408Y-51609567D01*
X51519388Y-51600586D01*
X51530684Y-51584222D01*
X51575120Y-51544854D01*
X51609567Y-51510408D01*
X51624821Y-51500822D01*
X51643823Y-51483989D01*
X51691107Y-51459172D01*
X51728298Y-51435804D01*
X51750305Y-51428103D01*
X51777663Y-51413745D01*
X51823926Y-51402342D01*
X51860653Y-51389491D01*
X51889046Y-51386291D01*
X51924424Y-51377572D01*
X51966435Y-51377572D01*
X52000000Y-51373790D01*
X52033565Y-51377572D01*
G37*
M02*
