solid OpenSCAD_Model
  facet normal 1 -0 0
    outer loop
      vertex 17.625 5.465 0
      vertex 17.625 5.965 -0.299999
      vertex 17.625 5.965 0
    endloop
  endfacet
  facet normal 1 0 0
    outer loop
      vertex 17.625 5.965 -0.299999
      vertex 17.625 5.465 0
      vertex 17.625 5.465 -0.299999
    endloop
  endfacet
  facet normal 0 0 -1
    outer loop
      vertex 16.8 -8.04 0
      vertex 15.975 -5.965 0
      vertex 16.8 -5.965 0
    endloop
  endfacet
  facet normal 0 0 -1
    outer loop
      vertex 2.3 -4.78 0
      vertex 15.975 -5.465 0
      vertex 15.975 -5.965 0
    endloop
  endfacet
  facet normal 0 0 -1
    outer loop
      vertex 15.975 -5.465 0
      vertex 2.3 -4.78 0
      vertex 15.975 -4.695 0
    endloop
  endfacet
  facet normal -0 0 -1
    outer loop
      vertex 15.975 -4.695 0
      vertex 2.3 -4.78 0
      vertex 15.975 -4.195 0
    endloop
  endfacet
  facet normal -0 0 -1
    outer loop
      vertex 15.975 -4.195 0
      vertex 2.3 -4.78 0
      vertex 15.975 -3.425 0
    endloop
  endfacet
  facet normal -0 0 -1
    outer loop
      vertex 15.975 -3.425 0
      vertex 2.3 -4.78 0
      vertex 15.975 -2.925 0
    endloop
  endfacet
  facet normal -0 0 -1
    outer loop
      vertex 15.975 -2.925 0
      vertex 2.3 -4.78 0
      vertex 15.975 -2.155 0
    endloop
  endfacet
  facet normal -0 0 -1
    outer loop
      vertex 15.975 -2.155 0
      vertex 2.3 -4.78 0
      vertex 15.975 -1.655 0
    endloop
  endfacet
  facet normal -0 0 -1
    outer loop
      vertex 15.975 -1.655 0
      vertex 2.3 -4.78 0
      vertex 15.975 -0.884999 0
    endloop
  endfacet
  facet normal -0 0 -1
    outer loop
      vertex 15.975 -0.884999 0
      vertex 2.3 -4.78 0
      vertex 15.975 -0.384999 0
    endloop
  endfacet
  facet normal -0 0 -1
    outer loop
      vertex 15.975 -0.384999 0
      vertex 2.3 -4.78 0
      vertex 15.975 0.384999 0
    endloop
  endfacet
  facet normal 0 0 -1
    outer loop
      vertex 2.3 4.78 0
      vertex 15.975 0.384999 0
      vertex 2.3 -4.78 0
    endloop
  endfacet
  facet normal 0 0 -1
    outer loop
      vertex 15.975 0.384999 0
      vertex 2.3 4.78 0
      vertex 15.975 0.884999 0
    endloop
  endfacet
  facet normal 0 0 -1
    outer loop
      vertex 15.975 0.884999 0
      vertex 2.3 4.78 0
      vertex 15.975 1.655 0
    endloop
  endfacet
  facet normal 0 0 -1
    outer loop
      vertex 15.975 1.655 0
      vertex 2.3 4.78 0
      vertex 15.975 2.155 0
    endloop
  endfacet
  facet normal 0 0 -1
    outer loop
      vertex 15.975 2.155 0
      vertex 2.3 4.78 0
      vertex 15.975 2.925 0
    endloop
  endfacet
  facet normal 0 0 -1
    outer loop
      vertex 15.975 2.925 0
      vertex 2.3 4.78 0
      vertex 15.975 3.425 0
    endloop
  endfacet
  facet normal 0 0 -1
    outer loop
      vertex 15.975 3.425 0
      vertex 2.3 4.78 0
      vertex 15.975 4.195 0
    endloop
  endfacet
  facet normal 0 0 -1
    outer loop
      vertex 15.975 4.195 0
      vertex 2.3 4.78 0
      vertex 15.975 4.695 0
    endloop
  endfacet
  facet normal 0 0 -1
    outer loop
      vertex 2.3 -4.78 0
      vertex 15.975 -5.965 0
      vertex 2.3 -8.04 0
    endloop
  endfacet
  facet normal 0 0 -1
    outer loop
      vertex 2.3 -8.04 0
      vertex 15.975 -5.965 0
      vertex 16.8 -8.04 0
    endloop
  endfacet
  facet normal 0 0 -1
    outer loop
      vertex 15.975 -5.465 0
      vertex 16.8 -4.695 0
      vertex 16.8 -5.465 0
    endloop
  endfacet
  facet normal -0 0 -1
    outer loop
      vertex 16.8 -4.695 0
      vertex 15.975 -5.465 0
      vertex 15.975 -4.695 0
    endloop
  endfacet
  facet normal 0 0 -1
    outer loop
      vertex 15.975 -4.195 0
      vertex 16.8 -3.425 0
      vertex 16.8 -4.195 0
    endloop
  endfacet
  facet normal -0 0 -1
    outer loop
      vertex 16.8 -3.425 0
      vertex 15.975 -4.195 0
      vertex 15.975 -3.425 0
    endloop
  endfacet
  facet normal 0 0 -1
    outer loop
      vertex 15.975 -2.925 0
      vertex 16.8 -2.155 0
      vertex 16.8 -2.925 0
    endloop
  endfacet
  facet normal -0 0 -1
    outer loop
      vertex 16.8 -2.155 0
      vertex 15.975 -2.925 0
      vertex 15.975 -2.155 0
    endloop
  endfacet
  facet normal 0 0 -1
    outer loop
      vertex 15.975 -1.655 0
      vertex 16.8 -0.884999 0
      vertex 16.8 -1.655 0
    endloop
  endfacet
  facet normal -0 0 -1
    outer loop
      vertex 16.8 -0.884999 0
      vertex 15.975 -1.655 0
      vertex 15.975 -0.884999 0
    endloop
  endfacet
  facet normal 0 0 -1
    outer loop
      vertex 15.975 -0.384999 0
      vertex 16.8 0.384999 0
      vertex 16.8 -0.384999 0
    endloop
  endfacet
  facet normal -0 0 -1
    outer loop
      vertex 16.8 0.384999 0
      vertex 15.975 -0.384999 0
      vertex 15.975 0.384999 0
    endloop
  endfacet
  facet normal 0 0 -1
    outer loop
      vertex 15.975 0.884999 0
      vertex 16.8 1.655 0
      vertex 16.8 0.884999 0
    endloop
  endfacet
  facet normal -0 0 -1
    outer loop
      vertex 16.8 1.655 0
      vertex 15.975 0.884999 0
      vertex 15.975 1.655 0
    endloop
  endfacet
  facet normal 0 0 -1
    outer loop
      vertex 15.975 2.155 0
      vertex 16.8 2.925 0
      vertex 16.8 2.155 0
    endloop
  endfacet
  facet normal -0 0 -1
    outer loop
      vertex 16.8 2.925 0
      vertex 15.975 2.155 0
      vertex 15.975 2.925 0
    endloop
  endfacet
  facet normal 0 0 -1
    outer loop
      vertex 15.975 3.425 0
      vertex 16.8 4.195 0
      vertex 16.8 3.425 0
    endloop
  endfacet
  facet normal -0 0 -1
    outer loop
      vertex 16.8 4.195 0
      vertex 15.975 3.425 0
      vertex 15.975 4.195 0
    endloop
  endfacet
  facet normal 0 0 -1
    outer loop
      vertex 15.975 4.695 0
      vertex 16.8 5.465 0
      vertex 16.8 4.695 0
    endloop
  endfacet
  facet normal -0 0 -1
    outer loop
      vertex 16.8 5.465 0
      vertex 15.975 4.695 0
      vertex 15.975 5.465 0
    endloop
  endfacet
  facet normal 0 0 -1
    outer loop
      vertex 15.975 5.965 0
      vertex 16.8 8.04 0
      vertex 16.8 5.965 0
    endloop
  endfacet
  facet normal 0 0 -1
    outer loop
      vertex 15.975 4.695 0
      vertex 2.3 4.78 0
      vertex 15.975 5.465 0
    endloop
  endfacet
  facet normal -0 0 -1
    outer loop
      vertex 15.975 5.465 0
      vertex 2.3 4.78 0
      vertex 15.975 5.965 0
    endloop
  endfacet
  facet normal 0 0 -1
    outer loop
      vertex 2.3 8.04 0
      vertex 15.975 5.965 0
      vertex 2.3 4.78 0
    endloop
  endfacet
  facet normal 0 0 -1
    outer loop
      vertex 15.975 5.965 0
      vertex 2.3 8.04 0
      vertex 16.8 8.04 0
    endloop
  endfacet
  facet normal 0 0 -1
    outer loop
      vertex -6.25 -8.04 0
      vertex -2.3 -4.78 0
      vertex -2.3 -8.04 0
    endloop
  endfacet
  facet normal -0 0 -1
    outer loop
      vertex -2.3 -4.78 0
      vertex -6.25 -8.04 0
      vertex -2.3 4.78 0
    endloop
  endfacet
  facet normal 0 0 -1
    outer loop
      vertex -6.25 8.04 0
      vertex -2.3 4.78 0
      vertex -6.25 -8.04 0
    endloop
  endfacet
  facet normal 0 0 -1
    outer loop
      vertex -2.3 4.78 0
      vertex -6.25 8.04 0
      vertex -2.3 8.04 0
    endloop
  endfacet
  facet normal 0 0 -1
    outer loop
      vertex -2.3 -4.78 0
      vertex 2.3 4.78 0
      vertex 2.3 -4.78 0
    endloop
  endfacet
  facet normal -0 0 -1
    outer loop
      vertex 2.3 4.78 0
      vertex -2.3 -4.78 0
      vertex -2.3 4.78 0
    endloop
  endfacet
  facet normal -0 0 1
    outer loop
      vertex 16.8 -5.465 0
      vertex 17.625 -5.965 0
      vertex 17.625 -5.465 0
    endloop
  endfacet
  facet normal 0 0 1
    outer loop
      vertex 17.625 -5.965 0
      vertex 16.8 -5.465 0
      vertex 16.8 -5.965 0
    endloop
  endfacet
  facet normal -0 0 1
    outer loop
      vertex 16.8 -4.195 0
      vertex 17.625 -4.695 0
      vertex 17.625 -4.195 0
    endloop
  endfacet
  facet normal 0 0 1
    outer loop
      vertex 17.625 -4.695 0
      vertex 16.8 -4.195 0
      vertex 16.8 -4.695 0
    endloop
  endfacet
  facet normal -0 0 1
    outer loop
      vertex 16.8 -2.925 0
      vertex 17.625 -3.425 0
      vertex 17.625 -2.925 0
    endloop
  endfacet
  facet normal 0 0 1
    outer loop
      vertex 17.625 -3.425 0
      vertex 16.8 -2.925 0
      vertex 16.8 -3.425 0
    endloop
  endfacet
  facet normal -0 0 1
    outer loop
      vertex 16.8 -1.655 0
      vertex 17.625 -2.155 0
      vertex 17.625 -1.655 0
    endloop
  endfacet
  facet normal 0 0 1
    outer loop
      vertex 17.625 -2.155 0
      vertex 16.8 -1.655 0
      vertex 16.8 -2.155 0
    endloop
  endfacet
  facet normal -0 0 1
    outer loop
      vertex 16.8 -0.384999 0
      vertex 17.625 -0.884999 0
      vertex 17.625 -0.384999 0
    endloop
  endfacet
  facet normal 0 0 1
    outer loop
      vertex 17.625 -0.884999 0
      vertex 16.8 -0.384999 0
      vertex 16.8 -0.884999 0
    endloop
  endfacet
  facet normal -0 0 1
    outer loop
      vertex 16.8 0.884999 0
      vertex 17.625 0.384999 0
      vertex 17.625 0.884999 0
    endloop
  endfacet
  facet normal 0 0 1
    outer loop
      vertex 17.625 0.384999 0
      vertex 16.8 0.884999 0
      vertex 16.8 0.384999 0
    endloop
  endfacet
  facet normal -0 0 1
    outer loop
      vertex 16.8 2.155 0
      vertex 17.625 1.655 0
      vertex 17.625 2.155 0
    endloop
  endfacet
  facet normal 0 0 1
    outer loop
      vertex 17.625 1.655 0
      vertex 16.8 2.155 0
      vertex 16.8 1.655 0
    endloop
  endfacet
  facet normal -0 0 1
    outer loop
      vertex 16.8 3.425 0
      vertex 17.625 2.925 0
      vertex 17.625 3.425 0
    endloop
  endfacet
  facet normal 0 0 1
    outer loop
      vertex 17.625 2.925 0
      vertex 16.8 3.425 0
      vertex 16.8 2.925 0
    endloop
  endfacet
  facet normal -0 0 1
    outer loop
      vertex 16.8 4.695 0
      vertex 17.625 4.195 0
      vertex 17.625 4.695 0
    endloop
  endfacet
  facet normal 0 0 1
    outer loop
      vertex 17.625 4.195 0
      vertex 16.8 4.695 0
      vertex 16.8 4.195 0
    endloop
  endfacet
  facet normal -0 0 1
    outer loop
      vertex 16.8 5.965 0
      vertex 17.625 5.465 0
      vertex 17.625 5.965 0
    endloop
  endfacet
  facet normal 0 0 1
    outer loop
      vertex 17.625 5.465 0
      vertex 16.8 5.965 0
      vertex 16.8 5.465 0
    endloop
  endfacet
  facet normal 0 0 -1
    outer loop
      vertex 15.975 5.465 -0.299999
      vertex 17.625 5.965 -0.299999
      vertex 17.625 5.465 -0.299999
    endloop
  endfacet
  facet normal -0 0 -1
    outer loop
      vertex 17.625 5.965 -0.299999
      vertex 15.975 5.465 -0.299999
      vertex 15.975 5.965 -0.299999
    endloop
  endfacet
  facet normal -1 0 0
    outer loop
      vertex 15.975 5.465 -0.299999
      vertex 15.975 5.965 0
      vertex 15.975 5.965 -0.299999
    endloop
  endfacet
  facet normal -1 -0 0
    outer loop
      vertex 15.975 5.965 0
      vertex 15.975 5.465 -0.299999
      vertex 15.975 5.465 0
    endloop
  endfacet
  facet normal 0 1 -0
    outer loop
      vertex 17.625 5.965 -0.299999
      vertex 16.8 5.965 0
      vertex 17.625 5.965 0
    endloop
  endfacet
  facet normal 0 1 0
    outer loop
      vertex 15.975 5.965 -0.299999
      vertex 16.8 5.965 0
      vertex 17.625 5.965 -0.299999
    endloop
  endfacet
  facet normal 0 1 0
    outer loop
      vertex 16.8 5.965 0
      vertex 15.975 5.965 -0.299999
      vertex 15.975 5.965 0
    endloop
  endfacet
  facet normal 0 -1 0
    outer loop
      vertex 15.975 5.465 -0.299999
      vertex 16.8 5.465 0
      vertex 15.975 5.465 0
    endloop
  endfacet
  facet normal 0 -1 0
    outer loop
      vertex 17.625 5.465 -0.299999
      vertex 16.8 5.465 0
      vertex 15.975 5.465 -0.299999
    endloop
  endfacet
  facet normal 0 -1 0
    outer loop
      vertex 16.8 5.465 0
      vertex 17.625 5.465 -0.299999
      vertex 17.625 5.465 0
    endloop
  endfacet
  facet normal 1 -0 0
    outer loop
      vertex 17.625 4.195 0
      vertex 17.625 4.695 -0.299999
      vertex 17.625 4.695 0
    endloop
  endfacet
  facet normal 1 0 0
    outer loop
      vertex 17.625 4.695 -0.299999
      vertex 17.625 4.195 0
      vertex 17.625 4.195 -0.299999
    endloop
  endfacet
  facet normal 0 0 -1
    outer loop
      vertex 15.975 4.195 -0.299999
      vertex 17.625 4.695 -0.299999
      vertex 17.625 4.195 -0.299999
    endloop
  endfacet
  facet normal -0 0 -1
    outer loop
      vertex 17.625 4.695 -0.299999
      vertex 15.975 4.195 -0.299999
      vertex 15.975 4.695 -0.299999
    endloop
  endfacet
  facet normal -1 0 0
    outer loop
      vertex 15.975 4.195 -0.299999
      vertex 15.975 4.695 0
      vertex 15.975 4.695 -0.299999
    endloop
  endfacet
  facet normal -1 -0 0
    outer loop
      vertex 15.975 4.695 0
      vertex 15.975 4.195 -0.299999
      vertex 15.975 4.195 0
    endloop
  endfacet
  facet normal 0 1 -0
    outer loop
      vertex 17.625 4.695 -0.299999
      vertex 16.8 4.695 0
      vertex 17.625 4.695 0
    endloop
  endfacet
  facet normal 0 1 0
    outer loop
      vertex 15.975 4.695 -0.299999
      vertex 16.8 4.695 0
      vertex 17.625 4.695 -0.299999
    endloop
  endfacet
  facet normal 0 1 0
    outer loop
      vertex 16.8 4.695 0
      vertex 15.975 4.695 -0.299999
      vertex 15.975 4.695 0
    endloop
  endfacet
  facet normal 0 -1 0
    outer loop
      vertex 15.975 4.195 -0.299999
      vertex 16.8 4.195 0
      vertex 15.975 4.195 0
    endloop
  endfacet
  facet normal 0 -1 0
    outer loop
      vertex 17.625 4.195 -0.299999
      vertex 16.8 4.195 0
      vertex 15.975 4.195 -0.299999
    endloop
  endfacet
  facet normal 0 -1 0
    outer loop
      vertex 16.8 4.195 0
      vertex 17.625 4.195 -0.299999
      vertex 17.625 4.195 0
    endloop
  endfacet
  facet normal 1 -0 0
    outer loop
      vertex 17.625 2.925 0
      vertex 17.625 3.425 -0.299999
      vertex 17.625 3.425 0
    endloop
  endfacet
  facet normal 1 0 0
    outer loop
      vertex 17.625 3.425 -0.299999
      vertex 17.625 2.925 0
      vertex 17.625 2.925 -0.299999
    endloop
  endfacet
  facet normal 0 0 -1
    outer loop
      vertex 15.975 2.925 -0.299999
      vertex 17.625 3.425 -0.299999
      vertex 17.625 2.925 -0.299999
    endloop
  endfacet
  facet normal -0 0 -1
    outer loop
      vertex 17.625 3.425 -0.299999
      vertex 15.975 2.925 -0.299999
      vertex 15.975 3.425 -0.299999
    endloop
  endfacet
  facet normal -1 0 0
    outer loop
      vertex 15.975 2.925 -0.299999
      vertex 15.975 3.425 0
      vertex 15.975 3.425 -0.299999
    endloop
  endfacet
  facet normal -1 -0 0
    outer loop
      vertex 15.975 3.425 0
      vertex 15.975 2.925 -0.299999
      vertex 15.975 2.925 0
    endloop
  endfacet
  facet normal 0 1 -0
    outer loop
      vertex 17.625 3.425 -0.299999
      vertex 16.8 3.425 0
      vertex 17.625 3.425 0
    endloop
  endfacet
  facet normal 0 1 0
    outer loop
      vertex 15.975 3.425 -0.299999
      vertex 16.8 3.425 0
      vertex 17.625 3.425 -0.299999
    endloop
  endfacet
  facet normal 0 1 0
    outer loop
      vertex 16.8 3.425 0
      vertex 15.975 3.425 -0.299999
      vertex 15.975 3.425 0
    endloop
  endfacet
  facet normal 0 -1 0
    outer loop
      vertex 15.975 2.925 -0.299999
      vertex 16.8 2.925 0
      vertex 15.975 2.925 0
    endloop
  endfacet
  facet normal 0 -1 0
    outer loop
      vertex 17.625 2.925 -0.299999
      vertex 16.8 2.925 0
      vertex 15.975 2.925 -0.299999
    endloop
  endfacet
  facet normal 0 -1 0
    outer loop
      vertex 16.8 2.925 0
      vertex 17.625 2.925 -0.299999
      vertex 17.625 2.925 0
    endloop
  endfacet
  facet normal 1 -0 0
    outer loop
      vertex 17.625 1.655 0
      vertex 17.625 2.155 -0.299999
      vertex 17.625 2.155 0
    endloop
  endfacet
  facet normal 1 0 0
    outer loop
      vertex 17.625 2.155 -0.299999
      vertex 17.625 1.655 0
      vertex 17.625 1.655 -0.299999
    endloop
  endfacet
  facet normal 0 0 -1
    outer loop
      vertex 15.975 1.655 -0.299999
      vertex 17.625 2.155 -0.299999
      vertex 17.625 1.655 -0.299999
    endloop
  endfacet
  facet normal -0 0 -1
    outer loop
      vertex 17.625 2.155 -0.299999
      vertex 15.975 1.655 -0.299999
      vertex 15.975 2.155 -0.299999
    endloop
  endfacet
  facet normal -1 0 0
    outer loop
      vertex 15.975 1.655 -0.299999
      vertex 15.975 2.155 0
      vertex 15.975 2.155 -0.299999
    endloop
  endfacet
  facet normal -1 -0 0
    outer loop
      vertex 15.975 2.155 0
      vertex 15.975 1.655 -0.299999
      vertex 15.975 1.655 0
    endloop
  endfacet
  facet normal 0 1 -0
    outer loop
      vertex 17.625 2.155 -0.299999
      vertex 16.8 2.155 0
      vertex 17.625 2.155 0
    endloop
  endfacet
  facet normal 0 1 0
    outer loop
      vertex 15.975 2.155 -0.299999
      vertex 16.8 2.155 0
      vertex 17.625 2.155 -0.299999
    endloop
  endfacet
  facet normal 0 1 0
    outer loop
      vertex 16.8 2.155 0
      vertex 15.975 2.155 -0.299999
      vertex 15.975 2.155 0
    endloop
  endfacet
  facet normal 0 -1 0
    outer loop
      vertex 15.975 1.655 -0.299999
      vertex 16.8 1.655 0
      vertex 15.975 1.655 0
    endloop
  endfacet
  facet normal 0 -1 0
    outer loop
      vertex 17.625 1.655 -0.299999
      vertex 16.8 1.655 0
      vertex 15.975 1.655 -0.299999
    endloop
  endfacet
  facet normal 0 -1 0
    outer loop
      vertex 16.8 1.655 0
      vertex 17.625 1.655 -0.299999
      vertex 17.625 1.655 0
    endloop
  endfacet
  facet normal 1 -0 0
    outer loop
      vertex 17.625 0.384999 0
      vertex 17.625 0.884999 -0.299999
      vertex 17.625 0.884999 0
    endloop
  endfacet
  facet normal 1 0 0
    outer loop
      vertex 17.625 0.884999 -0.299999
      vertex 17.625 0.384999 0
      vertex 17.625 0.384999 -0.299999
    endloop
  endfacet
  facet normal 0 0 -1
    outer loop
      vertex 15.975 0.384999 -0.299999
      vertex 17.625 0.884999 -0.299999
      vertex 17.625 0.384999 -0.299999
    endloop
  endfacet
  facet normal -0 0 -1
    outer loop
      vertex 17.625 0.884999 -0.299999
      vertex 15.975 0.384999 -0.299999
      vertex 15.975 0.884999 -0.299999
    endloop
  endfacet
  facet normal -1 0 0
    outer loop
      vertex 15.975 0.384999 -0.299999
      vertex 15.975 0.884999 0
      vertex 15.975 0.884999 -0.299999
    endloop
  endfacet
  facet normal -1 -0 0
    outer loop
      vertex 15.975 0.884999 0
      vertex 15.975 0.384999 -0.299999
      vertex 15.975 0.384999 0
    endloop
  endfacet
  facet normal 0 1 -0
    outer loop
      vertex 17.625 0.884999 -0.299999
      vertex 16.8 0.884999 0
      vertex 17.625 0.884999 0
    endloop
  endfacet
  facet normal 0 1 0
    outer loop
      vertex 15.975 0.884999 -0.299999
      vertex 16.8 0.884999 0
      vertex 17.625 0.884999 -0.299999
    endloop
  endfacet
  facet normal 0 1 0
    outer loop
      vertex 16.8 0.884999 0
      vertex 15.975 0.884999 -0.299999
      vertex 15.975 0.884999 0
    endloop
  endfacet
  facet normal 0 -1 0
    outer loop
      vertex 15.975 0.384999 -0.299999
      vertex 16.8 0.384999 0
      vertex 15.975 0.384999 0
    endloop
  endfacet
  facet normal 0 -1 0
    outer loop
      vertex 17.625 0.384999 -0.299999
      vertex 16.8 0.384999 0
      vertex 15.975 0.384999 -0.299999
    endloop
  endfacet
  facet normal 0 -1 0
    outer loop
      vertex 16.8 0.384999 0
      vertex 17.625 0.384999 -0.299999
      vertex 17.625 0.384999 0
    endloop
  endfacet
  facet normal 1 -0 0
    outer loop
      vertex 17.625 -0.884999 0
      vertex 17.625 -0.384999 -0.299999
      vertex 17.625 -0.384999 0
    endloop
  endfacet
  facet normal 1 0 0
    outer loop
      vertex 17.625 -0.384999 -0.299999
      vertex 17.625 -0.884999 0
      vertex 17.625 -0.884999 -0.299999
    endloop
  endfacet
  facet normal 0 0 -1
    outer loop
      vertex 15.975 -0.884999 -0.299999
      vertex 17.625 -0.384999 -0.299999
      vertex 17.625 -0.884999 -0.299999
    endloop
  endfacet
  facet normal -0 0 -1
    outer loop
      vertex 17.625 -0.384999 -0.299999
      vertex 15.975 -0.884999 -0.299999
      vertex 15.975 -0.384999 -0.299999
    endloop
  endfacet
  facet normal -1 0 0
    outer loop
      vertex 15.975 -0.884999 -0.299999
      vertex 15.975 -0.384999 0
      vertex 15.975 -0.384999 -0.299999
    endloop
  endfacet
  facet normal -1 -0 0
    outer loop
      vertex 15.975 -0.384999 0
      vertex 15.975 -0.884999 -0.299999
      vertex 15.975 -0.884999 0
    endloop
  endfacet
  facet normal 0 1 -0
    outer loop
      vertex 17.625 -0.384999 -0.299999
      vertex 16.8 -0.384999 0
      vertex 17.625 -0.384999 0
    endloop
  endfacet
  facet normal 0 1 0
    outer loop
      vertex 15.975 -0.384999 -0.299999
      vertex 16.8 -0.384999 0
      vertex 17.625 -0.384999 -0.299999
    endloop
  endfacet
  facet normal 0 1 0
    outer loop
      vertex 16.8 -0.384999 0
      vertex 15.975 -0.384999 -0.299999
      vertex 15.975 -0.384999 0
    endloop
  endfacet
  facet normal 0 -1 0
    outer loop
      vertex 15.975 -0.884999 -0.299999
      vertex 16.8 -0.884999 0
      vertex 15.975 -0.884999 0
    endloop
  endfacet
  facet normal 0 -1 0
    outer loop
      vertex 17.625 -0.884999 -0.299999
      vertex 16.8 -0.884999 0
      vertex 15.975 -0.884999 -0.299999
    endloop
  endfacet
  facet normal 0 -1 0
    outer loop
      vertex 16.8 -0.884999 0
      vertex 17.625 -0.884999 -0.299999
      vertex 17.625 -0.884999 0
    endloop
  endfacet
  facet normal 1 -0 0
    outer loop
      vertex 17.625 -2.155 0
      vertex 17.625 -1.655 -0.299999
      vertex 17.625 -1.655 0
    endloop
  endfacet
  facet normal 1 0 0
    outer loop
      vertex 17.625 -1.655 -0.299999
      vertex 17.625 -2.155 0
      vertex 17.625 -2.155 -0.299999
    endloop
  endfacet
  facet normal 0 0 -1
    outer loop
      vertex 15.975 -2.155 -0.299999
      vertex 17.625 -1.655 -0.299999
      vertex 17.625 -2.155 -0.299999
    endloop
  endfacet
  facet normal -0 0 -1
    outer loop
      vertex 17.625 -1.655 -0.299999
      vertex 15.975 -2.155 -0.299999
      vertex 15.975 -1.655 -0.299999
    endloop
  endfacet
  facet normal -1 0 0
    outer loop
      vertex 15.975 -2.155 -0.299999
      vertex 15.975 -1.655 0
      vertex 15.975 -1.655 -0.299999
    endloop
  endfacet
  facet normal -1 -0 0
    outer loop
      vertex 15.975 -1.655 0
      vertex 15.975 -2.155 -0.299999
      vertex 15.975 -2.155 0
    endloop
  endfacet
  facet normal 0 1 -0
    outer loop
      vertex 17.625 -1.655 -0.299999
      vertex 16.8 -1.655 0
      vertex 17.625 -1.655 0
    endloop
  endfacet
  facet normal 0 1 0
    outer loop
      vertex 15.975 -1.655 -0.299999
      vertex 16.8 -1.655 0
      vertex 17.625 -1.655 -0.299999
    endloop
  endfacet
  facet normal 0 1 0
    outer loop
      vertex 16.8 -1.655 0
      vertex 15.975 -1.655 -0.299999
      vertex 15.975 -1.655 0
    endloop
  endfacet
  facet normal 0 -1 0
    outer loop
      vertex 15.975 -2.155 -0.299999
      vertex 16.8 -2.155 0
      vertex 15.975 -2.155 0
    endloop
  endfacet
  facet normal 0 -1 0
    outer loop
      vertex 17.625 -2.155 -0.299999
      vertex 16.8 -2.155 0
      vertex 15.975 -2.155 -0.299999
    endloop
  endfacet
  facet normal 0 -1 0
    outer loop
      vertex 16.8 -2.155 0
      vertex 17.625 -2.155 -0.299999
      vertex 17.625 -2.155 0
    endloop
  endfacet
  facet normal 1 -0 0
    outer loop
      vertex 17.625 -3.425 0
      vertex 17.625 -2.925 -0.299999
      vertex 17.625 -2.925 0
    endloop
  endfacet
  facet normal 1 0 0
    outer loop
      vertex 17.625 -2.925 -0.299999
      vertex 17.625 -3.425 0
      vertex 17.625 -3.425 -0.299999
    endloop
  endfacet
  facet normal 0 0 -1
    outer loop
      vertex 15.975 -3.425 -0.299999
      vertex 17.625 -2.925 -0.299999
      vertex 17.625 -3.425 -0.299999
    endloop
  endfacet
  facet normal -0 0 -1
    outer loop
      vertex 17.625 -2.925 -0.299999
      vertex 15.975 -3.425 -0.299999
      vertex 15.975 -2.925 -0.299999
    endloop
  endfacet
  facet normal -1 0 0
    outer loop
      vertex 15.975 -3.425 -0.299999
      vertex 15.975 -2.925 0
      vertex 15.975 -2.925 -0.299999
    endloop
  endfacet
  facet normal -1 -0 0
    outer loop
      vertex 15.975 -2.925 0
      vertex 15.975 -3.425 -0.299999
      vertex 15.975 -3.425 0
    endloop
  endfacet
  facet normal 0 1 -0
    outer loop
      vertex 17.625 -2.925 -0.299999
      vertex 16.8 -2.925 0
      vertex 17.625 -2.925 0
    endloop
  endfacet
  facet normal 0 1 0
    outer loop
      vertex 15.975 -2.925 -0.299999
      vertex 16.8 -2.925 0
      vertex 17.625 -2.925 -0.299999
    endloop
  endfacet
  facet normal 0 1 0
    outer loop
      vertex 16.8 -2.925 0
      vertex 15.975 -2.925 -0.299999
      vertex 15.975 -2.925 0
    endloop
  endfacet
  facet normal 0 -1 0
    outer loop
      vertex 15.975 -3.425 -0.299999
      vertex 16.8 -3.425 0
      vertex 15.975 -3.425 0
    endloop
  endfacet
  facet normal 0 -1 0
    outer loop
      vertex 17.625 -3.425 -0.299999
      vertex 16.8 -3.425 0
      vertex 15.975 -3.425 -0.299999
    endloop
  endfacet
  facet normal 0 -1 0
    outer loop
      vertex 16.8 -3.425 0
      vertex 17.625 -3.425 -0.299999
      vertex 17.625 -3.425 0
    endloop
  endfacet
  facet normal 1 -0 0
    outer loop
      vertex 17.625 -4.695 0
      vertex 17.625 -4.195 -0.299999
      vertex 17.625 -4.195 0
    endloop
  endfacet
  facet normal 1 0 0
    outer loop
      vertex 17.625 -4.195 -0.299999
      vertex 17.625 -4.695 0
      vertex 17.625 -4.695 -0.299999
    endloop
  endfacet
  facet normal 0 0 -1
    outer loop
      vertex 15.975 -4.695 -0.299999
      vertex 17.625 -4.195 -0.299999
      vertex 17.625 -4.695 -0.299999
    endloop
  endfacet
  facet normal -0 0 -1
    outer loop
      vertex 17.625 -4.195 -0.299999
      vertex 15.975 -4.695 -0.299999
      vertex 15.975 -4.195 -0.299999
    endloop
  endfacet
  facet normal -1 0 0
    outer loop
      vertex 15.975 -4.695 -0.299999
      vertex 15.975 -4.195 0
      vertex 15.975 -4.195 -0.299999
    endloop
  endfacet
  facet normal -1 -0 0
    outer loop
      vertex 15.975 -4.195 0
      vertex 15.975 -4.695 -0.299999
      vertex 15.975 -4.695 0
    endloop
  endfacet
  facet normal 0 1 -0
    outer loop
      vertex 17.625 -4.195 -0.299999
      vertex 16.8 -4.195 0
      vertex 17.625 -4.195 0
    endloop
  endfacet
  facet normal 0 1 0
    outer loop
      vertex 15.975 -4.195 -0.299999
      vertex 16.8 -4.195 0
      vertex 17.625 -4.195 -0.299999
    endloop
  endfacet
  facet normal 0 1 0
    outer loop
      vertex 16.8 -4.195 0
      vertex 15.975 -4.195 -0.299999
      vertex 15.975 -4.195 0
    endloop
  endfacet
  facet normal 0 -1 0
    outer loop
      vertex 15.975 -4.695 -0.299999
      vertex 16.8 -4.695 0
      vertex 15.975 -4.695 0
    endloop
  endfacet
  facet normal 0 -1 0
    outer loop
      vertex 17.625 -4.695 -0.299999
      vertex 16.8 -4.695 0
      vertex 15.975 -4.695 -0.299999
    endloop
  endfacet
  facet normal 0 -1 0
    outer loop
      vertex 16.8 -4.695 0
      vertex 17.625 -4.695 -0.299999
      vertex 17.625 -4.695 0
    endloop
  endfacet
  facet normal 1 -0 0
    outer loop
      vertex 17.625 -5.965 0
      vertex 17.625 -5.465 -0.299999
      vertex 17.625 -5.465 0
    endloop
  endfacet
  facet normal 1 0 0
    outer loop
      vertex 17.625 -5.465 -0.299999
      vertex 17.625 -5.965 0
      vertex 17.625 -5.965 -0.299999
    endloop
  endfacet
  facet normal 0 0 -1
    outer loop
      vertex 15.975 -5.965 -0.299999
      vertex 17.625 -5.465 -0.299999
      vertex 17.625 -5.965 -0.299999
    endloop
  endfacet
  facet normal -0 0 -1
    outer loop
      vertex 17.625 -5.465 -0.299999
      vertex 15.975 -5.965 -0.299999
      vertex 15.975 -5.465 -0.299999
    endloop
  endfacet
  facet normal -1 0 0
    outer loop
      vertex 15.975 -5.965 -0.299999
      vertex 15.975 -5.465 0
      vertex 15.975 -5.465 -0.299999
    endloop
  endfacet
  facet normal -1 -0 0
    outer loop
      vertex 15.975 -5.465 0
      vertex 15.975 -5.965 -0.299999
      vertex 15.975 -5.965 0
    endloop
  endfacet
  facet normal 0 1 -0
    outer loop
      vertex 17.625 -5.465 -0.299999
      vertex 16.8 -5.465 0
      vertex 17.625 -5.465 0
    endloop
  endfacet
  facet normal 0 1 0
    outer loop
      vertex 15.975 -5.465 -0.299999
      vertex 16.8 -5.465 0
      vertex 17.625 -5.465 -0.299999
    endloop
  endfacet
  facet normal 0 1 0
    outer loop
      vertex 16.8 -5.465 0
      vertex 15.975 -5.465 -0.299999
      vertex 15.975 -5.465 0
    endloop
  endfacet
  facet normal 0 -1 0
    outer loop
      vertex 15.975 -5.965 -0.299999
      vertex 16.8 -5.965 0
      vertex 15.975 -5.965 0
    endloop
  endfacet
  facet normal 0 -1 0
    outer loop
      vertex 17.625 -5.965 -0.299999
      vertex 16.8 -5.965 0
      vertex 15.975 -5.965 -0.299999
    endloop
  endfacet
  facet normal 0 -1 0
    outer loop
      vertex 16.8 -5.965 0
      vertex 17.625 -5.965 -0.299999
      vertex 17.625 -5.965 0
    endloop
  endfacet
  facet normal 1 0 0
    outer loop
      vertex 16.8 8.04 13.65
      vertex 16.8 5.965 0
      vertex 16.8 8.04 0
    endloop
  endfacet
  facet normal 1 0 0
    outer loop
      vertex 16.8 8.04 13.65
      vertex 16.8 5.465 0
      vertex 16.8 5.965 0
    endloop
  endfacet
  facet normal 1 0 0
    outer loop
      vertex 16.8 8.04 13.65
      vertex 16.8 4.695 0
      vertex 16.8 5.465 0
    endloop
  endfacet
  facet normal 1 0 0
    outer loop
      vertex 16.8 8.04 13.65
      vertex 16.8 4.195 0
      vertex 16.8 4.695 0
    endloop
  endfacet
  facet normal 1 0 0
    outer loop
      vertex 16.8 8.04 13.65
      vertex 16.8 3.425 0
      vertex 16.8 4.195 0
    endloop
  endfacet
  facet normal 1 0 0
    outer loop
      vertex 16.8 8.04 13.65
      vertex 16.8 2.925 0
      vertex 16.8 3.425 0
    endloop
  endfacet
  facet normal 1 0 0
    outer loop
      vertex 16.8 8.04 13.65
      vertex 16.8 2.155 0
      vertex 16.8 2.925 0
    endloop
  endfacet
  facet normal 1 0 0
    outer loop
      vertex 16.8 8.04 13.65
      vertex 16.8 1.655 0
      vertex 16.8 2.155 0
    endloop
  endfacet
  facet normal 1 0 0
    outer loop
      vertex 16.8 8.04 13.65
      vertex 16.8 0.884999 0
      vertex 16.8 1.655 0
    endloop
  endfacet
  facet normal 1 0 0
    outer loop
      vertex 16.8 8.04 13.65
      vertex 16.8 0.384999 0
      vertex 16.8 0.884999 0
    endloop
  endfacet
  facet normal 1 0 0
    outer loop
      vertex 16.8 8.04 13.65
      vertex 16.8 -0.384999 0
      vertex 16.8 0.384999 0
    endloop
  endfacet
  facet normal 1 -0 0
    outer loop
      vertex 16.8 -8.04 13.65
      vertex 16.8 -0.384999 0
      vertex 16.8 8.04 13.65
    endloop
  endfacet
  facet normal 1 0 0
    outer loop
      vertex 16.8 -0.384999 0
      vertex 16.8 -8.04 13.65
      vertex 16.8 -0.884999 0
    endloop
  endfacet
  facet normal 1 0 0
    outer loop
      vertex 16.8 -0.884999 0
      vertex 16.8 -8.04 13.65
      vertex 16.8 -1.655 0
    endloop
  endfacet
  facet normal 1 0 0
    outer loop
      vertex 16.8 -1.655 0
      vertex 16.8 -8.04 13.65
      vertex 16.8 -2.155 0
    endloop
  endfacet
  facet normal 1 0 0
    outer loop
      vertex 16.8 -2.155 0
      vertex 16.8 -8.04 13.65
      vertex 16.8 -2.925 0
    endloop
  endfacet
  facet normal 1 0 0
    outer loop
      vertex 16.8 -2.925 0
      vertex 16.8 -8.04 13.65
      vertex 16.8 -3.425 0
    endloop
  endfacet
  facet normal 1 0 0
    outer loop
      vertex 16.8 -3.425 0
      vertex 16.8 -8.04 13.65
      vertex 16.8 -4.195 0
    endloop
  endfacet
  facet normal 1 0 0
    outer loop
      vertex 16.8 -4.195 0
      vertex 16.8 -8.04 13.65
      vertex 16.8 -4.695 0
    endloop
  endfacet
  facet normal 1 0 0
    outer loop
      vertex 16.8 -4.695 0
      vertex 16.8 -8.04 13.65
      vertex 16.8 -5.465 0
    endloop
  endfacet
  facet normal 1 0 0
    outer loop
      vertex 16.8 -5.465 0
      vertex 16.8 -8.04 13.65
      vertex 16.8 -5.965 0
    endloop
  endfacet
  facet normal 1 0 0
    outer loop
      vertex 16.8 -5.965 0
      vertex 16.8 -8.04 13.65
      vertex 16.8 -8.04 0
    endloop
  endfacet
  facet normal -0 0 1
    outer loop
      vertex -6.25 8.04 13.65
      vertex 16.8 -8.04 13.65
      vertex 16.8 8.04 13.65
    endloop
  endfacet
  facet normal 0 0 1
    outer loop
      vertex 16.8 -8.04 13.65
      vertex -6.25 8.04 13.65
      vertex -6.25 -8.04 13.65
    endloop
  endfacet
  facet normal -1 0 0
    outer loop
      vertex -6.25 -3.05 8.6505
      vertex -6.25 -4 9.5
      vertex -6.25 -3.05 10.155
    endloop
  endfacet
  facet normal -1 0 0
    outer loop
      vertex -6.25 -5.8 8.6505
      vertex -6.25 -4 9.5
      vertex -6.25 -3.05 8.6505
    endloop
  endfacet
  facet normal -1 -0 0
    outer loop
      vertex -6.25 -4 9.5
      vertex -6.25 -5.8 8.6505
      vertex -6.25 -7 9.5
    endloop
  endfacet
  facet normal -1 0 0
    outer loop
      vertex -6.25 -1.625 10.155
      vertex -6.25 -3.05 10.155
      vertex -6.25 -1.625 11.155
    endloop
  endfacet
  facet normal -1 0 0
    outer loop
      vertex -6.25 8.04 0
      vertex -6.25 7 9.5
      vertex -6.25 8.04 13.65
    endloop
  endfacet
  facet normal -1 0 0
    outer loop
      vertex -6.25 8.04 0
      vertex -6.25 5.8 2.4995
      vertex -6.25 7 9.5
    endloop
  endfacet
  facet normal -1 0 0
    outer loop
      vertex -6.25 8.04 0
      vertex -6.25 -5.8 2.4995
      vertex -6.25 5.8 2.4995
    endloop
  endfacet
  facet normal -1 0 0
    outer loop
      vertex -6.25 -5.8 2.4995
      vertex -6.25 -7 9.5
      vertex -6.25 -5.8 8.6505
    endloop
  endfacet
  facet normal -1 0 0
    outer loop
      vertex -6.25 -8.04 13.65
      vertex -6.25 -7 9.5
      vertex -6.25 -8.04 0
    endloop
  endfacet
  facet normal -1 -0 0
    outer loop
      vertex -6.25 -5.8 2.4995
      vertex -6.25 -8.04 0
      vertex -6.25 -7 9.5
    endloop
  endfacet
  facet normal -1 0 0
    outer loop
      vertex -6.25 -8.04 0
      vertex -6.25 -5.8 2.4995
      vertex -6.25 8.04 0
    endloop
  endfacet
  facet normal -1 0 0
    outer loop
      vertex -6.25 7 11.5
      vertex -6.25 8.04 13.65
      vertex -6.25 7 9.5
    endloop
  endfacet
  facet normal -1 0 0
    outer loop
      vertex -6.25 4 11.5
      vertex -6.25 8.04 13.65
      vertex -6.25 7 11.5
    endloop
  endfacet
  facet normal -1 0 0
    outer loop
      vertex -6.25 4 9.5
      vertex -6.25 3.05 10.155
      vertex -6.25 4 11.5
    endloop
  endfacet
  facet normal -1 0 0
    outer loop
      vertex -6.25 1.625 11.155
      vertex -6.25 3.05 10.155
      vertex -6.25 1.625 10.155
    endloop
  endfacet
  facet normal -1 0 0
    outer loop
      vertex -6.25 3.05 10.155
      vertex -6.25 1.625 11.155
      vertex -6.25 4 11.5
    endloop
  endfacet
  facet normal -1 0 0
    outer loop
      vertex -6.25 1.625 11.155
      vertex -6.25 8.04 13.65
      vertex -6.25 4 11.5
    endloop
  endfacet
  facet normal -1 0 0
    outer loop
      vertex -6.25 -1.625 11.155
      vertex -6.25 8.04 13.65
      vertex -6.25 1.625 11.155
    endloop
  endfacet
  facet normal -1 0 0
    outer loop
      vertex -6.25 -4 11.5
      vertex -6.25 -3.05 10.155
      vertex -6.25 -4 9.5
    endloop
  endfacet
  facet normal -1 0 0
    outer loop
      vertex -6.25 -3.05 10.155
      vertex -6.25 -4 11.5
      vertex -6.25 -1.625 11.155
    endloop
  endfacet
  facet normal -1 0 0
    outer loop
      vertex -6.25 -8.04 13.65
      vertex -6.25 -1.625 11.155
      vertex -6.25 -4 11.5
    endloop
  endfacet
  facet normal -1 0 0
    outer loop
      vertex -6.25 -8.04 13.65
      vertex -6.25 -4 11.5
      vertex -6.25 -7 11.5
    endloop
  endfacet
  facet normal -1 0 0
    outer loop
      vertex -6.25 -1.625 11.155
      vertex -6.25 -8.04 13.65
      vertex -6.25 8.04 13.65
    endloop
  endfacet
  facet normal -1 0 0
    outer loop
      vertex -6.25 -7 9.5
      vertex -6.25 -8.04 13.65
      vertex -6.25 -7 11.5
    endloop
  endfacet
  facet normal -1 0 0
    outer loop
      vertex -6.25 5.8 8.6505
      vertex -6.25 7 9.5
      vertex -6.25 5.8 2.4995
    endloop
  endfacet
  facet normal -1 0 0
    outer loop
      vertex -6.25 5.8 8.6505
      vertex -6.25 4 9.5
      vertex -6.25 7 9.5
    endloop
  endfacet
  facet normal -1 0 0
    outer loop
      vertex -6.25 3.05 10.155
      vertex -6.25 4 9.5
      vertex -6.25 3.05 8.6505
    endloop
  endfacet
  facet normal -1 0 0
    outer loop
      vertex -6.25 3.05 8.6505
      vertex -6.25 4 9.5
      vertex -6.25 5.8 8.6505
    endloop
  endfacet
  facet normal 0 1 -0
    outer loop
      vertex 2.3 8.04 -0.299999
      vertex -2.3 8.04 0
      vertex 2.3 8.04 0
    endloop
  endfacet
  facet normal 0 1 0
    outer loop
      vertex -2.3 8.04 0
      vertex 2.3 8.04 -0.299999
      vertex -2.3 8.04 -0.299999
    endloop
  endfacet
  facet normal 0 1 0
    outer loop
      vertex 2.3 8.04 0
      vertex 16.8 8.04 13.65
      vertex 16.8 8.04 0
    endloop
  endfacet
  facet normal 0 1 0
    outer loop
      vertex 16.8 8.04 13.65
      vertex 2.3 8.04 0
      vertex -6.25 8.04 13.65
    endloop
  endfacet
  facet normal 0 1 -0
    outer loop
      vertex -2.3 8.04 0
      vertex -6.25 8.04 13.65
      vertex 2.3 8.04 0
    endloop
  endfacet
  facet normal 0 1 0
    outer loop
      vertex -6.25 8.04 13.65
      vertex -2.3 8.04 0
      vertex -6.25 8.04 0
    endloop
  endfacet
  facet normal 0 -1 0
    outer loop
      vertex -2.3 -8.04 -0.299999
      vertex 2.3 -8.04 0
      vertex -2.3 -8.04 0
    endloop
  endfacet
  facet normal 0 -1 -0
    outer loop
      vertex 2.3 -8.04 0
      vertex -2.3 -8.04 -0.299999
      vertex 2.3 -8.04 -0.299999
    endloop
  endfacet
  facet normal 0 -1 0
    outer loop
      vertex -2.3 -8.04 0
      vertex -6.25 -8.04 13.65
      vertex -6.25 -8.04 0
    endloop
  endfacet
  facet normal 0 -1 0
    outer loop
      vertex 2.3 -8.04 0
      vertex -6.25 -8.04 13.65
      vertex -2.3 -8.04 0
    endloop
  endfacet
  facet normal 0 -1 0
    outer loop
      vertex -6.25 -8.04 13.65
      vertex 2.3 -8.04 0
      vertex 16.8 -8.04 13.65
    endloop
  endfacet
  facet normal 0 -1 -0
    outer loop
      vertex 16.8 -8.04 13.65
      vertex 2.3 -8.04 0
      vertex 16.8 -8.04 0
    endloop
  endfacet
  facet normal 1 -0 0
    outer loop
      vertex 2.3 4.78 0
      vertex 2.3 8.04 -0.299999
      vertex 2.3 8.04 0
    endloop
  endfacet
  facet normal 1 0 0
    outer loop
      vertex 2.3 8.04 -0.299999
      vertex 2.3 4.78 0
      vertex 2.3 4.78 -0.299999
    endloop
  endfacet
  facet normal 0 0 -1
    outer loop
      vertex -2.3 4.78 -0.299999
      vertex 2.3 8.04 -0.299999
      vertex 2.3 4.78 -0.299999
    endloop
  endfacet
  facet normal -0 0 -1
    outer loop
      vertex 2.3 8.04 -0.299999
      vertex -2.3 4.78 -0.299999
      vertex -2.3 8.04 -0.299999
    endloop
  endfacet
  facet normal -1 0 0
    outer loop
      vertex -2.3 4.78 -0.299999
      vertex -2.3 8.04 0
      vertex -2.3 8.04 -0.299999
    endloop
  endfacet
  facet normal -1 -0 0
    outer loop
      vertex -2.3 8.04 0
      vertex -2.3 4.78 -0.299999
      vertex -2.3 4.78 0
    endloop
  endfacet
  facet normal 0 -1 0
    outer loop
      vertex -2.3 4.78 -0.299999
      vertex 2.3 4.78 0
      vertex -2.3 4.78 0
    endloop
  endfacet
  facet normal 0 -1 -0
    outer loop
      vertex 2.3 4.78 0
      vertex -2.3 4.78 -0.299999
      vertex 2.3 4.78 -0.299999
    endloop
  endfacet
  facet normal 1 -0 0
    outer loop
      vertex 2.3 -8.04 0
      vertex 2.3 -4.78 -0.299999
      vertex 2.3 -4.78 0
    endloop
  endfacet
  facet normal 1 0 0
    outer loop
      vertex 2.3 -4.78 -0.299999
      vertex 2.3 -8.04 0
      vertex 2.3 -8.04 -0.299999
    endloop
  endfacet
  facet normal 0 0 -1
    outer loop
      vertex -2.3 -8.04 -0.299999
      vertex 2.3 -4.78 -0.299999
      vertex 2.3 -8.04 -0.299999
    endloop
  endfacet
  facet normal -0 0 -1
    outer loop
      vertex 2.3 -4.78 -0.299999
      vertex -2.3 -8.04 -0.299999
      vertex -2.3 -4.78 -0.299999
    endloop
  endfacet
  facet normal -1 0 0
    outer loop
      vertex -2.3 -8.04 -0.299999
      vertex -2.3 -4.78 0
      vertex -2.3 -4.78 -0.299999
    endloop
  endfacet
  facet normal -1 -0 0
    outer loop
      vertex -2.3 -4.78 0
      vertex -2.3 -8.04 -0.299999
      vertex -2.3 -8.04 0
    endloop
  endfacet
  facet normal 0 1 -0
    outer loop
      vertex 2.3 -4.78 -0.299999
      vertex -2.3 -4.78 0
      vertex 2.3 -4.78 0
    endloop
  endfacet
  facet normal 0 1 0
    outer loop
      vertex -2.3 -4.78 0
      vertex 2.3 -4.78 -0.299999
      vertex -2.3 -4.78 -0.299999
    endloop
  endfacet
  facet normal -0 0 1
    outer loop
      vertex -6.5 7 11.5
      vertex -6.25 4 11.5
      vertex -6.25 7 11.5
    endloop
  endfacet
  facet normal 0 0 1
    outer loop
      vertex -6.25 4 11.5
      vertex -6.5 7 11.5
      vertex -6.5 4 11.5
    endloop
  endfacet
  facet normal 0 0 -1
    outer loop
      vertex -6.5 4 9.5
      vertex -6.25 7 9.5
      vertex -6.25 4 9.5
    endloop
  endfacet
  facet normal -0 0 -1
    outer loop
      vertex -6.25 7 9.5
      vertex -6.5 4 9.5
      vertex -6.5 7 9.5
    endloop
  endfacet
  facet normal -1 0 0
    outer loop
      vertex -6.5 4 9.5
      vertex -6.5 7 11.5
      vertex -6.5 7 9.5
    endloop
  endfacet
  facet normal -1 -0 0
    outer loop
      vertex -6.5 7 11.5
      vertex -6.5 4 9.5
      vertex -6.5 4 11.5
    endloop
  endfacet
  facet normal 0 1 -0
    outer loop
      vertex -6.25 7 9.5
      vertex -6.5 7 11.5
      vertex -6.25 7 11.5
    endloop
  endfacet
  facet normal 0 1 0
    outer loop
      vertex -6.5 7 11.5
      vertex -6.25 7 9.5
      vertex -6.5 7 9.5
    endloop
  endfacet
  facet normal 0 -1 0
    outer loop
      vertex -6.5 4 9.5
      vertex -6.25 4 11.5
      vertex -6.5 4 11.5
    endloop
  endfacet
  facet normal 0 -1 -0
    outer loop
      vertex -6.25 4 11.5
      vertex -6.5 4 9.5
      vertex -6.25 4 9.5
    endloop
  endfacet
  facet normal -0 0 1
    outer loop
      vertex -6.5 -4 11.5
      vertex -6.25 -7 11.5
      vertex -6.25 -4 11.5
    endloop
  endfacet
  facet normal 0 0 1
    outer loop
      vertex -6.25 -7 11.5
      vertex -6.5 -4 11.5
      vertex -6.5 -7 11.5
    endloop
  endfacet
  facet normal 0 0 -1
    outer loop
      vertex -6.5 -7 9.5
      vertex -6.25 -4 9.5
      vertex -6.25 -7 9.5
    endloop
  endfacet
  facet normal -0 0 -1
    outer loop
      vertex -6.25 -4 9.5
      vertex -6.5 -7 9.5
      vertex -6.5 -4 9.5
    endloop
  endfacet
  facet normal -1 0 0
    outer loop
      vertex -6.5 -7 9.5
      vertex -6.5 -4 11.5
      vertex -6.5 -4 9.5
    endloop
  endfacet
  facet normal -1 -0 0
    outer loop
      vertex -6.5 -4 11.5
      vertex -6.5 -7 9.5
      vertex -6.5 -7 11.5
    endloop
  endfacet
  facet normal 0 1 -0
    outer loop
      vertex -6.25 -4 9.5
      vertex -6.5 -4 11.5
      vertex -6.25 -4 11.5
    endloop
  endfacet
  facet normal 0 1 0
    outer loop
      vertex -6.5 -4 11.5
      vertex -6.25 -4 9.5
      vertex -6.5 -4 9.5
    endloop
  endfacet
  facet normal 0 -1 0
    outer loop
      vertex -6.5 -7 9.5
      vertex -6.25 -7 11.5
      vertex -6.5 -7 11.5
    endloop
  endfacet
  facet normal 0 -1 -0
    outer loop
      vertex -6.25 -7 11.5
      vertex -6.5 -7 9.5
      vertex -6.25 -7 9.5
    endloop
  endfacet
  facet normal -1 0 0
    outer loop
      vertex 5.16 5.8 2.4995
      vertex 5.16 3.05 8.6505
      vertex 5.16 5.8 8.6505
    endloop
  endfacet
  facet normal -1 0 0
    outer loop
      vertex 5.16 3.05 8.6505
      vertex 5.16 1.625 10.155
      vertex 5.16 3.05 10.155
    endloop
  endfacet
  facet normal -1 0 0
    outer loop
      vertex 5.16 -3.05 8.6505
      vertex 5.16 3.05 8.6505
      vertex 5.16 5.8 2.4995
    endloop
  endfacet
  facet normal -1 0 0
    outer loop
      vertex 5.16 1.625 10.155
      vertex 5.16 -1.625 10.155
      vertex 5.16 1.625 11.155
    endloop
  endfacet
  facet normal -1 0 0
    outer loop
      vertex 5.16 3.05 8.6505
      vertex 5.16 -3.05 8.6505
      vertex 5.16 1.625 10.155
    endloop
  endfacet
  facet normal -1 -0 0
    outer loop
      vertex 5.16 1.625 10.155
      vertex 5.16 -3.05 8.6505
      vertex 5.16 -1.625 10.155
    endloop
  endfacet
  facet normal -1 0 0
    outer loop
      vertex 5.16 -5.8 2.4995
      vertex 5.16 -3.05 8.6505
      vertex 5.16 5.8 2.4995
    endloop
  endfacet
  facet normal -1 -0 0
    outer loop
      vertex 5.16 -3.05 8.6505
      vertex 5.16 -5.8 2.4995
      vertex 5.16 -5.8 8.6505
    endloop
  endfacet
  facet normal -1 -0 0
    outer loop
      vertex 5.16 1.625 11.155
      vertex 5.16 -1.625 10.155
      vertex 5.16 -1.625 11.155
    endloop
  endfacet
  facet normal -1 -0 0
    outer loop
      vertex 5.16 -1.625 10.155
      vertex 5.16 -3.05 8.6505
      vertex 5.16 -3.05 10.155
    endloop
  endfacet
  facet normal 0 0 -1
    outer loop
      vertex -6.25 3.05 8.6505
      vertex 5.16 5.8 8.6505
      vertex 5.16 3.05 8.6505
    endloop
  endfacet
  facet normal -0 0 -1
    outer loop
      vertex 5.16 5.8 8.6505
      vertex -6.25 3.05 8.6505
      vertex -6.25 5.8 8.6505
    endloop
  endfacet
  facet normal 0 0 -1
    outer loop
      vertex -6.25 -5.8 8.6505
      vertex 5.16 -3.05 8.6505
      vertex 5.16 -5.8 8.6505
    endloop
  endfacet
  facet normal -0 0 -1
    outer loop
      vertex 5.16 -3.05 8.6505
      vertex -6.25 -5.8 8.6505
      vertex -6.25 -3.05 8.6505
    endloop
  endfacet
  facet normal -0 0 1
    outer loop
      vertex -6.25 5.8 2.4995
      vertex 5.16 -5.8 2.4995
      vertex 5.16 5.8 2.4995
    endloop
  endfacet
  facet normal 0 0 1
    outer loop
      vertex 5.16 -5.8 2.4995
      vertex -6.25 5.8 2.4995
      vertex -6.25 -5.8 2.4995
    endloop
  endfacet
  facet normal 0 -1 0
    outer loop
      vertex -6.25 5.8 2.4995
      vertex 5.16 5.8 8.6505
      vertex -6.25 5.8 8.6505
    endloop
  endfacet
  facet normal 0 -1 -0
    outer loop
      vertex 5.16 5.8 8.6505
      vertex -6.25 5.8 2.4995
      vertex 5.16 5.8 2.4995
    endloop
  endfacet
  facet normal 0 1 -0
    outer loop
      vertex 5.16 -5.8 2.4995
      vertex -6.25 -5.8 8.6505
      vertex 5.16 -5.8 8.6505
    endloop
  endfacet
  facet normal 0 1 0
    outer loop
      vertex -6.25 -5.8 8.6505
      vertex 5.16 -5.8 2.4995
      vertex -6.25 -5.8 2.4995
    endloop
  endfacet
  facet normal 0 0 -1
    outer loop
      vertex -6.25 1.625 10.155
      vertex 5.16 3.05 10.155
      vertex 5.16 1.625 10.155
    endloop
  endfacet
  facet normal -0 0 -1
    outer loop
      vertex 5.16 3.05 10.155
      vertex -6.25 1.625 10.155
      vertex -6.25 3.05 10.155
    endloop
  endfacet
  facet normal 0 0 -1
    outer loop
      vertex -6.25 -3.05 10.155
      vertex 5.16 -1.625 10.155
      vertex 5.16 -3.05 10.155
    endloop
  endfacet
  facet normal -0 0 -1
    outer loop
      vertex 5.16 -1.625 10.155
      vertex -6.25 -3.05 10.155
      vertex -6.25 -1.625 10.155
    endloop
  endfacet
  facet normal 0 -1 0
    outer loop
      vertex -6.25 3.05 8.6505
      vertex 5.16 3.05 10.155
      vertex -6.25 3.05 10.155
    endloop
  endfacet
  facet normal 0 -1 -0
    outer loop
      vertex 5.16 3.05 10.155
      vertex -6.25 3.05 8.6505
      vertex 5.16 3.05 8.6505
    endloop
  endfacet
  facet normal 0 1 -0
    outer loop
      vertex 5.16 -3.05 8.6505
      vertex -6.25 -3.05 10.155
      vertex 5.16 -3.05 10.155
    endloop
  endfacet
  facet normal 0 1 0
    outer loop
      vertex -6.25 -3.05 10.155
      vertex 5.16 -3.05 8.6505
      vertex -6.25 -3.05 8.6505
    endloop
  endfacet
  facet normal 0 0 -1
    outer loop
      vertex -6.25 -1.625 11.155
      vertex 5.16 1.625 11.155
      vertex 5.16 -1.625 11.155
    endloop
  endfacet
  facet normal -0 0 -1
    outer loop
      vertex 5.16 1.625 11.155
      vertex -6.25 -1.625 11.155
      vertex -6.25 1.625 11.155
    endloop
  endfacet
  facet normal 0 -1 0
    outer loop
      vertex -6.25 1.625 10.155
      vertex 5.16 1.625 11.155
      vertex -6.25 1.625 11.155
    endloop
  endfacet
  facet normal 0 -1 -0
    outer loop
      vertex 5.16 1.625 11.155
      vertex -6.25 1.625 10.155
      vertex 5.16 1.625 10.155
    endloop
  endfacet
  facet normal 0 1 -0
    outer loop
      vertex 5.16 -1.625 10.155
      vertex -6.25 -1.625 11.155
      vertex 5.16 -1.625 11.155
    endloop
  endfacet
  facet normal 0 1 0
    outer loop
      vertex -6.25 -1.625 11.155
      vertex 5.16 -1.625 10.155
      vertex -6.25 -1.625 10.155
    endloop
  endfacet
endsolid OpenSCAD_Model
