G04 #@! TF.GenerationSoftware,KiCad,Pcbnew,7.0.10*
G04 #@! TF.CreationDate,2024-04-11T11:30:37+02:00*
G04 #@! TF.ProjectId,OtterCastAudioV2,4f747465-7243-4617-9374-417564696f56,rev?*
G04 #@! TF.SameCoordinates,Original*
G04 #@! TF.FileFunction,Copper,L3,Inr*
G04 #@! TF.FilePolarity,Positive*
%FSLAX46Y46*%
G04 Gerber Fmt 4.6, Leading zero omitted, Abs format (unit mm)*
G04 Created by KiCad (PCBNEW 7.0.10) date 2024-04-11 11:30:37*
%MOMM*%
%LPD*%
G01*
G04 APERTURE LIST*
G04 Aperture macros list*
%AMHorizOval*
0 Thick line with rounded ends*
0 $1 width*
0 $2 $3 position (X,Y) of the first rounded end (center of the circle)*
0 $4 $5 position (X,Y) of the second rounded end (center of the circle)*
0 Add line between two ends*
20,1,$1,$2,$3,$4,$5,0*
0 Add two circle primitives to create the rounded ends*
1,1,$1,$2,$3*
1,1,$1,$4,$5*%
%AMRotRect*
0 Rectangle, with rotation*
0 The origin of the aperture is its center*
0 $1 length*
0 $2 width*
0 $3 Rotation angle, in degrees counterclockwise*
0 Add horizontal line*
21,1,$1,$2,0,0,$3*%
G04 Aperture macros list end*
G04 #@! TA.AperFunction,ComponentPad*
%ADD10RotRect,1.350000X1.350000X134.500000*%
G04 #@! TD*
G04 #@! TA.AperFunction,ComponentPad*
%ADD11HorizOval,1.350000X0.000000X0.000000X0.000000X0.000000X0*%
G04 #@! TD*
G04 #@! TA.AperFunction,ComponentPad*
%ADD12O,1.000000X1.600000*%
G04 #@! TD*
G04 #@! TA.AperFunction,ComponentPad*
%ADD13O,1.000000X2.100000*%
G04 #@! TD*
G04 #@! TA.AperFunction,ComponentPad*
%ADD14R,1.350000X1.350000*%
G04 #@! TD*
G04 #@! TA.AperFunction,ComponentPad*
%ADD15O,1.350000X1.350000*%
G04 #@! TD*
G04 #@! TA.AperFunction,ComponentPad*
%ADD16O,1.200000X2.000000*%
G04 #@! TD*
G04 #@! TA.AperFunction,ViaPad*
%ADD17C,0.600000*%
G04 #@! TD*
G04 #@! TA.AperFunction,ViaPad*
%ADD18C,0.450000*%
G04 #@! TD*
G04 #@! TA.AperFunction,Conductor*
%ADD19C,0.300000*%
G04 #@! TD*
G04 #@! TA.AperFunction,Conductor*
%ADD20C,0.127000*%
G04 #@! TD*
G04 #@! TA.AperFunction,Conductor*
%ADD21C,0.500000*%
G04 #@! TD*
G04 APERTURE END LIST*
D10*
X81510249Y-84902728D03*
D11*
X82936750Y-83500909D03*
X84363250Y-82099091D03*
X85789751Y-80697272D03*
D12*
X104320000Y-121895000D03*
D13*
X104320000Y-117715000D03*
D12*
X95680000Y-121895000D03*
D13*
X95680000Y-117715000D03*
D14*
X103000000Y-113400000D03*
D15*
X101000000Y-113400000D03*
X99000000Y-113400000D03*
X97000000Y-113400000D03*
D16*
X88580000Y-87650000D03*
X88580000Y-80950000D03*
X93420000Y-80050000D03*
X93420000Y-83650000D03*
X93200000Y-89350000D03*
X97580000Y-84600000D03*
X97580000Y-77900000D03*
X102420000Y-77000000D03*
X102420000Y-80600000D03*
X102200000Y-86300000D03*
X106580000Y-87650000D03*
X106580000Y-80950000D03*
X111420000Y-80050000D03*
X111420000Y-83650000D03*
X111200000Y-89350000D03*
D17*
X92800000Y-117050000D03*
D18*
X91600000Y-117050000D03*
X92800000Y-118250000D03*
D17*
X109440000Y-102650000D03*
X122440000Y-96850000D03*
X123440000Y-96150000D03*
X122440000Y-96150000D03*
X123440000Y-96850000D03*
X113000000Y-90500000D03*
X111700000Y-108800000D03*
X112700000Y-108800000D03*
X113700000Y-108800000D03*
X110700000Y-109800000D03*
X111700000Y-109800000D03*
X112700000Y-109800000D03*
X113700000Y-109800000D03*
X110700000Y-110800000D03*
X111700000Y-110800000D03*
X112700000Y-110800000D03*
X113700000Y-110800000D03*
X110700000Y-111800000D03*
X111700000Y-111800000D03*
X112700000Y-111800000D03*
X113700000Y-111800000D03*
X105150000Y-103750000D03*
X105150000Y-103050000D03*
D18*
X102880000Y-100614490D03*
D17*
X93600000Y-113500000D03*
X105600000Y-118300000D03*
X84600000Y-102600000D03*
X75825000Y-102050000D03*
X114000000Y-116900000D03*
D18*
X94250000Y-100950000D03*
D17*
X107200000Y-118250000D03*
X86000000Y-108000000D03*
D18*
X104180000Y-97370000D03*
X102850000Y-106590002D03*
X97679937Y-98789907D03*
D17*
X88700000Y-116600000D03*
X120450000Y-105500000D03*
X80220000Y-108970000D03*
X112200000Y-97700000D03*
X111450000Y-98150000D03*
X82025000Y-96525000D03*
D18*
X94237500Y-99637500D03*
D17*
X123500000Y-105520000D03*
D18*
X88750000Y-104000000D03*
D17*
X82825000Y-101150000D03*
D18*
X77275000Y-91900000D03*
D17*
X86500000Y-118600000D03*
D18*
X106920000Y-96930000D03*
X98150000Y-100070000D03*
D17*
X80875000Y-102125000D03*
X116500000Y-104000000D03*
D18*
X94273510Y-102262224D03*
D17*
X81150000Y-105200000D03*
X81150000Y-105950000D03*
X92700000Y-110500000D03*
X84675000Y-103850000D03*
D18*
X98670000Y-101720000D03*
D17*
X105225000Y-100660010D03*
D18*
X76800000Y-92950000D03*
D17*
X78020000Y-110970000D03*
X79175000Y-102125000D03*
X104350000Y-115425000D03*
X89300000Y-112000000D03*
X84600000Y-101350000D03*
X90800000Y-111800000D03*
X76900000Y-105825000D03*
D18*
X81600000Y-93050000D03*
X95562500Y-100312500D03*
D17*
X111950000Y-103850000D03*
D18*
X93636300Y-103548572D03*
D17*
X114900000Y-104675000D03*
D18*
X102214998Y-105125000D03*
D17*
X110700000Y-108800000D03*
D18*
X96189507Y-101873671D03*
D17*
X93700000Y-119000000D03*
X83725000Y-100200000D03*
X87875000Y-103675000D03*
D18*
X77300000Y-92950000D03*
D17*
X118000000Y-115000000D03*
X111950000Y-102850000D03*
X101584262Y-95057166D03*
D18*
X91400000Y-100749994D03*
D17*
X101380000Y-115060000D03*
X109200000Y-116150000D03*
X90500000Y-119700000D03*
D18*
X90139998Y-94500000D03*
D17*
X121250000Y-108500000D03*
X111950000Y-104850000D03*
X78250000Y-105350000D03*
D18*
X116625000Y-91675000D03*
D17*
X115000000Y-118550000D03*
X112500000Y-119000000D03*
X101370000Y-118990000D03*
X119000000Y-114000000D03*
X92700000Y-109200000D03*
X116400000Y-117850000D03*
X84825000Y-97275000D03*
X108400000Y-118250000D03*
X121500000Y-105500000D03*
X97300000Y-114500000D03*
D18*
X96195000Y-103555000D03*
D17*
X87850000Y-102075000D03*
X91130000Y-120050000D03*
D18*
X96550000Y-111000000D03*
X97325000Y-104200000D03*
D17*
X97400000Y-112100000D03*
X120500000Y-107500000D03*
X93100000Y-115600000D03*
X116450000Y-113950000D03*
X83800000Y-96425000D03*
X100700000Y-111650000D03*
D18*
X109800000Y-104850000D03*
D17*
X107050000Y-103300000D03*
X121250000Y-110500000D03*
X76890000Y-104755000D03*
D18*
X87825000Y-98800000D03*
D17*
X87925000Y-100450000D03*
X98300000Y-114500000D03*
D18*
X96600000Y-109200000D03*
D17*
X85400000Y-119600000D03*
D18*
X116625000Y-92925000D03*
D17*
X122500000Y-105500000D03*
X90400000Y-118700000D03*
D18*
X85200000Y-91250000D03*
D17*
X116450000Y-113050000D03*
X107000000Y-90810010D03*
D18*
X94368662Y-97581499D03*
D17*
X96000000Y-114900000D03*
X109200000Y-113250000D03*
X105225000Y-101350000D03*
X105300000Y-106190000D03*
X107300000Y-113300000D03*
X79350000Y-95325000D03*
X109900000Y-103300000D03*
D18*
X81600000Y-92400000D03*
D17*
X111550000Y-102050000D03*
D18*
X95200000Y-93400000D03*
X87825000Y-97450000D03*
D17*
X111550000Y-101350000D03*
X109200000Y-116950000D03*
X90400000Y-110200000D03*
X108950000Y-103300000D03*
X88400000Y-107800000D03*
X90790000Y-120610000D03*
D18*
X93658827Y-98378510D03*
D17*
X92400000Y-121100000D03*
X79120000Y-109970000D03*
X98640000Y-118970000D03*
X105600000Y-117200000D03*
X110000000Y-116700000D03*
X107925002Y-90810010D03*
D18*
X96298074Y-99753639D03*
X97580000Y-102330000D03*
D17*
X117700000Y-116800000D03*
X112500000Y-117450000D03*
D18*
X109100000Y-104850000D03*
X92700000Y-94175000D03*
X108500000Y-105150000D03*
D17*
X117890020Y-105325000D03*
D18*
X97210000Y-108290000D03*
D17*
X121250000Y-111500000D03*
D18*
X111050000Y-105700000D03*
X103480000Y-99414490D03*
D17*
X81150000Y-95400000D03*
D18*
X95900000Y-93800000D03*
D17*
X112500000Y-118250000D03*
X96820000Y-119120000D03*
X113675000Y-115350000D03*
D18*
X102149702Y-102227843D03*
X90560000Y-102965022D03*
D17*
X107200000Y-117050000D03*
D18*
X81100000Y-92700000D03*
D17*
X114400000Y-117900000D03*
D18*
X89350000Y-104000000D03*
D17*
X92100000Y-119000000D03*
D18*
X95537500Y-99637500D03*
D17*
X87600000Y-117600000D03*
D18*
X100100000Y-101050000D03*
D17*
X100600000Y-108426490D03*
X108400000Y-117050000D03*
X96800000Y-115980000D03*
X120500000Y-106500000D03*
X115750000Y-104675000D03*
D18*
X89040000Y-93790000D03*
D17*
X81320000Y-107970000D03*
D18*
X88630000Y-99375000D03*
D17*
X105300000Y-105150000D03*
X118000000Y-114000000D03*
D18*
X89975000Y-104025000D03*
X110350000Y-115225000D03*
D17*
X109200000Y-117800000D03*
X110350000Y-118200000D03*
D18*
X94550000Y-108800000D03*
D17*
X98600000Y-111600000D03*
X121250000Y-109500000D03*
X113400000Y-89725000D03*
X78250000Y-104300000D03*
X105100000Y-116200000D03*
X107250000Y-107300000D03*
X120000000Y-114000000D03*
X111800000Y-115350000D03*
X104600000Y-106190000D03*
X110700000Y-116700000D03*
X113750000Y-118400000D03*
D18*
X97580000Y-107720000D03*
X88570000Y-91830000D03*
D17*
X114050000Y-104675000D03*
X118000000Y-116000000D03*
D18*
X89975000Y-107950000D03*
X99850000Y-107150000D03*
D17*
X100160022Y-94950000D03*
D18*
X88690000Y-97100000D03*
D17*
X105400000Y-107000000D03*
X114700000Y-99039990D03*
X104600000Y-107000000D03*
D18*
X107260000Y-105550000D03*
X79640016Y-89970000D03*
X100800000Y-107100000D03*
X76156253Y-93790854D03*
D17*
X115425000Y-99039990D03*
D18*
X106900000Y-105875000D03*
X105640000Y-95500000D03*
X99325000Y-98875000D03*
X90024555Y-93699110D03*
D17*
X103800000Y-107000000D03*
D18*
X99959664Y-101723471D03*
X90025000Y-93150000D03*
X100249213Y-103027024D03*
X99013971Y-104123940D03*
D17*
X100720000Y-95290000D03*
D18*
X106900000Y-105225000D03*
D17*
X115400000Y-98375000D03*
D18*
X98674997Y-98974997D03*
X107275000Y-106200000D03*
X76490000Y-102180000D03*
X77050000Y-102180000D03*
X92000000Y-115200000D03*
X92000000Y-114000000D03*
D17*
X107800000Y-111650000D03*
X116500000Y-104800000D03*
D18*
X91400000Y-114600000D03*
D17*
X116500000Y-105500000D03*
D18*
X116100000Y-115800000D03*
X114300000Y-115800000D03*
D17*
X108100000Y-107600000D03*
D18*
X90800000Y-114000000D03*
X118950000Y-109350000D03*
X114800000Y-116200000D03*
X118950000Y-108750000D03*
X91400000Y-114000000D03*
X117100000Y-115800000D03*
X116600000Y-116200000D03*
X118950000Y-108150000D03*
X92000000Y-114600000D03*
X115300000Y-115800000D03*
X111650000Y-114075000D03*
X93600002Y-116300000D03*
X91325000Y-115800000D03*
D17*
X107200000Y-121600000D03*
X108400000Y-121600000D03*
X107200000Y-120400000D03*
X108400000Y-120400000D03*
X93600000Y-122000000D03*
X91799996Y-122100000D03*
D18*
X115000000Y-113100000D03*
X99300000Y-108500000D03*
X99975000Y-102375000D03*
X101250000Y-110475000D03*
X117000000Y-107500000D03*
D17*
X108821231Y-102047703D03*
X108326256Y-102542678D03*
X108175000Y-101900000D03*
X118950000Y-96700000D03*
X118950000Y-98100000D03*
X113950000Y-85550000D03*
D18*
X95650000Y-83200000D03*
X95425000Y-112100000D03*
D17*
X113950000Y-86850000D03*
D18*
X96250000Y-112100000D03*
D17*
X118250000Y-98100000D03*
D18*
X107500000Y-104750000D03*
D17*
X113950000Y-86200000D03*
X118250000Y-96700000D03*
D18*
X97956790Y-107256790D03*
X96850000Y-101275000D03*
X95298510Y-102250000D03*
X92925000Y-106275000D03*
X93600000Y-106275000D03*
X94825000Y-106225000D03*
X95550000Y-101275000D03*
X94625000Y-105725000D03*
D17*
X114550000Y-87400000D03*
X120600000Y-92600000D03*
X122900000Y-92700000D03*
X94400000Y-89600000D03*
X94400000Y-87520000D03*
X100400000Y-88400000D03*
X118500000Y-89150000D03*
X121400000Y-92100000D03*
X102500000Y-90000000D03*
X118500000Y-89900000D03*
X114550000Y-88050000D03*
X103600000Y-88600000D03*
X117325000Y-89725000D03*
X99800000Y-87600000D03*
X94200000Y-85700000D03*
X93500000Y-90900000D03*
D18*
X104228213Y-90778207D03*
X103775000Y-92974996D03*
X101350000Y-90975000D03*
X116889990Y-88100000D03*
X117350000Y-87547192D03*
X99400000Y-90950000D03*
X96150000Y-108750000D03*
X96332868Y-102415022D03*
X109765018Y-96325000D03*
X109515002Y-97150000D03*
X115965000Y-110370000D03*
X119975000Y-110750000D03*
X104750000Y-109600000D03*
X104000000Y-109750000D03*
X103450000Y-108250000D03*
X117400000Y-109110000D03*
X116500000Y-110350000D03*
X103950000Y-108250000D03*
X103400000Y-109750000D03*
X84600000Y-85900000D03*
X91900000Y-92800000D03*
X92500000Y-92700000D03*
X87025000Y-83600000D03*
X104410000Y-96750000D03*
X103300000Y-103240000D03*
X97610000Y-103010000D03*
X102880000Y-103660000D03*
X107870000Y-100570000D03*
X98685510Y-103430662D03*
X109399460Y-98021113D03*
X95450000Y-106050000D03*
X109399460Y-98598115D03*
X108450002Y-98611250D03*
X95431512Y-105386161D03*
X106931729Y-97554136D03*
X94781512Y-104963839D03*
X106931729Y-98131138D03*
X94781512Y-104313839D03*
X106005001Y-98024645D03*
X87600000Y-90000000D03*
X93469737Y-102130800D03*
X93080000Y-101070000D03*
X87593210Y-85843210D03*
X101649991Y-100697013D03*
X102125000Y-106825000D03*
X78600000Y-93200000D03*
X78550000Y-92600000D03*
X109225000Y-99450000D03*
X104804974Y-95600000D03*
D17*
X110800000Y-102350000D03*
X110250000Y-101800000D03*
D18*
X96975000Y-95525000D03*
X97609508Y-100409499D03*
X97994847Y-99252989D03*
X97020000Y-98990000D03*
X96177829Y-98750009D03*
X96350000Y-95500000D03*
X98829943Y-101183314D03*
X96550000Y-94225000D03*
X97100000Y-94225000D03*
X97600000Y-95600000D03*
D17*
X110800000Y-101250000D03*
D18*
X91526140Y-105641275D03*
X91470000Y-103358510D03*
X98925077Y-106251490D03*
X91000000Y-92700000D03*
X90625000Y-94010022D03*
X76775002Y-94540000D03*
X98935121Y-104678377D03*
X83875000Y-103875000D03*
X76695002Y-95370000D03*
X83473510Y-104309649D03*
X99981512Y-104313839D03*
X83050000Y-103175000D03*
X76705002Y-96200000D03*
X99602643Y-106037230D03*
X77650000Y-105700000D03*
X83050000Y-103850000D03*
X100631512Y-104963839D03*
X82610521Y-104200000D03*
X78750006Y-107000000D03*
X100351760Y-105656529D03*
X100425000Y-106310003D03*
X82825000Y-106560024D03*
X90500000Y-108300000D03*
X118553204Y-104692608D03*
X113456740Y-106215650D03*
X90325000Y-121300000D03*
X92000000Y-102700000D03*
X91800000Y-82300000D03*
X98217946Y-95663710D03*
X111000000Y-95350000D03*
X105993183Y-96169373D03*
X118450000Y-106550000D03*
X119000000Y-106100000D03*
X111662500Y-95412500D03*
X105220024Y-96700000D03*
X95548507Y-95785876D03*
X118594999Y-94305001D03*
X83007983Y-98580042D03*
X101999813Y-97321824D03*
X76459998Y-100350000D03*
X101300000Y-95625000D03*
X85650000Y-94675000D03*
X87750000Y-96650000D03*
X101285710Y-96938162D03*
X76459998Y-98715000D03*
X83500000Y-98200000D03*
X117324998Y-95024998D03*
X101509506Y-97809497D03*
X118600000Y-95000000D03*
X82800000Y-99100000D03*
X76459998Y-99520000D03*
X102265110Y-98183686D03*
X118600000Y-93600000D03*
X76459998Y-97860000D03*
X102173214Y-96690469D03*
X118200000Y-95400000D03*
X82400000Y-97100000D03*
X82025000Y-95025000D03*
X98850000Y-95655002D03*
X93726490Y-95739479D03*
X82950000Y-95425002D03*
X95125000Y-95419469D03*
X84775000Y-95425000D03*
X87870000Y-92410000D03*
X92390173Y-93349137D03*
X87450000Y-104576490D03*
X92409499Y-104740494D03*
X99990501Y-97590493D03*
X91575000Y-97700000D03*
X98772012Y-107074493D03*
X76464998Y-97030000D03*
X84131878Y-92184999D03*
X99450000Y-95655002D03*
X91498492Y-104776490D03*
X85650000Y-104825000D03*
X93059505Y-103440503D03*
X87450000Y-94500000D03*
X86550000Y-104575000D03*
X91536406Y-103919975D03*
D19*
X91400000Y-100749994D02*
X92300006Y-100749994D01*
D20*
X102490218Y-103460000D02*
X102688719Y-103261499D01*
X102688719Y-103261499D02*
X103278501Y-103261499D01*
X98850000Y-103000000D02*
X99310000Y-103460000D01*
X103278501Y-103261499D02*
X103300000Y-103240000D01*
X97600000Y-103000000D02*
X98850000Y-103000000D01*
X99310000Y-103460000D02*
X102490218Y-103460000D01*
X102840000Y-103700000D02*
X102880000Y-103660000D01*
X98954848Y-103700000D02*
X102840000Y-103700000D01*
X98685510Y-103430662D02*
X98954848Y-103700000D01*
D21*
X105159994Y-94159994D02*
X97190006Y-94159994D01*
X110250000Y-101800000D02*
X107750000Y-99300000D01*
X107750000Y-96750000D02*
X105159994Y-94159994D01*
X110800000Y-101250000D02*
X110250000Y-101800000D01*
X110800000Y-101250000D02*
X110800000Y-102350000D01*
X97190006Y-94159994D02*
X97100000Y-94250000D01*
X107750000Y-99300000D02*
X107750000Y-96750000D01*
X110800000Y-102350000D02*
X110250000Y-101800000D01*
G04 #@! TA.AperFunction,Conductor*
G36*
X89615931Y-90920002D02*
G01*
X89636905Y-90936905D01*
X89763095Y-91063095D01*
X89797121Y-91125407D01*
X89800000Y-91152190D01*
X89800000Y-91700001D01*
X89949998Y-91849999D01*
X89950000Y-91850000D01*
X91997810Y-91850000D01*
X92065931Y-91870002D01*
X92086905Y-91886905D01*
X92380272Y-92180272D01*
X92414298Y-92242584D01*
X92409233Y-92313399D01*
X92366686Y-92370235D01*
X92348381Y-92381633D01*
X92290226Y-92411264D01*
X92290223Y-92411266D01*
X92227799Y-92473690D01*
X92165486Y-92507714D01*
X92094671Y-92502648D01*
X92081503Y-92496860D01*
X92010289Y-92460575D01*
X92010287Y-92460574D01*
X92010286Y-92460574D01*
X91900000Y-92443106D01*
X91789714Y-92460574D01*
X91789712Y-92460574D01*
X91789712Y-92460575D01*
X91690223Y-92511266D01*
X91611268Y-92590221D01*
X91611264Y-92590226D01*
X91580001Y-92651584D01*
X91531253Y-92703199D01*
X91462338Y-92720264D01*
X91395136Y-92697363D01*
X91350984Y-92641765D01*
X91343288Y-92614097D01*
X91339426Y-92589714D01*
X91288733Y-92490223D01*
X91209777Y-92411267D01*
X91209776Y-92411266D01*
X91135841Y-92373595D01*
X91110286Y-92360574D01*
X91000000Y-92343106D01*
X90889714Y-92360574D01*
X90889712Y-92360574D01*
X90889712Y-92360575D01*
X90790223Y-92411266D01*
X90711266Y-92490223D01*
X90664999Y-92581029D01*
X90660574Y-92589714D01*
X90643106Y-92700000D01*
X90660574Y-92810286D01*
X90662785Y-92814625D01*
X90711265Y-92909775D01*
X90711267Y-92909777D01*
X90790223Y-92988733D01*
X90889714Y-93039426D01*
X91000000Y-93056894D01*
X91110286Y-93039426D01*
X91209777Y-92988733D01*
X91288733Y-92909777D01*
X91319997Y-92848416D01*
X91368745Y-92796801D01*
X91437659Y-92779735D01*
X91504861Y-92802635D01*
X91549014Y-92858232D01*
X91556712Y-92885906D01*
X91560573Y-92910285D01*
X91609358Y-93006030D01*
X91611267Y-93009777D01*
X91690223Y-93088733D01*
X91789714Y-93139426D01*
X91900000Y-93156894D01*
X91900001Y-93156893D01*
X91900003Y-93156894D01*
X91909917Y-93156894D01*
X91909917Y-93159139D01*
X91967059Y-93166522D01*
X92021374Y-93212242D01*
X92042349Y-93280070D01*
X92040811Y-93301582D01*
X92033279Y-93349137D01*
X92050747Y-93459423D01*
X92065681Y-93488733D01*
X92100410Y-93556894D01*
X92101440Y-93558914D01*
X92180396Y-93637870D01*
X92279887Y-93688563D01*
X92390173Y-93706031D01*
X92500459Y-93688563D01*
X92599950Y-93637870D01*
X92678906Y-93558914D01*
X92729599Y-93459423D01*
X92747067Y-93349137D01*
X92729599Y-93238851D01*
X92680042Y-93141591D01*
X92666939Y-93071815D01*
X92693639Y-93006030D01*
X92703215Y-92995293D01*
X92709772Y-92988735D01*
X92709777Y-92988733D01*
X92788733Y-92909777D01*
X92839426Y-92810286D01*
X92856894Y-92700000D01*
X92839426Y-92589714D01*
X92788733Y-92490223D01*
X92788732Y-92490222D01*
X92785156Y-92483203D01*
X92772052Y-92413426D01*
X92798752Y-92347641D01*
X92856780Y-92306735D01*
X92897423Y-92300000D01*
X95147810Y-92300000D01*
X95215931Y-92320002D01*
X95236900Y-92336900D01*
X95500000Y-92600000D01*
X96947810Y-92600000D01*
X97015931Y-92620002D01*
X97036905Y-92636905D01*
X97967399Y-93567399D01*
X98001425Y-93629711D01*
X97996360Y-93700526D01*
X97953813Y-93757362D01*
X97887293Y-93782173D01*
X97878304Y-93782494D01*
X97242225Y-93782494D01*
X97216367Y-93779812D01*
X97212974Y-93779100D01*
X97205819Y-93777600D01*
X97174333Y-93781526D01*
X97158747Y-93782494D01*
X97158721Y-93782494D01*
X97138139Y-93785928D01*
X97132991Y-93786678D01*
X97080807Y-93793183D01*
X97080804Y-93793183D01*
X97080803Y-93793184D01*
X97080802Y-93793184D01*
X97073204Y-93795446D01*
X97065736Y-93798010D01*
X97019511Y-93823026D01*
X97014883Y-93825409D01*
X96958240Y-93853101D01*
X96956726Y-93850005D01*
X96906827Y-93867349D01*
X96900665Y-93867500D01*
X96425994Y-93867500D01*
X96397835Y-93870528D01*
X96377679Y-93874912D01*
X96345494Y-93881914D01*
X96345492Y-93881914D01*
X96345491Y-93881915D01*
X96345490Y-93881915D01*
X96286890Y-93911248D01*
X96233233Y-93957741D01*
X96192868Y-94020552D01*
X96172869Y-94088662D01*
X96172867Y-94088669D01*
X96172867Y-94088671D01*
X96168319Y-94120309D01*
X96167500Y-94126003D01*
X96167500Y-95092924D01*
X96147498Y-95161045D01*
X96130595Y-95182019D01*
X95866352Y-95446261D01*
X95865862Y-95446809D01*
X95865712Y-95446901D01*
X95863896Y-95448718D01*
X95863469Y-95448291D01*
X95805507Y-95484196D01*
X95734520Y-95483019D01*
X95714817Y-95474995D01*
X95658793Y-95446450D01*
X95572139Y-95432724D01*
X95507987Y-95402311D01*
X95470461Y-95342043D01*
X95467406Y-95328002D01*
X95464426Y-95309183D01*
X95413733Y-95209692D01*
X95334777Y-95130736D01*
X95334776Y-95130735D01*
X95260566Y-95092924D01*
X95235286Y-95080043D01*
X95125000Y-95062575D01*
X95014714Y-95080043D01*
X95014712Y-95080043D01*
X95014712Y-95080044D01*
X94915223Y-95130735D01*
X94836266Y-95209692D01*
X94791564Y-95297427D01*
X94785574Y-95309183D01*
X94768106Y-95419469D01*
X94785574Y-95529755D01*
X94788394Y-95535289D01*
X94836238Y-95629191D01*
X94836267Y-95629246D01*
X94915223Y-95708202D01*
X95014714Y-95758895D01*
X95101368Y-95772619D01*
X95165518Y-95803032D01*
X95203045Y-95863300D01*
X95206102Y-95877356D01*
X95209080Y-95896161D01*
X95259150Y-95994428D01*
X95259774Y-95995653D01*
X95338730Y-96074609D01*
X95438221Y-96125302D01*
X95548507Y-96142770D01*
X95658793Y-96125302D01*
X95758284Y-96074609D01*
X95837240Y-95995653D01*
X95837242Y-95995647D01*
X95841566Y-95989698D01*
X95897787Y-95946343D01*
X95968523Y-95940266D01*
X96031316Y-95973397D01*
X96031528Y-95973604D01*
X96220563Y-96158701D01*
X96230666Y-96167633D01*
X96230671Y-96167637D01*
X96230679Y-96167644D01*
X96230683Y-96167647D01*
X96250695Y-96183601D01*
X96250698Y-96183603D01*
X96295966Y-96207131D01*
X96295968Y-96207131D01*
X96295971Y-96207133D01*
X96295973Y-96207134D01*
X96353028Y-96223885D01*
X96364087Y-96227133D01*
X96401416Y-96232500D01*
X96401420Y-96232500D01*
X97747819Y-96232500D01*
X97753351Y-96232203D01*
X97761971Y-96231741D01*
X97771084Y-96230761D01*
X97788749Y-96228863D01*
X97788750Y-96228862D01*
X97788754Y-96228862D01*
X97838095Y-96213413D01*
X97900407Y-96179387D01*
X97930597Y-96156787D01*
X97956787Y-96130597D01*
X97966262Y-96120048D01*
X97983165Y-96099074D01*
X97997082Y-96072469D01*
X98046378Y-96021383D01*
X98115471Y-96005056D01*
X98128417Y-96006423D01*
X98217946Y-96020604D01*
X98328232Y-96003136D01*
X98427723Y-95952443D01*
X98449232Y-95930934D01*
X98511544Y-95896908D01*
X98582359Y-95901973D01*
X98627422Y-95930934D01*
X98640223Y-95943735D01*
X98739714Y-95994428D01*
X98850000Y-96011896D01*
X98960286Y-95994428D01*
X99059777Y-95943735D01*
X99060905Y-95942607D01*
X99062610Y-95941675D01*
X99067796Y-95937908D01*
X99068282Y-95938578D01*
X99123217Y-95908581D01*
X99194032Y-95913646D01*
X99232070Y-95938092D01*
X99232204Y-95937908D01*
X99235425Y-95940248D01*
X99239095Y-95942607D01*
X99240223Y-95943735D01*
X99339714Y-95994428D01*
X99450000Y-96011896D01*
X99560286Y-95994428D01*
X99659777Y-95943735D01*
X99738733Y-95864779D01*
X99789426Y-95765288D01*
X99806894Y-95655002D01*
X99789426Y-95544716D01*
X99754889Y-95476934D01*
X99741786Y-95407159D01*
X99768486Y-95341375D01*
X99826513Y-95300468D01*
X99897445Y-95297427D01*
X99935276Y-95313734D01*
X99980606Y-95342866D01*
X100075185Y-95370637D01*
X100098553Y-95377499D01*
X100098554Y-95377499D01*
X100098557Y-95377500D01*
X100098560Y-95377500D01*
X100209015Y-95377500D01*
X100277136Y-95397502D01*
X100323627Y-95451156D01*
X100356666Y-95523501D01*
X100388100Y-95559777D01*
X100437169Y-95616406D01*
X100471911Y-95638733D01*
X100540584Y-95682866D01*
X100633967Y-95710286D01*
X100658531Y-95717499D01*
X100658532Y-95717499D01*
X100658535Y-95717500D01*
X100658538Y-95717500D01*
X100781462Y-95717500D01*
X100781465Y-95717500D01*
X100829075Y-95703519D01*
X100900069Y-95703518D01*
X100959796Y-95741900D01*
X100976841Y-95767212D01*
X100989951Y-95792942D01*
X101011267Y-95834777D01*
X101090223Y-95913733D01*
X101189714Y-95964426D01*
X101300000Y-95981894D01*
X101410286Y-95964426D01*
X101509777Y-95913733D01*
X101588733Y-95834777D01*
X101639426Y-95735286D01*
X101656894Y-95625000D01*
X101639426Y-95514714D01*
X101588733Y-95415223D01*
X101509777Y-95336267D01*
X101509776Y-95336266D01*
X101456621Y-95309183D01*
X101410286Y-95285574D01*
X101300000Y-95268106D01*
X101299998Y-95268106D01*
X101299997Y-95268106D01*
X101278351Y-95271534D01*
X101207940Y-95262433D01*
X101153627Y-95216710D01*
X101138327Y-95176561D01*
X101136940Y-95176969D01*
X101134401Y-95168325D01*
X101134401Y-95168321D01*
X101083334Y-95056499D01*
X101002832Y-94963595D01*
X101002831Y-94963594D01*
X101002830Y-94963593D01*
X100899416Y-94897134D01*
X100781468Y-94862500D01*
X100781465Y-94862500D01*
X100671007Y-94862500D01*
X100602886Y-94842498D01*
X100556394Y-94788843D01*
X100523356Y-94716499D01*
X100523053Y-94715835D01*
X100512950Y-94645561D01*
X100542443Y-94580981D01*
X100602170Y-94542598D01*
X100637667Y-94537494D01*
X102335304Y-94537494D01*
X102403425Y-94557496D01*
X102424394Y-94574394D01*
X103200000Y-95350000D01*
X104340150Y-95350000D01*
X104408271Y-95370002D01*
X104454764Y-95423658D01*
X104464868Y-95493932D01*
X104464620Y-95495572D01*
X104448080Y-95600000D01*
X104465548Y-95710286D01*
X104473469Y-95725831D01*
X104505518Y-95788733D01*
X104516241Y-95809777D01*
X104595197Y-95888733D01*
X104694688Y-95939426D01*
X104804974Y-95956894D01*
X104915260Y-95939426D01*
X105014751Y-95888733D01*
X105093707Y-95809777D01*
X105136479Y-95725829D01*
X105185227Y-95674215D01*
X105254141Y-95657149D01*
X105321343Y-95680049D01*
X105350678Y-95708966D01*
X105351266Y-95709775D01*
X105351267Y-95709777D01*
X105430223Y-95788733D01*
X105529714Y-95839426D01*
X105576772Y-95846879D01*
X105640923Y-95877290D01*
X105678450Y-95937558D01*
X105677436Y-96008548D01*
X105669327Y-96028528D01*
X105653758Y-96059084D01*
X105653757Y-96059085D01*
X105653757Y-96059087D01*
X105636289Y-96169373D01*
X105653757Y-96279659D01*
X105653757Y-96279660D01*
X105653758Y-96279662D01*
X105661968Y-96295775D01*
X105675072Y-96365552D01*
X105662951Y-96395412D01*
X105693795Y-96394091D01*
X105752600Y-96427300D01*
X105783406Y-96458106D01*
X105815507Y-96474462D01*
X105867122Y-96523210D01*
X105884255Y-96583230D01*
X105899999Y-97149998D01*
X105900000Y-97150000D01*
X106221220Y-97471220D01*
X106255246Y-97533532D01*
X106250181Y-97604347D01*
X106207634Y-97661183D01*
X106141114Y-97685994D01*
X106112414Y-97684764D01*
X106005001Y-97667751D01*
X105894715Y-97685219D01*
X105894713Y-97685219D01*
X105894713Y-97685220D01*
X105795224Y-97735911D01*
X105716267Y-97814868D01*
X105683476Y-97879226D01*
X105665575Y-97914359D01*
X105648107Y-98024645D01*
X105665575Y-98134931D01*
X105681349Y-98165889D01*
X105716265Y-98234418D01*
X105716268Y-98234422D01*
X105795224Y-98313378D01*
X105894715Y-98364071D01*
X106005001Y-98381539D01*
X106115287Y-98364071D01*
X106214778Y-98313378D01*
X106293734Y-98234422D01*
X106344427Y-98134931D01*
X106344427Y-98134930D01*
X106344603Y-98134585D01*
X106393351Y-98082969D01*
X106462266Y-98065903D01*
X106529467Y-98088803D01*
X106573620Y-98144401D01*
X106581318Y-98172075D01*
X106592302Y-98241422D01*
X106642995Y-98340914D01*
X106663095Y-98361014D01*
X106697121Y-98423326D01*
X106700000Y-98450109D01*
X106700000Y-100350001D01*
X106892130Y-100487236D01*
X107347236Y-100812311D01*
X107391042Y-100868181D01*
X107400000Y-100914841D01*
X107400000Y-103551648D01*
X107379998Y-103619769D01*
X107367655Y-103635937D01*
X106950000Y-104099998D01*
X106950000Y-104752573D01*
X106929998Y-104820694D01*
X106876342Y-104867187D01*
X106843716Y-104877020D01*
X106789714Y-104885574D01*
X106789712Y-104885574D01*
X106789712Y-104885575D01*
X106690223Y-104936266D01*
X106611266Y-105015223D01*
X106569263Y-105097660D01*
X106560574Y-105114714D01*
X106543106Y-105225000D01*
X106560574Y-105335286D01*
X106577138Y-105367795D01*
X106611266Y-105434776D01*
X106637395Y-105460905D01*
X106671421Y-105523217D01*
X106666356Y-105594032D01*
X106637395Y-105639095D01*
X106611268Y-105665221D01*
X106611266Y-105665223D01*
X106562683Y-105760574D01*
X106560574Y-105764714D01*
X106543106Y-105875000D01*
X106560574Y-105985286D01*
X106578787Y-106021031D01*
X106601303Y-106065223D01*
X106611267Y-106084777D01*
X106690223Y-106163733D01*
X106789714Y-106214426D01*
X106834390Y-106221502D01*
X106898541Y-106251914D01*
X106930927Y-106301520D01*
X106931071Y-106301448D01*
X106931749Y-106302778D01*
X106934507Y-106307003D01*
X106935573Y-106310283D01*
X106935573Y-106310284D01*
X106935574Y-106310286D01*
X106936265Y-106311643D01*
X106936973Y-106314591D01*
X106938636Y-106319707D01*
X106938233Y-106319837D01*
X106950000Y-106368847D01*
X106950000Y-106450000D01*
X106974300Y-106450000D01*
X107042421Y-106470002D01*
X107063395Y-106486905D01*
X107065223Y-106488733D01*
X107164714Y-106539426D01*
X107275000Y-106556894D01*
X107385286Y-106539426D01*
X107484777Y-106488733D01*
X107563733Y-106409777D01*
X107614426Y-106310286D01*
X107629415Y-106215650D01*
X113099846Y-106215650D01*
X113117314Y-106325936D01*
X113129701Y-106350247D01*
X113165389Y-106420290D01*
X113168007Y-106425427D01*
X113246963Y-106504383D01*
X113346454Y-106555076D01*
X113456740Y-106572544D01*
X113567026Y-106555076D01*
X113576988Y-106550000D01*
X118093106Y-106550000D01*
X118110574Y-106660286D01*
X118125714Y-106690000D01*
X118152772Y-106743106D01*
X118161267Y-106759777D01*
X118240223Y-106838733D01*
X118339714Y-106889426D01*
X118450000Y-106906894D01*
X118560286Y-106889426D01*
X118659777Y-106838733D01*
X118738733Y-106759777D01*
X118789426Y-106660286D01*
X118806294Y-106553781D01*
X118836707Y-106489631D01*
X118896975Y-106452104D01*
X118950451Y-106449046D01*
X119000000Y-106456894D01*
X119110286Y-106439426D01*
X119209777Y-106388733D01*
X119288733Y-106309777D01*
X119339426Y-106210286D01*
X119356894Y-106100000D01*
X119339426Y-105989714D01*
X119288733Y-105890223D01*
X119209777Y-105811267D01*
X119209776Y-105811266D01*
X119160031Y-105785920D01*
X119110286Y-105760574D01*
X119000000Y-105743106D01*
X118889714Y-105760574D01*
X118889712Y-105760574D01*
X118889712Y-105760575D01*
X118790223Y-105811266D01*
X118711266Y-105890223D01*
X118660573Y-105989715D01*
X118643704Y-106096216D01*
X118613291Y-106160369D01*
X118553023Y-106197895D01*
X118499546Y-106200953D01*
X118450001Y-106193106D01*
X118450000Y-106193106D01*
X118339714Y-106210574D01*
X118339712Y-106210574D01*
X118339712Y-106210575D01*
X118240223Y-106261266D01*
X118161266Y-106340223D01*
X118113089Y-106434778D01*
X118110574Y-106439714D01*
X118093106Y-106550000D01*
X113576988Y-106550000D01*
X113666517Y-106504383D01*
X113745473Y-106425427D01*
X113796166Y-106325936D01*
X113813634Y-106215650D01*
X113796166Y-106105364D01*
X113745473Y-106005873D01*
X113666517Y-105926917D01*
X113666516Y-105926916D01*
X113599686Y-105892865D01*
X113567026Y-105876224D01*
X113456740Y-105858756D01*
X113346454Y-105876224D01*
X113346452Y-105876224D01*
X113346452Y-105876225D01*
X113246963Y-105926916D01*
X113168006Y-106005873D01*
X113125289Y-106089712D01*
X113117314Y-106105364D01*
X113099846Y-106215650D01*
X107629415Y-106215650D01*
X107631894Y-106200000D01*
X107614426Y-106089714D01*
X107563733Y-105990223D01*
X107530103Y-105956593D01*
X107496079Y-105894281D01*
X107501145Y-105823465D01*
X107530102Y-105778407D01*
X107548733Y-105759777D01*
X107599426Y-105660286D01*
X107616894Y-105550000D01*
X107608975Y-105500003D01*
X116068104Y-105500003D01*
X116085597Y-105621672D01*
X116085599Y-105621679D01*
X116136666Y-105733501D01*
X116214621Y-105823465D01*
X116217169Y-105826406D01*
X116236351Y-105838733D01*
X116320584Y-105892866D01*
X116415163Y-105920637D01*
X116438531Y-105927499D01*
X116438532Y-105927499D01*
X116438535Y-105927500D01*
X116438538Y-105927500D01*
X116561462Y-105927500D01*
X116561465Y-105927500D01*
X116679416Y-105892866D01*
X116782830Y-105826406D01*
X116782831Y-105826406D01*
X116782832Y-105826405D01*
X116863334Y-105733501D01*
X116914401Y-105621679D01*
X116925247Y-105546243D01*
X116931896Y-105500003D01*
X116931896Y-105499996D01*
X116914402Y-105378327D01*
X116914401Y-105378326D01*
X116914401Y-105378321D01*
X116863334Y-105266499D01*
X116833884Y-105232512D01*
X116804391Y-105167934D01*
X116814493Y-105097660D01*
X116833882Y-105067489D01*
X116863334Y-105033501D01*
X116914401Y-104921679D01*
X116923228Y-104860286D01*
X116931896Y-104800003D01*
X116931896Y-104799996D01*
X116916455Y-104692608D01*
X118196310Y-104692608D01*
X118213778Y-104802894D01*
X118213779Y-104802895D01*
X118251714Y-104877349D01*
X118264471Y-104902385D01*
X118343427Y-104981341D01*
X118442918Y-105032034D01*
X118553204Y-105049502D01*
X118663490Y-105032034D01*
X118762981Y-104981341D01*
X118841937Y-104902385D01*
X118892630Y-104802894D01*
X118910098Y-104692608D01*
X118892630Y-104582322D01*
X118841937Y-104482831D01*
X118762981Y-104403875D01*
X118762980Y-104403874D01*
X118690046Y-104366713D01*
X118663490Y-104353182D01*
X118553204Y-104335714D01*
X118442918Y-104353182D01*
X118442916Y-104353182D01*
X118442916Y-104353183D01*
X118343427Y-104403874D01*
X118264470Y-104482831D01*
X118213779Y-104582320D01*
X118213778Y-104582322D01*
X118196310Y-104692608D01*
X116916455Y-104692608D01*
X116914402Y-104678327D01*
X116914401Y-104678326D01*
X116914401Y-104678321D01*
X116863334Y-104566499D01*
X116782832Y-104473595D01*
X116782831Y-104473594D01*
X116782830Y-104473593D01*
X116679416Y-104407134D01*
X116561468Y-104372500D01*
X116561465Y-104372500D01*
X116438535Y-104372500D01*
X116438531Y-104372500D01*
X116320583Y-104407134D01*
X116217169Y-104473593D01*
X116217168Y-104473593D01*
X116136667Y-104566497D01*
X116085599Y-104678320D01*
X116085597Y-104678327D01*
X116068104Y-104799996D01*
X116068104Y-104800003D01*
X116085597Y-104921672D01*
X116085599Y-104921679D01*
X116136666Y-105033501D01*
X116136667Y-105033502D01*
X116166115Y-105067487D01*
X116195608Y-105132068D01*
X116185505Y-105202342D01*
X116166115Y-105232513D01*
X116136667Y-105266497D01*
X116085599Y-105378320D01*
X116085597Y-105378327D01*
X116068104Y-105499996D01*
X116068104Y-105500003D01*
X107608975Y-105500003D01*
X107599426Y-105439714D01*
X107548733Y-105340223D01*
X107515502Y-105306992D01*
X107481476Y-105244680D01*
X107486541Y-105173865D01*
X107529088Y-105117029D01*
X107584883Y-105093449D01*
X107610286Y-105089426D01*
X107709777Y-105038733D01*
X107788733Y-104959777D01*
X107839426Y-104860286D01*
X107856894Y-104750000D01*
X107839426Y-104639714D01*
X107788733Y-104540223D01*
X107709777Y-104461267D01*
X107709776Y-104461266D01*
X107636881Y-104424125D01*
X107610286Y-104410574D01*
X107556285Y-104402021D01*
X107492135Y-104371609D01*
X107454609Y-104311340D01*
X107450000Y-104277573D01*
X107450000Y-103955426D01*
X107470002Y-103887305D01*
X107490855Y-103862549D01*
X108485892Y-102950432D01*
X108502903Y-102937322D01*
X108505667Y-102935545D01*
X108505672Y-102935544D01*
X108609088Y-102869083D01*
X108689590Y-102776179D01*
X108689592Y-102776173D01*
X108694462Y-102768598D01*
X108695232Y-102769093D01*
X108718230Y-102737454D01*
X109250000Y-102250000D01*
X109618974Y-101881025D01*
X109681282Y-101847003D01*
X109752098Y-101852067D01*
X109797161Y-101881028D01*
X109817663Y-101901530D01*
X109843181Y-101938281D01*
X109886666Y-102033501D01*
X109967068Y-102126289D01*
X109967169Y-102126406D01*
X109987874Y-102139712D01*
X110070584Y-102192866D01*
X110094114Y-102199775D01*
X110147710Y-102231575D01*
X110367661Y-102451526D01*
X110393179Y-102488278D01*
X110436666Y-102583501D01*
X110512116Y-102670574D01*
X110517169Y-102676406D01*
X110553883Y-102700000D01*
X110620584Y-102742866D01*
X110699033Y-102765901D01*
X110738531Y-102777499D01*
X110738532Y-102777499D01*
X110738535Y-102777500D01*
X110738538Y-102777500D01*
X110861462Y-102777500D01*
X110861465Y-102777500D01*
X110979416Y-102742866D01*
X111082830Y-102676406D01*
X111082831Y-102676406D01*
X111087884Y-102670575D01*
X111163334Y-102583501D01*
X111214401Y-102471679D01*
X111231896Y-102350000D01*
X111231896Y-102349996D01*
X111214402Y-102228327D01*
X111214401Y-102228326D01*
X111214401Y-102228321D01*
X111201364Y-102199773D01*
X111188886Y-102172449D01*
X111177500Y-102120108D01*
X111177500Y-101479890D01*
X111188885Y-101427550D01*
X111214401Y-101371679D01*
X111228302Y-101275000D01*
X111231896Y-101250003D01*
X111231896Y-101249996D01*
X111216646Y-101143932D01*
X111226749Y-101073658D01*
X111273242Y-101020002D01*
X111341363Y-101000000D01*
X112502094Y-101000000D01*
X112570215Y-101020002D01*
X112585804Y-101031826D01*
X112610644Y-101053906D01*
X112957711Y-101362409D01*
X112995335Y-101422615D01*
X113000000Y-101456582D01*
X113000000Y-102000001D01*
X113999998Y-102999999D01*
X114000000Y-103000000D01*
X118497810Y-103000000D01*
X118565931Y-103020002D01*
X118586905Y-103036905D01*
X119513095Y-103963095D01*
X119547121Y-104025407D01*
X119550000Y-104052190D01*
X119550000Y-105000000D01*
X124314009Y-105000000D01*
X124382130Y-105020002D01*
X124428623Y-105073658D01*
X124438727Y-105143932D01*
X124437766Y-105149668D01*
X124434316Y-105167708D01*
X124433294Y-105172537D01*
X124212781Y-106122276D01*
X124211569Y-106127069D01*
X123953955Y-107067467D01*
X123952555Y-107072209D01*
X123658259Y-108001739D01*
X123656675Y-108006422D01*
X123326130Y-108923715D01*
X123324363Y-108928333D01*
X122958083Y-109831961D01*
X122956136Y-109836505D01*
X122554697Y-110725050D01*
X122552573Y-110729515D01*
X122116586Y-111601623D01*
X122114289Y-111606001D01*
X121644417Y-112460348D01*
X121641950Y-112464633D01*
X121138935Y-113299867D01*
X121136302Y-113304051D01*
X120600885Y-114118944D01*
X120598089Y-114123022D01*
X120031138Y-114916251D01*
X120028185Y-114920216D01*
X119430544Y-115690601D01*
X119427438Y-115694447D01*
X118800025Y-116440806D01*
X118796770Y-116444527D01*
X118140567Y-117165689D01*
X118137168Y-117169280D01*
X117453196Y-117864124D01*
X117449660Y-117867579D01*
X116738915Y-118535096D01*
X116735245Y-118538409D01*
X115998894Y-119177498D01*
X115995097Y-119180665D01*
X115234224Y-119790388D01*
X115230306Y-119793403D01*
X114446125Y-120372788D01*
X114442092Y-120375648D01*
X113635756Y-120923843D01*
X113631613Y-120926542D01*
X112804388Y-121442682D01*
X112800144Y-121445216D01*
X111953322Y-121928501D01*
X111948980Y-121930867D01*
X111083845Y-122380558D01*
X111079415Y-122382751D01*
X110197326Y-122798148D01*
X110192812Y-122800167D01*
X109295064Y-123180656D01*
X109290475Y-123182495D01*
X108378530Y-123527458D01*
X108373873Y-123529116D01*
X107449099Y-123838035D01*
X107444380Y-123839510D01*
X106508136Y-124111931D01*
X106503362Y-124113218D01*
X105557232Y-124348680D01*
X105552412Y-124349780D01*
X104610068Y-124545391D01*
X104584459Y-124548021D01*
X95420472Y-124548021D01*
X95394887Y-124545396D01*
X94452459Y-124349958D01*
X94447638Y-124348859D01*
X93501393Y-124113560D01*
X93496619Y-124112273D01*
X92560337Y-123840030D01*
X92555617Y-123838557D01*
X91630702Y-123529779D01*
X91626044Y-123528121D01*
X90713998Y-123183309D01*
X90709408Y-123181470D01*
X89811588Y-122801138D01*
X89807074Y-122799121D01*
X88924842Y-122383846D01*
X88920411Y-122381653D01*
X88378337Y-122100003D01*
X91368100Y-122100003D01*
X91385593Y-122221672D01*
X91385595Y-122221679D01*
X91436662Y-122333501D01*
X91479338Y-122382751D01*
X91517165Y-122426406D01*
X91568872Y-122459635D01*
X91620580Y-122492866D01*
X91715159Y-122520637D01*
X91738527Y-122527499D01*
X91738528Y-122527499D01*
X91738531Y-122527500D01*
X91738534Y-122527500D01*
X91861458Y-122527500D01*
X91861461Y-122527500D01*
X91979412Y-122492866D01*
X92082826Y-122426406D01*
X92082827Y-122426406D01*
X92082828Y-122426405D01*
X92163330Y-122333501D01*
X92214397Y-122221679D01*
X92231892Y-122100000D01*
X92231892Y-122099996D01*
X92217515Y-122000003D01*
X93168104Y-122000003D01*
X93185597Y-122121672D01*
X93185599Y-122121679D01*
X93236666Y-122233501D01*
X93272001Y-122274279D01*
X93317169Y-122326406D01*
X93328211Y-122333502D01*
X93420584Y-122392866D01*
X93515163Y-122420637D01*
X93538531Y-122427499D01*
X93538532Y-122427499D01*
X93538535Y-122427500D01*
X93538538Y-122427500D01*
X93661462Y-122427500D01*
X93661465Y-122427500D01*
X93779416Y-122392866D01*
X93882830Y-122326406D01*
X93882831Y-122326406D01*
X93882832Y-122326405D01*
X93962492Y-122234473D01*
X95052500Y-122234473D01*
X95052501Y-122234490D01*
X95067382Y-122352288D01*
X95067384Y-122352293D01*
X95123039Y-122492865D01*
X95125747Y-122499703D01*
X95218937Y-122627967D01*
X95341097Y-122729026D01*
X95484551Y-122796531D01*
X95484553Y-122796531D01*
X95484555Y-122796532D01*
X95640279Y-122826238D01*
X95640282Y-122826238D01*
X95640286Y-122826239D01*
X95640288Y-122826238D01*
X95640290Y-122826239D01*
X95719401Y-122821261D01*
X95798516Y-122816284D01*
X95949300Y-122767291D01*
X96083162Y-122682340D01*
X96191693Y-122566767D01*
X96268072Y-122427834D01*
X96279919Y-122381695D01*
X96294114Y-122326406D01*
X96307500Y-122274272D01*
X96307500Y-122234473D01*
X103692500Y-122234473D01*
X103692501Y-122234490D01*
X103707382Y-122352288D01*
X103707384Y-122352293D01*
X103763039Y-122492865D01*
X103765747Y-122499703D01*
X103858937Y-122627967D01*
X103981097Y-122729026D01*
X104124551Y-122796531D01*
X104124553Y-122796531D01*
X104124555Y-122796532D01*
X104280279Y-122826238D01*
X104280282Y-122826238D01*
X104280286Y-122826239D01*
X104280288Y-122826238D01*
X104280290Y-122826239D01*
X104359401Y-122821261D01*
X104438516Y-122816284D01*
X104589300Y-122767291D01*
X104723162Y-122682340D01*
X104831693Y-122566767D01*
X104908072Y-122427834D01*
X104919919Y-122381695D01*
X104934114Y-122326406D01*
X104947500Y-122274272D01*
X104947500Y-121600003D01*
X106768104Y-121600003D01*
X106785597Y-121721672D01*
X106785599Y-121721679D01*
X106836666Y-121833501D01*
X106836667Y-121833502D01*
X106917169Y-121926406D01*
X106968876Y-121959635D01*
X107020584Y-121992866D01*
X107115163Y-122020637D01*
X107138531Y-122027499D01*
X107138532Y-122027499D01*
X107138535Y-122027500D01*
X107138538Y-122027500D01*
X107261462Y-122027500D01*
X107261465Y-122027500D01*
X107379416Y-121992866D01*
X107482830Y-121926406D01*
X107482831Y-121926406D01*
X107482832Y-121926405D01*
X107563334Y-121833501D01*
X107614401Y-121721679D01*
X107623716Y-121656893D01*
X107631896Y-121600003D01*
X107968104Y-121600003D01*
X107985597Y-121721672D01*
X107985599Y-121721679D01*
X108036666Y-121833501D01*
X108036667Y-121833502D01*
X108117169Y-121926406D01*
X108168876Y-121959635D01*
X108220584Y-121992866D01*
X108315163Y-122020637D01*
X108338531Y-122027499D01*
X108338532Y-122027499D01*
X108338535Y-122027500D01*
X108338538Y-122027500D01*
X108461462Y-122027500D01*
X108461465Y-122027500D01*
X108579416Y-121992866D01*
X108682830Y-121926406D01*
X108682831Y-121926406D01*
X108682832Y-121926405D01*
X108763334Y-121833501D01*
X108814401Y-121721679D01*
X108823716Y-121656893D01*
X108831896Y-121600003D01*
X108831896Y-121599996D01*
X108814402Y-121478327D01*
X108814401Y-121478326D01*
X108814401Y-121478321D01*
X108763334Y-121366499D01*
X108682832Y-121273595D01*
X108682831Y-121273594D01*
X108682830Y-121273593D01*
X108579416Y-121207134D01*
X108461468Y-121172500D01*
X108461465Y-121172500D01*
X108338535Y-121172500D01*
X108338531Y-121172500D01*
X108220583Y-121207134D01*
X108117169Y-121273593D01*
X108117168Y-121273593D01*
X108036667Y-121366497D01*
X107985599Y-121478320D01*
X107985597Y-121478327D01*
X107968104Y-121599996D01*
X107968104Y-121600003D01*
X107631896Y-121600003D01*
X107631896Y-121599996D01*
X107614402Y-121478327D01*
X107614401Y-121478326D01*
X107614401Y-121478321D01*
X107563334Y-121366499D01*
X107482832Y-121273595D01*
X107482831Y-121273594D01*
X107482830Y-121273593D01*
X107379416Y-121207134D01*
X107261468Y-121172500D01*
X107261465Y-121172500D01*
X107138535Y-121172500D01*
X107138531Y-121172500D01*
X107020583Y-121207134D01*
X106917169Y-121273593D01*
X106917168Y-121273593D01*
X106836667Y-121366497D01*
X106785599Y-121478320D01*
X106785597Y-121478327D01*
X106768104Y-121599996D01*
X106768104Y-121600003D01*
X104947500Y-121600003D01*
X104947500Y-121555524D01*
X104933565Y-121445216D01*
X104932617Y-121437711D01*
X104932616Y-121437709D01*
X104932616Y-121437707D01*
X104874253Y-121290297D01*
X104781063Y-121162033D01*
X104658903Y-121060974D01*
X104658902Y-121060973D01*
X104515450Y-120993469D01*
X104515444Y-120993467D01*
X104359720Y-120963761D01*
X104359709Y-120963760D01*
X104201487Y-120973715D01*
X104201485Y-120973715D01*
X104050696Y-121022710D01*
X103916839Y-121107658D01*
X103808305Y-121223235D01*
X103731927Y-121362166D01*
X103731926Y-121362168D01*
X103692501Y-121515720D01*
X103692500Y-121515730D01*
X103692500Y-122234473D01*
X96307500Y-122234473D01*
X96307500Y-121555524D01*
X96293565Y-121445216D01*
X96292617Y-121437711D01*
X96292616Y-121437709D01*
X96292616Y-121437707D01*
X96234253Y-121290297D01*
X96141063Y-121162033D01*
X96018903Y-121060974D01*
X96018902Y-121060973D01*
X95875450Y-120993469D01*
X95875444Y-120993467D01*
X95719720Y-120963761D01*
X95719709Y-120963760D01*
X95561487Y-120973715D01*
X95561485Y-120973715D01*
X95410696Y-121022710D01*
X95276839Y-121107658D01*
X95168305Y-121223235D01*
X95091927Y-121362166D01*
X95091926Y-121362168D01*
X95052501Y-121515720D01*
X95052500Y-121515730D01*
X95052500Y-122234473D01*
X93962492Y-122234473D01*
X93963334Y-122233501D01*
X94014401Y-122121679D01*
X94027942Y-122027500D01*
X94031896Y-122000003D01*
X94031896Y-121999996D01*
X94014402Y-121878327D01*
X94014401Y-121878326D01*
X94014401Y-121878321D01*
X93963334Y-121766499D01*
X93882832Y-121673595D01*
X93882831Y-121673594D01*
X93882830Y-121673593D01*
X93779416Y-121607134D01*
X93661468Y-121572500D01*
X93661465Y-121572500D01*
X93538535Y-121572500D01*
X93538531Y-121572500D01*
X93420583Y-121607134D01*
X93317169Y-121673593D01*
X93317168Y-121673593D01*
X93236667Y-121766497D01*
X93185599Y-121878320D01*
X93185597Y-121878327D01*
X93168104Y-121999996D01*
X93168104Y-122000003D01*
X92217515Y-122000003D01*
X92214398Y-121978327D01*
X92214397Y-121978326D01*
X92214397Y-121978321D01*
X92163330Y-121866499D01*
X92082828Y-121773595D01*
X92082827Y-121773594D01*
X92082826Y-121773593D01*
X91979412Y-121707134D01*
X91861464Y-121672500D01*
X91861461Y-121672500D01*
X91738531Y-121672500D01*
X91738527Y-121672500D01*
X91620579Y-121707134D01*
X91517165Y-121773593D01*
X91517164Y-121773593D01*
X91436663Y-121866497D01*
X91385595Y-121978320D01*
X91385593Y-121978327D01*
X91368100Y-122099996D01*
X91368100Y-122100003D01*
X88378337Y-122100003D01*
X88055154Y-121932084D01*
X88050812Y-121929718D01*
X87203881Y-121446561D01*
X87199635Y-121444027D01*
X86968717Y-121300000D01*
X89968106Y-121300000D01*
X89985574Y-121410286D01*
X90036267Y-121509777D01*
X90115223Y-121588733D01*
X90214714Y-121639426D01*
X90325000Y-121656894D01*
X90435286Y-121639426D01*
X90534777Y-121588733D01*
X90613733Y-121509777D01*
X90664426Y-121410286D01*
X90681894Y-121300000D01*
X90664426Y-121189714D01*
X90613733Y-121090223D01*
X90534777Y-121011267D01*
X90534776Y-121011266D01*
X90485031Y-120985920D01*
X90435286Y-120960574D01*
X90325000Y-120943106D01*
X90214714Y-120960574D01*
X90214712Y-120960574D01*
X90214712Y-120960575D01*
X90115223Y-121011266D01*
X90036266Y-121090223D01*
X90027383Y-121107658D01*
X89985574Y-121189714D01*
X89968106Y-121300000D01*
X86968717Y-121300000D01*
X86372310Y-120928012D01*
X86368167Y-120925314D01*
X85595221Y-120400003D01*
X106768104Y-120400003D01*
X106785597Y-120521672D01*
X106785599Y-120521679D01*
X106836666Y-120633501D01*
X106836667Y-120633502D01*
X106917169Y-120726406D01*
X106968876Y-120759635D01*
X107020584Y-120792866D01*
X107115163Y-120820637D01*
X107138531Y-120827499D01*
X107138532Y-120827499D01*
X107138535Y-120827500D01*
X107138538Y-120827500D01*
X107261462Y-120827500D01*
X107261465Y-120827500D01*
X107379416Y-120792866D01*
X107482830Y-120726406D01*
X107482831Y-120726406D01*
X107505804Y-120699894D01*
X107563334Y-120633501D01*
X107614401Y-120521679D01*
X107631896Y-120400003D01*
X107968104Y-120400003D01*
X107985597Y-120521672D01*
X107985599Y-120521679D01*
X108036666Y-120633501D01*
X108036667Y-120633502D01*
X108117169Y-120726406D01*
X108168876Y-120759635D01*
X108220584Y-120792866D01*
X108315163Y-120820637D01*
X108338531Y-120827499D01*
X108338532Y-120827499D01*
X108338535Y-120827500D01*
X108338538Y-120827500D01*
X108461462Y-120827500D01*
X108461465Y-120827500D01*
X108579416Y-120792866D01*
X108682830Y-120726406D01*
X108682831Y-120726406D01*
X108705804Y-120699894D01*
X108763334Y-120633501D01*
X108814401Y-120521679D01*
X108831896Y-120400000D01*
X108831896Y-120399996D01*
X108814402Y-120278327D01*
X108814401Y-120278326D01*
X108814401Y-120278321D01*
X108763334Y-120166499D01*
X108682832Y-120073595D01*
X108682831Y-120073594D01*
X108682830Y-120073593D01*
X108579416Y-120007134D01*
X108461468Y-119972500D01*
X108461465Y-119972500D01*
X108338535Y-119972500D01*
X108338531Y-119972500D01*
X108220583Y-120007134D01*
X108117169Y-120073593D01*
X108117168Y-120073593D01*
X108036667Y-120166497D01*
X107985599Y-120278320D01*
X107985597Y-120278327D01*
X107968104Y-120399996D01*
X107968104Y-120400003D01*
X107631896Y-120400003D01*
X107631896Y-120400000D01*
X107631896Y-120399996D01*
X107614402Y-120278327D01*
X107614401Y-120278326D01*
X107614401Y-120278321D01*
X107563334Y-120166499D01*
X107482832Y-120073595D01*
X107482831Y-120073594D01*
X107482830Y-120073593D01*
X107379416Y-120007134D01*
X107261468Y-119972500D01*
X107261465Y-119972500D01*
X107138535Y-119972500D01*
X107138531Y-119972500D01*
X107020583Y-120007134D01*
X106917169Y-120073593D01*
X106917168Y-120073593D01*
X106836667Y-120166497D01*
X106785599Y-120278320D01*
X106785597Y-120278327D01*
X106768104Y-120399996D01*
X106768104Y-120400003D01*
X85595221Y-120400003D01*
X85561707Y-120377226D01*
X85557673Y-120374367D01*
X85013576Y-119972500D01*
X84773336Y-119795059D01*
X84769447Y-119792068D01*
X84511373Y-119585326D01*
X84470714Y-119527126D01*
X84467975Y-119456182D01*
X84504026Y-119395020D01*
X84509117Y-119390504D01*
X85802896Y-118304473D01*
X95052500Y-118304473D01*
X95052501Y-118304490D01*
X95067382Y-118422288D01*
X95067384Y-118422293D01*
X95112099Y-118535233D01*
X95125747Y-118569703D01*
X95218937Y-118697967D01*
X95341097Y-118799026D01*
X95484551Y-118866531D01*
X95484553Y-118866531D01*
X95484555Y-118866532D01*
X95640279Y-118896238D01*
X95640282Y-118896238D01*
X95640286Y-118896239D01*
X95640288Y-118896238D01*
X95640290Y-118896239D01*
X95719401Y-118891261D01*
X95798516Y-118886284D01*
X95949300Y-118837291D01*
X96083162Y-118752340D01*
X96191693Y-118636767D01*
X96268072Y-118497834D01*
X96300956Y-118369757D01*
X96337270Y-118308754D01*
X96400802Y-118277065D01*
X96471381Y-118284755D01*
X96526598Y-118329382D01*
X96547918Y-118384646D01*
X96549313Y-118395236D01*
X96590317Y-118494228D01*
X96607301Y-118535231D01*
X96607306Y-118535239D01*
X96699548Y-118655451D01*
X96819760Y-118747693D01*
X96819767Y-118747698D01*
X96959764Y-118805687D01*
X97072280Y-118820500D01*
X97072287Y-118820500D01*
X97147713Y-118820500D01*
X97147720Y-118820500D01*
X97260236Y-118805687D01*
X97400233Y-118747698D01*
X97520451Y-118655451D01*
X97612698Y-118535233D01*
X97670687Y-118395236D01*
X97690466Y-118245000D01*
X102309534Y-118245000D01*
X102329312Y-118395234D01*
X102387301Y-118535231D01*
X102387306Y-118535239D01*
X102479548Y-118655451D01*
X102599760Y-118747693D01*
X102599767Y-118747698D01*
X102739764Y-118805687D01*
X102852280Y-118820500D01*
X102852287Y-118820500D01*
X102927713Y-118820500D01*
X102927720Y-118820500D01*
X103040236Y-118805687D01*
X103180233Y-118747698D01*
X103300451Y-118655451D01*
X103392698Y-118535233D01*
X103450687Y-118395236D01*
X103452438Y-118381929D01*
X103481157Y-118317005D01*
X103540421Y-118277911D01*
X103611412Y-118277064D01*
X103671593Y-118314731D01*
X103701855Y-118378956D01*
X103702366Y-118382581D01*
X103707383Y-118422289D01*
X103707384Y-118422293D01*
X103752099Y-118535233D01*
X103765747Y-118569703D01*
X103858937Y-118697967D01*
X103981097Y-118799026D01*
X104124551Y-118866531D01*
X104124553Y-118866531D01*
X104124555Y-118866532D01*
X104280279Y-118896238D01*
X104280282Y-118896238D01*
X104280286Y-118896239D01*
X104280288Y-118896238D01*
X104280290Y-118896239D01*
X104359401Y-118891261D01*
X104438516Y-118886284D01*
X104589300Y-118837291D01*
X104723162Y-118752340D01*
X104831693Y-118636767D01*
X104908072Y-118497834D01*
X104947500Y-118344272D01*
X104947500Y-117125524D01*
X104932616Y-117007707D01*
X104874253Y-116860297D01*
X104781063Y-116732033D01*
X104669117Y-116639424D01*
X104658902Y-116630973D01*
X104515450Y-116563469D01*
X104515444Y-116563467D01*
X104359720Y-116533761D01*
X104359709Y-116533760D01*
X104201487Y-116543715D01*
X104201485Y-116543715D01*
X104050696Y-116592710D01*
X103916839Y-116677658D01*
X103808305Y-116793235D01*
X103731927Y-116932166D01*
X103731926Y-116932168D01*
X103692501Y-117085720D01*
X103692500Y-117085730D01*
X103692500Y-118045108D01*
X103672498Y-118113229D01*
X103618842Y-118159722D01*
X103548568Y-118169826D01*
X103483988Y-118140332D01*
X103450091Y-118093326D01*
X103392698Y-117954767D01*
X103392693Y-117954760D01*
X103300451Y-117834548D01*
X103180239Y-117742306D01*
X103180231Y-117742301D01*
X103040234Y-117684312D01*
X102927722Y-117669500D01*
X102927720Y-117669500D01*
X102852280Y-117669500D01*
X102852277Y-117669500D01*
X102739765Y-117684312D01*
X102599768Y-117742301D01*
X102599760Y-117742306D01*
X102479548Y-117834548D01*
X102387306Y-117954760D01*
X102387301Y-117954768D01*
X102329312Y-118094765D01*
X102309534Y-118244999D01*
X102309534Y-118245000D01*
X97690466Y-118245000D01*
X97670687Y-118094764D01*
X97612698Y-117954767D01*
X97612693Y-117954760D01*
X97520451Y-117834548D01*
X97400239Y-117742306D01*
X97400231Y-117742301D01*
X97260234Y-117684312D01*
X97147722Y-117669500D01*
X97147720Y-117669500D01*
X97072280Y-117669500D01*
X97072277Y-117669500D01*
X96959765Y-117684312D01*
X96819768Y-117742301D01*
X96819760Y-117742306D01*
X96699548Y-117834548D01*
X96607306Y-117954760D01*
X96607301Y-117954768D01*
X96549909Y-118093326D01*
X96505360Y-118148607D01*
X96437997Y-118171028D01*
X96369206Y-118153470D01*
X96320827Y-118101507D01*
X96307500Y-118045108D01*
X96307500Y-117125526D01*
X96307498Y-117125509D01*
X96292617Y-117007711D01*
X96292616Y-117007709D01*
X96292616Y-117007707D01*
X96234253Y-116860297D01*
X96141063Y-116732033D01*
X96029117Y-116639424D01*
X96018902Y-116630973D01*
X95875450Y-116563469D01*
X95875444Y-116563467D01*
X95719720Y-116533761D01*
X95719709Y-116533760D01*
X95561487Y-116543715D01*
X95561485Y-116543715D01*
X95410696Y-116592710D01*
X95276839Y-116677658D01*
X95168305Y-116793235D01*
X95091927Y-116932166D01*
X95091926Y-116932168D01*
X95052501Y-117085720D01*
X95052500Y-117085730D01*
X95052500Y-118304473D01*
X85802896Y-118304473D01*
X88190808Y-116300000D01*
X93243108Y-116300000D01*
X93260576Y-116410286D01*
X93260577Y-116410287D01*
X93300546Y-116488733D01*
X93311269Y-116509777D01*
X93390225Y-116588733D01*
X93489716Y-116639426D01*
X93600002Y-116656894D01*
X93710288Y-116639426D01*
X93809779Y-116588733D01*
X93888735Y-116509777D01*
X93939428Y-116410286D01*
X93956896Y-116300000D01*
X93939428Y-116189714D01*
X93888735Y-116090223D01*
X93809779Y-116011267D01*
X93809778Y-116011266D01*
X93760033Y-115985920D01*
X93710288Y-115960574D01*
X93600002Y-115943106D01*
X93489716Y-115960574D01*
X93489714Y-115960574D01*
X93489714Y-115960575D01*
X93390225Y-116011266D01*
X93311268Y-116090223D01*
X93273348Y-116164647D01*
X93260576Y-116189714D01*
X93243108Y-116300000D01*
X88190808Y-116300000D01*
X90490000Y-114370000D01*
X90489999Y-114369999D01*
X90524211Y-114341282D01*
X90589246Y-114312805D01*
X90659353Y-114324009D01*
X90662417Y-114325518D01*
X90689714Y-114339426D01*
X90800000Y-114356894D01*
X90800001Y-114356893D01*
X90800002Y-114356894D01*
X90834094Y-114351493D01*
X90910286Y-114339426D01*
X90910288Y-114339424D01*
X90917567Y-114338272D01*
X90987978Y-114347370D01*
X91042292Y-114393091D01*
X91063266Y-114460919D01*
X91061728Y-114482431D01*
X91060574Y-114489712D01*
X91060574Y-114489714D01*
X91043106Y-114600000D01*
X91060574Y-114710286D01*
X91111267Y-114809777D01*
X91190223Y-114888733D01*
X91289714Y-114939426D01*
X91400000Y-114956894D01*
X91400001Y-114956893D01*
X91400002Y-114956894D01*
X91434094Y-114951493D01*
X91510286Y-114939426D01*
X91510288Y-114939424D01*
X91517567Y-114938272D01*
X91587978Y-114947370D01*
X91642292Y-114993091D01*
X91663266Y-115060919D01*
X91661728Y-115082431D01*
X91660574Y-115089712D01*
X91660574Y-115089714D01*
X91643106Y-115200000D01*
X91660574Y-115310286D01*
X91660574Y-115310287D01*
X91660575Y-115310289D01*
X91666945Y-115322790D01*
X91680050Y-115392567D01*
X91653350Y-115458352D01*
X91595323Y-115499259D01*
X91524392Y-115502300D01*
X91497477Y-115492261D01*
X91435289Y-115460575D01*
X91435287Y-115460574D01*
X91435286Y-115460574D01*
X91325000Y-115443106D01*
X91214714Y-115460574D01*
X91214712Y-115460574D01*
X91214712Y-115460575D01*
X91115223Y-115511266D01*
X91036266Y-115590223D01*
X90985576Y-115689711D01*
X90985574Y-115689714D01*
X90968106Y-115800000D01*
X90985574Y-115910286D01*
X90985575Y-115910287D01*
X91032748Y-116002872D01*
X91036267Y-116009777D01*
X91115223Y-116088733D01*
X91214714Y-116139426D01*
X91325000Y-116156894D01*
X91435286Y-116139426D01*
X91534777Y-116088733D01*
X91613733Y-116009777D01*
X91664426Y-115910286D01*
X91681894Y-115800000D01*
X113943106Y-115800000D01*
X113960574Y-115910286D01*
X113960575Y-115910287D01*
X114007748Y-116002872D01*
X114011267Y-116009777D01*
X114090223Y-116088733D01*
X114189714Y-116139426D01*
X114300000Y-116156894D01*
X114306638Y-116155842D01*
X114308493Y-116155549D01*
X114378904Y-116164647D01*
X114433219Y-116210368D01*
X114452654Y-116260282D01*
X114460574Y-116310286D01*
X114511267Y-116409777D01*
X114590223Y-116488733D01*
X114689714Y-116539426D01*
X114800000Y-116556894D01*
X114910286Y-116539426D01*
X115009777Y-116488733D01*
X115088733Y-116409777D01*
X115139426Y-116310286D01*
X115147345Y-116260283D01*
X115177756Y-116196134D01*
X115238024Y-116158607D01*
X115291502Y-116155548D01*
X115300000Y-116156894D01*
X115410286Y-116139426D01*
X115509777Y-116088733D01*
X115588733Y-116009777D01*
X115588735Y-116009771D01*
X115594564Y-116001751D01*
X115596107Y-116002872D01*
X115636475Y-115960126D01*
X115705389Y-115943056D01*
X115772592Y-115965954D01*
X115804316Y-116002564D01*
X115805436Y-116001751D01*
X115811266Y-116009775D01*
X115811267Y-116009777D01*
X115890223Y-116088733D01*
X115989714Y-116139426D01*
X116100000Y-116156894D01*
X116106638Y-116155842D01*
X116108493Y-116155549D01*
X116178904Y-116164647D01*
X116233219Y-116210368D01*
X116252654Y-116260282D01*
X116260574Y-116310286D01*
X116311267Y-116409777D01*
X116390223Y-116488733D01*
X116489714Y-116539426D01*
X116600000Y-116556894D01*
X116710286Y-116539426D01*
X116809777Y-116488733D01*
X116888733Y-116409777D01*
X116939426Y-116310286D01*
X116947345Y-116260283D01*
X116977756Y-116196134D01*
X117038024Y-116158607D01*
X117091502Y-116155548D01*
X117100000Y-116156894D01*
X117210286Y-116139426D01*
X117309777Y-116088733D01*
X117388733Y-116009777D01*
X117439426Y-115910286D01*
X117456894Y-115800000D01*
X117439426Y-115689714D01*
X117388733Y-115590223D01*
X117309777Y-115511267D01*
X117309776Y-115511266D01*
X117260031Y-115485920D01*
X117210286Y-115460574D01*
X117100000Y-115443106D01*
X116989714Y-115460574D01*
X116989712Y-115460574D01*
X116989712Y-115460575D01*
X116890223Y-115511266D01*
X116811266Y-115590223D01*
X116760573Y-115689714D01*
X116752654Y-115739714D01*
X116722242Y-115803867D01*
X116661973Y-115841393D01*
X116608500Y-115844451D01*
X116600006Y-115843106D01*
X116599999Y-115843106D01*
X116591498Y-115844452D01*
X116521087Y-115835349D01*
X116466775Y-115789625D01*
X116447345Y-115739714D01*
X116439426Y-115689714D01*
X116388733Y-115590223D01*
X116309777Y-115511267D01*
X116309776Y-115511266D01*
X116260031Y-115485920D01*
X116210286Y-115460574D01*
X116100000Y-115443106D01*
X115989714Y-115460574D01*
X115989712Y-115460574D01*
X115989712Y-115460575D01*
X115890223Y-115511266D01*
X115811268Y-115590221D01*
X115805436Y-115598249D01*
X115803892Y-115597127D01*
X115763518Y-115639876D01*
X115694603Y-115656942D01*
X115627402Y-115634041D01*
X115595683Y-115597435D01*
X115594564Y-115598249D01*
X115588734Y-115590225D01*
X115588733Y-115590223D01*
X115509777Y-115511267D01*
X115509776Y-115511266D01*
X115460031Y-115485920D01*
X115410286Y-115460574D01*
X115300000Y-115443106D01*
X115189714Y-115460574D01*
X115189712Y-115460574D01*
X115189712Y-115460575D01*
X115090223Y-115511266D01*
X115011266Y-115590223D01*
X114960573Y-115689714D01*
X114952654Y-115739714D01*
X114922242Y-115803867D01*
X114861973Y-115841393D01*
X114808500Y-115844451D01*
X114800006Y-115843106D01*
X114799999Y-115843106D01*
X114791498Y-115844452D01*
X114721087Y-115835349D01*
X114666775Y-115789625D01*
X114647345Y-115739714D01*
X114639426Y-115689714D01*
X114588733Y-115590223D01*
X114509777Y-115511267D01*
X114509776Y-115511266D01*
X114460031Y-115485920D01*
X114410286Y-115460574D01*
X114300000Y-115443106D01*
X114189714Y-115460574D01*
X114189712Y-115460574D01*
X114189712Y-115460575D01*
X114090223Y-115511266D01*
X114011266Y-115590223D01*
X113960576Y-115689711D01*
X113960574Y-115689714D01*
X113943106Y-115800000D01*
X91681894Y-115800000D01*
X91664426Y-115689714D01*
X91658054Y-115677209D01*
X91644949Y-115607434D01*
X91671647Y-115541649D01*
X91729674Y-115500741D01*
X91800605Y-115497699D01*
X91827521Y-115507737D01*
X91889714Y-115539426D01*
X92000000Y-115556894D01*
X92110286Y-115539426D01*
X92209777Y-115488733D01*
X92288733Y-115409777D01*
X92339426Y-115310286D01*
X92356894Y-115200000D01*
X92339426Y-115089714D01*
X92288733Y-114990223D01*
X92287605Y-114989095D01*
X92286673Y-114987389D01*
X92282906Y-114982204D01*
X92283576Y-114981717D01*
X92253579Y-114926783D01*
X92258644Y-114855968D01*
X92283090Y-114817929D01*
X92282906Y-114817796D01*
X92285246Y-114814574D01*
X92287605Y-114810905D01*
X92288733Y-114809777D01*
X92339426Y-114710286D01*
X92356894Y-114600000D01*
X92339426Y-114489714D01*
X92288733Y-114390223D01*
X92287605Y-114389095D01*
X92286673Y-114387389D01*
X92282906Y-114382204D01*
X92283576Y-114381717D01*
X92253579Y-114326783D01*
X92258644Y-114255968D01*
X92283090Y-114217929D01*
X92282906Y-114217796D01*
X92285246Y-114214574D01*
X92287605Y-114210905D01*
X92288733Y-114209777D01*
X92339426Y-114110286D01*
X92356894Y-114000000D01*
X92339426Y-113889714D01*
X92288733Y-113790223D01*
X92209777Y-113711267D01*
X92209776Y-113711266D01*
X92160031Y-113685920D01*
X92110286Y-113660574D01*
X92000000Y-113643106D01*
X91889714Y-113660574D01*
X91889712Y-113660574D01*
X91889712Y-113660575D01*
X91790223Y-113711266D01*
X91790221Y-113711268D01*
X91789090Y-113712400D01*
X91787377Y-113713334D01*
X91782204Y-113717094D01*
X91781717Y-113716424D01*
X91726776Y-113746421D01*
X91655960Y-113741352D01*
X91617929Y-113716910D01*
X91617796Y-113717094D01*
X91614595Y-113714768D01*
X91610910Y-113712400D01*
X91609776Y-113711266D01*
X91560031Y-113685920D01*
X91510286Y-113660574D01*
X91400000Y-113643106D01*
X91289714Y-113660574D01*
X91289712Y-113660574D01*
X91289712Y-113660575D01*
X91190223Y-113711266D01*
X91190221Y-113711268D01*
X91189090Y-113712400D01*
X91187377Y-113713334D01*
X91182204Y-113717094D01*
X91181717Y-113716424D01*
X91126776Y-113746421D01*
X91055960Y-113741352D01*
X91017929Y-113716910D01*
X91017796Y-113717094D01*
X91014595Y-113714768D01*
X91010910Y-113712400D01*
X91009776Y-113711266D01*
X90960031Y-113685920D01*
X90910286Y-113660574D01*
X90800000Y-113643106D01*
X90689714Y-113660574D01*
X90689712Y-113660574D01*
X90689712Y-113660575D01*
X90590223Y-113711266D01*
X90511266Y-113790223D01*
X90460573Y-113889714D01*
X90444599Y-113990567D01*
X90414186Y-114054720D01*
X90353918Y-114092246D01*
X90282929Y-114091231D01*
X90223757Y-114051998D01*
X90223541Y-114051741D01*
X89677878Y-113400000D01*
X96192422Y-113400000D01*
X96212670Y-113579703D01*
X96212670Y-113579705D01*
X96212671Y-113579706D01*
X96272397Y-113750395D01*
X96272398Y-113750397D01*
X96368609Y-113903516D01*
X96368611Y-113903519D01*
X96496480Y-114031388D01*
X96496483Y-114031390D01*
X96649605Y-114127603D01*
X96820297Y-114187330D01*
X97000000Y-114207578D01*
X97179703Y-114187330D01*
X97350395Y-114127603D01*
X97503517Y-114031390D01*
X97631390Y-113903517D01*
X97727603Y-113750395D01*
X97787330Y-113579703D01*
X97807578Y-113400000D01*
X98192422Y-113400000D01*
X98212670Y-113579703D01*
X98212670Y-113579705D01*
X98212671Y-113579706D01*
X98272397Y-113750395D01*
X98272398Y-113750397D01*
X98368609Y-113903516D01*
X98368611Y-113903519D01*
X98496480Y-114031388D01*
X98496483Y-114031390D01*
X98649605Y-114127603D01*
X98820297Y-114187330D01*
X99000000Y-114207578D01*
X99179703Y-114187330D01*
X99350395Y-114127603D01*
X99503517Y-114031390D01*
X99631390Y-113903517D01*
X99727603Y-113750395D01*
X99787330Y-113579703D01*
X99807578Y-113400000D01*
X100192422Y-113400000D01*
X100212670Y-113579703D01*
X100212670Y-113579705D01*
X100212671Y-113579706D01*
X100272397Y-113750395D01*
X100272398Y-113750397D01*
X100368609Y-113903516D01*
X100368611Y-113903519D01*
X100496480Y-114031388D01*
X100496483Y-114031390D01*
X100649605Y-114127603D01*
X100820297Y-114187330D01*
X101000000Y-114207578D01*
X101179703Y-114187330D01*
X101350395Y-114127603D01*
X101503517Y-114031390D01*
X101631390Y-113903517D01*
X101696434Y-113800000D01*
X102125000Y-113800000D01*
X102125000Y-114094701D01*
X102136604Y-114153036D01*
X102180807Y-114219192D01*
X102246963Y-114263395D01*
X102305298Y-114274999D01*
X102305303Y-114275000D01*
X102600000Y-114275000D01*
X102600000Y-113800000D01*
X102125000Y-113800000D01*
X101696434Y-113800000D01*
X101727603Y-113750395D01*
X101787330Y-113579703D01*
X101807578Y-113400000D01*
X102595014Y-113400000D01*
X102614835Y-113525148D01*
X102672359Y-113638045D01*
X102761955Y-113727641D01*
X102874852Y-113785165D01*
X102968519Y-113800000D01*
X103031481Y-113800000D01*
X103400000Y-113800000D01*
X103400000Y-114275000D01*
X103694697Y-114275000D01*
X103694701Y-114274999D01*
X103753036Y-114263395D01*
X103819192Y-114219192D01*
X103863395Y-114153036D01*
X103874999Y-114094701D01*
X103875000Y-114094696D01*
X103875000Y-114075000D01*
X111293106Y-114075000D01*
X111310574Y-114185286D01*
X111327850Y-114219192D01*
X111356284Y-114274999D01*
X111361267Y-114284777D01*
X111440223Y-114363733D01*
X111539714Y-114414426D01*
X111650000Y-114431894D01*
X111760286Y-114414426D01*
X111859777Y-114363733D01*
X111938733Y-114284777D01*
X111989426Y-114185286D01*
X112006894Y-114075000D01*
X111989426Y-113964714D01*
X111938733Y-113865223D01*
X111859777Y-113786267D01*
X111859776Y-113786266D01*
X111810031Y-113760920D01*
X111760286Y-113735574D01*
X111650000Y-113718106D01*
X111539714Y-113735574D01*
X111539712Y-113735574D01*
X111539712Y-113735575D01*
X111440223Y-113786266D01*
X111361266Y-113865223D01*
X111341755Y-113903517D01*
X111310574Y-113964714D01*
X111293106Y-114075000D01*
X103875000Y-114075000D01*
X103875000Y-113800000D01*
X103400000Y-113800000D01*
X103031481Y-113800000D01*
X103125148Y-113785165D01*
X103238045Y-113727641D01*
X103327641Y-113638045D01*
X103385165Y-113525148D01*
X103404986Y-113400000D01*
X103385165Y-113274852D01*
X103327641Y-113161955D01*
X103265686Y-113100000D01*
X114643106Y-113100000D01*
X114660574Y-113210286D01*
X114660575Y-113210287D01*
X114706217Y-113299867D01*
X114711267Y-113309777D01*
X114790223Y-113388733D01*
X114889714Y-113439426D01*
X115000000Y-113456894D01*
X115110286Y-113439426D01*
X115209777Y-113388733D01*
X115288733Y-113309777D01*
X115339426Y-113210286D01*
X115356894Y-113100000D01*
X115339426Y-112989714D01*
X115288733Y-112890223D01*
X115209777Y-112811267D01*
X115209776Y-112811266D01*
X115160031Y-112785920D01*
X115110286Y-112760574D01*
X115000000Y-112743106D01*
X114889714Y-112760574D01*
X114889712Y-112760574D01*
X114889712Y-112760575D01*
X114790223Y-112811266D01*
X114711266Y-112890223D01*
X114699389Y-112913534D01*
X114660574Y-112989714D01*
X114643106Y-113100000D01*
X103265686Y-113100000D01*
X103238045Y-113072359D01*
X103125148Y-113014835D01*
X103031481Y-113000000D01*
X102968519Y-113000000D01*
X102874852Y-113014835D01*
X102761955Y-113072359D01*
X102672359Y-113161955D01*
X102614835Y-113274852D01*
X102595014Y-113400000D01*
X101807578Y-113400000D01*
X101787330Y-113220297D01*
X101727603Y-113049605D01*
X101696434Y-113000000D01*
X102125000Y-113000000D01*
X102600000Y-113000000D01*
X102600000Y-112525000D01*
X103400000Y-112525000D01*
X103400000Y-113000000D01*
X103875000Y-113000000D01*
X103875000Y-112705303D01*
X103874999Y-112705298D01*
X103863395Y-112646963D01*
X103819192Y-112580807D01*
X103753036Y-112536604D01*
X103694701Y-112525000D01*
X103400000Y-112525000D01*
X102600000Y-112525000D01*
X102305298Y-112525000D01*
X102246963Y-112536604D01*
X102180807Y-112580807D01*
X102136604Y-112646963D01*
X102125000Y-112705298D01*
X102125000Y-113000000D01*
X101696434Y-113000000D01*
X101631390Y-112896483D01*
X101631388Y-112896480D01*
X101503519Y-112768611D01*
X101503516Y-112768609D01*
X101350397Y-112672398D01*
X101350395Y-112672397D01*
X101277708Y-112646963D01*
X101179703Y-112612670D01*
X101000000Y-112592422D01*
X100820297Y-112612670D01*
X100820294Y-112612670D01*
X100820293Y-112612671D01*
X100649604Y-112672397D01*
X100649602Y-112672398D01*
X100496483Y-112768609D01*
X100496480Y-112768611D01*
X100368611Y-112896480D01*
X100368609Y-112896483D01*
X100272398Y-113049602D01*
X100272397Y-113049604D01*
X100216173Y-113210287D01*
X100212670Y-113220297D01*
X100192422Y-113400000D01*
X99807578Y-113400000D01*
X99787330Y-113220297D01*
X99727603Y-113049605D01*
X99631390Y-112896483D01*
X99631388Y-112896480D01*
X99503519Y-112768611D01*
X99503516Y-112768609D01*
X99350397Y-112672398D01*
X99350395Y-112672397D01*
X99277708Y-112646963D01*
X99179703Y-112612670D01*
X99000000Y-112592422D01*
X98820297Y-112612670D01*
X98820294Y-112612670D01*
X98820293Y-112612671D01*
X98649604Y-112672397D01*
X98649602Y-112672398D01*
X98496483Y-112768609D01*
X98496480Y-112768611D01*
X98368611Y-112896480D01*
X98368609Y-112896483D01*
X98272398Y-113049602D01*
X98272397Y-113049604D01*
X98216173Y-113210287D01*
X98212670Y-113220297D01*
X98192422Y-113400000D01*
X97807578Y-113400000D01*
X97787330Y-113220297D01*
X97727603Y-113049605D01*
X97631390Y-112896483D01*
X97631388Y-112896480D01*
X97503519Y-112768611D01*
X97503516Y-112768609D01*
X97350397Y-112672398D01*
X97350395Y-112672397D01*
X97277708Y-112646963D01*
X97179703Y-112612670D01*
X97000000Y-112592422D01*
X96820297Y-112612670D01*
X96820294Y-112612670D01*
X96820293Y-112612671D01*
X96649604Y-112672397D01*
X96649602Y-112672398D01*
X96496483Y-112768609D01*
X96496480Y-112768611D01*
X96368611Y-112896480D01*
X96368609Y-112896483D01*
X96272398Y-113049602D01*
X96272397Y-113049604D01*
X96216173Y-113210287D01*
X96212670Y-113220297D01*
X96192422Y-113400000D01*
X89677878Y-113400000D01*
X88589466Y-112100000D01*
X95068106Y-112100000D01*
X95085574Y-112210286D01*
X95101440Y-112241425D01*
X95136264Y-112309773D01*
X95136267Y-112309777D01*
X95215223Y-112388733D01*
X95314714Y-112439426D01*
X95425000Y-112456894D01*
X95535286Y-112439426D01*
X95634777Y-112388733D01*
X95713733Y-112309777D01*
X95725233Y-112287207D01*
X95773981Y-112235591D01*
X95842896Y-112218525D01*
X95910097Y-112241425D01*
X95949767Y-112287207D01*
X95961267Y-112309777D01*
X96040223Y-112388733D01*
X96139714Y-112439426D01*
X96250000Y-112456894D01*
X96360286Y-112439426D01*
X96459777Y-112388733D01*
X96538733Y-112309777D01*
X96589426Y-112210286D01*
X96606894Y-112100000D01*
X96589426Y-111989714D01*
X96538733Y-111890223D01*
X96459777Y-111811267D01*
X96459776Y-111811266D01*
X96410031Y-111785920D01*
X96360286Y-111760574D01*
X96250000Y-111743106D01*
X96139714Y-111760574D01*
X96139712Y-111760574D01*
X96139712Y-111760575D01*
X96040223Y-111811266D01*
X95961268Y-111890221D01*
X95961264Y-111890226D01*
X95949766Y-111912794D01*
X95901018Y-111964409D01*
X95832103Y-111981474D01*
X95764901Y-111958573D01*
X95725234Y-111912794D01*
X95713735Y-111890226D01*
X95713731Y-111890221D01*
X95634776Y-111811266D01*
X95585031Y-111785920D01*
X95535286Y-111760574D01*
X95425000Y-111743106D01*
X95314714Y-111760574D01*
X95314712Y-111760574D01*
X95314712Y-111760575D01*
X95215223Y-111811266D01*
X95136266Y-111890223D01*
X95101441Y-111958573D01*
X95085574Y-111989714D01*
X95068106Y-112100000D01*
X88589466Y-112100000D01*
X88485988Y-111976406D01*
X88212711Y-111650003D01*
X107368104Y-111650003D01*
X107385597Y-111771672D01*
X107385599Y-111771679D01*
X107436666Y-111883501D01*
X107506774Y-111964409D01*
X107517169Y-111976406D01*
X107537874Y-111989712D01*
X107620584Y-112042866D01*
X107715163Y-112070637D01*
X107738531Y-112077499D01*
X107738532Y-112077499D01*
X107738535Y-112077500D01*
X107738538Y-112077500D01*
X107861462Y-112077500D01*
X107861465Y-112077500D01*
X107979416Y-112042866D01*
X108082830Y-111976406D01*
X108082831Y-111976406D01*
X108082832Y-111976405D01*
X108163334Y-111883501D01*
X108214401Y-111771679D01*
X108219330Y-111737399D01*
X108231896Y-111650003D01*
X108231896Y-111649996D01*
X108214402Y-111528327D01*
X108214401Y-111528326D01*
X108214401Y-111528321D01*
X108163334Y-111416499D01*
X108082832Y-111323595D01*
X108082831Y-111323594D01*
X108082830Y-111323593D01*
X107979416Y-111257134D01*
X107861468Y-111222500D01*
X107861465Y-111222500D01*
X107738535Y-111222500D01*
X107738531Y-111222500D01*
X107620583Y-111257134D01*
X107517169Y-111323593D01*
X107517168Y-111323593D01*
X107436667Y-111416497D01*
X107385599Y-111528320D01*
X107385597Y-111528327D01*
X107368104Y-111649996D01*
X107368104Y-111650003D01*
X88212711Y-111650003D01*
X87228952Y-110475000D01*
X100893106Y-110475000D01*
X100910574Y-110585286D01*
X100910575Y-110585287D01*
X100942250Y-110647455D01*
X100961267Y-110684777D01*
X101040223Y-110763733D01*
X101139714Y-110814426D01*
X101250000Y-110831894D01*
X101360286Y-110814426D01*
X101459777Y-110763733D01*
X101473510Y-110750000D01*
X119618106Y-110750000D01*
X119635574Y-110860286D01*
X119686267Y-110959777D01*
X119765223Y-111038733D01*
X119864714Y-111089426D01*
X119975000Y-111106894D01*
X120085286Y-111089426D01*
X120184777Y-111038733D01*
X120263733Y-110959777D01*
X120314426Y-110860286D01*
X120331894Y-110750000D01*
X120314426Y-110639714D01*
X120263733Y-110540223D01*
X120184777Y-110461267D01*
X120184776Y-110461266D01*
X120135031Y-110435920D01*
X120085286Y-110410574D01*
X119975000Y-110393106D01*
X119864714Y-110410574D01*
X119864712Y-110410574D01*
X119864712Y-110410575D01*
X119765223Y-110461266D01*
X119686266Y-110540223D01*
X119638522Y-110633928D01*
X119635574Y-110639714D01*
X119618106Y-110750000D01*
X101473510Y-110750000D01*
X101538733Y-110684777D01*
X101589426Y-110585286D01*
X101606894Y-110475000D01*
X101590263Y-110370000D01*
X115608106Y-110370000D01*
X115625574Y-110480286D01*
X115625575Y-110480287D01*
X115666076Y-110559777D01*
X115676267Y-110579777D01*
X115755223Y-110658733D01*
X115854714Y-110709426D01*
X115965000Y-110726894D01*
X116075286Y-110709426D01*
X116174777Y-110658733D01*
X116174786Y-110658723D01*
X116176066Y-110657795D01*
X116177906Y-110657137D01*
X116183612Y-110654231D01*
X116183987Y-110654967D01*
X116242931Y-110633928D01*
X116307340Y-110647454D01*
X116389714Y-110689426D01*
X116500000Y-110706894D01*
X116610286Y-110689426D01*
X116709777Y-110638733D01*
X116788733Y-110559777D01*
X116839426Y-110460286D01*
X116856894Y-110350000D01*
X116839426Y-110239714D01*
X116788733Y-110140223D01*
X116709777Y-110061267D01*
X116709776Y-110061266D01*
X116649538Y-110030574D01*
X116610286Y-110010574D01*
X116500000Y-109993106D01*
X116389714Y-110010574D01*
X116389712Y-110010574D01*
X116389712Y-110010575D01*
X116290221Y-110061268D01*
X116288921Y-110062213D01*
X116287072Y-110062872D01*
X116281388Y-110065769D01*
X116281013Y-110065034D01*
X116222053Y-110086072D01*
X116157657Y-110072544D01*
X116075288Y-110030575D01*
X116075287Y-110030574D01*
X116075286Y-110030574D01*
X115965000Y-110013106D01*
X115854714Y-110030574D01*
X115854712Y-110030574D01*
X115854712Y-110030575D01*
X115755223Y-110081266D01*
X115676266Y-110160223D01*
X115635765Y-110239712D01*
X115625574Y-110259714D01*
X115608106Y-110370000D01*
X101590263Y-110370000D01*
X101589426Y-110364714D01*
X101538733Y-110265223D01*
X101459777Y-110186267D01*
X101459776Y-110186266D01*
X101408663Y-110160223D01*
X101360286Y-110135574D01*
X101250000Y-110118106D01*
X101139714Y-110135574D01*
X101139712Y-110135574D01*
X101139712Y-110135575D01*
X101040223Y-110186266D01*
X100961266Y-110265223D01*
X100918071Y-110350000D01*
X100910574Y-110364714D01*
X100893106Y-110475000D01*
X87228952Y-110475000D01*
X86621953Y-109750000D01*
X103043106Y-109750000D01*
X103060574Y-109860286D01*
X103081132Y-109900633D01*
X103109797Y-109956893D01*
X103111267Y-109959777D01*
X103190223Y-110038733D01*
X103289714Y-110089426D01*
X103400000Y-110106894D01*
X103510286Y-110089426D01*
X103609777Y-110038733D01*
X103610905Y-110037605D01*
X103612610Y-110036673D01*
X103617796Y-110032906D01*
X103618282Y-110033576D01*
X103673217Y-110003579D01*
X103744032Y-110008644D01*
X103782070Y-110033090D01*
X103782204Y-110032906D01*
X103785425Y-110035246D01*
X103789095Y-110037605D01*
X103790223Y-110038733D01*
X103889714Y-110089426D01*
X104000000Y-110106894D01*
X104110286Y-110089426D01*
X104209777Y-110038733D01*
X104288733Y-109959777D01*
X104318868Y-109900632D01*
X104367616Y-109849017D01*
X104436530Y-109831951D01*
X104503732Y-109854851D01*
X104520230Y-109868740D01*
X104540223Y-109888733D01*
X104639714Y-109939426D01*
X104750000Y-109956894D01*
X104860286Y-109939426D01*
X104959777Y-109888733D01*
X105038733Y-109809777D01*
X105089426Y-109710286D01*
X105106894Y-109600000D01*
X105089426Y-109489714D01*
X105038733Y-109390223D01*
X104959777Y-109311267D01*
X104959776Y-109311266D01*
X104910031Y-109285920D01*
X104860286Y-109260574D01*
X104750000Y-109243106D01*
X104639714Y-109260574D01*
X104639712Y-109260574D01*
X104639712Y-109260575D01*
X104540223Y-109311266D01*
X104461268Y-109390221D01*
X104461264Y-109390226D01*
X104431130Y-109449368D01*
X104382381Y-109500983D01*
X104313466Y-109518048D01*
X104246265Y-109495146D01*
X104229769Y-109481259D01*
X104209776Y-109461266D01*
X104160031Y-109435920D01*
X104110286Y-109410574D01*
X104000000Y-109393106D01*
X103889714Y-109410574D01*
X103889712Y-109410574D01*
X103889712Y-109410575D01*
X103790223Y-109461266D01*
X103790221Y-109461268D01*
X103789090Y-109462400D01*
X103787377Y-109463334D01*
X103782204Y-109467094D01*
X103781717Y-109466424D01*
X103726776Y-109496421D01*
X103655960Y-109491352D01*
X103617929Y-109466910D01*
X103617796Y-109467094D01*
X103614595Y-109464768D01*
X103610910Y-109462400D01*
X103609776Y-109461266D01*
X103560031Y-109435920D01*
X103510286Y-109410574D01*
X103400000Y-109393106D01*
X103289714Y-109410574D01*
X103289712Y-109410574D01*
X103289712Y-109410575D01*
X103190223Y-109461266D01*
X103111266Y-109540223D01*
X103100000Y-109562335D01*
X103060574Y-109639714D01*
X103043106Y-109750000D01*
X86621953Y-109750000D01*
X86086120Y-109110000D01*
X117043106Y-109110000D01*
X117060574Y-109220286D01*
X117111267Y-109319777D01*
X117190223Y-109398733D01*
X117289714Y-109449426D01*
X117400000Y-109466894D01*
X117510286Y-109449426D01*
X117609777Y-109398733D01*
X117658510Y-109350000D01*
X118593106Y-109350000D01*
X118610574Y-109460286D01*
X118625567Y-109489712D01*
X118651303Y-109540223D01*
X118661267Y-109559777D01*
X118740223Y-109638733D01*
X118839714Y-109689426D01*
X118950000Y-109706894D01*
X119060286Y-109689426D01*
X119159777Y-109638733D01*
X119238733Y-109559777D01*
X119289426Y-109460286D01*
X119306894Y-109350000D01*
X119289426Y-109239714D01*
X119238733Y-109140223D01*
X119237605Y-109139095D01*
X119236673Y-109137389D01*
X119232906Y-109132204D01*
X119233576Y-109131717D01*
X119203579Y-109076783D01*
X119208644Y-109005968D01*
X119233090Y-108967929D01*
X119232906Y-108967796D01*
X119235246Y-108964574D01*
X119237605Y-108960905D01*
X119238733Y-108959777D01*
X119289426Y-108860286D01*
X119306894Y-108750000D01*
X119289426Y-108639714D01*
X119238733Y-108540223D01*
X119237605Y-108539095D01*
X119236673Y-108537389D01*
X119232906Y-108532204D01*
X119233576Y-108531717D01*
X119203579Y-108476783D01*
X119208644Y-108405968D01*
X119233090Y-108367929D01*
X119232906Y-108367796D01*
X119235246Y-108364574D01*
X119237605Y-108360905D01*
X119238733Y-108359777D01*
X119289426Y-108260286D01*
X119306894Y-108150000D01*
X119289426Y-108039714D01*
X119238733Y-107940223D01*
X119159777Y-107861267D01*
X119159776Y-107861266D01*
X119105283Y-107833501D01*
X119060286Y-107810574D01*
X118950000Y-107793106D01*
X118839714Y-107810574D01*
X118839712Y-107810574D01*
X118839712Y-107810575D01*
X118740223Y-107861266D01*
X118661266Y-107940223D01*
X118627537Y-108006422D01*
X118610574Y-108039714D01*
X118593106Y-108150000D01*
X118610574Y-108260286D01*
X118625422Y-108289426D01*
X118661266Y-108359776D01*
X118662400Y-108360910D01*
X118663334Y-108362622D01*
X118667094Y-108367796D01*
X118666424Y-108368282D01*
X118696421Y-108423224D01*
X118691352Y-108494040D01*
X118666910Y-108532070D01*
X118667094Y-108532204D01*
X118664768Y-108535404D01*
X118662400Y-108539090D01*
X118661268Y-108540221D01*
X118661266Y-108540223D01*
X118610722Y-108639424D01*
X118610574Y-108639714D01*
X118593106Y-108750000D01*
X118610574Y-108860286D01*
X118610575Y-108860287D01*
X118661266Y-108959776D01*
X118662400Y-108960910D01*
X118663334Y-108962622D01*
X118667094Y-108967796D01*
X118666424Y-108968282D01*
X118696421Y-109023224D01*
X118691352Y-109094040D01*
X118666910Y-109132070D01*
X118667094Y-109132204D01*
X118664768Y-109135404D01*
X118662400Y-109139090D01*
X118661268Y-109140221D01*
X118661266Y-109140223D01*
X118610575Y-109239712D01*
X118610574Y-109239714D01*
X118593106Y-109350000D01*
X117658510Y-109350000D01*
X117688733Y-109319777D01*
X117739426Y-109220286D01*
X117756894Y-109110000D01*
X117739426Y-108999714D01*
X117688733Y-108900223D01*
X117609777Y-108821267D01*
X117609776Y-108821266D01*
X117545925Y-108788733D01*
X117510286Y-108770574D01*
X117400000Y-108753106D01*
X117289714Y-108770574D01*
X117289712Y-108770574D01*
X117289712Y-108770575D01*
X117190223Y-108821266D01*
X117111266Y-108900223D01*
X117076837Y-108967796D01*
X117060574Y-108999714D01*
X117043106Y-109110000D01*
X86086120Y-109110000D01*
X85784714Y-108750000D01*
X95793106Y-108750000D01*
X95810574Y-108860286D01*
X95810575Y-108860287D01*
X95845245Y-108928333D01*
X95861267Y-108959777D01*
X95940223Y-109038733D01*
X96039714Y-109089426D01*
X96150000Y-109106894D01*
X96260286Y-109089426D01*
X96359777Y-109038733D01*
X96438733Y-108959777D01*
X96489426Y-108860286D01*
X96506894Y-108750000D01*
X96489426Y-108639714D01*
X96438733Y-108540223D01*
X96398510Y-108500000D01*
X98943106Y-108500000D01*
X98960574Y-108610286D01*
X99011267Y-108709777D01*
X99090223Y-108788733D01*
X99189714Y-108839426D01*
X99300000Y-108856894D01*
X99410286Y-108839426D01*
X99509777Y-108788733D01*
X99588733Y-108709777D01*
X99639426Y-108610286D01*
X99656894Y-108500000D01*
X99639426Y-108389714D01*
X99588733Y-108290223D01*
X99548510Y-108250000D01*
X103093106Y-108250000D01*
X103110574Y-108360286D01*
X103125567Y-108389712D01*
X103150544Y-108438733D01*
X103161267Y-108459777D01*
X103240223Y-108538733D01*
X103339714Y-108589426D01*
X103450000Y-108606894D01*
X103560286Y-108589426D01*
X103642799Y-108547383D01*
X103712574Y-108534280D01*
X103757199Y-108547383D01*
X103839714Y-108589426D01*
X103950000Y-108606894D01*
X104060286Y-108589426D01*
X104159777Y-108538733D01*
X104238733Y-108459777D01*
X104289426Y-108360286D01*
X104306894Y-108250000D01*
X104289426Y-108139714D01*
X104238733Y-108040223D01*
X104159777Y-107961267D01*
X104159776Y-107961266D01*
X104091356Y-107926405D01*
X104060286Y-107910574D01*
X103950000Y-107893106D01*
X103839714Y-107910574D01*
X103839712Y-107910574D01*
X103839710Y-107910575D01*
X103757202Y-107952615D01*
X103687425Y-107965719D01*
X103642798Y-107952615D01*
X103560289Y-107910575D01*
X103560287Y-107910574D01*
X103560286Y-107910574D01*
X103450000Y-107893106D01*
X103339714Y-107910574D01*
X103339712Y-107910574D01*
X103339712Y-107910575D01*
X103240223Y-107961266D01*
X103161266Y-108040223D01*
X103110575Y-108139712D01*
X103110574Y-108139714D01*
X103093106Y-108250000D01*
X99548510Y-108250000D01*
X99509777Y-108211267D01*
X99509776Y-108211266D01*
X99460031Y-108185920D01*
X99410286Y-108160574D01*
X99300000Y-108143106D01*
X99189714Y-108160574D01*
X99189712Y-108160574D01*
X99189712Y-108160575D01*
X99090223Y-108211266D01*
X99011266Y-108290223D01*
X98975253Y-108360905D01*
X98960574Y-108389714D01*
X98943106Y-108500000D01*
X96398510Y-108500000D01*
X96359777Y-108461267D01*
X96359776Y-108461266D01*
X96285113Y-108423224D01*
X96260286Y-108410574D01*
X96150000Y-108393106D01*
X96039714Y-108410574D01*
X96039712Y-108410574D01*
X96039712Y-108410575D01*
X95940223Y-108461266D01*
X95861266Y-108540223D01*
X95810722Y-108639424D01*
X95810574Y-108639714D01*
X95793106Y-108750000D01*
X85784714Y-108750000D01*
X85114922Y-107950000D01*
X89618106Y-107950000D01*
X89635574Y-108060286D01*
X89635575Y-108060287D01*
X89677772Y-108143106D01*
X89686267Y-108159777D01*
X89765223Y-108238733D01*
X89864714Y-108289426D01*
X89975000Y-108306894D01*
X90015608Y-108300462D01*
X90086018Y-108309560D01*
X90140333Y-108355281D01*
X90159767Y-108405195D01*
X90160428Y-108409370D01*
X90160574Y-108410287D01*
X90205526Y-108498510D01*
X90211267Y-108509777D01*
X90290223Y-108588733D01*
X90389714Y-108639426D01*
X90500000Y-108656894D01*
X90610286Y-108639426D01*
X90709777Y-108588733D01*
X90788733Y-108509777D01*
X90839426Y-108410286D01*
X90856894Y-108300000D01*
X90839426Y-108189714D01*
X90788733Y-108090223D01*
X90709777Y-108011267D01*
X90709776Y-108011266D01*
X90660031Y-107985920D01*
X90610286Y-107960574D01*
X90500000Y-107943106D01*
X90499998Y-107943106D01*
X90459389Y-107949538D01*
X90388978Y-107940438D01*
X90334664Y-107894716D01*
X90315231Y-107844800D01*
X90314426Y-107839714D01*
X90299578Y-107810574D01*
X90263733Y-107740223D01*
X90184776Y-107661266D01*
X90135031Y-107635920D01*
X90085286Y-107610574D01*
X89975000Y-107593106D01*
X89864714Y-107610574D01*
X89864712Y-107610574D01*
X89864712Y-107610575D01*
X89765223Y-107661266D01*
X89686266Y-107740223D01*
X89650421Y-107810575D01*
X89635574Y-107839714D01*
X89618106Y-107950000D01*
X85114922Y-107950000D01*
X84060000Y-106690000D01*
X84059999Y-106689999D01*
X78115322Y-111708738D01*
X78050368Y-111737399D01*
X77980229Y-111726392D01*
X77927176Y-111679213D01*
X77923657Y-111673216D01*
X77887938Y-111608290D01*
X77885647Y-111603925D01*
X77847842Y-111528327D01*
X77449517Y-110731794D01*
X77447397Y-110727336D01*
X77439302Y-110709424D01*
X77045823Y-109838775D01*
X77043883Y-109834245D01*
X77033961Y-109809776D01*
X76677498Y-108930652D01*
X76675730Y-108926034D01*
X76572415Y-108639424D01*
X76345061Y-108008718D01*
X76343484Y-108004056D01*
X76342750Y-108001739D01*
X76049063Y-107074481D01*
X76047667Y-107069752D01*
X76044607Y-107058587D01*
X76028551Y-107000000D01*
X78393112Y-107000000D01*
X78410580Y-107110286D01*
X78461273Y-107209777D01*
X78540229Y-107288733D01*
X78639720Y-107339426D01*
X78750006Y-107356894D01*
X78860292Y-107339426D01*
X78959783Y-107288733D01*
X79038739Y-107209777D01*
X79089432Y-107110286D01*
X79106900Y-107000000D01*
X79089432Y-106889714D01*
X79038739Y-106790223D01*
X78959783Y-106711267D01*
X78959782Y-106711266D01*
X78885843Y-106673593D01*
X78860292Y-106660574D01*
X78750006Y-106643106D01*
X78639720Y-106660574D01*
X78639718Y-106660574D01*
X78639718Y-106660575D01*
X78540229Y-106711266D01*
X78461272Y-106790223D01*
X78410728Y-106889424D01*
X78410580Y-106889714D01*
X78393112Y-107000000D01*
X76028551Y-107000000D01*
X75907974Y-106560024D01*
X82468106Y-106560024D01*
X82485574Y-106670310D01*
X82506442Y-106711266D01*
X82534584Y-106766499D01*
X82536267Y-106769801D01*
X82615223Y-106848757D01*
X82714714Y-106899450D01*
X82825000Y-106916918D01*
X82935286Y-106899450D01*
X83034777Y-106848757D01*
X83113733Y-106769801D01*
X83164426Y-106670310D01*
X83181894Y-106560024D01*
X83164426Y-106449738D01*
X83113733Y-106350247D01*
X83038486Y-106275000D01*
X92568106Y-106275000D01*
X92585574Y-106385286D01*
X92606026Y-106425426D01*
X92628738Y-106470002D01*
X92636267Y-106484777D01*
X92715223Y-106563733D01*
X92814714Y-106614426D01*
X92925000Y-106631894D01*
X93035286Y-106614426D01*
X93134777Y-106563733D01*
X93173405Y-106525105D01*
X93235717Y-106491079D01*
X93306532Y-106496144D01*
X93351595Y-106525105D01*
X93390223Y-106563733D01*
X93489714Y-106614426D01*
X93600000Y-106631894D01*
X93710286Y-106614426D01*
X93809777Y-106563733D01*
X93888733Y-106484777D01*
X93939426Y-106385286D01*
X93956894Y-106275000D01*
X93939426Y-106164714D01*
X93888733Y-106065223D01*
X93809777Y-105986267D01*
X93809776Y-105986266D01*
X93738787Y-105950096D01*
X93710286Y-105935574D01*
X93600000Y-105918106D01*
X93489714Y-105935574D01*
X93489712Y-105935574D01*
X93489712Y-105935575D01*
X93390223Y-105986266D01*
X93351594Y-106024895D01*
X93289282Y-106058920D01*
X93218466Y-106053854D01*
X93173406Y-106024895D01*
X93134779Y-105986269D01*
X93134776Y-105986266D01*
X93063787Y-105950096D01*
X93035286Y-105935574D01*
X92925000Y-105918106D01*
X92814714Y-105935574D01*
X92814712Y-105935574D01*
X92814712Y-105935575D01*
X92715223Y-105986266D01*
X92636266Y-106065223D01*
X92586074Y-106163733D01*
X92585574Y-106164714D01*
X92568106Y-106275000D01*
X83038486Y-106275000D01*
X83034777Y-106271291D01*
X83034776Y-106271290D01*
X82980995Y-106243888D01*
X82935286Y-106220598D01*
X82825000Y-106203130D01*
X82714714Y-106220598D01*
X82714712Y-106220598D01*
X82714712Y-106220599D01*
X82615223Y-106271290D01*
X82536266Y-106350247D01*
X82497961Y-106425427D01*
X82485574Y-106449738D01*
X82468106Y-106560024D01*
X75907974Y-106560024D01*
X75789941Y-106129334D01*
X75788743Y-106124601D01*
X75690112Y-105700000D01*
X77293106Y-105700000D01*
X77310574Y-105810286D01*
X77325828Y-105840223D01*
X77353754Y-105895033D01*
X77361267Y-105909777D01*
X77440223Y-105988733D01*
X77539714Y-106039426D01*
X77650000Y-106056894D01*
X77760286Y-106039426D01*
X77859777Y-105988733D01*
X77938733Y-105909777D01*
X77989426Y-105810286D01*
X78006894Y-105700000D01*
X77989426Y-105589714D01*
X77938733Y-105490223D01*
X77859777Y-105411267D01*
X77859776Y-105411266D01*
X77795128Y-105378327D01*
X77760286Y-105360574D01*
X77650000Y-105343106D01*
X77539714Y-105360574D01*
X77539712Y-105360574D01*
X77539712Y-105360575D01*
X77440223Y-105411266D01*
X77361266Y-105490223D01*
X77332723Y-105546243D01*
X77310574Y-105589714D01*
X77293106Y-105700000D01*
X75690112Y-105700000D01*
X75568108Y-105174775D01*
X75567086Y-105169947D01*
X75563731Y-105152408D01*
X75383893Y-104212240D01*
X75383064Y-104207392D01*
X75382484Y-104203551D01*
X75381948Y-104200000D01*
X82253627Y-104200000D01*
X82271095Y-104310286D01*
X82283033Y-104333715D01*
X82318780Y-104403875D01*
X82321788Y-104409777D01*
X82400744Y-104488733D01*
X82500235Y-104539426D01*
X82610521Y-104556894D01*
X82720807Y-104539426D01*
X82820298Y-104488733D01*
X82899254Y-104409777D01*
X82902529Y-104403348D01*
X82951272Y-104351735D01*
X83020186Y-104334665D01*
X83087389Y-104357563D01*
X83131544Y-104413159D01*
X83133845Y-104419466D01*
X83155143Y-104461267D01*
X83184777Y-104519426D01*
X83263733Y-104598382D01*
X83363224Y-104649075D01*
X83473510Y-104666543D01*
X83583796Y-104649075D01*
X83683287Y-104598382D01*
X83762243Y-104519426D01*
X83812936Y-104419935D01*
X83827568Y-104327550D01*
X83857980Y-104263401D01*
X83918248Y-104225874D01*
X83932282Y-104222821D01*
X83985286Y-104214426D01*
X84084777Y-104163733D01*
X84163733Y-104084777D01*
X84214426Y-103985286D01*
X84231894Y-103875000D01*
X84214426Y-103764714D01*
X84163733Y-103665223D01*
X84084777Y-103586267D01*
X84084776Y-103586266D01*
X84013422Y-103549910D01*
X83985286Y-103535574D01*
X83875000Y-103518106D01*
X83764714Y-103535574D01*
X83764712Y-103535574D01*
X83764712Y-103535575D01*
X83665223Y-103586266D01*
X83586268Y-103665221D01*
X83586266Y-103665224D01*
X83581135Y-103675295D01*
X83532386Y-103726909D01*
X83463471Y-103743974D01*
X83396269Y-103721072D01*
X83356602Y-103675293D01*
X83356199Y-103674502D01*
X83338733Y-103640223D01*
X83300104Y-103601594D01*
X83266079Y-103539283D01*
X83271144Y-103468468D01*
X83300105Y-103423405D01*
X83338733Y-103384777D01*
X83389426Y-103285286D01*
X83406894Y-103175000D01*
X83389426Y-103064714D01*
X83338733Y-102965223D01*
X83259777Y-102886267D01*
X83259776Y-102886266D01*
X83188059Y-102849725D01*
X83160286Y-102835574D01*
X83050000Y-102818106D01*
X82939714Y-102835574D01*
X82939712Y-102835574D01*
X82939712Y-102835575D01*
X82840223Y-102886266D01*
X82761266Y-102965223D01*
X82729778Y-103027023D01*
X82710574Y-103064714D01*
X82693106Y-103175000D01*
X82710574Y-103285286D01*
X82710575Y-103285287D01*
X82761266Y-103384776D01*
X82761269Y-103384779D01*
X82799895Y-103423406D01*
X82833920Y-103485718D01*
X82828854Y-103556534D01*
X82799895Y-103601594D01*
X82761266Y-103640223D01*
X82710572Y-103739716D01*
X82707511Y-103749141D01*
X82706125Y-103748690D01*
X82680251Y-103803257D01*
X82619979Y-103840777D01*
X82605936Y-103843831D01*
X82500235Y-103860573D01*
X82400744Y-103911266D01*
X82321787Y-103990223D01*
X82271096Y-104089712D01*
X82271095Y-104089714D01*
X82253627Y-104200000D01*
X75381948Y-104200000D01*
X75237579Y-103243186D01*
X75236941Y-103238301D01*
X75236252Y-103232095D01*
X75129405Y-102269188D01*
X75128958Y-102264280D01*
X75127939Y-102250000D01*
X75122942Y-102180000D01*
X76133106Y-102180000D01*
X76150574Y-102290286D01*
X76175920Y-102340031D01*
X76193737Y-102375000D01*
X76201267Y-102389777D01*
X76280223Y-102468733D01*
X76379714Y-102519426D01*
X76490000Y-102536894D01*
X76600286Y-102519426D01*
X76699777Y-102468733D01*
X76699777Y-102468732D01*
X76708612Y-102464231D01*
X76709806Y-102466574D01*
X76762799Y-102447663D01*
X76831951Y-102463739D01*
X76837801Y-102467498D01*
X76840221Y-102468731D01*
X76840223Y-102468733D01*
X76939714Y-102519426D01*
X77050000Y-102536894D01*
X77160286Y-102519426D01*
X77259777Y-102468733D01*
X77338733Y-102389777D01*
X77389426Y-102290286D01*
X77406894Y-102180000D01*
X77389426Y-102069714D01*
X77338733Y-101970223D01*
X77259777Y-101891267D01*
X77259776Y-101891266D01*
X77182842Y-101852067D01*
X77160286Y-101840574D01*
X77050000Y-101823106D01*
X76939714Y-101840574D01*
X76840223Y-101891267D01*
X76840222Y-101891267D01*
X76831388Y-101895769D01*
X76830195Y-101893427D01*
X76777182Y-101912337D01*
X76708032Y-101896250D01*
X76702196Y-101892499D01*
X76622842Y-101852067D01*
X76600286Y-101840574D01*
X76490000Y-101823106D01*
X76379714Y-101840574D01*
X76379712Y-101840574D01*
X76379712Y-101840575D01*
X76280223Y-101891266D01*
X76201266Y-101970223D01*
X76165600Y-102040223D01*
X76150574Y-102069714D01*
X76133106Y-102180000D01*
X75122942Y-102180000D01*
X75059523Y-101291644D01*
X75059271Y-101286769D01*
X75029262Y-100350000D01*
X76103104Y-100350000D01*
X76120572Y-100460286D01*
X76171265Y-100559777D01*
X76250221Y-100638733D01*
X76349712Y-100689426D01*
X76459998Y-100706894D01*
X76570284Y-100689426D01*
X76669775Y-100638733D01*
X76748731Y-100559777D01*
X76799424Y-100460286D01*
X76816892Y-100350000D01*
X76799424Y-100239714D01*
X76748731Y-100140223D01*
X76669775Y-100061267D01*
X76669773Y-100061266D01*
X76669772Y-100061265D01*
X76642298Y-100047267D01*
X76590682Y-99998520D01*
X76573616Y-99929605D01*
X76596516Y-99862403D01*
X76642298Y-99822733D01*
X76669775Y-99808733D01*
X76748731Y-99729777D01*
X76799424Y-99630286D01*
X76816892Y-99520000D01*
X76799424Y-99409714D01*
X76748731Y-99310223D01*
X76669775Y-99231267D01*
X76666830Y-99229766D01*
X76663899Y-99226998D01*
X76661749Y-99225436D01*
X76661950Y-99225158D01*
X76615216Y-99181020D01*
X76598149Y-99112106D01*
X76602274Y-99100000D01*
X82443106Y-99100000D01*
X82460574Y-99210286D01*
X82471584Y-99231894D01*
X82507472Y-99302330D01*
X82511267Y-99309777D01*
X82590223Y-99388733D01*
X82689714Y-99439426D01*
X82800000Y-99456894D01*
X82910286Y-99439426D01*
X83009777Y-99388733D01*
X83088733Y-99309777D01*
X83139426Y-99210286D01*
X83156894Y-99100000D01*
X83141871Y-99005153D01*
X83150970Y-98934746D01*
X83196692Y-98880431D01*
X83209116Y-98873179D01*
X83217760Y-98868775D01*
X83296716Y-98789819D01*
X83347409Y-98690328D01*
X83352049Y-98661029D01*
X83382460Y-98596879D01*
X83442727Y-98559352D01*
X83496209Y-98556294D01*
X83499997Y-98556894D01*
X83499998Y-98556893D01*
X83500000Y-98556894D01*
X83610286Y-98539426D01*
X83709777Y-98488733D01*
X83788733Y-98409777D01*
X83839426Y-98310286D01*
X83856894Y-98200000D01*
X83839426Y-98089714D01*
X83788733Y-97990223D01*
X83709777Y-97911267D01*
X83709776Y-97911266D01*
X83660031Y-97885920D01*
X83610286Y-97860574D01*
X83500000Y-97843106D01*
X83389714Y-97860574D01*
X83389712Y-97860574D01*
X83389712Y-97860575D01*
X83290223Y-97911266D01*
X83211266Y-97990223D01*
X83160573Y-98089714D01*
X83155933Y-98119012D01*
X83125520Y-98183165D01*
X83065251Y-98220690D01*
X83011780Y-98223749D01*
X83007985Y-98223148D01*
X83007984Y-98223148D01*
X83007983Y-98223148D01*
X82897697Y-98240616D01*
X82897695Y-98240616D01*
X82897695Y-98240617D01*
X82798206Y-98291308D01*
X82719249Y-98370265D01*
X82672878Y-98461275D01*
X82668557Y-98469756D01*
X82654366Y-98559352D01*
X82651089Y-98580042D01*
X82666111Y-98674885D01*
X82657011Y-98745296D01*
X82611290Y-98799610D01*
X82598870Y-98806860D01*
X82590228Y-98811263D01*
X82590221Y-98811268D01*
X82511266Y-98890223D01*
X82464153Y-98982690D01*
X82460574Y-98989714D01*
X82443106Y-99100000D01*
X76602274Y-99100000D01*
X76621049Y-99044904D01*
X76661781Y-99009608D01*
X76661749Y-99009564D01*
X76662267Y-99009187D01*
X76666830Y-99005233D01*
X76669775Y-99003733D01*
X76748731Y-98924777D01*
X76799424Y-98825286D01*
X76816892Y-98715000D01*
X76799424Y-98604714D01*
X76748731Y-98505223D01*
X76669775Y-98426267D01*
X76669774Y-98426266D01*
X76637409Y-98409776D01*
X76617764Y-98399766D01*
X76566150Y-98351019D01*
X76549084Y-98282104D01*
X76571985Y-98214902D01*
X76617764Y-98175233D01*
X76669775Y-98148733D01*
X76748731Y-98069777D01*
X76799424Y-97970286D01*
X76816892Y-97860000D01*
X76799424Y-97749714D01*
X76748731Y-97650223D01*
X76669775Y-97571267D01*
X76669774Y-97571266D01*
X76669771Y-97571264D01*
X76644796Y-97558539D01*
X76593181Y-97509791D01*
X76576116Y-97440876D01*
X76599017Y-97373674D01*
X76644797Y-97334007D01*
X76674775Y-97318733D01*
X76753731Y-97239777D01*
X76804424Y-97140286D01*
X76810805Y-97100000D01*
X82043106Y-97100000D01*
X82060574Y-97210286D01*
X82081353Y-97251067D01*
X82107181Y-97301759D01*
X82111267Y-97309777D01*
X82190223Y-97388733D01*
X82289714Y-97439426D01*
X82400000Y-97456894D01*
X82510286Y-97439426D01*
X82609777Y-97388733D01*
X82688733Y-97309777D01*
X82739426Y-97210286D01*
X82756894Y-97100000D01*
X82739426Y-96989714D01*
X82688733Y-96890223D01*
X82609777Y-96811267D01*
X82609776Y-96811266D01*
X82560031Y-96785920D01*
X82510286Y-96760574D01*
X82400000Y-96743106D01*
X82289714Y-96760574D01*
X82289712Y-96760574D01*
X82289712Y-96760575D01*
X82190223Y-96811266D01*
X82111266Y-96890223D01*
X82064302Y-96982398D01*
X82060574Y-96989714D01*
X82043106Y-97100000D01*
X76810805Y-97100000D01*
X76821892Y-97030000D01*
X76804424Y-96919714D01*
X76753731Y-96820223D01*
X76694602Y-96761094D01*
X76660576Y-96698782D01*
X76665641Y-96627967D01*
X76708188Y-96571131D01*
X76763983Y-96547552D01*
X76815288Y-96539426D01*
X76914779Y-96488733D01*
X76993735Y-96409777D01*
X77044428Y-96310286D01*
X77061896Y-96200000D01*
X77044428Y-96089714D01*
X77024193Y-96050000D01*
X85100000Y-96050000D01*
X85100000Y-104950000D01*
X85240858Y-104950000D01*
X85308979Y-104970002D01*
X85353124Y-105018796D01*
X85361267Y-105034777D01*
X85440223Y-105113733D01*
X85539714Y-105164426D01*
X85650000Y-105181894D01*
X85760286Y-105164426D01*
X85859777Y-105113733D01*
X85938733Y-105034777D01*
X85946875Y-105018796D01*
X85995624Y-104967182D01*
X86059142Y-104950000D01*
X87550001Y-104950000D01*
X87586905Y-104913096D01*
X87587881Y-104914072D01*
X87618796Y-104886103D01*
X87659777Y-104865223D01*
X87738733Y-104786267D01*
X87789426Y-104686776D01*
X87806894Y-104576490D01*
X87789426Y-104466204D01*
X87738733Y-104366713D01*
X87659777Y-104287757D01*
X87639790Y-104277573D01*
X87618795Y-104266875D01*
X87567181Y-104218126D01*
X87550000Y-104154609D01*
X87550000Y-103358510D01*
X91113106Y-103358510D01*
X91130574Y-103468796D01*
X91130575Y-103468797D01*
X91181266Y-103568286D01*
X91208427Y-103595447D01*
X91242453Y-103657759D01*
X91237388Y-103728574D01*
X91231599Y-103741744D01*
X91196981Y-103809685D01*
X91196980Y-103809687D01*
X91196980Y-103809689D01*
X91179512Y-103919975D01*
X91196980Y-104030261D01*
X91222326Y-104080006D01*
X91244711Y-104123940D01*
X91247673Y-104129752D01*
X91326629Y-104208708D01*
X91345113Y-104218126D01*
X91361167Y-104226306D01*
X91412783Y-104275054D01*
X91429849Y-104343969D01*
X91406949Y-104411170D01*
X91361169Y-104450839D01*
X91288718Y-104487754D01*
X91288713Y-104487758D01*
X91209758Y-104566713D01*
X91165660Y-104653263D01*
X91159066Y-104666204D01*
X91141598Y-104776490D01*
X91159066Y-104886776D01*
X91167019Y-104902384D01*
X91201471Y-104970002D01*
X91209759Y-104986267D01*
X91288715Y-105065223D01*
X91336216Y-105089426D01*
X91364150Y-105103659D01*
X91415765Y-105152408D01*
X91432831Y-105221323D01*
X91409930Y-105288524D01*
X91364151Y-105328192D01*
X91316366Y-105352539D01*
X91316361Y-105352543D01*
X91237406Y-105431498D01*
X91202502Y-105500003D01*
X91186714Y-105530989D01*
X91169246Y-105641275D01*
X91186714Y-105751561D01*
X91194487Y-105766816D01*
X91225382Y-105827453D01*
X91237407Y-105851052D01*
X91316363Y-105930008D01*
X91415854Y-105980701D01*
X91526140Y-105998169D01*
X91636426Y-105980701D01*
X91735917Y-105930008D01*
X91814873Y-105851052D01*
X91865566Y-105751561D01*
X91869773Y-105725000D01*
X94268106Y-105725000D01*
X94285574Y-105835286D01*
X94303862Y-105871178D01*
X94332558Y-105927499D01*
X94336267Y-105934777D01*
X94415223Y-106013733D01*
X94415225Y-106013734D01*
X94423249Y-106019564D01*
X94422182Y-106021031D01*
X94465170Y-106061633D01*
X94482234Y-106130549D01*
X94480799Y-106144860D01*
X94470436Y-106210287D01*
X94468106Y-106225000D01*
X94485574Y-106335286D01*
X94502250Y-106368014D01*
X94528885Y-106420290D01*
X94536267Y-106434777D01*
X94615223Y-106513733D01*
X94714714Y-106564426D01*
X94825000Y-106581894D01*
X94935286Y-106564426D01*
X95034777Y-106513733D01*
X95113733Y-106434777D01*
X95121451Y-106419628D01*
X95170198Y-106368014D01*
X95239112Y-106350947D01*
X95290920Y-106364564D01*
X95339714Y-106389426D01*
X95450000Y-106406894D01*
X95560286Y-106389426D01*
X95659777Y-106338733D01*
X95738733Y-106259777D01*
X95789426Y-106160286D01*
X95806894Y-106050000D01*
X95789426Y-105939714D01*
X95738733Y-105840223D01*
X95696441Y-105797931D01*
X95662415Y-105735619D01*
X95667480Y-105664804D01*
X95696438Y-105619744D01*
X95720245Y-105595938D01*
X95770938Y-105496447D01*
X95788406Y-105386161D01*
X95770938Y-105275875D01*
X95720245Y-105176384D01*
X95641289Y-105097428D01*
X95641288Y-105097427D01*
X95578079Y-105065221D01*
X95541798Y-105046735D01*
X95431512Y-105029267D01*
X95321226Y-105046735D01*
X95321224Y-105046735D01*
X95321222Y-105046736D01*
X95318725Y-105048009D01*
X95315357Y-105048641D01*
X95311791Y-105049800D01*
X95311641Y-105049339D01*
X95248948Y-105061111D01*
X95183164Y-105034408D01*
X95142260Y-104976380D01*
X95137078Y-104955458D01*
X95120938Y-104853553D01*
X95070245Y-104754062D01*
X95044117Y-104727934D01*
X95010091Y-104665622D01*
X95015156Y-104594807D01*
X95044117Y-104549744D01*
X95054437Y-104539424D01*
X95070245Y-104523616D01*
X95120938Y-104424125D01*
X95138406Y-104313839D01*
X95120938Y-104203553D01*
X95070245Y-104104062D01*
X94991289Y-104025106D01*
X94991288Y-104025105D01*
X94922827Y-103990223D01*
X94891798Y-103974413D01*
X94781512Y-103956945D01*
X94671226Y-103974413D01*
X94671224Y-103974413D01*
X94671224Y-103974414D01*
X94571735Y-104025105D01*
X94492778Y-104104062D01*
X94479689Y-104129752D01*
X94442086Y-104203553D01*
X94424618Y-104313839D01*
X94442086Y-104424125D01*
X94456167Y-104451760D01*
X94492778Y-104523615D01*
X94518907Y-104549744D01*
X94552933Y-104612056D01*
X94547868Y-104682871D01*
X94518907Y-104727934D01*
X94492780Y-104754060D01*
X94492778Y-104754062D01*
X94467897Y-104802895D01*
X94442086Y-104853553D01*
X94424618Y-104963839D01*
X94442086Y-105074125D01*
X94463947Y-105117029D01*
X94492778Y-105173615D01*
X94517967Y-105198804D01*
X94551993Y-105261116D01*
X94546928Y-105331931D01*
X94504381Y-105388767D01*
X94486075Y-105400166D01*
X94415224Y-105436266D01*
X94415221Y-105436268D01*
X94336266Y-105515223D01*
X94318547Y-105550000D01*
X94285574Y-105614714D01*
X94268106Y-105725000D01*
X91869773Y-105725000D01*
X91883034Y-105641275D01*
X91865566Y-105530989D01*
X91814873Y-105431498D01*
X91735917Y-105352542D01*
X91735916Y-105352541D01*
X91735913Y-105352539D01*
X91660480Y-105314104D01*
X91608865Y-105265356D01*
X91591800Y-105196441D01*
X91614701Y-105129239D01*
X91660479Y-105089572D01*
X91708269Y-105065223D01*
X91787225Y-104986267D01*
X91837918Y-104886776D01*
X91837918Y-104886774D01*
X91837919Y-104886773D01*
X91840981Y-104877349D01*
X91844380Y-104878453D01*
X91867058Y-104830602D01*
X91927322Y-104793068D01*
X91998312Y-104794074D01*
X92057488Y-104833300D01*
X92073369Y-104857249D01*
X92089116Y-104888154D01*
X92120627Y-104950000D01*
X92120766Y-104950271D01*
X92199722Y-105029227D01*
X92299213Y-105079920D01*
X92409499Y-105097388D01*
X92519785Y-105079920D01*
X92619276Y-105029227D01*
X92698232Y-104950271D01*
X92748925Y-104850780D01*
X92766393Y-104740494D01*
X92748925Y-104630208D01*
X92698232Y-104530717D01*
X92619276Y-104451761D01*
X92619275Y-104451760D01*
X92565037Y-104424125D01*
X92519785Y-104401068D01*
X92409499Y-104383600D01*
X92299213Y-104401068D01*
X92299211Y-104401068D01*
X92299211Y-104401069D01*
X92199722Y-104451760D01*
X92120765Y-104530717D01*
X92070071Y-104630210D01*
X92067010Y-104639635D01*
X92063620Y-104638533D01*
X92040880Y-104686439D01*
X91980593Y-104723936D01*
X91909604Y-104722886D01*
X91850452Y-104683623D01*
X91834619Y-104659730D01*
X91824420Y-104639714D01*
X91787225Y-104566713D01*
X91708269Y-104487757D01*
X91708267Y-104487756D01*
X91708263Y-104487753D01*
X91673729Y-104470157D01*
X91622114Y-104421409D01*
X91605048Y-104352494D01*
X91627949Y-104285293D01*
X91673728Y-104245625D01*
X91746183Y-104208708D01*
X91825139Y-104129752D01*
X91875832Y-104030261D01*
X91893300Y-103919975D01*
X91875832Y-103809689D01*
X91825139Y-103710198D01*
X91797978Y-103683037D01*
X91763952Y-103620725D01*
X91769017Y-103549910D01*
X91774800Y-103536751D01*
X91809426Y-103468796D01*
X91813907Y-103440503D01*
X92702611Y-103440503D01*
X92720079Y-103550789D01*
X92738156Y-103586267D01*
X92769224Y-103647243D01*
X92770772Y-103650280D01*
X92849728Y-103729236D01*
X92949219Y-103779929D01*
X93059505Y-103797397D01*
X93169791Y-103779929D01*
X93269282Y-103729236D01*
X93348238Y-103650280D01*
X93398931Y-103550789D01*
X93416399Y-103440503D01*
X93398931Y-103330217D01*
X93348238Y-103230726D01*
X93269282Y-103151770D01*
X93269281Y-103151769D01*
X93213383Y-103123288D01*
X93169791Y-103101077D01*
X93059505Y-103083609D01*
X92949219Y-103101077D01*
X92949217Y-103101077D01*
X92949217Y-103101078D01*
X92849728Y-103151769D01*
X92770771Y-103230726D01*
X92736121Y-103298733D01*
X92720079Y-103330217D01*
X92702611Y-103440503D01*
X91813907Y-103440503D01*
X91826894Y-103358510D01*
X91809426Y-103248224D01*
X91798917Y-103227600D01*
X91785813Y-103157824D01*
X91812512Y-103092039D01*
X91870539Y-103051133D01*
X91930892Y-103045948D01*
X92000000Y-103056894D01*
X92110286Y-103039426D01*
X92168038Y-103010000D01*
X97253106Y-103010000D01*
X97270574Y-103120286D01*
X97293113Y-103164522D01*
X97307979Y-103193699D01*
X97321267Y-103219777D01*
X97400223Y-103298733D01*
X97499714Y-103349426D01*
X97610000Y-103366894D01*
X97720286Y-103349426D01*
X97819777Y-103298733D01*
X97890606Y-103227904D01*
X97952919Y-103193879D01*
X97979701Y-103191000D01*
X98219048Y-103191000D01*
X98287169Y-103211002D01*
X98333662Y-103264658D01*
X98343766Y-103334932D01*
X98343502Y-103336673D01*
X98328616Y-103430662D01*
X98346084Y-103540948D01*
X98368538Y-103585017D01*
X98396666Y-103640223D01*
X98396777Y-103640439D01*
X98475733Y-103719395D01*
X98575224Y-103770088D01*
X98610676Y-103775703D01*
X98674828Y-103806114D01*
X98712355Y-103866382D01*
X98711341Y-103937372D01*
X98703231Y-103957353D01*
X98674546Y-104013650D01*
X98674545Y-104013652D01*
X98674545Y-104013654D01*
X98657077Y-104123940D01*
X98674545Y-104234226D01*
X98674545Y-104234227D01*
X98674546Y-104234229D01*
X98702591Y-104289271D01*
X98715695Y-104359048D01*
X98688994Y-104424832D01*
X98679421Y-104435567D01*
X98646387Y-104468600D01*
X98610300Y-104539426D01*
X98595695Y-104568091D01*
X98578227Y-104678377D01*
X98595695Y-104788663D01*
X98601473Y-104800003D01*
X98645685Y-104886776D01*
X98646388Y-104888154D01*
X98725344Y-104967110D01*
X98824835Y-105017803D01*
X98935121Y-105035271D01*
X99045407Y-105017803D01*
X99144898Y-104967110D01*
X99223854Y-104888154D01*
X99274547Y-104788663D01*
X99292015Y-104678377D01*
X99274547Y-104568091D01*
X99246499Y-104513045D01*
X99233396Y-104443269D01*
X99260096Y-104377484D01*
X99269656Y-104366764D01*
X99302704Y-104333717D01*
X99353397Y-104234226D01*
X99370865Y-104123940D01*
X99357048Y-104036708D01*
X99366147Y-103966301D01*
X99411868Y-103911986D01*
X99479696Y-103891013D01*
X99481497Y-103891000D01*
X99601651Y-103891000D01*
X99669772Y-103911002D01*
X99716265Y-103964658D01*
X99726369Y-104034932D01*
X99698495Y-104095962D01*
X99698606Y-104096043D01*
X99698211Y-104096586D01*
X99696875Y-104099512D01*
X99693279Y-104103373D01*
X99692778Y-104104062D01*
X99679689Y-104129752D01*
X99642086Y-104203553D01*
X99624618Y-104313839D01*
X99642086Y-104424125D01*
X99656167Y-104451760D01*
X99690643Y-104519425D01*
X99692779Y-104523616D01*
X99771735Y-104602572D01*
X99871226Y-104653265D01*
X99981512Y-104670733D01*
X100091798Y-104653265D01*
X100154631Y-104621249D01*
X100224407Y-104608145D01*
X100290192Y-104634844D01*
X100331099Y-104692872D01*
X100334140Y-104763803D01*
X100324101Y-104790718D01*
X100292087Y-104853549D01*
X100292086Y-104853551D01*
X100292086Y-104853553D01*
X100274618Y-104963839D01*
X100292086Y-105074125D01*
X100292086Y-105074126D01*
X100292087Y-105074128D01*
X100324139Y-105137035D01*
X100337243Y-105206812D01*
X100310542Y-105272597D01*
X100252514Y-105313502D01*
X100250807Y-105314070D01*
X100241478Y-105317101D01*
X100141983Y-105367795D01*
X100063026Y-105446752D01*
X100028139Y-105515223D01*
X100012334Y-105546243D01*
X99997282Y-105641275D01*
X99994893Y-105656360D01*
X99964480Y-105720513D01*
X99904211Y-105758039D01*
X99833222Y-105757025D01*
X99813242Y-105748915D01*
X99712932Y-105697805D01*
X99712930Y-105697804D01*
X99712929Y-105697804D01*
X99602643Y-105680336D01*
X99492357Y-105697804D01*
X99492355Y-105697804D01*
X99492355Y-105697805D01*
X99392866Y-105748496D01*
X99313911Y-105827451D01*
X99313907Y-105827456D01*
X99279475Y-105895033D01*
X99230726Y-105946648D01*
X99161811Y-105963713D01*
X99110007Y-105950096D01*
X99035366Y-105912065D01*
X99035364Y-105912064D01*
X99035363Y-105912064D01*
X98925077Y-105894596D01*
X98814791Y-105912064D01*
X98814789Y-105912064D01*
X98814789Y-105912065D01*
X98715300Y-105962756D01*
X98636343Y-106041713D01*
X98611887Y-106089712D01*
X98585651Y-106141204D01*
X98568183Y-106251490D01*
X98585651Y-106361776D01*
X98601911Y-106393688D01*
X98636343Y-106461266D01*
X98703832Y-106528755D01*
X98737858Y-106591067D01*
X98732793Y-106661882D01*
X98690246Y-106718718D01*
X98669901Y-106729269D01*
X98670562Y-106730565D01*
X98562235Y-106785759D01*
X98483278Y-106864716D01*
X98432585Y-106964207D01*
X98429943Y-106972342D01*
X98389871Y-107030949D01*
X98324475Y-107058587D01*
X98254518Y-107046483D01*
X98221014Y-107022504D01*
X98166566Y-106968056D01*
X98102250Y-106935286D01*
X98067076Y-106917364D01*
X97956790Y-106899896D01*
X97846504Y-106917364D01*
X97846502Y-106917364D01*
X97846502Y-106917365D01*
X97747013Y-106968056D01*
X97668056Y-107047013D01*
X97633037Y-107115744D01*
X97617364Y-107146504D01*
X97599896Y-107256790D01*
X97617364Y-107367076D01*
X97617365Y-107367077D01*
X97663127Y-107456893D01*
X97668057Y-107466567D01*
X97747013Y-107545523D01*
X97846504Y-107596216D01*
X97956790Y-107613684D01*
X98043166Y-107600003D01*
X107668104Y-107600003D01*
X107685597Y-107721672D01*
X107685599Y-107721679D01*
X107736666Y-107833501D01*
X107760726Y-107861267D01*
X107817169Y-107926406D01*
X107838669Y-107940223D01*
X107920584Y-107992866D01*
X108015163Y-108020637D01*
X108038531Y-108027499D01*
X108038532Y-108027499D01*
X108038535Y-108027500D01*
X108038538Y-108027500D01*
X108161462Y-108027500D01*
X108161465Y-108027500D01*
X108279416Y-107992866D01*
X108382830Y-107926406D01*
X108382831Y-107926406D01*
X108396549Y-107910575D01*
X108463334Y-107833501D01*
X108514401Y-107721679D01*
X108531896Y-107600000D01*
X108531896Y-107599996D01*
X108517518Y-107500000D01*
X116643106Y-107500000D01*
X116660574Y-107610286D01*
X116685920Y-107660031D01*
X116686549Y-107661266D01*
X116711267Y-107709777D01*
X116790223Y-107788733D01*
X116889714Y-107839426D01*
X117000000Y-107856894D01*
X117110286Y-107839426D01*
X117209777Y-107788733D01*
X117288733Y-107709777D01*
X117339426Y-107610286D01*
X117356894Y-107500000D01*
X117339426Y-107389714D01*
X117288733Y-107290223D01*
X117209777Y-107211267D01*
X117209776Y-107211266D01*
X117133692Y-107172500D01*
X117110286Y-107160574D01*
X117000000Y-107143106D01*
X116889714Y-107160574D01*
X116889712Y-107160574D01*
X116889712Y-107160575D01*
X116790223Y-107211266D01*
X116711266Y-107290223D01*
X116672108Y-107367077D01*
X116660574Y-107389714D01*
X116643106Y-107500000D01*
X108517518Y-107500000D01*
X108514402Y-107478327D01*
X108514401Y-107478326D01*
X108514401Y-107478321D01*
X108463334Y-107366499D01*
X108382832Y-107273595D01*
X108382831Y-107273594D01*
X108382830Y-107273593D01*
X108279416Y-107207134D01*
X108161468Y-107172500D01*
X108161465Y-107172500D01*
X108038535Y-107172500D01*
X108038531Y-107172500D01*
X107920583Y-107207134D01*
X107817169Y-107273593D01*
X107817168Y-107273593D01*
X107736667Y-107366497D01*
X107736666Y-107366498D01*
X107736666Y-107366499D01*
X107736402Y-107367077D01*
X107685599Y-107478320D01*
X107685597Y-107478327D01*
X107668104Y-107599996D01*
X107668104Y-107600003D01*
X98043166Y-107600003D01*
X98067076Y-107596216D01*
X98166567Y-107545523D01*
X98245523Y-107466567D01*
X98296216Y-107367076D01*
X98296217Y-107367067D01*
X98298855Y-107358948D01*
X98338923Y-107300339D01*
X98404317Y-107272696D01*
X98474275Y-107284796D01*
X98507787Y-107308778D01*
X98562235Y-107363226D01*
X98661726Y-107413919D01*
X98772012Y-107431387D01*
X98882298Y-107413919D01*
X98981789Y-107363226D01*
X99060745Y-107284270D01*
X99111438Y-107184779D01*
X99116947Y-107150000D01*
X99493106Y-107150000D01*
X99510574Y-107260286D01*
X99525828Y-107290223D01*
X99560844Y-107358948D01*
X99561267Y-107359777D01*
X99640223Y-107438733D01*
X99739714Y-107489426D01*
X99850000Y-107506894D01*
X99960286Y-107489426D01*
X100059777Y-107438733D01*
X100138733Y-107359777D01*
X100189426Y-107260286D01*
X100204511Y-107165040D01*
X100219105Y-107134255D01*
X100196591Y-107084957D01*
X100189426Y-107039714D01*
X100186910Y-107034777D01*
X100138733Y-106940223D01*
X100059776Y-106861266D01*
X100010031Y-106835920D01*
X99960286Y-106810574D01*
X99850000Y-106793106D01*
X99739714Y-106810574D01*
X99739712Y-106810574D01*
X99739712Y-106810575D01*
X99640223Y-106861266D01*
X99561266Y-106940223D01*
X99510575Y-107039712D01*
X99510574Y-107039714D01*
X99493106Y-107150000D01*
X99116947Y-107150000D01*
X99128906Y-107074493D01*
X99111438Y-106964207D01*
X99060745Y-106864716D01*
X98993256Y-106797227D01*
X98959230Y-106734915D01*
X98964295Y-106664100D01*
X99006842Y-106607264D01*
X99027191Y-106596721D01*
X99026527Y-106595418D01*
X99035363Y-106590916D01*
X99134854Y-106540223D01*
X99213810Y-106461267D01*
X99248243Y-106393687D01*
X99296991Y-106342072D01*
X99365906Y-106325006D01*
X99417712Y-106338622D01*
X99492357Y-106376656D01*
X99602643Y-106394124D01*
X99712929Y-106376656D01*
X99812420Y-106325963D01*
X99860472Y-106277910D01*
X99922780Y-106243888D01*
X99993595Y-106248952D01*
X100050432Y-106291498D01*
X100074012Y-106347295D01*
X100085574Y-106420289D01*
X100104225Y-106456893D01*
X100133185Y-106513733D01*
X100136267Y-106519780D01*
X100215223Y-106598736D01*
X100314714Y-106649429D01*
X100425000Y-106666897D01*
X100425001Y-106666896D01*
X100425003Y-106666897D01*
X100430403Y-106666897D01*
X100498524Y-106686899D01*
X100545017Y-106740555D01*
X100555121Y-106810829D01*
X100525627Y-106875409D01*
X100519498Y-106881992D01*
X100511268Y-106890221D01*
X100511266Y-106890223D01*
X100473571Y-106964205D01*
X100460574Y-106989714D01*
X100448259Y-107067467D01*
X100445489Y-107084956D01*
X100430893Y-107115744D01*
X100453407Y-107165042D01*
X100460573Y-107210285D01*
X100510758Y-107308778D01*
X100511267Y-107309777D01*
X100590223Y-107388733D01*
X100689714Y-107439426D01*
X100800000Y-107456894D01*
X100910286Y-107439426D01*
X101009777Y-107388733D01*
X101088733Y-107309777D01*
X101139426Y-107210286D01*
X101156894Y-107100000D01*
X101139426Y-106989714D01*
X101088733Y-106890223D01*
X101023510Y-106825000D01*
X101768106Y-106825000D01*
X101785574Y-106935286D01*
X101785575Y-106935287D01*
X101834316Y-107030949D01*
X101836267Y-107034777D01*
X101915223Y-107113733D01*
X102014714Y-107164426D01*
X102125000Y-107181894D01*
X102235286Y-107164426D01*
X102334777Y-107113733D01*
X102413733Y-107034777D01*
X102431451Y-107000003D01*
X103368104Y-107000003D01*
X103385597Y-107121672D01*
X103385599Y-107121679D01*
X103436666Y-107233501D01*
X103481114Y-107284796D01*
X103517169Y-107326406D01*
X103537426Y-107339424D01*
X103620584Y-107392866D01*
X103715163Y-107420637D01*
X103738531Y-107427499D01*
X103738532Y-107427499D01*
X103738535Y-107427500D01*
X103738538Y-107427500D01*
X103861462Y-107427500D01*
X103861465Y-107427500D01*
X103979416Y-107392866D01*
X104082832Y-107326405D01*
X104104775Y-107301080D01*
X104164501Y-107262697D01*
X104235498Y-107262697D01*
X104295224Y-107301080D01*
X104295225Y-107301081D01*
X104317169Y-107326406D01*
X104337426Y-107339424D01*
X104420584Y-107392866D01*
X104515163Y-107420637D01*
X104538531Y-107427499D01*
X104538532Y-107427499D01*
X104538535Y-107427500D01*
X104538538Y-107427500D01*
X104661462Y-107427500D01*
X104661465Y-107427500D01*
X104779416Y-107392866D01*
X104882832Y-107326405D01*
X104904775Y-107301080D01*
X104964501Y-107262697D01*
X105035498Y-107262697D01*
X105095224Y-107301080D01*
X105095225Y-107301081D01*
X105117169Y-107326406D01*
X105137426Y-107339424D01*
X105220584Y-107392866D01*
X105315163Y-107420637D01*
X105338531Y-107427499D01*
X105338532Y-107427499D01*
X105338535Y-107427500D01*
X105338538Y-107427500D01*
X105461462Y-107427500D01*
X105461465Y-107427500D01*
X105579416Y-107392866D01*
X105682830Y-107326406D01*
X105682831Y-107326406D01*
X105705418Y-107300339D01*
X105763334Y-107233501D01*
X105814401Y-107121679D01*
X105821185Y-107074494D01*
X105831896Y-107000003D01*
X105831896Y-106999996D01*
X105814402Y-106878327D01*
X105814401Y-106878326D01*
X105814401Y-106878321D01*
X105763334Y-106766499D01*
X105682832Y-106673595D01*
X105682831Y-106673594D01*
X105682830Y-106673593D01*
X105579416Y-106607134D01*
X105461468Y-106572500D01*
X105461465Y-106572500D01*
X105338535Y-106572500D01*
X105338531Y-106572500D01*
X105220583Y-106607134D01*
X105117169Y-106673593D01*
X105117167Y-106673594D01*
X105095223Y-106698920D01*
X105035497Y-106737303D01*
X104964500Y-106737302D01*
X104904777Y-106698920D01*
X104882832Y-106673594D01*
X104882830Y-106673593D01*
X104779416Y-106607134D01*
X104661468Y-106572500D01*
X104661465Y-106572500D01*
X104538535Y-106572500D01*
X104538531Y-106572500D01*
X104420583Y-106607134D01*
X104317169Y-106673593D01*
X104317167Y-106673594D01*
X104295223Y-106698920D01*
X104235497Y-106737303D01*
X104164500Y-106737302D01*
X104104777Y-106698920D01*
X104082832Y-106673594D01*
X104082830Y-106673593D01*
X103979416Y-106607134D01*
X103861468Y-106572500D01*
X103861465Y-106572500D01*
X103738535Y-106572500D01*
X103738531Y-106572500D01*
X103620583Y-106607134D01*
X103517169Y-106673593D01*
X103517168Y-106673593D01*
X103436667Y-106766497D01*
X103436666Y-106766498D01*
X103436666Y-106766499D01*
X103435158Y-106769801D01*
X103385599Y-106878320D01*
X103385597Y-106878327D01*
X103368104Y-106999996D01*
X103368104Y-107000003D01*
X102431451Y-107000003D01*
X102464426Y-106935286D01*
X102481894Y-106825000D01*
X102464426Y-106714714D01*
X102413733Y-106615223D01*
X102334777Y-106536267D01*
X102334776Y-106536266D01*
X102272201Y-106504383D01*
X102235286Y-106485574D01*
X102125000Y-106468106D01*
X102014714Y-106485574D01*
X102014712Y-106485574D01*
X102014712Y-106485575D01*
X101915223Y-106536266D01*
X101836266Y-106615223D01*
X101806525Y-106673595D01*
X101785574Y-106714714D01*
X101768106Y-106825000D01*
X101023510Y-106825000D01*
X101009777Y-106811267D01*
X101009776Y-106811266D01*
X100959715Y-106785759D01*
X100910286Y-106760574D01*
X100800000Y-106743106D01*
X100799998Y-106743106D01*
X100799997Y-106743106D01*
X100794597Y-106743106D01*
X100726476Y-106723104D01*
X100679983Y-106669448D01*
X100669879Y-106599174D01*
X100699373Y-106534594D01*
X100705502Y-106528011D01*
X100708408Y-106525105D01*
X100713733Y-106519780D01*
X100764426Y-106420289D01*
X100781894Y-106310003D01*
X100764426Y-106199717D01*
X100713733Y-106100226D01*
X100648971Y-106035464D01*
X100614945Y-105973152D01*
X100620010Y-105902337D01*
X100636138Y-105872297D01*
X100640483Y-105866315D01*
X100640493Y-105866306D01*
X100691186Y-105766815D01*
X100708654Y-105656529D01*
X100691186Y-105546243D01*
X100675381Y-105515223D01*
X100659132Y-105483332D01*
X100646028Y-105413555D01*
X100672729Y-105347771D01*
X100730756Y-105306865D01*
X100732471Y-105306294D01*
X100741791Y-105303265D01*
X100741798Y-105303265D01*
X100841289Y-105252572D01*
X100920245Y-105173616D01*
X100970938Y-105074125D01*
X100988406Y-104963839D01*
X100970938Y-104853553D01*
X100920245Y-104754062D01*
X100841289Y-104675106D01*
X100841288Y-104675105D01*
X100790196Y-104649073D01*
X100741798Y-104624413D01*
X100631512Y-104606945D01*
X100521226Y-104624413D01*
X100521224Y-104624413D01*
X100521222Y-104624414D01*
X100458391Y-104656428D01*
X100388614Y-104669532D01*
X100322830Y-104642831D01*
X100281924Y-104584803D01*
X100278884Y-104513872D01*
X100288921Y-104486961D01*
X100320938Y-104424125D01*
X100338406Y-104313839D01*
X100320938Y-104203553D01*
X100270245Y-104104062D01*
X100264418Y-104096043D01*
X100266115Y-104094809D01*
X100238252Y-104043783D01*
X100243317Y-103972968D01*
X100285864Y-103916132D01*
X100352384Y-103891321D01*
X100361373Y-103891000D01*
X102560300Y-103891000D01*
X102628421Y-103911002D01*
X102649395Y-103927905D01*
X102670223Y-103948733D01*
X102769714Y-103999426D01*
X102880000Y-104016894D01*
X102990286Y-103999426D01*
X103089777Y-103948733D01*
X103168733Y-103869777D01*
X103219426Y-103770286D01*
X103231202Y-103695936D01*
X103261614Y-103631786D01*
X103321882Y-103594259D01*
X103335927Y-103591203D01*
X103410286Y-103579426D01*
X103509777Y-103528733D01*
X103588733Y-103449777D01*
X103639426Y-103350286D01*
X103656894Y-103240000D01*
X103639426Y-103129714D01*
X103588733Y-103030223D01*
X103509777Y-102951267D01*
X103509776Y-102951266D01*
X103460031Y-102925920D01*
X103410286Y-102900574D01*
X103300000Y-102883106D01*
X103189714Y-102900574D01*
X103189712Y-102900574D01*
X103189712Y-102900575D01*
X103090224Y-102951266D01*
X103007895Y-103033595D01*
X102945583Y-103067620D01*
X102918800Y-103070499D01*
X102742579Y-103070499D01*
X102724865Y-103067489D01*
X102724762Y-103068409D01*
X102710654Y-103066819D01*
X102710653Y-103066819D01*
X102685022Y-103069707D01*
X102670916Y-103070499D01*
X102667191Y-103070499D01*
X102663560Y-103071328D01*
X102649644Y-103073692D01*
X102624017Y-103076580D01*
X102624014Y-103076580D01*
X102624013Y-103076581D01*
X102624011Y-103076581D01*
X102613625Y-103080215D01*
X102603713Y-103084989D01*
X102583542Y-103101075D01*
X102572026Y-103109246D01*
X102568881Y-103111221D01*
X102568876Y-103111225D01*
X102566239Y-103113863D01*
X102555719Y-103123264D01*
X102535546Y-103139352D01*
X102526697Y-103150448D01*
X102525976Y-103149873D01*
X102515579Y-103164522D01*
X102448009Y-103232094D01*
X102385697Y-103266120D01*
X102358912Y-103269000D01*
X100715308Y-103269000D01*
X100647187Y-103248998D01*
X100600694Y-103195342D01*
X100590590Y-103125068D01*
X100590839Y-103123414D01*
X100606107Y-103027024D01*
X100588639Y-102916738D01*
X100537946Y-102817247D01*
X100458990Y-102738291D01*
X100458989Y-102738290D01*
X100354145Y-102684870D01*
X100302530Y-102636122D01*
X100285464Y-102567207D01*
X100299080Y-102515402D01*
X100314426Y-102485286D01*
X100331894Y-102375000D01*
X100314426Y-102264714D01*
X100263733Y-102165223D01*
X100229172Y-102130662D01*
X100195146Y-102068350D01*
X100200211Y-101997535D01*
X100229169Y-101952475D01*
X100248397Y-101933248D01*
X100299090Y-101833757D01*
X100316558Y-101723471D01*
X100299090Y-101613185D01*
X100248397Y-101513694D01*
X100169441Y-101434738D01*
X100169440Y-101434737D01*
X100119695Y-101409391D01*
X100069950Y-101384045D01*
X99959664Y-101366577D01*
X99849378Y-101384045D01*
X99849376Y-101384045D01*
X99849376Y-101384046D01*
X99749887Y-101434737D01*
X99670930Y-101513694D01*
X99640410Y-101573595D01*
X99620238Y-101613185D01*
X99602770Y-101723471D01*
X99620238Y-101833757D01*
X99644322Y-101881025D01*
X99670930Y-101933247D01*
X99705491Y-101967808D01*
X99739517Y-102030120D01*
X99734452Y-102100935D01*
X99705493Y-102145997D01*
X99686267Y-102165223D01*
X99686266Y-102165223D01*
X99643071Y-102250000D01*
X99635574Y-102264714D01*
X99618106Y-102375000D01*
X99635574Y-102485286D01*
X99636801Y-102487694D01*
X99685616Y-102583501D01*
X99686267Y-102584777D01*
X99765223Y-102663733D01*
X99864714Y-102714426D01*
X99864715Y-102714426D01*
X99870067Y-102717153D01*
X99921682Y-102765901D01*
X99938748Y-102834816D01*
X99925131Y-102886622D01*
X99909788Y-102916734D01*
X99909787Y-102916736D01*
X99909787Y-102916738D01*
X99906527Y-102937322D01*
X99893577Y-103019084D01*
X99892319Y-103027024D01*
X99907566Y-103123291D01*
X99898468Y-103193699D01*
X99852746Y-103248014D01*
X99784918Y-103268987D01*
X99783118Y-103269000D01*
X99441305Y-103269000D01*
X99373184Y-103248998D01*
X99352210Y-103232095D01*
X99023144Y-102903029D01*
X99012745Y-102888373D01*
X99012022Y-102888950D01*
X99003171Y-102877852D01*
X98992174Y-102869082D01*
X98983000Y-102861766D01*
X98972472Y-102852357D01*
X98969840Y-102849725D01*
X98966683Y-102847741D01*
X98955170Y-102839572D01*
X98935003Y-102823489D01*
X98935001Y-102823488D01*
X98925098Y-102818718D01*
X98914707Y-102815082D01*
X98914706Y-102815082D01*
X98914704Y-102815081D01*
X98914702Y-102815081D01*
X98889074Y-102812193D01*
X98875147Y-102809827D01*
X98871524Y-102809000D01*
X98871521Y-102809000D01*
X98867803Y-102809000D01*
X98853697Y-102808208D01*
X98828065Y-102805320D01*
X98813957Y-102806910D01*
X98813853Y-102805990D01*
X98796140Y-102809000D01*
X97959701Y-102809000D01*
X97891580Y-102788998D01*
X97870606Y-102772096D01*
X97852956Y-102754446D01*
X97819777Y-102721267D01*
X97819775Y-102721266D01*
X97819776Y-102721266D01*
X97770031Y-102695920D01*
X97720286Y-102670574D01*
X97610000Y-102653106D01*
X97499714Y-102670574D01*
X97499712Y-102670574D01*
X97499712Y-102670575D01*
X97400223Y-102721266D01*
X97321266Y-102800223D01*
X97270575Y-102899712D01*
X97270574Y-102899714D01*
X97253106Y-103010000D01*
X92168038Y-103010000D01*
X92209777Y-102988733D01*
X92288733Y-102909777D01*
X92339426Y-102810286D01*
X92356894Y-102700000D01*
X92339426Y-102589714D01*
X92288733Y-102490223D01*
X92209777Y-102411267D01*
X92209776Y-102411266D01*
X92160031Y-102385920D01*
X92110286Y-102360574D01*
X92000000Y-102343106D01*
X91889714Y-102360574D01*
X91889712Y-102360574D01*
X91889712Y-102360575D01*
X91790223Y-102411266D01*
X91711266Y-102490223D01*
X91660722Y-102589424D01*
X91660574Y-102589714D01*
X91643106Y-102700000D01*
X91660574Y-102810286D01*
X91660574Y-102810287D01*
X91660575Y-102810289D01*
X91671082Y-102830910D01*
X91684186Y-102900686D01*
X91657486Y-102966471D01*
X91599458Y-103007377D01*
X91539105Y-103012561D01*
X91470001Y-103001616D01*
X91470000Y-103001616D01*
X91359714Y-103019084D01*
X91359712Y-103019084D01*
X91359712Y-103019085D01*
X91260223Y-103069776D01*
X91181266Y-103148733D01*
X91134764Y-103240000D01*
X91130574Y-103248224D01*
X91113106Y-103358510D01*
X87550000Y-103358510D01*
X87550000Y-102130800D01*
X93112843Y-102130800D01*
X93130311Y-102241086D01*
X93181004Y-102340577D01*
X93259960Y-102419533D01*
X93359451Y-102470226D01*
X93469737Y-102487694D01*
X93580023Y-102470226D01*
X93679514Y-102419533D01*
X93758470Y-102340577D01*
X93804621Y-102250000D01*
X94941616Y-102250000D01*
X94959084Y-102360286D01*
X94978560Y-102398510D01*
X95003604Y-102447663D01*
X95009777Y-102459777D01*
X95088733Y-102538733D01*
X95188224Y-102589426D01*
X95298510Y-102606894D01*
X95408796Y-102589426D01*
X95508287Y-102538733D01*
X95587243Y-102459777D01*
X95610047Y-102415022D01*
X95975974Y-102415022D01*
X95993442Y-102525308D01*
X96014791Y-102567207D01*
X96026111Y-102589426D01*
X96044135Y-102624799D01*
X96123091Y-102703755D01*
X96222582Y-102754448D01*
X96332868Y-102771916D01*
X96443154Y-102754448D01*
X96542645Y-102703755D01*
X96621601Y-102624799D01*
X96672294Y-102525308D01*
X96689762Y-102415022D01*
X96672294Y-102304736D01*
X96621601Y-102205245D01*
X96542645Y-102126289D01*
X96542644Y-102126288D01*
X96464097Y-102086267D01*
X96443154Y-102075596D01*
X96332868Y-102058128D01*
X96222582Y-102075596D01*
X96222580Y-102075596D01*
X96222580Y-102075597D01*
X96123091Y-102126288D01*
X96044134Y-102205245D01*
X96000804Y-102290287D01*
X95993442Y-102304736D01*
X95975974Y-102415022D01*
X95610047Y-102415022D01*
X95637936Y-102360286D01*
X95655404Y-102250000D01*
X95637936Y-102139714D01*
X95587243Y-102040223D01*
X95508287Y-101961267D01*
X95508286Y-101961266D01*
X95439118Y-101926024D01*
X95408796Y-101910574D01*
X95298510Y-101893106D01*
X95188224Y-101910574D01*
X95188222Y-101910574D01*
X95188222Y-101910575D01*
X95088733Y-101961266D01*
X95009776Y-102040223D01*
X94969074Y-102120108D01*
X94959084Y-102139714D01*
X94941616Y-102250000D01*
X93804621Y-102250000D01*
X93809163Y-102241086D01*
X93826631Y-102130800D01*
X93809163Y-102020514D01*
X93758470Y-101921023D01*
X93679514Y-101842067D01*
X93679513Y-101842066D01*
X93624826Y-101814202D01*
X93580023Y-101791374D01*
X93469737Y-101773906D01*
X93359451Y-101791374D01*
X93359449Y-101791374D01*
X93359449Y-101791375D01*
X93259960Y-101842066D01*
X93181003Y-101921023D01*
X93155935Y-101970223D01*
X93130311Y-102020514D01*
X93112843Y-102130800D01*
X87550000Y-102130800D01*
X87550000Y-99050000D01*
X89450000Y-99050000D01*
X89450000Y-102000000D01*
X91750000Y-102000000D01*
X91750000Y-101070000D01*
X92723106Y-101070000D01*
X92740574Y-101180286D01*
X92740575Y-101180287D01*
X92784315Y-101266134D01*
X92791267Y-101279777D01*
X92870223Y-101358733D01*
X92969714Y-101409426D01*
X93080000Y-101426894D01*
X93190286Y-101409426D01*
X93289777Y-101358733D01*
X93368733Y-101279777D01*
X93371167Y-101275000D01*
X95193106Y-101275000D01*
X95210574Y-101385286D01*
X95235770Y-101434737D01*
X95255011Y-101472500D01*
X95261267Y-101484777D01*
X95340223Y-101563733D01*
X95439714Y-101614426D01*
X95550000Y-101631894D01*
X95660286Y-101614426D01*
X95759777Y-101563733D01*
X95838733Y-101484777D01*
X95889426Y-101385286D01*
X95906894Y-101275000D01*
X96493106Y-101275000D01*
X96510574Y-101385286D01*
X96535770Y-101434737D01*
X96555011Y-101472500D01*
X96561267Y-101484777D01*
X96640223Y-101563733D01*
X96739714Y-101614426D01*
X96850000Y-101631894D01*
X96960286Y-101614426D01*
X97059777Y-101563733D01*
X97138733Y-101484777D01*
X97189426Y-101385286D01*
X97206894Y-101275000D01*
X97192372Y-101183314D01*
X98473049Y-101183314D01*
X98490517Y-101293600D01*
X98490518Y-101293601D01*
X98537233Y-101385287D01*
X98541210Y-101393091D01*
X98620166Y-101472047D01*
X98719657Y-101522740D01*
X98829943Y-101540208D01*
X98940229Y-101522740D01*
X99039720Y-101472047D01*
X99118676Y-101393091D01*
X99169369Y-101293600D01*
X99186837Y-101183314D01*
X99169369Y-101073028D01*
X99118676Y-100973537D01*
X99039720Y-100894581D01*
X99039719Y-100894580D01*
X98969364Y-100858733D01*
X98940229Y-100843888D01*
X98829943Y-100826420D01*
X98719657Y-100843888D01*
X98719655Y-100843888D01*
X98719655Y-100843889D01*
X98620166Y-100894580D01*
X98541209Y-100973537D01*
X98494494Y-101065223D01*
X98490517Y-101073028D01*
X98473049Y-101183314D01*
X97192372Y-101183314D01*
X97189426Y-101164714D01*
X97138733Y-101065223D01*
X97059777Y-100986267D01*
X97059776Y-100986266D01*
X97007660Y-100959712D01*
X96960286Y-100935574D01*
X96850000Y-100918106D01*
X96739714Y-100935574D01*
X96739712Y-100935574D01*
X96739712Y-100935575D01*
X96640223Y-100986266D01*
X96561266Y-101065223D01*
X96529117Y-101128321D01*
X96510574Y-101164714D01*
X96493106Y-101275000D01*
X95906894Y-101275000D01*
X95889426Y-101164714D01*
X95838733Y-101065223D01*
X95759777Y-100986267D01*
X95759776Y-100986266D01*
X95707660Y-100959712D01*
X95660286Y-100935574D01*
X95550000Y-100918106D01*
X95439714Y-100935574D01*
X95439712Y-100935574D01*
X95439712Y-100935575D01*
X95340223Y-100986266D01*
X95261266Y-101065223D01*
X95229117Y-101128321D01*
X95210574Y-101164714D01*
X95193106Y-101275000D01*
X93371167Y-101275000D01*
X93419426Y-101180286D01*
X93436894Y-101070000D01*
X93419426Y-100959714D01*
X93368733Y-100860223D01*
X93289777Y-100781267D01*
X93289776Y-100781266D01*
X93226298Y-100748923D01*
X93190286Y-100730574D01*
X93080000Y-100713106D01*
X92969714Y-100730574D01*
X92969712Y-100730574D01*
X92969712Y-100730575D01*
X92870223Y-100781266D01*
X92791266Y-100860223D01*
X92752874Y-100935574D01*
X92740574Y-100959714D01*
X92723106Y-101070000D01*
X91750000Y-101070000D01*
X91750000Y-100409499D01*
X97252614Y-100409499D01*
X97270082Y-100519785D01*
X97270083Y-100519786D01*
X97304190Y-100586727D01*
X97320775Y-100619276D01*
X97399731Y-100698232D01*
X97499222Y-100748925D01*
X97609508Y-100766393D01*
X97719794Y-100748925D01*
X97819285Y-100698232D01*
X97820504Y-100697013D01*
X101293097Y-100697013D01*
X101310565Y-100807299D01*
X101335911Y-100857044D01*
X101355036Y-100894580D01*
X101361258Y-100906790D01*
X101440214Y-100985746D01*
X101539705Y-101036439D01*
X101649991Y-101053907D01*
X101760277Y-101036439D01*
X101859768Y-100985746D01*
X101938724Y-100906790D01*
X101989417Y-100807299D01*
X102006885Y-100697013D01*
X101989417Y-100586727D01*
X101938724Y-100487236D01*
X101859768Y-100408280D01*
X101859767Y-100408279D01*
X101765450Y-100360223D01*
X101760277Y-100357587D01*
X101649991Y-100340119D01*
X101539705Y-100357587D01*
X101539703Y-100357587D01*
X101539703Y-100357588D01*
X101440214Y-100408279D01*
X101361257Y-100487236D01*
X101319088Y-100570000D01*
X101310565Y-100586727D01*
X101293097Y-100697013D01*
X97820504Y-100697013D01*
X97898241Y-100619276D01*
X97948934Y-100519785D01*
X97966402Y-100409499D01*
X97948934Y-100299213D01*
X97898241Y-100199722D01*
X97819285Y-100120766D01*
X97819284Y-100120765D01*
X97769539Y-100095419D01*
X97719794Y-100070073D01*
X97609508Y-100052605D01*
X97499222Y-100070073D01*
X97499220Y-100070073D01*
X97499220Y-100070074D01*
X97399731Y-100120765D01*
X97320774Y-100199722D01*
X97300399Y-100239712D01*
X97270082Y-100299213D01*
X97252614Y-100409499D01*
X91750000Y-100409499D01*
X91750000Y-99050000D01*
X89450000Y-99050000D01*
X87550000Y-99050000D01*
X87550000Y-98750009D01*
X95820935Y-98750009D01*
X95838403Y-98860295D01*
X95853652Y-98890223D01*
X95877761Y-98937541D01*
X95889096Y-98959786D01*
X95968052Y-99038742D01*
X96067543Y-99089435D01*
X96177829Y-99106903D01*
X96288115Y-99089435D01*
X96387606Y-99038742D01*
X96457245Y-98969102D01*
X96519553Y-98935080D01*
X96590369Y-98940144D01*
X96647205Y-98982690D01*
X96670785Y-99038487D01*
X96680573Y-99100285D01*
X96723623Y-99184774D01*
X96731267Y-99199777D01*
X96810223Y-99278733D01*
X96909714Y-99329426D01*
X97020000Y-99346894D01*
X97130286Y-99329426D01*
X97229777Y-99278733D01*
X97255521Y-99252989D01*
X97637953Y-99252989D01*
X97655421Y-99363275D01*
X97678822Y-99409203D01*
X97703121Y-99456893D01*
X97706114Y-99462766D01*
X97785070Y-99541722D01*
X97884561Y-99592415D01*
X97994847Y-99609883D01*
X98105133Y-99592415D01*
X98204624Y-99541722D01*
X98283580Y-99462766D01*
X98334273Y-99363275D01*
X98334274Y-99363266D01*
X98335032Y-99360937D01*
X98336727Y-99358456D01*
X98338775Y-99354439D01*
X98339294Y-99354703D01*
X98375103Y-99302330D01*
X98440498Y-99274690D01*
X98510456Y-99286793D01*
X98512050Y-99287591D01*
X98564711Y-99314423D01*
X98674997Y-99331891D01*
X98785283Y-99314423D01*
X98884774Y-99263730D01*
X98963730Y-99184774D01*
X98963732Y-99184769D01*
X98964071Y-99184431D01*
X99026383Y-99150406D01*
X99097199Y-99155470D01*
X99110371Y-99161260D01*
X99115221Y-99163731D01*
X99115223Y-99163733D01*
X99214714Y-99214426D01*
X99325000Y-99231894D01*
X99435286Y-99214426D01*
X99534777Y-99163733D01*
X99613733Y-99084777D01*
X99664426Y-98985286D01*
X99681894Y-98875000D01*
X99664426Y-98764714D01*
X99613733Y-98665223D01*
X99534777Y-98586267D01*
X99534776Y-98586266D01*
X99475951Y-98556294D01*
X99435286Y-98535574D01*
X99325000Y-98518106D01*
X99214714Y-98535574D01*
X99214712Y-98535574D01*
X99214712Y-98535575D01*
X99115224Y-98586266D01*
X99035924Y-98665566D01*
X98973612Y-98699591D01*
X98902796Y-98694525D01*
X98889626Y-98688737D01*
X98884775Y-98686265D01*
X98884774Y-98686264D01*
X98785283Y-98635571D01*
X98674997Y-98618103D01*
X98564711Y-98635571D01*
X98564709Y-98635571D01*
X98564709Y-98635572D01*
X98465220Y-98686263D01*
X98386263Y-98765220D01*
X98335568Y-98864715D01*
X98334807Y-98867060D01*
X98333109Y-98869541D01*
X98331069Y-98873547D01*
X98330551Y-98873283D01*
X98294730Y-98925663D01*
X98229332Y-98953296D01*
X98159376Y-98941186D01*
X98157774Y-98940384D01*
X98105136Y-98913564D01*
X98105134Y-98913563D01*
X98105133Y-98913563D01*
X97994847Y-98896095D01*
X97884561Y-98913563D01*
X97884559Y-98913563D01*
X97884559Y-98913564D01*
X97785070Y-98964255D01*
X97706113Y-99043212D01*
X97655422Y-99142701D01*
X97655421Y-99142703D01*
X97637953Y-99252989D01*
X97255521Y-99252989D01*
X97308733Y-99199777D01*
X97359426Y-99100286D01*
X97376894Y-98990000D01*
X97359426Y-98879714D01*
X97308733Y-98780223D01*
X97229777Y-98701267D01*
X97229776Y-98701266D01*
X97177999Y-98674885D01*
X97130286Y-98650574D01*
X97020000Y-98633106D01*
X96909714Y-98650574D01*
X96909712Y-98650574D01*
X96909712Y-98650575D01*
X96810224Y-98701266D01*
X96740586Y-98770904D01*
X96678273Y-98804929D01*
X96607458Y-98799863D01*
X96550622Y-98757316D01*
X96527043Y-98701521D01*
X96517255Y-98639723D01*
X96466562Y-98540232D01*
X96387606Y-98461276D01*
X96387605Y-98461275D01*
X96337860Y-98435929D01*
X96288115Y-98410583D01*
X96177829Y-98393115D01*
X96067543Y-98410583D01*
X96067541Y-98410583D01*
X96067541Y-98410584D01*
X95968052Y-98461275D01*
X95889095Y-98540232D01*
X95840518Y-98635572D01*
X95838403Y-98639723D01*
X95820935Y-98750009D01*
X87550000Y-98750009D01*
X87550000Y-97700000D01*
X91218106Y-97700000D01*
X91235574Y-97810286D01*
X91244762Y-97828318D01*
X91278713Y-97894953D01*
X91286267Y-97909777D01*
X91365223Y-97988733D01*
X91464714Y-98039426D01*
X91575000Y-98056894D01*
X91685286Y-98039426D01*
X91784777Y-97988733D01*
X91863733Y-97909777D01*
X91914426Y-97810286D01*
X91931894Y-97700000D01*
X91914549Y-97590493D01*
X99633607Y-97590493D01*
X99651075Y-97700779D01*
X99701768Y-97800270D01*
X99780724Y-97879226D01*
X99880215Y-97929919D01*
X99990501Y-97947387D01*
X100100787Y-97929919D01*
X100200278Y-97879226D01*
X100279234Y-97800270D01*
X100329927Y-97700779D01*
X100347395Y-97590493D01*
X100329927Y-97480207D01*
X100279234Y-97380716D01*
X100200278Y-97301760D01*
X100200277Y-97301759D01*
X100118880Y-97260286D01*
X100100787Y-97251067D01*
X99990501Y-97233599D01*
X99880215Y-97251067D01*
X99880213Y-97251067D01*
X99880213Y-97251068D01*
X99780724Y-97301759D01*
X99701767Y-97380716D01*
X99655654Y-97471220D01*
X99651075Y-97480207D01*
X99633607Y-97590493D01*
X91914549Y-97590493D01*
X91914426Y-97589714D01*
X91863733Y-97490223D01*
X91784777Y-97411267D01*
X91784776Y-97411266D01*
X91710996Y-97373674D01*
X91685286Y-97360574D01*
X91575000Y-97343106D01*
X91464714Y-97360574D01*
X91464712Y-97360574D01*
X91464712Y-97360575D01*
X91365223Y-97411266D01*
X91286266Y-97490223D01*
X91235575Y-97589712D01*
X91235574Y-97589714D01*
X91218106Y-97700000D01*
X87550000Y-97700000D01*
X87550000Y-97122743D01*
X87556678Y-97100000D01*
X88333106Y-97100000D01*
X88350574Y-97210286D01*
X88371353Y-97251067D01*
X88397181Y-97301759D01*
X88401267Y-97309777D01*
X88480223Y-97388733D01*
X88579714Y-97439426D01*
X88690000Y-97456894D01*
X88800286Y-97439426D01*
X88899777Y-97388733D01*
X88978733Y-97309777D01*
X89029426Y-97210286D01*
X89046894Y-97100000D01*
X89029426Y-96989714D01*
X89003159Y-96938162D01*
X100928816Y-96938162D01*
X100946284Y-97048448D01*
X100966068Y-97087277D01*
X100993077Y-97140286D01*
X100996977Y-97147939D01*
X101075933Y-97226895D01*
X101175424Y-97277588D01*
X101251835Y-97289690D01*
X101315986Y-97320101D01*
X101353513Y-97380369D01*
X101352499Y-97451359D01*
X101313267Y-97510531D01*
X101306190Y-97516069D01*
X101299729Y-97520763D01*
X101220772Y-97599720D01*
X101179009Y-97681687D01*
X101170080Y-97699211D01*
X101152612Y-97809497D01*
X101170080Y-97919783D01*
X101195426Y-97969528D01*
X101205211Y-97988733D01*
X101220773Y-98019274D01*
X101299729Y-98098230D01*
X101399220Y-98148923D01*
X101509506Y-98166391D01*
X101619792Y-98148923D01*
X101719283Y-98098230D01*
X101719284Y-98098228D01*
X101727061Y-98094266D01*
X101796837Y-98081162D01*
X101862622Y-98107862D01*
X101903529Y-98165889D01*
X101908711Y-98186815D01*
X101925684Y-98293972D01*
X101945825Y-98333501D01*
X101976199Y-98393115D01*
X101976377Y-98393463D01*
X102055333Y-98472419D01*
X102154824Y-98523112D01*
X102265110Y-98540580D01*
X102375396Y-98523112D01*
X102474887Y-98472419D01*
X102553843Y-98393463D01*
X102604536Y-98293972D01*
X102622004Y-98183686D01*
X102604536Y-98073400D01*
X102553843Y-97973909D01*
X102474887Y-97894953D01*
X102474886Y-97894952D01*
X102375395Y-97844259D01*
X102274753Y-97828318D01*
X102210601Y-97797905D01*
X102173075Y-97737636D01*
X102174090Y-97666647D01*
X102205371Y-97614774D01*
X102209585Y-97610559D01*
X102209590Y-97610557D01*
X102288546Y-97531601D01*
X102339239Y-97432110D01*
X102356707Y-97321824D01*
X102339239Y-97211538D01*
X102311476Y-97157051D01*
X102298373Y-97087277D01*
X102325073Y-97021492D01*
X102366542Y-96987583D01*
X102376718Y-96982398D01*
X102382991Y-96979202D01*
X102461947Y-96900246D01*
X102512640Y-96800755D01*
X102520679Y-96750000D01*
X104053106Y-96750000D01*
X104070574Y-96860286D01*
X104080448Y-96879664D01*
X104113082Y-96943714D01*
X104121267Y-96959777D01*
X104200223Y-97038733D01*
X104299714Y-97089426D01*
X104410000Y-97106894D01*
X104520286Y-97089426D01*
X104619777Y-97038733D01*
X104698733Y-96959777D01*
X104716225Y-96925446D01*
X104764970Y-96873832D01*
X104833884Y-96856764D01*
X104901087Y-96879664D01*
X104930423Y-96908582D01*
X104931290Y-96909775D01*
X104931291Y-96909777D01*
X105010247Y-96988733D01*
X105109738Y-97039426D01*
X105220024Y-97056894D01*
X105330310Y-97039426D01*
X105429801Y-96988733D01*
X105508757Y-96909777D01*
X105559450Y-96810286D01*
X105576918Y-96700000D01*
X105559450Y-96589714D01*
X105551239Y-96573598D01*
X105538135Y-96503821D01*
X105550255Y-96473960D01*
X105519412Y-96475282D01*
X105460606Y-96442072D01*
X105429800Y-96411266D01*
X105380055Y-96385920D01*
X105330310Y-96360574D01*
X105220024Y-96343106D01*
X105109738Y-96360574D01*
X105109736Y-96360574D01*
X105109736Y-96360575D01*
X105010247Y-96411266D01*
X104931292Y-96490221D01*
X104931287Y-96490228D01*
X104913798Y-96524553D01*
X104865050Y-96576168D01*
X104796135Y-96593234D01*
X104728934Y-96570333D01*
X104699599Y-96541415D01*
X104698732Y-96540222D01*
X104619776Y-96461266D01*
X104568786Y-96435286D01*
X104520286Y-96410574D01*
X104410000Y-96393106D01*
X104299714Y-96410574D01*
X104299712Y-96410574D01*
X104299712Y-96410575D01*
X104200223Y-96461266D01*
X104121266Y-96540223D01*
X104083812Y-96613733D01*
X104070574Y-96639714D01*
X104053106Y-96750000D01*
X102520679Y-96750000D01*
X102530108Y-96690469D01*
X102512640Y-96580183D01*
X102461947Y-96480692D01*
X102382991Y-96401736D01*
X102382990Y-96401735D01*
X102327761Y-96373595D01*
X102283500Y-96351043D01*
X102173214Y-96333575D01*
X102062928Y-96351043D01*
X102062926Y-96351043D01*
X102062926Y-96351044D01*
X101963437Y-96401735D01*
X101884480Y-96480692D01*
X101853541Y-96541415D01*
X101833788Y-96580183D01*
X101816320Y-96690469D01*
X101815045Y-96698521D01*
X101784632Y-96762674D01*
X101724363Y-96800200D01*
X101653374Y-96799186D01*
X101594202Y-96759953D01*
X101578330Y-96736013D01*
X101574445Y-96728388D01*
X101574441Y-96728383D01*
X101495486Y-96649428D01*
X101425429Y-96613733D01*
X101395996Y-96598736D01*
X101285710Y-96581268D01*
X101175424Y-96598736D01*
X101175422Y-96598736D01*
X101175422Y-96598737D01*
X101075933Y-96649428D01*
X100996976Y-96728385D01*
X100946285Y-96827874D01*
X100946284Y-96827876D01*
X100928816Y-96938162D01*
X89003159Y-96938162D01*
X88978733Y-96890223D01*
X88899777Y-96811267D01*
X88899776Y-96811266D01*
X88850031Y-96785920D01*
X88800286Y-96760574D01*
X88690000Y-96743106D01*
X88579714Y-96760574D01*
X88579712Y-96760574D01*
X88579712Y-96760575D01*
X88480223Y-96811266D01*
X88401266Y-96890223D01*
X88354302Y-96982398D01*
X88350574Y-96989714D01*
X88333106Y-97100000D01*
X87556678Y-97100000D01*
X87570002Y-97054622D01*
X87623658Y-97008129D01*
X87693932Y-96998025D01*
X87695627Y-96998282D01*
X87750000Y-97006894D01*
X87860286Y-96989426D01*
X87959777Y-96938733D01*
X88038733Y-96859777D01*
X88089426Y-96760286D01*
X88106894Y-96650000D01*
X88089426Y-96539714D01*
X88038733Y-96440223D01*
X87959777Y-96361267D01*
X87959776Y-96361266D01*
X87905428Y-96333575D01*
X87860286Y-96310574D01*
X87750000Y-96293106D01*
X87749999Y-96293106D01*
X87733149Y-96295775D01*
X87695710Y-96301704D01*
X87625300Y-96292606D01*
X87570986Y-96246884D01*
X87550013Y-96179056D01*
X87550000Y-96177256D01*
X87550000Y-96050000D01*
X85100000Y-96050000D01*
X77024193Y-96050000D01*
X76993735Y-95990223D01*
X76914779Y-95911267D01*
X76914778Y-95911266D01*
X76892299Y-95899813D01*
X76882300Y-95894718D01*
X76830686Y-95845971D01*
X76813620Y-95777056D01*
X76836521Y-95709854D01*
X76882300Y-95670186D01*
X76904779Y-95658733D01*
X76983735Y-95579777D01*
X77034428Y-95480286D01*
X77043184Y-95425002D01*
X82593106Y-95425002D01*
X82610574Y-95535288D01*
X82623052Y-95559777D01*
X82661265Y-95634777D01*
X82661267Y-95634779D01*
X82740223Y-95713735D01*
X82839714Y-95764428D01*
X82950000Y-95781896D01*
X83060286Y-95764428D01*
X83159777Y-95713735D01*
X83238733Y-95634779D01*
X83289426Y-95535288D01*
X83306894Y-95425002D01*
X83306894Y-95425000D01*
X84418106Y-95425000D01*
X84435574Y-95535286D01*
X84448053Y-95559777D01*
X84483448Y-95629246D01*
X84486267Y-95634777D01*
X84565223Y-95713733D01*
X84664714Y-95764426D01*
X84775000Y-95781894D01*
X84885286Y-95764426D01*
X84934247Y-95739479D01*
X93369596Y-95739479D01*
X93387064Y-95849765D01*
X93394714Y-95864779D01*
X93436272Y-95946343D01*
X93437757Y-95949256D01*
X93516713Y-96028212D01*
X93616204Y-96078905D01*
X93726490Y-96096373D01*
X93836776Y-96078905D01*
X93936267Y-96028212D01*
X94015223Y-95949256D01*
X94065916Y-95849765D01*
X94083384Y-95739479D01*
X94065916Y-95629193D01*
X94015223Y-95529702D01*
X93936267Y-95450746D01*
X93936266Y-95450745D01*
X93866549Y-95415223D01*
X93836776Y-95400053D01*
X93726490Y-95382585D01*
X93616204Y-95400053D01*
X93616202Y-95400053D01*
X93616202Y-95400054D01*
X93516713Y-95450745D01*
X93437756Y-95529702D01*
X93393580Y-95616405D01*
X93387064Y-95629193D01*
X93369596Y-95739479D01*
X84934247Y-95739479D01*
X84984777Y-95713733D01*
X85063733Y-95634777D01*
X85114426Y-95535286D01*
X85131894Y-95425000D01*
X85114426Y-95314714D01*
X85063733Y-95215223D01*
X84984777Y-95136267D01*
X84984776Y-95136266D01*
X84899711Y-95092924D01*
X84885286Y-95085574D01*
X84775000Y-95068106D01*
X84664714Y-95085574D01*
X84664712Y-95085574D01*
X84664712Y-95085575D01*
X84565223Y-95136266D01*
X84486266Y-95215223D01*
X84444382Y-95297427D01*
X84435574Y-95314714D01*
X84418106Y-95425000D01*
X83306894Y-95425000D01*
X83289426Y-95314716D01*
X83238733Y-95215225D01*
X83159777Y-95136269D01*
X83159776Y-95136268D01*
X83074707Y-95092924D01*
X83060286Y-95085576D01*
X82950000Y-95068108D01*
X82839714Y-95085576D01*
X82839712Y-95085576D01*
X82839712Y-95085577D01*
X82740223Y-95136268D01*
X82661266Y-95215225D01*
X82619383Y-95297427D01*
X82610574Y-95314716D01*
X82593106Y-95425002D01*
X77043184Y-95425002D01*
X77051896Y-95370000D01*
X77034428Y-95259714D01*
X76983735Y-95160223D01*
X76904779Y-95081267D01*
X76904778Y-95081266D01*
X76899789Y-95077641D01*
X76859202Y-95025000D01*
X81668106Y-95025000D01*
X81685574Y-95135286D01*
X81709386Y-95182019D01*
X81736265Y-95234775D01*
X81736267Y-95234777D01*
X81815223Y-95313733D01*
X81914714Y-95364426D01*
X82025000Y-95381894D01*
X82135286Y-95364426D01*
X82234777Y-95313733D01*
X82313733Y-95234777D01*
X82364426Y-95135286D01*
X82381894Y-95025000D01*
X82364426Y-94914714D01*
X82313733Y-94815223D01*
X82234777Y-94736267D01*
X82234776Y-94736266D01*
X82182785Y-94709776D01*
X82135286Y-94685574D01*
X82068526Y-94675000D01*
X85293106Y-94675000D01*
X85310574Y-94785286D01*
X85312386Y-94788842D01*
X85358540Y-94879426D01*
X85361267Y-94884777D01*
X85440223Y-94963733D01*
X85539714Y-95014426D01*
X85650000Y-95031894D01*
X85760286Y-95014426D01*
X85859777Y-94963733D01*
X85938733Y-94884777D01*
X85989426Y-94785286D01*
X86006894Y-94675000D01*
X85989426Y-94564714D01*
X85956453Y-94500000D01*
X87093106Y-94500000D01*
X87110574Y-94610286D01*
X87131881Y-94652104D01*
X87148935Y-94685575D01*
X87161267Y-94709777D01*
X87240223Y-94788733D01*
X87339714Y-94839426D01*
X87450000Y-94856894D01*
X87560286Y-94839426D01*
X87659777Y-94788733D01*
X87738733Y-94709777D01*
X87789426Y-94610286D01*
X87806894Y-94500000D01*
X87789426Y-94389714D01*
X87738733Y-94290223D01*
X87659777Y-94211267D01*
X87659776Y-94211266D01*
X87604508Y-94183106D01*
X87560286Y-94160574D01*
X87450000Y-94143106D01*
X87339714Y-94160574D01*
X87339712Y-94160574D01*
X87339712Y-94160575D01*
X87240223Y-94211266D01*
X87161266Y-94290223D01*
X87122190Y-94366916D01*
X87110574Y-94389714D01*
X87093106Y-94500000D01*
X85956453Y-94500000D01*
X85938733Y-94465223D01*
X85859777Y-94386267D01*
X85859776Y-94386266D01*
X85787511Y-94349446D01*
X85760286Y-94335574D01*
X85650000Y-94318106D01*
X85539714Y-94335574D01*
X85539712Y-94335574D01*
X85539712Y-94335575D01*
X85440223Y-94386266D01*
X85361266Y-94465223D01*
X85318642Y-94548880D01*
X85310574Y-94564714D01*
X85293106Y-94675000D01*
X82068526Y-94675000D01*
X82025000Y-94668106D01*
X81914714Y-94685574D01*
X81914712Y-94685574D01*
X81914712Y-94685575D01*
X81815223Y-94736266D01*
X81736266Y-94815223D01*
X81699241Y-94887890D01*
X81685574Y-94914714D01*
X81668106Y-95025000D01*
X76859202Y-95025000D01*
X76856439Y-95021416D01*
X76850368Y-94950679D01*
X76883504Y-94887890D01*
X76916651Y-94863445D01*
X76984779Y-94828733D01*
X77063735Y-94749777D01*
X77114428Y-94650286D01*
X77131896Y-94540000D01*
X77114428Y-94429714D01*
X77063735Y-94330223D01*
X76984779Y-94251267D01*
X76984778Y-94251266D01*
X76906272Y-94211266D01*
X76885288Y-94200574D01*
X76775002Y-94183106D01*
X76664716Y-94200574D01*
X76664714Y-94200574D01*
X76664714Y-94200575D01*
X76565225Y-94251266D01*
X76486268Y-94330223D01*
X76457713Y-94386267D01*
X76435576Y-94429714D01*
X76418108Y-94540000D01*
X76435576Y-94650286D01*
X76451443Y-94681426D01*
X76486268Y-94749776D01*
X76565226Y-94828734D01*
X76570212Y-94832357D01*
X76613563Y-94888581D01*
X76619635Y-94959318D01*
X76586500Y-95022108D01*
X76553349Y-95046556D01*
X76485226Y-95081266D01*
X76485223Y-95081268D01*
X76406268Y-95160223D01*
X76368283Y-95234775D01*
X76355576Y-95259714D01*
X76338108Y-95370000D01*
X76355576Y-95480286D01*
X76365621Y-95500000D01*
X76396078Y-95559777D01*
X76406269Y-95579777D01*
X76485225Y-95658733D01*
X76517701Y-95675280D01*
X76569316Y-95724027D01*
X76586383Y-95792942D01*
X76563483Y-95860144D01*
X76517704Y-95899813D01*
X76495226Y-95911266D01*
X76495223Y-95911268D01*
X76416268Y-95990223D01*
X76381181Y-96059087D01*
X76365576Y-96089714D01*
X76348108Y-96200000D01*
X76365576Y-96310286D01*
X76382299Y-96343106D01*
X76416268Y-96409776D01*
X76475397Y-96468905D01*
X76509423Y-96531217D01*
X76504358Y-96602032D01*
X76461811Y-96658868D01*
X76406016Y-96682447D01*
X76354712Y-96690574D01*
X76354710Y-96690574D01*
X76354710Y-96690575D01*
X76255221Y-96741266D01*
X76176264Y-96820223D01*
X76131244Y-96908582D01*
X76125572Y-96919714D01*
X76108104Y-97030000D01*
X76125572Y-97140286D01*
X76150918Y-97190031D01*
X76161876Y-97211538D01*
X76176265Y-97239777D01*
X76255221Y-97318733D01*
X76280198Y-97331459D01*
X76331813Y-97380207D01*
X76348879Y-97449122D01*
X76325978Y-97516324D01*
X76280198Y-97555992D01*
X76250226Y-97571263D01*
X76250219Y-97571268D01*
X76171264Y-97650223D01*
X76129404Y-97732380D01*
X76120572Y-97749714D01*
X76103104Y-97860000D01*
X76120572Y-97970286D01*
X76145532Y-98019273D01*
X76164700Y-98056894D01*
X76171265Y-98069777D01*
X76250221Y-98148733D01*
X76250223Y-98148734D01*
X76250226Y-98148736D01*
X76302230Y-98175234D01*
X76353845Y-98223982D01*
X76370911Y-98292897D01*
X76348010Y-98360098D01*
X76302230Y-98399766D01*
X76250226Y-98426263D01*
X76250219Y-98426268D01*
X76171264Y-98505223D01*
X76129971Y-98586267D01*
X76120572Y-98604714D01*
X76103104Y-98715000D01*
X76120572Y-98825286D01*
X76140660Y-98864711D01*
X76165551Y-98913564D01*
X76171265Y-98924777D01*
X76250221Y-99003733D01*
X76253016Y-99005157D01*
X76253167Y-99005234D01*
X76256098Y-99008003D01*
X76258247Y-99009564D01*
X76258045Y-99009841D01*
X76304781Y-99053984D01*
X76321846Y-99122899D01*
X76298944Y-99190100D01*
X76258214Y-99225391D01*
X76258247Y-99225436D01*
X76257733Y-99225809D01*
X76253167Y-99229766D01*
X76250222Y-99231266D01*
X76250219Y-99231268D01*
X76171264Y-99310223D01*
X76142644Y-99366395D01*
X76120572Y-99409714D01*
X76103104Y-99520000D01*
X76120572Y-99630286D01*
X76171265Y-99729777D01*
X76250221Y-99808733D01*
X76277698Y-99822733D01*
X76329313Y-99871482D01*
X76346379Y-99940396D01*
X76323478Y-100007598D01*
X76277698Y-100047267D01*
X76250222Y-100061266D01*
X76250219Y-100061268D01*
X76171264Y-100140223D01*
X76134129Y-100213106D01*
X76120572Y-100239714D01*
X76103104Y-100350000D01*
X75029262Y-100350000D01*
X75028050Y-100312157D01*
X75027989Y-100307286D01*
X75035031Y-99332170D01*
X75035164Y-99327239D01*
X75037166Y-99284184D01*
X75080455Y-98353184D01*
X75080777Y-98348323D01*
X75164250Y-97376800D01*
X75164762Y-97371942D01*
X75286296Y-96404365D01*
X75286996Y-96399563D01*
X75446390Y-95437553D01*
X75447276Y-95432782D01*
X75644298Y-94477726D01*
X75645379Y-94472963D01*
X75729567Y-94132893D01*
X75765352Y-94071578D01*
X75828608Y-94039342D01*
X75899251Y-94046421D01*
X75940969Y-94074080D01*
X75946476Y-94079587D01*
X76045967Y-94130280D01*
X76156253Y-94147748D01*
X76266539Y-94130280D01*
X76366030Y-94079587D01*
X76444986Y-94000631D01*
X76495679Y-93901140D01*
X76513147Y-93790854D01*
X76498616Y-93699110D01*
X89667661Y-93699110D01*
X89685129Y-93809396D01*
X89693288Y-93825409D01*
X89731874Y-93901140D01*
X89735822Y-93908887D01*
X89814778Y-93987843D01*
X89914269Y-94038536D01*
X90024555Y-94056004D01*
X90134841Y-94038536D01*
X90134843Y-94038534D01*
X90144634Y-94036984D01*
X90145186Y-94040470D01*
X90198281Y-94038953D01*
X90259079Y-94075615D01*
X90280252Y-94111889D01*
X90281072Y-94111472D01*
X90331919Y-94211267D01*
X90336267Y-94219799D01*
X90415223Y-94298755D01*
X90514714Y-94349448D01*
X90625000Y-94366916D01*
X90735286Y-94349448D01*
X90834777Y-94298755D01*
X90913733Y-94219799D01*
X90964426Y-94120308D01*
X90981894Y-94010022D01*
X90964426Y-93899736D01*
X90913733Y-93800245D01*
X90834777Y-93721289D01*
X90834776Y-93721288D01*
X90754853Y-93680566D01*
X90735286Y-93670596D01*
X90625000Y-93653128D01*
X90514714Y-93670596D01*
X90514711Y-93670597D01*
X90504921Y-93672148D01*
X90504370Y-93668671D01*
X90451196Y-93670158D01*
X90390421Y-93633458D01*
X90369299Y-93597243D01*
X90368483Y-93597660D01*
X90363979Y-93588820D01*
X90313288Y-93489333D01*
X90313287Y-93489332D01*
X90309650Y-93482194D01*
X90296546Y-93412417D01*
X90309651Y-93367788D01*
X90333106Y-93321756D01*
X90364426Y-93260286D01*
X90381894Y-93150000D01*
X90364426Y-93039714D01*
X90313733Y-92940223D01*
X90234777Y-92861267D01*
X90234776Y-92861266D01*
X90169082Y-92827794D01*
X90135286Y-92810574D01*
X90025000Y-92793106D01*
X89914714Y-92810574D01*
X89914712Y-92810574D01*
X89914712Y-92810575D01*
X89815223Y-92861266D01*
X89736266Y-92940223D01*
X89692355Y-93026405D01*
X89685574Y-93039714D01*
X89668106Y-93150000D01*
X89685574Y-93260286D01*
X89685574Y-93260287D01*
X89685575Y-93260288D01*
X89739904Y-93366915D01*
X89753008Y-93436692D01*
X89739904Y-93481320D01*
X89685130Y-93588820D01*
X89685129Y-93588822D01*
X89685129Y-93588824D01*
X89667661Y-93699110D01*
X76498616Y-93699110D01*
X76495679Y-93680568D01*
X76444986Y-93581077D01*
X76366030Y-93502121D01*
X76366029Y-93502120D01*
X76316284Y-93476774D01*
X76266539Y-93451428D01*
X76156253Y-93433960D01*
X76156251Y-93433960D01*
X76090298Y-93444406D01*
X76019887Y-93435306D01*
X75965573Y-93389584D01*
X75944601Y-93321756D01*
X75949562Y-93284903D01*
X75956692Y-93260286D01*
X76147939Y-92600000D01*
X78193106Y-92600000D01*
X78210574Y-92710286D01*
X78210575Y-92710287D01*
X78261266Y-92809776D01*
X78290567Y-92839077D01*
X78324591Y-92901389D01*
X78319525Y-92972205D01*
X78313737Y-92985373D01*
X78260575Y-93089710D01*
X78260574Y-93089712D01*
X78260574Y-93089714D01*
X78243106Y-93200000D01*
X78260574Y-93310286D01*
X78285791Y-93359777D01*
X78301303Y-93390223D01*
X78311267Y-93409777D01*
X78390223Y-93488733D01*
X78489714Y-93539426D01*
X78600000Y-93556894D01*
X78710286Y-93539426D01*
X78809777Y-93488733D01*
X78888733Y-93409777D01*
X78939426Y-93310286D01*
X78956894Y-93200000D01*
X78939426Y-93089714D01*
X78888733Y-92990223D01*
X78859432Y-92960922D01*
X78825408Y-92898610D01*
X78830474Y-92827794D01*
X78836262Y-92814625D01*
X78838731Y-92809778D01*
X78838733Y-92809777D01*
X78889426Y-92710286D01*
X78906894Y-92600000D01*
X78889426Y-92489714D01*
X78838733Y-92390223D01*
X78759777Y-92311267D01*
X78759776Y-92311266D01*
X78683692Y-92272500D01*
X78660286Y-92260574D01*
X78550000Y-92243106D01*
X78439714Y-92260574D01*
X78439712Y-92260574D01*
X78439712Y-92260575D01*
X78340223Y-92311266D01*
X78261266Y-92390223D01*
X78210575Y-92489712D01*
X78210574Y-92489714D01*
X78193106Y-92600000D01*
X76147939Y-92600000D01*
X76152267Y-92585059D01*
X76153730Y-92580359D01*
X76285262Y-92184999D01*
X83774984Y-92184999D01*
X83792452Y-92295285D01*
X83843145Y-92394776D01*
X83922101Y-92473732D01*
X84021592Y-92524425D01*
X84131878Y-92541893D01*
X84242164Y-92524425D01*
X84341655Y-92473732D01*
X84405387Y-92410000D01*
X87513106Y-92410000D01*
X87530574Y-92520286D01*
X87555920Y-92570031D01*
X87580413Y-92618102D01*
X87581267Y-92619777D01*
X87660223Y-92698733D01*
X87759714Y-92749426D01*
X87870000Y-92766894D01*
X87980286Y-92749426D01*
X88079777Y-92698733D01*
X88158733Y-92619777D01*
X88209426Y-92520286D01*
X88226894Y-92410000D01*
X88209426Y-92299714D01*
X88158733Y-92200223D01*
X88079777Y-92121267D01*
X88079776Y-92121266D01*
X88030031Y-92095920D01*
X87980286Y-92070574D01*
X87870000Y-92053106D01*
X87759714Y-92070574D01*
X87759712Y-92070574D01*
X87759712Y-92070575D01*
X87660223Y-92121266D01*
X87581266Y-92200223D01*
X87550516Y-92260575D01*
X87530574Y-92299714D01*
X87513106Y-92410000D01*
X84405387Y-92410000D01*
X84420611Y-92394776D01*
X84471304Y-92295285D01*
X84488772Y-92184999D01*
X84471304Y-92074713D01*
X84420611Y-91975222D01*
X84341655Y-91896266D01*
X84341654Y-91896265D01*
X84283234Y-91866499D01*
X84242164Y-91845573D01*
X84131878Y-91828105D01*
X84021592Y-91845573D01*
X84021590Y-91845573D01*
X84021590Y-91845574D01*
X83922101Y-91896265D01*
X83843144Y-91975222D01*
X83803461Y-92053106D01*
X83792452Y-92074713D01*
X83774984Y-92184999D01*
X76285262Y-92184999D01*
X76461534Y-91655161D01*
X76463169Y-91650549D01*
X76639920Y-91181562D01*
X76682660Y-91124874D01*
X76749265Y-91100291D01*
X76757824Y-91100000D01*
X87799999Y-91100000D01*
X87800000Y-91100000D01*
X87963096Y-90936903D01*
X88025406Y-90902880D01*
X88052190Y-90900000D01*
X89547810Y-90900000D01*
X89615931Y-90920002D01*
G37*
G04 #@! TD.AperFunction*
G04 #@! TA.AperFunction,Conductor*
G36*
X97842121Y-94020002D02*
G01*
X97888614Y-94073658D01*
X97900000Y-94126000D01*
X97900000Y-95481017D01*
X97886268Y-95538217D01*
X97878520Y-95553424D01*
X97861052Y-95663710D01*
X97878520Y-95773996D01*
X97878521Y-95773997D01*
X97886267Y-95789200D01*
X97900000Y-95846403D01*
X97900000Y-95947810D01*
X97879998Y-96015931D01*
X97863095Y-96036905D01*
X97836905Y-96063095D01*
X97774593Y-96097121D01*
X97747810Y-96100000D01*
X96401416Y-96100000D01*
X96333295Y-96079998D01*
X96313263Y-96064028D01*
X95960980Y-95719084D01*
X95926301Y-95657134D01*
X95930620Y-95586269D01*
X95960034Y-95539965D01*
X96300000Y-95200000D01*
X96300000Y-94126000D01*
X96320002Y-94057879D01*
X96373658Y-94011386D01*
X96426000Y-94000000D01*
X97774000Y-94000000D01*
X97842121Y-94020002D01*
G37*
G04 #@! TD.AperFunction*
G04 #@! TA.AperFunction,Conductor*
G36*
X114018306Y-88818306D02*
G01*
X115900000Y-90700000D01*
X117474112Y-90700000D01*
X117518306Y-90718306D01*
X118800000Y-92000000D01*
X120432207Y-92000000D01*
X120476401Y-92018306D01*
X120494707Y-92062500D01*
X120476401Y-92106694D01*
X120449815Y-92122468D01*
X120389950Y-92140045D01*
X120268871Y-92217857D01*
X120174623Y-92326625D01*
X120174623Y-92326627D01*
X120114834Y-92457544D01*
X120094353Y-92600000D01*
X120114834Y-92742455D01*
X120174623Y-92873372D01*
X120174623Y-92873374D01*
X120268871Y-92982142D01*
X120268872Y-92982143D01*
X120389947Y-93059953D01*
X120389949Y-93059953D01*
X120389950Y-93059954D01*
X120528036Y-93100499D01*
X120528038Y-93100500D01*
X120528039Y-93100500D01*
X120671962Y-93100500D01*
X120671962Y-93100499D01*
X120810053Y-93059953D01*
X120931128Y-92982143D01*
X121025377Y-92873373D01*
X121085165Y-92742457D01*
X121091269Y-92700000D01*
X122394353Y-92700000D01*
X122414834Y-92842455D01*
X122414835Y-92842457D01*
X122428954Y-92873374D01*
X122474623Y-92973372D01*
X122474623Y-92973374D01*
X122549644Y-93059953D01*
X122568872Y-93082143D01*
X122689947Y-93159953D01*
X122689949Y-93159953D01*
X122689950Y-93159954D01*
X122828036Y-93200499D01*
X122828038Y-93200500D01*
X122828039Y-93200500D01*
X122971962Y-93200500D01*
X122971962Y-93200499D01*
X123110053Y-93159953D01*
X123231128Y-93082143D01*
X123325377Y-92973373D01*
X123385165Y-92842457D01*
X123405647Y-92700000D01*
X123385165Y-92557543D01*
X123325377Y-92426627D01*
X123325376Y-92426625D01*
X123231128Y-92317857D01*
X123110053Y-92240047D01*
X123110051Y-92240046D01*
X123110049Y-92240045D01*
X122971963Y-92199500D01*
X122971961Y-92199500D01*
X122828039Y-92199500D01*
X122828037Y-92199500D01*
X122689950Y-92240045D01*
X122568871Y-92317857D01*
X122474623Y-92426625D01*
X122474623Y-92426627D01*
X122414834Y-92557544D01*
X122394353Y-92700000D01*
X121091269Y-92700000D01*
X121104362Y-92608934D01*
X121128771Y-92567795D01*
X121175120Y-92555965D01*
X121185559Y-92559030D01*
X121185658Y-92558694D01*
X121261726Y-92581029D01*
X121326336Y-92600000D01*
X121328036Y-92600499D01*
X121328038Y-92600500D01*
X121328039Y-92600500D01*
X121471962Y-92600500D01*
X121471962Y-92600499D01*
X121610053Y-92559953D01*
X121731128Y-92482143D01*
X121825377Y-92373373D01*
X121885165Y-92242457D01*
X121905647Y-92100000D01*
X121901534Y-92071394D01*
X121913364Y-92025045D01*
X121954503Y-92000636D01*
X121963398Y-92000000D01*
X123609069Y-92000000D01*
X123653263Y-92018306D01*
X123668371Y-92042765D01*
X123778383Y-92373374D01*
X123847096Y-92579872D01*
X123847824Y-92582213D01*
X124119827Y-93521097D01*
X124120464Y-93523466D01*
X124355439Y-94472355D01*
X124355981Y-94474746D01*
X124553538Y-95432064D01*
X124553987Y-95434475D01*
X124713844Y-96398862D01*
X124714197Y-96401289D01*
X124836093Y-97371164D01*
X124836351Y-97373603D01*
X124920105Y-98347528D01*
X124920267Y-98349975D01*
X124936450Y-98697450D01*
X124920220Y-98742448D01*
X124912496Y-98749609D01*
X122816957Y-100386751D01*
X122778479Y-100400000D01*
X109829026Y-100400000D01*
X109784832Y-100381694D01*
X109781274Y-100377824D01*
X109613280Y-100178885D01*
X109398939Y-99925060D01*
X109384413Y-99879485D01*
X109406368Y-99836985D01*
X109418313Y-99829051D01*
X109478220Y-99798528D01*
X109573528Y-99703220D01*
X109634719Y-99583126D01*
X109655804Y-99450000D01*
X109634719Y-99316874D01*
X109634717Y-99316871D01*
X109634717Y-99316869D01*
X109573528Y-99196780D01*
X109491554Y-99114806D01*
X109473248Y-99070612D01*
X109485932Y-99039990D01*
X114194353Y-99039990D01*
X114214834Y-99182445D01*
X114274623Y-99313362D01*
X114274623Y-99313364D01*
X114368871Y-99422132D01*
X114368872Y-99422133D01*
X114489947Y-99499943D01*
X114489949Y-99499943D01*
X114489950Y-99499944D01*
X114628036Y-99540489D01*
X114628038Y-99540490D01*
X114628039Y-99540490D01*
X114771962Y-99540490D01*
X114771962Y-99540489D01*
X114910053Y-99499943D01*
X115028710Y-99423687D01*
X115075785Y-99415193D01*
X115096290Y-99423687D01*
X115214947Y-99499943D01*
X115225604Y-99503072D01*
X115353036Y-99540489D01*
X115353038Y-99540490D01*
X115353039Y-99540490D01*
X115496962Y-99540490D01*
X115496962Y-99540489D01*
X115635053Y-99499943D01*
X115756128Y-99422133D01*
X115850377Y-99313363D01*
X115910165Y-99182447D01*
X115930647Y-99039990D01*
X115910165Y-98897533D01*
X115850377Y-98766617D01*
X115850376Y-98766616D01*
X115850376Y-98766615D01*
X115850374Y-98766613D01*
X115822112Y-98733997D01*
X115807005Y-98688610D01*
X115822115Y-98652137D01*
X115825377Y-98648373D01*
X115885165Y-98517457D01*
X115905647Y-98375000D01*
X115885165Y-98232543D01*
X115825377Y-98101627D01*
X115825376Y-98101625D01*
X115823968Y-98100000D01*
X117744353Y-98100000D01*
X117764834Y-98242455D01*
X117764835Y-98242457D01*
X117813937Y-98349975D01*
X117824623Y-98373372D01*
X117824623Y-98373374D01*
X117916726Y-98479666D01*
X117918872Y-98482143D01*
X118039947Y-98559953D01*
X118169916Y-98598115D01*
X118178036Y-98600499D01*
X118178038Y-98600500D01*
X118178039Y-98600500D01*
X118321962Y-98600500D01*
X118321962Y-98600499D01*
X118460053Y-98559953D01*
X118566210Y-98491729D01*
X118613286Y-98483237D01*
X118633789Y-98491729D01*
X118739947Y-98559953D01*
X118869916Y-98598115D01*
X118878036Y-98600499D01*
X118878038Y-98600500D01*
X118878039Y-98600500D01*
X119021962Y-98600500D01*
X119021962Y-98600499D01*
X119160053Y-98559953D01*
X119281128Y-98482143D01*
X119375377Y-98373373D01*
X119435165Y-98242457D01*
X119455647Y-98100000D01*
X119435165Y-97957543D01*
X119375377Y-97826627D01*
X119375376Y-97826625D01*
X119281128Y-97717857D01*
X119210683Y-97672585D01*
X119160053Y-97640047D01*
X119160051Y-97640046D01*
X119160049Y-97640045D01*
X119021963Y-97599500D01*
X119021961Y-97599500D01*
X118878039Y-97599500D01*
X118878037Y-97599500D01*
X118739950Y-97640045D01*
X118633790Y-97708270D01*
X118586714Y-97716763D01*
X118566210Y-97708270D01*
X118510683Y-97672585D01*
X118460053Y-97640047D01*
X118460051Y-97640046D01*
X118460049Y-97640045D01*
X118321963Y-97599500D01*
X118321961Y-97599500D01*
X118178039Y-97599500D01*
X118178037Y-97599500D01*
X118039950Y-97640045D01*
X117918871Y-97717857D01*
X117824623Y-97826625D01*
X117824623Y-97826627D01*
X117764834Y-97957544D01*
X117744353Y-98100000D01*
X115823968Y-98100000D01*
X115731128Y-97992857D01*
X115610053Y-97915047D01*
X115610051Y-97915046D01*
X115610049Y-97915045D01*
X115471963Y-97874500D01*
X115471961Y-97874500D01*
X115328039Y-97874500D01*
X115328037Y-97874500D01*
X115189950Y-97915045D01*
X115068871Y-97992857D01*
X114974623Y-98101625D01*
X114974623Y-98101627D01*
X114914834Y-98232544D01*
X114894353Y-98375000D01*
X114910599Y-98488000D01*
X114898769Y-98534349D01*
X114857629Y-98558758D01*
X114831127Y-98556862D01*
X114771963Y-98539490D01*
X114771961Y-98539490D01*
X114628039Y-98539490D01*
X114628037Y-98539490D01*
X114489950Y-98580035D01*
X114368871Y-98657847D01*
X114274623Y-98766615D01*
X114274623Y-98766617D01*
X114214834Y-98897534D01*
X114194353Y-99039990D01*
X109485932Y-99039990D01*
X109491554Y-99026418D01*
X109525970Y-99008881D01*
X109532586Y-99007834D01*
X109652680Y-98946643D01*
X109747988Y-98851335D01*
X109809179Y-98731241D01*
X109830264Y-98598115D01*
X109809179Y-98464989D01*
X109809177Y-98464986D01*
X109809177Y-98464984D01*
X109745755Y-98340512D01*
X109747438Y-98339654D01*
X109737878Y-98299840D01*
X109746475Y-98279083D01*
X109745755Y-98278716D01*
X109809177Y-98154243D01*
X109809177Y-98154242D01*
X109809179Y-98154239D01*
X109830264Y-98021113D01*
X109809179Y-97887987D01*
X109809177Y-97887984D01*
X109809177Y-97887982D01*
X109747988Y-97767893D01*
X109652680Y-97672585D01*
X109648941Y-97670680D01*
X109617875Y-97634305D01*
X109621628Y-97586617D01*
X109648942Y-97559304D01*
X109693101Y-97536804D01*
X109768222Y-97498528D01*
X109863530Y-97403220D01*
X109924721Y-97283126D01*
X109945806Y-97150000D01*
X109924721Y-97016874D01*
X109924719Y-97016871D01*
X109924719Y-97016869D01*
X109863530Y-96896780D01*
X109815095Y-96848345D01*
X109796789Y-96804151D01*
X109815095Y-96759957D01*
X109849509Y-96742421D01*
X109898144Y-96734719D01*
X109966284Y-96700000D01*
X117744353Y-96700000D01*
X117764834Y-96842455D01*
X117824623Y-96973372D01*
X117824623Y-96973374D01*
X117918871Y-97082142D01*
X117918872Y-97082143D01*
X118039947Y-97159953D01*
X118039949Y-97159953D01*
X118039950Y-97159954D01*
X118178036Y-97200499D01*
X118178038Y-97200500D01*
X118178039Y-97200500D01*
X118321962Y-97200500D01*
X118321962Y-97200499D01*
X118460053Y-97159953D01*
X118566210Y-97091729D01*
X118613286Y-97083237D01*
X118633789Y-97091729D01*
X118739947Y-97159953D01*
X118739949Y-97159953D01*
X118739950Y-97159954D01*
X118878036Y-97200499D01*
X118878038Y-97200500D01*
X118878039Y-97200500D01*
X119021962Y-97200500D01*
X119021962Y-97200499D01*
X119160053Y-97159953D01*
X119281128Y-97082143D01*
X119375377Y-96973373D01*
X119435165Y-96842457D01*
X119455647Y-96700000D01*
X119435165Y-96557543D01*
X119375377Y-96426627D01*
X119375376Y-96426625D01*
X119281128Y-96317857D01*
X119257230Y-96302499D01*
X119160053Y-96240047D01*
X119160051Y-96240046D01*
X119160049Y-96240045D01*
X119021963Y-96199500D01*
X119021961Y-96199500D01*
X118878039Y-96199500D01*
X118878037Y-96199500D01*
X118739950Y-96240045D01*
X118739947Y-96240047D01*
X118634864Y-96307580D01*
X118633790Y-96308270D01*
X118586714Y-96316763D01*
X118566210Y-96308270D01*
X118460053Y-96240047D01*
X118460051Y-96240046D01*
X118460049Y-96240045D01*
X118321963Y-96199500D01*
X118321961Y-96199500D01*
X118178039Y-96199500D01*
X118178037Y-96199500D01*
X118039950Y-96240045D01*
X117918871Y-96317857D01*
X117824623Y-96426625D01*
X117824623Y-96426627D01*
X117764834Y-96557544D01*
X117744353Y-96700000D01*
X109966284Y-96700000D01*
X110018238Y-96673528D01*
X110113546Y-96578220D01*
X110174737Y-96458126D01*
X110195822Y-96325000D01*
X110174737Y-96191874D01*
X110174735Y-96191871D01*
X110174735Y-96191869D01*
X110113546Y-96071780D01*
X110018237Y-95976471D01*
X109898148Y-95915282D01*
X109898144Y-95915281D01*
X109765018Y-95894196D01*
X109631891Y-95915281D01*
X109631887Y-95915282D01*
X109511798Y-95976471D01*
X109416489Y-96071780D01*
X109355300Y-96191869D01*
X109355299Y-96191873D01*
X109334214Y-96325000D01*
X109355299Y-96458126D01*
X109355300Y-96458130D01*
X109416489Y-96578219D01*
X109464924Y-96626654D01*
X109483230Y-96670848D01*
X109464924Y-96715042D01*
X109430507Y-96732578D01*
X109381881Y-96740279D01*
X109381871Y-96740282D01*
X109261782Y-96801471D01*
X109166473Y-96896780D01*
X109105284Y-97016869D01*
X109105283Y-97016873D01*
X109084198Y-97150000D01*
X109105283Y-97283126D01*
X109105284Y-97283130D01*
X109150760Y-97372380D01*
X109166474Y-97403220D01*
X109261782Y-97498528D01*
X109265518Y-97500432D01*
X109296585Y-97536804D01*
X109292834Y-97584493D01*
X109265520Y-97611808D01*
X109146239Y-97672585D01*
X109050931Y-97767893D01*
X108989742Y-97887982D01*
X108989741Y-97887986D01*
X108968656Y-98021113D01*
X108989741Y-98154239D01*
X108989742Y-98154243D01*
X109053165Y-98278716D01*
X109051484Y-98279572D01*
X109061039Y-98319404D01*
X109052446Y-98340146D01*
X109053165Y-98340512D01*
X108989742Y-98464984D01*
X108989740Y-98464993D01*
X108985420Y-98492264D01*
X108960425Y-98533050D01*
X108913911Y-98544215D01*
X108873125Y-98519220D01*
X108861960Y-98492263D01*
X108859721Y-98478124D01*
X108859719Y-98478120D01*
X108859719Y-98478119D01*
X108798530Y-98358030D01*
X108703221Y-98262721D01*
X108583132Y-98201532D01*
X108583128Y-98201531D01*
X108450002Y-98180446D01*
X108316875Y-98201531D01*
X108316868Y-98201533D01*
X108291373Y-98214524D01*
X108243685Y-98218277D01*
X108207312Y-98187209D01*
X108200500Y-98158836D01*
X108200500Y-96778809D01*
X108200893Y-96771812D01*
X108205270Y-96732965D01*
X108194419Y-96675619D01*
X108194043Y-96673405D01*
X108185348Y-96615713D01*
X108185192Y-96615389D01*
X108180092Y-96599891D01*
X108180023Y-96599526D01*
X108152773Y-96547967D01*
X108151720Y-96545881D01*
X108126427Y-96493362D01*
X108126426Y-96493361D01*
X108126425Y-96493358D01*
X108126174Y-96493087D01*
X108116735Y-96479783D01*
X108116565Y-96479462D01*
X108075326Y-96438223D01*
X108073731Y-96436567D01*
X108060765Y-96422593D01*
X108034055Y-96393806D01*
X108033730Y-96393618D01*
X108020792Y-96383689D01*
X106987103Y-95350000D01*
X110569196Y-95350000D01*
X110590281Y-95483126D01*
X110590282Y-95483130D01*
X110651471Y-95603219D01*
X110746780Y-95698528D01*
X110866869Y-95759717D01*
X110866871Y-95759717D01*
X110866874Y-95759719D01*
X111000000Y-95780804D01*
X111133126Y-95759719D01*
X111253220Y-95698528D01*
X111255806Y-95695942D01*
X111300000Y-95677636D01*
X111344194Y-95695942D01*
X111409280Y-95761028D01*
X111529369Y-95822217D01*
X111529371Y-95822217D01*
X111529374Y-95822219D01*
X111662500Y-95843304D01*
X111795626Y-95822219D01*
X111915720Y-95761028D01*
X112011028Y-95665720D01*
X112072219Y-95545626D01*
X112093304Y-95412500D01*
X112072219Y-95279374D01*
X112072217Y-95279371D01*
X112072217Y-95279369D01*
X112011028Y-95159280D01*
X111915719Y-95063971D01*
X111839231Y-95024998D01*
X116894194Y-95024998D01*
X116915279Y-95158124D01*
X116915280Y-95158128D01*
X116976469Y-95278217D01*
X117071778Y-95373526D01*
X117191867Y-95434715D01*
X117191869Y-95434715D01*
X117191872Y-95434717D01*
X117324998Y-95455802D01*
X117458124Y-95434717D01*
X117578218Y-95373526D01*
X117673526Y-95278218D01*
X117673527Y-95278215D01*
X117674103Y-95277640D01*
X117718297Y-95259334D01*
X117762491Y-95277640D01*
X117780797Y-95321834D01*
X117780028Y-95331607D01*
X117769196Y-95400000D01*
X117785034Y-95500000D01*
X117790281Y-95533126D01*
X117790282Y-95533130D01*
X117851471Y-95653219D01*
X117946780Y-95748528D01*
X118066869Y-95809717D01*
X118066871Y-95809717D01*
X118066874Y-95809719D01*
X118200000Y-95830804D01*
X118333126Y-95809719D01*
X118453220Y-95748528D01*
X118548528Y-95653220D01*
X118609719Y-95533126D01*
X118619488Y-95471440D01*
X118644482Y-95430656D01*
X118671439Y-95419488D01*
X118733126Y-95409719D01*
X118853220Y-95348528D01*
X118948528Y-95253220D01*
X119009719Y-95133126D01*
X119030804Y-95000000D01*
X119009719Y-94866874D01*
X119009717Y-94866871D01*
X119009717Y-94866869D01*
X118948529Y-94746782D01*
X118948528Y-94746780D01*
X118895941Y-94694193D01*
X118877636Y-94649998D01*
X118895940Y-94605806D01*
X118943527Y-94558221D01*
X119004718Y-94438127D01*
X119025803Y-94305001D01*
X119004718Y-94171875D01*
X119004716Y-94171872D01*
X119004716Y-94171870D01*
X118943527Y-94051781D01*
X118890941Y-93999195D01*
X118872635Y-93955001D01*
X118890941Y-93910807D01*
X118895943Y-93905805D01*
X118948528Y-93853220D01*
X119009719Y-93733126D01*
X119030804Y-93600000D01*
X119009719Y-93466874D01*
X119009717Y-93466871D01*
X119009717Y-93466869D01*
X118948528Y-93346780D01*
X118853219Y-93251471D01*
X118733130Y-93190282D01*
X118733126Y-93190281D01*
X118600000Y-93169196D01*
X118466873Y-93190281D01*
X118466869Y-93190282D01*
X118346780Y-93251471D01*
X118251471Y-93346780D01*
X118190282Y-93466869D01*
X118190281Y-93466873D01*
X118169196Y-93600000D01*
X118190281Y-93733126D01*
X118190282Y-93733130D01*
X118251471Y-93853219D01*
X118304057Y-93905805D01*
X118322363Y-93949999D01*
X118304058Y-93994192D01*
X118246470Y-94051781D01*
X118185281Y-94171870D01*
X118185280Y-94171874D01*
X118164195Y-94305001D01*
X118185280Y-94438127D01*
X118185281Y-94438131D01*
X118246470Y-94558220D01*
X118299056Y-94610806D01*
X118317362Y-94655000D01*
X118299057Y-94699193D01*
X118251471Y-94746780D01*
X118190281Y-94866872D01*
X118190280Y-94866876D01*
X118180510Y-94928558D01*
X118155516Y-94969344D01*
X118128558Y-94980510D01*
X118066876Y-94990280D01*
X118066872Y-94990281D01*
X117946780Y-95051471D01*
X117850894Y-95147357D01*
X117806700Y-95165663D01*
X117762506Y-95147357D01*
X117744200Y-95103163D01*
X117744969Y-95093392D01*
X117755802Y-95024998D01*
X117734717Y-94891872D01*
X117734715Y-94891869D01*
X117734715Y-94891867D01*
X117673526Y-94771778D01*
X117578217Y-94676469D01*
X117458128Y-94615280D01*
X117458124Y-94615279D01*
X117324998Y-94594194D01*
X117191871Y-94615279D01*
X117191867Y-94615280D01*
X117071778Y-94676469D01*
X116976469Y-94771778D01*
X116915280Y-94891867D01*
X116915279Y-94891871D01*
X116894194Y-95024998D01*
X111839231Y-95024998D01*
X111795630Y-95002782D01*
X111795626Y-95002781D01*
X111662500Y-94981696D01*
X111529373Y-95002781D01*
X111529369Y-95002782D01*
X111409279Y-95063972D01*
X111406690Y-95066561D01*
X111362494Y-95084863D01*
X111318305Y-95066557D01*
X111253219Y-95001471D01*
X111133130Y-94940282D01*
X111133126Y-94940281D01*
X111000000Y-94919196D01*
X110866873Y-94940281D01*
X110866869Y-94940282D01*
X110746780Y-95001471D01*
X110651471Y-95096780D01*
X110590282Y-95216869D01*
X110590281Y-95216873D01*
X110569196Y-95350000D01*
X106987103Y-95350000D01*
X106018306Y-94381203D01*
X106000000Y-94337009D01*
X106000000Y-90925888D01*
X106018306Y-90881694D01*
X106281694Y-90618306D01*
X106325888Y-90600000D01*
X111399999Y-90600000D01*
X111400000Y-90600000D01*
X111500506Y-90499493D01*
X111524045Y-90484703D01*
X111549522Y-90475789D01*
X111549524Y-90475787D01*
X111549526Y-90475787D01*
X111549526Y-90475786D01*
X111702262Y-90379816D01*
X111829816Y-90252262D01*
X111925789Y-90099522D01*
X111934701Y-90074051D01*
X111949497Y-90050502D01*
X112000000Y-90000000D01*
X112000000Y-89802900D01*
X112000393Y-89795904D01*
X112000500Y-89794954D01*
X112000500Y-89225388D01*
X112018806Y-89181194D01*
X112381694Y-88818306D01*
X112425888Y-88800000D01*
X113974112Y-88800000D01*
X114018306Y-88818306D01*
G37*
G04 #@! TD.AperFunction*
M02*
