  0
SECTION
  2
HEADER
  9
$ACADVER
  1
AC1014
  9
$HANDSEED
  5
FFFF
  9
$MEASUREMENT
 70
     1
  0
ENDSEC
  0
SECTION
  2
TABLES
  0
TABLE
  2
VPORT
  5
8
330
0
100
AcDbSymbolTable
 70
     4
  0
VPORT
  5
2E
330
8
100
AcDbSymbolTableRecord
100
AcDbViewportTableRecord
  2
*ACTIVE
 70
     0
 10
0.0
 20
0.0
 11
1.0
 21
1.0
 12
210.0
 22
148.5
 13
0.0
 23
0.0
 14
10.0
 24
10.0
 15
10.0
 25
10.0
 16
0.0
 26
0.0
 36
1.0
 17
0.0
 27
0.0
 37
0.0
 40
341.0
 41
1.24
 42
50.0
 43
0.0
 44
0.0
 50
0.0
 51
0.0
 71
     0
 72
   100
 73
     1
 74
     3
 75
     0
 76
     0
 77
     0
 78
     0
  0
ENDTAB
  0
TABLE
  2
LTYPE
  5
5
330
0
100
AcDbSymbolTable
 70
     1
  0
LTYPE
  5
14
330
5
100
AcDbSymbolTableRecord
100
AcDbLinetypeTableRecord
  2
BYBLOCK
 70
     0
  3

 72
    65
 73
     0
 40
0.0
  0
LTYPE
  5
15
330
5
100
AcDbSymbolTableRecord
100
AcDbLinetypeTableRecord
  2
BYLAYER
 70
     0
  3

 72
    65
 73
     0
 40
0.0
  0
LTYPE
  5
16
330
5
100
AcDbSymbolTableRecord
100
AcDbLinetypeTableRecord
  2
CONTINUOUS
 70
     0
  3
Solid line
 72
    65
 73
     0
 40
0.0
  0
ENDTAB
  0
TABLE
  2
LAYER
  5
2
100
AcDbSymbolTable
 70
1
  0
LAYER
  5
50
100
AcDbSymbolTableRecord
100
AcDbLayerTableRecord
  2
0
 70
0
  6
CONTINUOUS
  0
ENDTAB
  0
TABLE
  2
STYLE
  5
3
330
0
100
AcDbSymbolTable
 70
     1
  0
STYLE
  5
11
330
3
100
AcDbSymbolTableRecord
100
AcDbTextStyleTableRecord
  2
STANDARD
 70
     0
 40
0.0
 41
1.0
 50
0.0
 71
     0
 42
2.5
  3
txt
  4

  0
ENDTAB
  0
TABLE
  2
VIEW
  5
6
330
0
100
AcDbSymbolTable
 70
     0
  0
ENDTAB
  0
TABLE
  2
UCS
  5
7
330
0
100
AcDbSymbolTable
 70
     0
  0
ENDTAB
  0
TABLE
  2
APPID
  5
9
330
0
100
AcDbSymbolTable
 70
     2
  0
APPID
  5
12
330
9
100
AcDbSymbolTableRecord
100
AcDbRegAppTableRecord
  2
ACAD
 70
     0
  0
ENDTAB
  0
TABLE
  2
DIMSTYLE
  5
A
330
0
100
AcDbSymbolTable
 70
     1
  0
DIMSTYLE
105
27
330
A
100
AcDbSymbolTableRecord
100
AcDbDimStyleTableRecord
  2
ISO-25
 70
     0
  3

  4

  5

  6

  7

 40
1.0
 41
2.5
 42
0.625
 43
3.75
 44
1.25
 45
0.0
 46
0.0
 47
0.0
 48
0.0
140
2.5
141
2.5
142
0.0
143
0.03937007874016
144
1.0
145
0.0
146
1.0
147
0.625
 71
     0
 72
     0
 73
     0
 74
     0
 75
     0
 76
     0
 77
     1
 78
     8
170
     0
171
     3
172
     1
173
     0
174
     0
175
     0
176
     0
177
     0
178
     0
270
     2
271
     2
272
     2
273
     2
274
     3
340
11
275
     0
280
     0
281
     0
282
     0
283
     0
284
     8
285
     0
286
     0
287
     3
288
     0
  0
ENDTAB
  0
TABLE
  2
BLOCK_RECORD
  5
1
330
0
100
AcDbSymbolTable
 70
     1
  0
BLOCK_RECORD
  5
1F
330
1
100
AcDbSymbolTableRecord
100
AcDbBlockTableRecord
  2
*MODEL_SPACE
  0
BLOCK_RECORD
  5
1B
330
1
100
AcDbSymbolTableRecord
100
AcDbBlockTableRecord
  2
*PAPER_SPACE
  0
ENDTAB
  0
ENDSEC
  0
SECTION
  2
BLOCKS
  0
BLOCK
  5
20
330
1F
100
AcDbEntity
  8
0
100
AcDbBlockBegin
  2
*MODEL_SPACE
 70
     0
 10
0.0
 20
0.0
 30
0.0
  3
*MODEL_SPACE
  1

  0
ENDBLK
  5
21
330
1F
100
AcDbEntity
  8
0
100
AcDbBlockEnd
  0
BLOCK
  5
1C
330
1B
100
AcDbEntity
 67
     1
  8
0
100
AcDbBlockBegin
  2
*PAPER_SPACE
  1

  0
ENDBLK
  5
1D
330
1B
100
AcDbEntity
 67
     1
  8
0
100
AcDbBlockEnd
  0
ENDSEC
  0
SECTION
  2
ENTITIES
  0
SPLINE
  5
100
100
AcDbEntity
  8
0
 62
1
100
AcDbSpline
 70
0
 71
3
 72
10
 73
6
 74
4
 40
0.000000
 40
0.000000
 40
0.000000
 40
0.000000
 40
0.857122
 40
1.405205
 40
1.618043
 40
1.618043
 40
1.618043
 40
1.618043
 10
7.673281
 20
4.955977
 30
0.0
 10
7.384161
 20
4.962849
 30
0.0
 10
6.910163
 20
4.974116
 30
0.0
 10
6.402697
 20
4.735784
 30
0.0
 10
6.220515
 20
4.558867
 30
0.0
 10
6.169557
 20
4.509381
 30
0.0
 11
7.673281
 21
4.955977
 31
0.0
 11
6.818303
 21
4.895393
 31
0.0
 11
6.326849
 21
4.652766
 31
0.0
 11
6.169557
 21
4.509381
 31
0.0
  0
SPLINE
  5
101
100
AcDbEntity
  8
0
 62
1
100
AcDbSpline
 70
0
 71
3
 72
10
 73
6
 74
4
 40
0.000000
 40
0.000000
 40
0.000000
 40
0.000000
 40
0.745882
 40
1.266721
 40
1.474929
 40
1.474929
 40
1.474929
 40
1.474929
 10
7.673281
 20
4.179059
 30
0.0
 10
7.435915
 20
4.261432
 30
0.0
 10
7.032799
 20
4.401324
 30
0.0
 10
6.529321
 20
4.359811
 30
0.0
 10
6.298813
 20
4.282934
 30
0.0
 10
6.232983
 20
4.260979
 30
0.0
 11
7.673281
 21
4.179059
 31
0.0
 11
6.951027
 21
4.365312
 31
0.0
 11
6.431972
 21
4.322248
 31
0.0
 11
6.232983
 21
4.260979
 31
0.0
  0
SPLINE
  5
102
100
AcDbEntity
  8
0
 62
1
100
AcDbSpline
 70
0
 71
3
 72
10
 73
6
 74
4
 40
0.000000
 40
0.000000
 40
0.000000
 40
0.000000
 40
0.629422
 40
1.100818
 40
1.305399
 40
1.305399
 40
1.305399
 40
1.305399
 10
7.329724
 20
3.295118
 30
0.0
 10
7.195867
 20
3.463345
 30
0.0
 10
6.961761
 20
3.757564
 30
0.0
 10
6.524449
 20
3.888311
 30
0.0
 10
6.299685
 20
3.895461
 30
0.0
 10
6.231661
 20
3.897625
 30
0.0
 11
7.329724
 21
3.295118
 31
0.0
 11
6.884127
 21
3.739658
 31
0.0
 11
6.435887
 21
3.885587
 31
0.0
 11
6.231661
 21
3.897625
 31
0.0
  0
SPLINE
  5
103
100
AcDbEntity
  8
0
 62
1
100
AcDbSpline
 70
0
 71
3
 72
10
 73
6
 74
4
 40
0.000000
 40
0.000000
 40
0.000000
 40
0.000000
 40
0.857122
 40
1.405205
 40
1.618043
 40
1.618043
 40
1.618043
 40
1.618043
 10
-0.416176
 20
4.955977
 30
0.0
 10
-0.127055
 20
4.962849
 30
0.0
 10
0.346942
 20
4.974116
 30
0.0
 10
0.854409
 20
4.735784
 30
0.0
 10
1.036591
 20
4.558867
 30
0.0
 10
1.087549
 20
4.509381
 30
0.0
 11
-0.416176
 21
4.955977
 31
0.0
 11
0.438803
 21
4.895393
 31
0.0
 11
0.930256
 21
4.652766
 31
0.0
 11
1.087549
 21
4.509381
 31
0.0
  0
SPLINE
  5
104
100
AcDbEntity
  8
0
 62
1
100
AcDbSpline
 70
0
 71
3
 72
10
 73
6
 74
4
 40
0.000000
 40
0.000000
 40
0.000000
 40
0.000000
 40
0.745882
 40
1.266721
 40
1.474929
 40
1.474929
 40
1.474929
 40
1.474929
 10
-0.416176
 20
4.179059
 30
0.0
 10
-0.178810
 20
4.261432
 30
0.0
 10
0.224306
 20
4.401324
 30
0.0
 10
0.727784
 20
4.359811
 30
0.0
 10
0.958292
 20
4.282934
 30
0.0
 10
1.024123
 20
4.260979
 30
0.0
 11
-0.416176
 21
4.179059
 31
0.0
 11
0.306078
 21
4.365312
 31
0.0
 11
0.825134
 21
4.322248
 31
0.0
 11
1.024123
 21
4.260979
 31
0.0
  0
SPLINE
  5
105
100
AcDbEntity
  8
0
 62
1
100
AcDbSpline
 70
0
 71
3
 72
10
 73
6
 74
4
 40
0.000000
 40
0.000000
 40
0.000000
 40
0.000000
 40
0.629422
 40
1.100818
 40
1.305399
 40
1.305399
 40
1.305399
 40
1.305399
 10
-0.072618
 20
3.295118
 30
0.0
 10
0.061238
 20
3.463345
 30
0.0
 10
0.295344
 20
3.757564
 30
0.0
 10
0.732656
 20
3.888311
 30
0.0
 10
0.957420
 20
3.895461
 30
0.0
 10
1.025444
 20
3.897625
 30
0.0
 11
-0.072618
 21
3.295118
 31
0.0
 11
0.372979
 21
3.739658
 31
0.0
 11
0.821218
 21
3.885587
 31
0.0
 11
1.025444
 21
3.897625
 31
0.0
  0
SPLINE
  5
106
100
AcDbEntity
  8
0
 62
1
100
AcDbSpline
 70
0
 71
3
 72
28
 73
24
 74
22
 40
0.000000
 40
0.000000
 40
0.000000
 40
0.000000
 40
0.409883
 40
1.306089
 40
2.450741
 40
3.561834
 40
4.665220
 40
5.478939
 40
5.883586
 40
6.773894
 40
7.680644
 40
8.011915
 40
8.357852
 40
9.013562
 40
10.019657
 40
11.175115
 40
12.246704
 40
12.617232
 40
13.015977
 40
13.381354
 40
13.783975
 40
14.278341
 40
14.687109
 40
14.687109
 40
14.687109
 40
14.687109
 10
-1.034579
 20
-5.716068
 30
0.0
 10
-0.944040
 20
-5.613379
 30
0.0
 10
-0.655538
 20
-5.286160
 30
0.0
 10
-0.307226
 20
-4.527886
 30
0.0
 10
-0.401991
 20
-3.361863
 30
0.0
 10
-1.519121
 20
-2.693411
 30
0.0
 10
-2.353625
 20
-2.748490
 30
0.0
 10
-3.546231
 20
-3.511310
 30
0.0
 10
-3.010233
 20
-2.691354
 30
0.0
 10
-2.835320
 20
-2.094078
 30
0.0
 10
-2.512809
 20
-1.412050
 30
0.0
 10
-2.651882
 20
-0.832023
 30
0.0
 10
-3.191401
 20
-0.756022
 30
0.0
 10
-3.584737
 20
-1.404396
 30
0.0
 10
-4.079417
 20
-2.154084
 30
0.0
 10
-4.611615
 20
-3.103273
 30
0.0
 10
-5.174359
 20
-3.785780
 30
0.0
 10
-5.234462
 20
-4.442059
 30
0.0
 10
-4.958966
 20
-4.739364
 30
0.0
 10
-4.631363
 20
-4.957517
 30
0.0
 10
-4.200956
 20
-4.995597
 30
0.0
 10
-3.768986
 20
-5.004259
 30
0.0
 10
-3.467558
 20
-4.999460
 30
0.0
 10
-3.331128
 20
-4.997287
 30
0.0
 11
-1.034579
 21
-5.716068
 31
0.0
 11
-0.773093
 21
-5.400427
 31
0.0
 11
-0.410303
 21
-4.580935
 31
0.0
 11
-0.578704
 21
-3.448738
 31
0.0
 11
-1.489915
 21
-2.812953
 31
0.0
 11
-2.584649
 21
-2.950857
 31
0.0
 11
-3.339057
 21
-3.255829
 31
0.0
 11
-3.155777
 21
-2.895069
 31
0.0
 11
-2.804830
 21
-2.076849
 31
0.0
 11
-2.584551
 21
-1.197262
 31
0.0
 11
-2.701958
 21
-0.887494
 31
0.0
 11
-3.041062
 21
-0.819080
 31
0.0
 11
-3.510835
 21
-1.276540
 31
0.0
 11
-4.048048
 21
-2.127205
 31
0.0
 11
-4.656615
 21
-3.109411
 31
0.0
 11
-5.179732
 21
-4.044639
 31
0.0
 11
-5.184382
 21
-4.415138
 31
0.0
 11
-4.942961
 21
-4.732491
 31
0.0
 11
-4.631362
 21
-4.923295
 31
0.0
 11
-4.234068
 21
-4.988577
 31
0.0
 11
-3.739874
 21
-5.001594
 31
0.0
 11
-3.331128
 21
-4.997287
 31
0.0
  0
SPLINE
  5
107
100
AcDbEntity
  8
0
 62
1
100
AcDbSpline
 70
0
 71
3
 72
28
 73
24
 74
22
 40
0.000000
 40
0.000000
 40
0.000000
 40
0.000000
 40
0.642109
 40
1.284322
 40
1.926525
 40
2.461902
 40
3.115696
 40
3.547907
 40
3.649590
 40
3.752137
 40
3.855323
 40
4.168760
 40
4.481991
 40
4.795126
 40
4.935954
 40
5.077249
 40
5.217976
 40
6.032687
 40
6.879364
 40
7.690239
 40
8.022380
 40
8.368384
 40
9.024060
 40
9.024060
 40
9.024060
 40
9.024060
 10
-3.510835
 20
-1.276540
 30
0.0
 10
-3.624513
 20
-1.457952
 30
0.0
 10
-3.851886
 20
-1.820807
 30
0.0
 10
-4.196063
 20
-2.362080
 30
0.0
 10
-4.520763
 20
-2.877625
 30
0.0
 10
-4.821789
 20
-3.398761
 30
0.0
 10
-5.165224
 20
-3.862059
 30
0.0
 10
-4.942664
 20
-4.345130
 30
0.0
 10
-4.723136
 20
-4.348827
 30
0.0
 10
-4.621752
 20
-4.338467
 30
0.0
 10
-4.453041
 20
-4.297254
 30
0.0
 10
-4.225087
 20
-4.208350
 30
0.0
 10
-3.958500
 20
-4.040224
 30
0.0
 10
-3.771150
 20
-3.863562
 30
0.0
 10
-3.647057
 20
-3.708556
 30
0.0
 10
-3.565545
 20
-3.593507
 30
0.0
 10
-3.361215
 20
-3.290455
 30
0.0
 10
-3.048688
 20
-2.774478
 30
0.0
 10
-2.747409
 20
-2.005515
 30
0.0
 10
-2.525300
 20
-1.379947
 30
0.0
 10
-2.650783
 20
-0.831944
 30
0.0
 10
-3.192362
 20
-0.757905
 30
0.0
 10
-3.384842
 20
-1.071360
 30
0.0
 10
-3.510835
 20
-1.276540
 30
0.0
 11
-3.510835
 21
-1.276540
 31
0.0
 11
-3.852386
 21
-1.820274
 31
0.0
 11
-4.195993
 21
-2.362834
 31
0.0
 11
-4.534901
 21
-2.908331
 31
0.0
 11
-4.813760
 21
-3.365350
 31
0.0
 11
-5.055034
 21
-3.972995
 31
0.0
 11
-4.825604
 21
-4.339286
 31
0.0
 11
-4.724201
 21
-4.346822
 31
0.0
 11
-4.622210
 21
-4.336154
 31
0.0
 11
-4.521688
 21
-4.312860
 31
0.0
 11
-4.229517
 21
-4.199376
 31
0.0
 11
-3.964654
 21
-4.032160
 31
0.0
 11
-3.736790
 21
-3.817377
 31
0.0
 11
-3.648258
 21
-3.707857
 31
0.0
 11
-3.565893
 21
-3.593052
 31
0.0
 11
-3.487051
 21
-3.476485
 31
0.0
 11
-3.074830
 21
-2.773755
 31
0.0
 11
-2.747472
 21
-1.992923
 31
0.0
 11
-2.584551
 21
-1.198584
 31
0.0
 11
-2.701958
 21
-0.887885
 31
0.0
 11
-3.041062
 21
-0.819129
 31
0.0
 11
-3.510835
 21
-1.276540
 31
0.0
  0
SPLINE
  5
108
100
AcDbEntity
  8
0
 62
1
100
AcDbSpline
 70
0
 71
3
 72
28
 73
24
 74
22
 40
0.000000
 40
0.000000
 40
0.000000
 40
0.000000
 40
0.409883
 40
1.306089
 40
2.450741
 40
3.561834
 40
4.665220
 40
5.478939
 40
5.883586
 40
6.773894
 40
7.680644
 40
8.011915
 40
8.357852
 40
9.013562
 40
10.019657
 40
11.175115
 40
12.246704
 40
12.617232
 40
13.015977
 40
13.381354
 40
13.783975
 40
14.278341
 40
14.687109
 40
14.687109
 40
14.687109
 40
14.687109
 10
-1.034579
 20
-5.716068
 30
0.0
 10
-0.944040
 20
-5.613379
 30
0.0
 10
-0.655538
 20
-5.286160
 30
0.0
 10
-0.307226
 20
-4.527886
 30
0.0
 10
-0.401991
 20
-3.361863
 30
0.0
 10
-1.519121
 20
-2.693411
 30
0.0
 10
-2.353625
 20
-2.748490
 30
0.0
 10
-3.546231
 20
-3.511310
 30
0.0
 10
-3.010233
 20
-2.691354
 30
0.0
 10
-2.835320
 20
-2.094078
 30
0.0
 10
-2.512809
 20
-1.412050
 30
0.0
 10
-2.651882
 20
-0.832023
 30
0.0
 10
-3.191401
 20
-0.756022
 30
0.0
 10
-3.584737
 20
-1.404396
 30
0.0
 10
-4.079417
 20
-2.154084
 30
0.0
 10
-4.611615
 20
-3.103273
 30
0.0
 10
-5.174359
 20
-3.785780
 30
0.0
 10
-5.234462
 20
-4.442059
 30
0.0
 10
-4.958966
 20
-4.739364
 30
0.0
 10
-4.631363
 20
-4.957517
 30
0.0
 10
-4.200956
 20
-4.995597
 30
0.0
 10
-3.768986
 20
-5.004259
 30
0.0
 10
-3.467558
 20
-4.999460
 30
0.0
 10
-3.331128
 20
-4.997287
 30
0.0
 11
-1.034579
 21
-5.716068
 31
0.0
 11
-0.773093
 21
-5.400427
 31
0.0
 11
-0.410303
 21
-4.580935
 31
0.0
 11
-0.578704
 21
-3.448738
 31
0.0
 11
-1.489915
 21
-2.812953
 31
0.0
 11
-2.584649
 21
-2.950857
 31
0.0
 11
-3.339057
 21
-3.255829
 31
0.0
 11
-3.155777
 21
-2.895069
 31
0.0
 11
-2.804830
 21
-2.076849
 31
0.0
 11
-2.584551
 21
-1.197262
 31
0.0
 11
-2.701958
 21
-0.887494
 31
0.0
 11
-3.041062
 21
-0.819080
 31
0.0
 11
-3.510835
 21
-1.276540
 31
0.0
 11
-4.048048
 21
-2.127205
 31
0.0
 11
-4.656615
 21
-3.109411
 31
0.0
 11
-5.179732
 21
-4.044639
 31
0.0
 11
-5.184382
 21
-4.415138
 31
0.0
 11
-4.942961
 21
-4.732491
 31
0.0
 11
-4.631362
 21
-4.923295
 31
0.0
 11
-4.234068
 21
-4.988577
 31
0.0
 11
-3.739874
 21
-5.001594
 31
0.0
 11
-3.331128
 21
-4.997287
 31
0.0
  0
SPLINE
  5
109
100
AcDbEntity
  8
0
 62
1
100
AcDbSpline
 70
0
 71
3
 72
28
 73
24
 74
22
 40
0.000000
 40
0.000000
 40
0.000000
 40
0.000000
 40
0.079453
 40
0.159120
 40
0.238810
 40
0.318522
 40
0.398505
 40
0.479325
 40
0.494839
 40
0.510063
 40
0.525605
 40
0.854244
 40
1.173203
 40
1.501867
 40
1.583780
 40
1.663812
 40
1.742510
 40
1.820304
 40
1.897532
 40
1.974461
 40
2.051316
 40
2.128315
 40
2.205694
 40
2.205694
 40
2.205694
 40
2.205694
 10
1.650816
 20
5.920384
 30
0.0
 10
1.631199
 20
5.938218
 30
0.0
 10
1.591912
 20
5.973935
 30
0.0
 10
1.525776
 20
6.018707
 30
0.0
 10
1.455111
 20
6.055893
 30
0.0
 10
1.380090
 20
6.083760
 30
0.0
 10
1.301631
 20
6.101506
 30
0.0
 10
1.242772
 20
6.105678
 30
0.0
 10
1.205592
 20
6.105479
 30
0.0
 10
1.190162
 20
6.105222
 30
0.0
 10
1.070621
 20
6.097617
 30
0.0
 10
0.850266
 20
6.021408
 30
0.0
 10
0.628481
 20
5.764570
 30
0.0
 10
0.580298
 20
5.512995
 30
0.0
 10
0.602634
 20
5.350779
 30
0.0
 10
0.623598
 20
5.273097
 30
0.0
 10
0.653754
 20
5.200031
 30
0.0
 10
0.692336
 20
5.132114
 30
0.0
 10
0.738648
 20
5.069966
 30
0.0
 10
0.791957
 20
5.014113
 30
0.0
 10
0.851653
 20
4.965361
 30
0.0
 10
0.916722
 20
4.923501
 30
0.0
 10
0.963853
 20
4.902681
 30
0.0
 10
0.987476
 20
4.892245
 30
0.0
 11
1.650816
 21
5.920384
 31
0.0
 11
1.590773
 21
5.972420
 31
0.0
 11
1.525040
 21
6.017431
 31
0.0
 11
1.454408
 21
6.054330
 31
0.0
 11
1.379665
 21
6.082032
 31
0.0
 11
1.301601
 21
6.099450
 31
0.0
 11
1.221008
 21
6.105498
 31
0.0
 11
1.205494
 21
6.105449
 31
0.0
 11
1.190274
 21
6.105106
 31
0.0
 11
1.174760
 21
6.104176
 31
0.0
 11
0.864580
 21
5.995586
 31
0.0
 11
0.655998
 21
5.754280
 31
0.0
 11
0.593355
 21
5.431641
 31
0.0
 11
0.604442
 21
5.350482
 31
0.0
 11
0.625344
 21
5.273227
 31
0.0
 11
0.655357
 21
5.200477
 31
0.0
 11
0.693780
 21
5.132834
 31
0.0
 11
0.739911
 21
5.070898
 31
0.0
 11
0.793048
 21
5.015270
 31
0.0
 11
0.852489
 21
4.966551
 31
0.0
 11
0.917532
 21
4.925343
 31
0.0
 11
0.987476
 21
4.892245
 31
0.0
  0
SPLINE
  5
10a
100
AcDbEntity
  8
0
 62
1
100
AcDbSpline
 70
0
 71
3
 72
25
 73
21
 74
19
 40
0.000000
 40
0.000000
 40
0.000000
 40
0.000000
 40
0.081214
 40
0.161893
 40
0.242324
 40
0.322758
 40
0.403442
 40
0.484663
 40
0.566786
 40
0.650281
 40
0.735757
 40
1.050988
 40
1.356140
 40
1.668128
 40
1.683642
 40
1.698866
 40
1.714408
 40
1.799885
 40
1.883375
 40
1.965489
 40
1.965489
 40
1.965489
 40
1.965489
 10
6.205172
 20
4.915946
 30
0.0
 10
6.228827
 20
4.929189
 30
0.0
 10
6.275980
 20
4.955587
 30
0.0
 10
6.339355
 20
5.006212
 30
0.0
 10
6.395994
 20
5.063672
 30
0.0
 10
6.444783
 20
5.128019
 30
0.0
 10
6.485150
 20
5.198237
 30
0.0
 10
6.516364
 20
5.273603
 30
0.0
 10
6.537739
 20
5.353298
 30
0.0
 10
6.548510
 20
5.436581
 30
0.0
 10
6.547800
 20
5.598233
 30
0.0
 10
6.469809
 20
5.832319
 30
0.0
 10
6.233078
 20
6.052077
 30
0.0
 10
6.018601
 20
6.106097
 30
0.0
 10
5.904401
 20
6.105478
 30
0.0
 10
5.888972
 20
6.105224
 30
0.0
 10
5.850296
 20
6.102745
 30
0.0
 10
5.789237
 20
6.094189
 30
0.0
 10
5.708144
 20
6.072000
 30
0.0
 10
5.658003
 20
6.048724
 30
0.0
 10
5.633141
 20
6.037183
 30
0.0
 11
6.205172
 21
4.915946
 31
0.0
 11
6.274925
 21
4.957543
 31
0.0
 11
6.338327
 21
5.007434
 31
0.0
 11
6.394686
 21
5.064818
 31
0.0
 11
6.443311
 21
5.128891
 31
0.0
 11
6.483506
 21
5.198849
 31
0.0
 11
6.514580
 21
5.273891
 31
0.0
 11
6.535841
 21
5.353214
 31
0.0
 11
6.546595
 21
5.436014
 31
0.0
 11
6.546149
 21
5.521488
 31
0.0
 11
6.445724
 21
5.820295
 31
0.0
 11
6.221972
 21
6.027786
 31
0.0
 11
5.919817
 21
6.105498
 31
0.0
 11
5.904303
 21
6.105449
 31
0.0
 11
5.889083
 21
6.105106
 31
0.0
 11
5.873569
 21
6.104176
 31
0.0
 11
5.788924
 21
6.092281
 31
0.0
 11
5.708550
 21
6.069682
 31
0.0
 11
5.633141
 21
6.037183
 31
0.0
  0
SPLINE
  5
10b
100
AcDbEntity
  8
0
 62
1
100
AcDbSpline
 70
0
 71
3
 72
10
 73
6
 74
4
 40
0.000000
 40
0.000000
 40
0.000000
 40
0.000000
 40
1.485728
 40
2.931978
 40
4.402945
 40
4.402945
 40
4.402945
 40
4.402945
 10
6.415333
 20
3.949155
 30
0.0
 10
6.354083
 20
4.448314
 30
0.0
 10
6.233212
 20
5.433369
 30
0.0
 10
5.166613
 20
6.620032
 30
0.0
 10
4.193320
 20
6.808516
 30
0.0
 10
3.702550
 20
6.903556
 30
0.0
 11
6.415333
 21
3.949155
 31
0.0
 11
6.080242
 21
5.396602
 31
0.0
 11
5.107074
 21
6.466454
 31
0.0
 11
3.702550
 21
6.903556
 31
0.0
  0
SPLINE
  5
10c
100
AcDbEntity
  8
0
 62
1
100
AcDbSpline
 70
0
 71
3
 72
16
 73
12
 74
10
 40
0.000000
 40
0.000000
 40
0.000000
 40
0.000000
 40
1.480116
 40
2.912311
 40
4.387493
 40
4.724337
 40
5.184151
 40
5.632821
 40
7.215627
 40
9.126419
 40
10.856200
 40
10.856200
 40
10.856200
 40
10.856200
 10
3.702550
 20
6.903556
 30
0.0
 10
3.201271
 20
6.836234
 30
0.0
 10
2.214941
 20
6.703769
 30
0.0
 10
1.124440
 20
5.591152
 30
0.0
 10
0.812947
 20
4.499252
 30
0.0
 10
0.876102
 20
3.743701
 30
0.0
 10
0.922451
 20
3.331108
 30
0.0
 10
1.079624
 20
2.514613
 30
0.0
 10
1.073225
 20
1.190913
 30
0.0
 10
0.779498
 20
-0.548278
 30
0.0
 10
0.216179
 20
-1.630445
 30
0.0
 10
-0.051476
 20
-2.144626
 30
0.0
 11
3.702550
 21
6.903556
 31
0.0
 11
2.266509
 21
6.545046
 31
0.0
 11
1.242737
 21
5.543510
 31
0.0
 11
0.852345
 21
4.120923
 31
0.0
 11
0.874025
 21
3.784777
 31
0.0
 11
0.928886
 21
3.328248
 31
0.0
 11
1.001660
 21
2.885518
 31
0.0
 11
1.034596
 21
1.303055
 31
0.0
 11
0.670533
 21
-0.572733
 31
0.0
 11
-0.051476
 21
-2.144626
 31
0.0
  0
SPLINE
  5
10d
100
AcDbEntity
  8
0
 62
1
100
AcDbSpline
 70
0
 71
3
 72
25
 73
21
 74
19
 40
0.000000
 40
0.000000
 40
0.000000
 40
0.000000
 40
2.659186
 40
4.840898
 40
7.460849
 40
8.924817
 40
10.512454
 40
11.824580
 40
11.974200
 40
12.116965
 40
12.267634
 40
13.531748
 40
15.322116
 40
17.858025
 40
20.510199
 40
23.690361
 40
27.564971
 40
31.446306
 40
35.820961
 40
42.527391
 40
42.527391
 40
42.527391
 40
42.527391
 10
-0.051476
 20
-2.144626
 30
0.0
 10
-0.654916
 20
-2.834529
 30
0.0
 10
-1.753446
 20
-4.090459
 30
0.0
 10
-4.535165
 20
-4.267301
 30
0.0
 10
-6.134518
 20
-2.471557
 30
0.0
 10
-6.365517
 20
-0.571040
 30
0.0
 10
-6.014297
 20
0.910452
 30
0.0
 10
-5.401322
 20
1.686549
 30
0.0
 10
-5.125864
 20
2.185810
 30
0.0
 10
-5.217385
 20
2.339437
 30
0.0
 10
-5.770670
 20
2.363719
 30
0.0
 10
-6.675755
 20
1.636353
 30
0.0
 10
-7.770593
 20
0.132253
 30
0.0
 10
-8.170529
 20
-2.276311
 30
0.0
 10
-7.424810
 20
-5.037052
 30
0.0
 10
-5.128509
 20
-7.561134
 30
0.0
 10
-1.412768
 20
-8.436995
 30
0.0
 10
2.749717
 20
-7.604270
 30
0.0
 10
6.136392
 20
-3.393166
 30
0.0
 10
6.250895
 20
0.384919
 30
0.0
 10
6.320194
 20
2.671470
 30
0.0
 11
-0.051476
 21
-2.144626
 31
0.0
 11
-2.074941
 21
-3.869984
 31
0.0
 11
-4.255210
 21
-3.949310
 31
0.0
 11
-6.069018
 21
-2.058742
 31
0.0
 11
-6.275348
 21
-0.609387
 31
0.0
 11
-5.887353
 21
0.930110
 31
0.0
 11
-5.202196
 21
2.049143
 31
0.0
 11
-5.153647
 21
2.190667
 31
0.0
 11
-5.226078
 21
2.313694
 31
0.0
 11
-5.373974
 21
2.342469
 31
0.0
 11
-6.481874
 21
1.733746
 31
0.0
 11
-7.521943
 21
0.276463
 31
0.0
 11
-7.982368
 21
-2.217297
 31
0.0
 11
-7.294030
 21
-4.778590
 31
0.0
 11
-5.144838
 21
-7.122604
 31
0.0
 11
-1.408528
 21
-8.148560
 31
0.0
 11
2.367325
 21
-7.249839
 31
0.0
 11
5.235541
 21
-3.946667
 31
0.0
 11
6.320194
 21
2.671470
 31
0.0
  0
LWPOLYLINE
  5
10e
100
AcDbEntity
  8
0
 62
1
100
AcDbPolyline
 90
1
 70
1
 10
-3.510835
 20
-1.276540
 30
0.0
  0
SPLINE
  5
10f
100
AcDbEntity
  8
0
 62
1
100
AcDbSpline
 70
0
 71
3
 72
10
 73
6
 74
4
 40
0.000000
 40
0.000000
 40
0.000000
 40
0.000000
 40
0.434877
 40
0.853453
 40
1.281355
 40
1.281355
 40
1.281355
 40
1.281355
 10
6.320194
 20
2.671470
 30
0.0
 10
6.327762
 20
2.816264
 30
0.0
 10
6.342614
 20
3.100426
 30
0.0
 10
6.391538
 20
3.524949
 30
0.0
 10
6.407343
 20
3.806718
 30
0.0
 10
6.415333
 20
3.949155
 30
0.0
 11
6.320194
 21
2.671470
 31
0.0
 11
6.347502
 21
3.105488
 31
0.0
 11
6.387144
 21
3.522183
 31
0.0
 11
6.415333
 21
3.949155
 31
0.0
  0
SPLINE
  5
110
100
AcDbEntity
  8
0
 62
1
100
AcDbSpline
 70
0
 71
3
 72
10
 73
6
 74
4
 40
0.000000
 40
0.000000
 40
0.000000
 40
0.000000
 40
1.485728
 40
2.931978
 40
4.402945
 40
4.402945
 40
4.402945
 40
4.402945
 10
6.404762
 20
3.929336
 30
0.0
 10
6.343512
 20
4.428495
 30
0.0
 10
6.222641
 20
5.413550
 30
0.0
 10
5.156042
 20
6.600213
 30
0.0
 10
4.182749
 20
6.788696
 30
0.0
 10
3.691979
 20
6.883736
 30
0.0
 11
6.404762
 21
3.929336
 31
0.0
 11
6.069671
 21
5.376783
 31
0.0
 11
5.096503
 21
6.446635
 31
0.0
 11
3.691979
 21
6.883736
 31
0.0
  0
SPLINE
  5
111
100
AcDbEntity
  8
0
 62
1
100
AcDbSpline
 70
0
 71
3
 72
16
 73
12
 74
10
 40
0.000000
 40
0.000000
 40
0.000000
 40
0.000000
 40
1.480116
 40
2.912311
 40
4.387493
 40
4.724337
 40
5.184151
 40
5.632821
 40
7.215627
 40
9.126419
 40
10.856200
 40
10.856200
 40
10.856200
 40
10.856200
 10
3.691979
 20
6.883736
 30
0.0
 10
3.190700
 20
6.816414
 30
0.0
 10
2.204370
 20
6.683950
 30
0.0
 10
1.113869
 20
5.571332
 30
0.0
 10
0.802376
 20
4.479433
 30
0.0
 10
0.865531
 20
3.723882
 30
0.0
 10
0.911880
 20
3.311289
 30
0.0
 10
1.069053
 20
2.494793
 30
0.0
 10
1.062654
 20
1.171094
 30
0.0
 10
0.768927
 20
-0.568098
 30
0.0
 10
0.205608
 20
-1.650265
 30
0.0
 10
-0.062047
 20
-2.164445
 30
0.0
 11
3.691979
 21
6.883736
 31
0.0
 11
2.255938
 21
6.525227
 31
0.0
 11
1.232166
 21
5.523690
 31
0.0
 11
0.841774
 21
4.101103
 31
0.0
 11
0.863454
 21
3.764958
 31
0.0
 11
0.918315
 21
3.308428
 31
0.0
 11
0.991089
 21
2.865699
 31
0.0
 11
1.024025
 21
1.283236
 31
0.0
 11
0.659962
 21
-0.592553
 31
0.0
 11
-0.062047
 21
-2.164445
 31
0.0
  0
SPLINE
  5
112
100
AcDbEntity
  8
0
 62
1
100
AcDbSpline
 70
0
 71
3
 72
25
 73
21
 74
19
 40
0.000000
 40
0.000000
 40
0.000000
 40
0.000000
 40
2.673578
 40
4.898434
 40
7.413845
 40
8.860205
 40
10.405222
 40
11.788507
 40
11.937571
 40
12.080589
 40
12.231315
 40
13.490557
 40
15.270201
 40
17.800560
 40
20.456988
 40
23.640760
 40
27.514092
 40
31.395427
 40
35.770082
 40
42.476512
 40
42.476512
 40
42.476512
 40
42.476512
 10
-0.062047
 20
-2.164445
 30
0.0
 10
-0.682142
 20
-2.843308
 30
0.0
 10
-1.818257
 20
-4.087097
 30
0.0
 10
-4.590621
 20
-4.234694
 30
0.0
 10
-6.145162
 20
-2.460440
 30
0.0
 10
-6.376554
 20
-0.621567
 30
0.0
 10
-6.074446
 20
0.878165
 30
0.0
 10
-5.423935
 20
1.644490
 30
0.0
 10
-5.136505
 20
2.165653
 30
0.0
 10
-5.227885
 20
2.319271
 30
0.0
 10
-5.779307
 20
2.344720
 30
0.0
 10
-6.682547
 20
1.623991
 30
0.0
 10
-7.774302
 20
0.125235
 30
0.0
 10
-8.168659
 20
-2.279821
 30
0.0
 10
-7.427674
 20
-5.040792
 30
0.0
 10
-5.140175
 20
-7.576495
 30
0.0
 10
-1.422688
 20
-8.458012
 30
0.0
 10
2.739082
 20
-7.623702
 30
0.0
 10
6.125848
 20
-3.413151
 30
0.0
 10
6.240334
 20
0.365037
 30
0.0
 10
6.309623
 20
2.651650
 30
0.0
 11
-0.062047
 21
-2.164445
 31
0.0
 11
-2.129558
 21
-3.859560
 31
0.0
 11
-4.353873
 21
-3.908644
 31
0.0
 11
-6.079589
 21
-2.078562
 31
0.0
 11
-6.294728
 21
-0.648292
 31
0.0
 11
-5.947255
 21
0.857145
 31
0.0
 11
-5.212767
 21
2.029323
 31
0.0
 11
-5.164218
 21
2.170261
 31
0.0
 11
-5.236649
 21
2.293581
 31
0.0
 11
-5.384545
 21
2.322649
 31
0.0
 11
-6.489704
 21
1.719065
 31
0.0
 11
-7.524683
 21
0.271325
 31
0.0
 11
-7.982368
 21
-2.217297
 31
0.0
 11
-7.296771
 21
-4.783728
 31
0.0
 11
-5.152668
 21
-7.137285
 31
0.0
 11
-1.419099
 21
-8.168379
 31
0.0
 11
2.356754
 21
-7.269658
 31
0.0
 11
5.224970
 21
-3.966487
 31
0.0
 11
6.309623
 21
2.651650
 31
0.0
  0
LWPOLYLINE
  5
113
100
AcDbEntity
  8
0
 62
1
100
AcDbPolyline
 90
1
 70
1
 10
6.415333
 20
3.949155
 30
0.0
  0
SPLINE
  5
114
100
AcDbEntity
  8
0
 62
1
100
AcDbSpline
 70
0
 71
3
 72
10
 73
6
 74
4
 40
0.000000
 40
0.000000
 40
0.000000
 40
0.000000
 40
0.434877
 40
0.853453
 40
1.281355
 40
1.281355
 40
1.281355
 40
1.281355
 10
6.309623
 20
2.651650
 30
0.0
 10
6.317191
 20
2.796445
 30
0.0
 10
6.332043
 20
3.080607
 30
0.0
 10
6.380967
 20
3.505130
 30
0.0
 10
6.396772
 20
3.786899
 30
0.0
 10
6.404762
 20
3.929336
 30
0.0
 11
6.309623
 21
2.651650
 31
0.0
 11
6.336931
 21
3.085669
 31
0.0
 11
6.376573
 21
3.502364
 31
0.0
 11
6.404762
 21
3.929336
 31
0.0
  0
LWPOLYLINE
  5
115
100
AcDbEntity
  8
0
 62
1
100
AcDbPolyline
 90
1
 70
1
 10
6.404762
 20
3.929336
 30
0.0
  0
SPLINE
  5
116
100
AcDbEntity
  8
0
 62
1
100
AcDbSpline
 70
0
 71
3
 72
25
 73
21
 74
19
 40
0.000000
 40
0.000000
 40
0.000000
 40
0.000000
 40
0.118498
 40
0.235302
 40
0.353805
 40
0.472310
 40
0.589120
 40
0.707625
 40
0.826128
 40
0.942932
 40
1.061430
 40
1.179929
 40
1.296733
 40
1.415235
 40
1.533740
 40
1.650550
 40
1.769055
 40
1.887558
 40
2.004362
 40
2.122860
 40
2.122860
 40
2.122860
 40
2.122860
 10
2.620343
 20
4.785531
 30
0.0
 10
2.616285
 20
4.745830
 30
0.0
 10
2.608228
 20
4.666996
 30
0.0
 10
2.545720
 20
4.562816
 30
0.0
 10
2.454198
 20
4.485361
 30
0.0
 10
2.340865
 20
4.444283
 30
0.0
 10
2.220608
 20
4.444283
 30
0.0
 10
2.107434
 20
4.485361
 30
0.0
 10
2.015278
 20
4.562816
 30
0.0
 10
1.955124
 20
4.666996
 30
0.0
 10
1.934122
 20
4.785531
 30
0.0
 10
1.955124
 20
4.904066
 30
0.0
 10
2.015278
 20
5.008246
 30
0.0
 10
2.107434
 20
5.085700
 30
0.0
 10
2.220608
 20
5.126779
 30
0.0
 10
2.340865
 20
5.126779
 30
0.0
 10
2.454198
 20
5.085700
 30
0.0
 10
2.545720
 20
5.008246
 30
0.0
 10
2.608228
 20
4.904066
 30
0.0
 10
2.616285
 20
4.825232
 30
0.0
 10
2.620343
 20
4.785531
 30
0.0
 11
2.620343
 21
4.785531
 31
0.0
 11
2.599671
 21
4.668850
 31
0.0
 11
2.541266
 21
4.567696
 31
0.0
 11
2.450546
 21
4.491454
 31
0.0
 11
2.339154
 21
4.451015
 31
0.0
 11
2.222345
 21
4.451015
 31
0.0
 11
2.110953
 21
4.491454
 31
0.0
 11
2.020233
 21
4.567696
 31
0.0
 11
1.961829
 21
4.668850
 31
0.0
 11
1.941156
 21
4.785531
 31
0.0
 11
1.961829
 21
4.902212
 31
0.0
 11
2.020233
 21
5.003366
 31
0.0
 11
2.110953
 21
5.079608
 31
0.0
 11
2.222345
 21
5.120047
 31
0.0
 11
2.339154
 21
5.120047
 31
0.0
 11
2.450546
 21
5.079608
 31
0.0
 11
2.541266
 21
5.003366
 31
0.0
 11
2.599671
 21
4.902212
 31
0.0
 11
2.620343
 21
4.785531
 31
0.0
  0
LWPOLYLINE
  5
117
100
AcDbEntity
  8
0
 62
1
100
AcDbPolyline
 90
1
 70
1
 10
2.620343
 20
4.785531
 30
0.0
  0
SPLINE
  5
118
100
AcDbEntity
  8
0
 62
1
100
AcDbSpline
 70
0
 71
3
 72
25
 73
21
 74
19
 40
0.000000
 40
0.000000
 40
0.000000
 40
0.000000
 40
0.118498
 40
0.235302
 40
0.353805
 40
0.472310
 40
0.589120
 40
0.707625
 40
0.826128
 40
0.942932
 40
1.061430
 40
1.179929
 40
1.296733
 40
1.415235
 40
1.533740
 40
1.650550
 40
1.769055
 40
1.887558
 40
2.004362
 40
2.122860
 40
2.122860
 40
2.122860
 40
2.122860
 10
5.313306
 20
4.785531
 30
0.0
 10
5.309249
 20
4.745830
 30
0.0
 10
5.301192
 20
4.666996
 30
0.0
 10
5.238683
 20
4.562816
 30
0.0
 10
5.147161
 20
4.485361
 30
0.0
 10
5.033829
 20
4.444283
 30
0.0
 10
4.913571
 20
4.444283
 30
0.0
 10
4.800397
 20
4.485361
 30
0.0
 10
4.708241
 20
4.562816
 30
0.0
 10
4.648088
 20
4.666996
 30
0.0
 10
4.627085
 20
4.785531
 30
0.0
 10
4.648088
 20
4.904066
 30
0.0
 10
4.708241
 20
5.008246
 30
0.0
 10
4.800397
 20
5.085700
 30
0.0
 10
4.913571
 20
5.126779
 30
0.0
 10
5.033829
 20
5.126779
 30
0.0
 10
5.147161
 20
5.085700
 30
0.0
 10
5.238683
 20
5.008246
 30
0.0
 10
5.301192
 20
4.904066
 30
0.0
 10
5.309249
 20
4.825232
 30
0.0
 10
5.313306
 20
4.785531
 30
0.0
 11
5.313306
 21
4.785531
 31
0.0
 11
5.292634
 21
4.668850
 31
0.0
 11
5.234229
 21
4.567696
 31
0.0
 11
5.143510
 21
4.491454
 31
0.0
 11
5.032118
 21
4.451015
 31
0.0
 11
4.915308
 21
4.451015
 31
0.0
 11
4.803916
 21
4.491454
 31
0.0
 11
4.713197
 21
4.567696
 31
0.0
 11
4.654792
 21
4.668850
 31
0.0
 11
4.634120
 21
4.785531
 31
0.0
 11
4.654792
 21
4.902212
 31
0.0
 11
4.713197
 21
5.003366
 31
0.0
 11
4.803916
 21
5.079608
 31
0.0
 11
4.915308
 21
5.120047
 31
0.0
 11
5.032118
 21
5.120047
 31
0.0
 11
5.143510
 21
5.079608
 31
0.0
 11
5.234229
 21
5.003366
 31
0.0
 11
5.292634
 21
4.902212
 31
0.0
 11
5.313306
 21
4.785531
 31
0.0
  0
SPLINE
  5
119
100
AcDbEntity
  8
0
 62
1
100
AcDbSpline
 70
0
 71
3
 72
19
 73
15
 74
13
 40
0.000000
 40
0.000000
 40
0.000000
 40
0.000000
 40
0.656075
 40
1.245960
 40
1.883259
 40
2.233215
 40
2.571364
 40
2.909717
 40
3.239770
 40
3.613073
 40
3.985333
 40
4.222315
 40
4.465420
 40
4.707957
 40
4.707957
 40
4.707957
 40
4.707957
 10
5.408445
 20
1.800741
 30
0.0
 10
5.465336
 20
2.012270
 30
0.0
 10
5.573379
 20
2.413989
 30
0.0
 10
5.817145
 20
2.992484
 30
0.0
 10
5.938083
 20
3.512011
 30
0.0
 10
5.884340
 20
3.962276
 30
0.0
 10
5.691913
 20
4.255359
 30
0.0
 10
5.422793
 20
4.471663
 30
0.0
 10
5.070512
 20
4.536380
 30
0.0
 10
4.713295
 20
4.494858
 30
0.0
 10
4.391428
 20
4.434447
 30
0.0
 10
4.113217
 20
4.377131
 30
0.0
 10
3.877015
 20
4.328562
 30
0.0
 10
3.715716
 20
4.313450
 30
0.0
 10
3.635160
 20
4.305903
 30
0.0
 11
5.408445
 21
1.800741
 31
0.0
 11
5.593878
 21
2.430065
 31
0.0
 11
5.796048
 21
2.984223
 31
0.0
 11
5.911889
 21
3.610905
 31
0.0
 11
5.857713
 21
3.956643
 31
0.0
 11
5.678446
 21
4.243362
 31
0.0
 11
5.408445
 21
4.447281
 31
0.0
 11
5.086079
 21
4.518092
 31
0.0
 11
4.713794
 21
4.490541
 31
0.0
 11
4.347381
 21
4.424819
 31
0.0
 11
4.115162
 21
4.377546
 31
0.0
 11
3.876189
 21
4.332916
 31
0.0
 11
3.635160
 21
4.305903
 31
0.0
  0
SPLINE
  5
11a
100
AcDbEntity
  8
0
 62
1
100
AcDbSpline
 70
0
 71
3
 72
19
 73
15
 74
13
 40
0.000000
 40
0.000000
 40
0.000000
 40
0.000000
 40
0.242246
 40
0.485062
 40
0.722620
 40
1.094880
 40
1.468183
 40
1.798235
 40
2.135824
 40
2.473817
 40
2.824735
 40
3.461763
 40
4.051937
 40
4.707910
 40
4.707910
 40
4.707910
 40
4.707910
 10
3.635160
 20
4.305903
 30
0.0
 10
3.554701
 20
4.313445
 30
0.0
 10
3.393594
 20
4.328548
 30
0.0
 10
3.157420
 20
4.377245
 30
0.0
 10
2.879064
 20
4.434337
 30
0.0
 10
2.557041
 20
4.494871
 30
0.0
 10
2.199766
 20
4.536414
 30
0.0
 10
1.847921
 20
4.471580
 30
0.0
 10
1.578315
 20
4.256288
 30
0.0
 10
1.386752
 20
3.962708
 30
0.0
 10
1.331460
 20
3.512476
 30
0.0
 10
1.456073
 20
2.992802
 30
0.0
 10
1.705738
 20
2.416704
 30
0.0
 10
1.808029
 20
2.013164
 30
0.0
 10
1.861875
 20
1.800741
 30
0.0
 11
3.635160
 21
4.305903
 31
0.0
 11
3.394425
 21
4.332916
 31
0.0
 11
3.155746
 21
4.377546
 31
0.0
 11
2.922939
 21
4.424819
 31
0.0
 11
2.556527
 21
4.490541
 31
0.0
 11
2.184242
 21
4.518092
 31
0.0
 11
1.861875
 21
4.447281
 31
0.0
 11
1.592168
 21
4.244243
 31
0.0
 11
1.413195
 21
3.957523
 31
0.0
 11
1.358431
 21
3.610905
 31
0.0
 11
1.477502
 21
2.985104
 31
0.0
 11
1.682902
 21
2.431827
 31
0.0
 11
1.861875
 21
1.800741
 31
0.0
  0
LWPOLYLINE
  5
11b
100
AcDbEntity
  8
0
 62
1
100
AcDbPolyline
 90
1
 70
1
 10
5.313306
 20
4.785531
 30
0.0
  0
SPLINE
  5
11c
100
AcDbEntity
  8
0
 62
1
100
AcDbSpline
 70
0
 71
3
 72
16
 73
12
 74
10
 40
0.000000
 40
0.000000
 40
0.000000
 40
0.000000
 40
2.866606
 40
5.142995
 40
6.752781
 40
7.308015
 40
7.930840
 40
9.321178
 40
11.739227
 40
14.183490
 40
17.407668
 40
17.407668
 40
17.407668
 40
17.407668
 10
1.861875
 20
1.800741
 30
0.0
 10
1.872026
 20
0.816470
 30
0.0
 10
1.890238
 20
-0.949416
 30
0.0
 10
0.418677
 20
-2.826358
 30
0.0
 10
-0.771291
 20
-3.668171
 30
0.0
 10
-0.993267
 20
-4.798677
 30
0.0
 10
0.077935
 20
-4.954338
 30
0.0
 10
1.377436
 20
-4.465715
 30
0.0
 10
3.352765
 20
-3.508428
 30
0.0
 10
4.771849
 20
-1.096617
 30
0.0
 10
5.177636
 20
0.750252
 30
0.0
 10
5.408445
 20
1.800741
 30
0.0
 11
1.861875
 21
1.800741
 31
0.0
 11
1.538481
 21
-1.047565
 31
0.0
 11
0.206731
 21
-2.893748
 31
0.0
 11
-0.828444
 21
-4.126558
 31
0.0
 11
-0.857906
 21
-4.681010
 31
0.0
 11
-0.266028
 21
-4.874897
 31
0.0
 11
1.087549
 21
-4.557298
 31
0.0
 11
3.175615
 21
-3.337896
 31
0.0
 11
4.525473
 21
-1.300176
 31
0.0
 11
5.408445
 21
1.800741
 31
0.0
  0
LWPOLYLINE
  5
11d
100
AcDbEntity
  8
0
 62
1
100
AcDbPolyline
 90
1
 70
1
 10
5.408445
 20
1.800741
 30
0.0
  0
SPLINE
  5
11e
100
AcDbEntity
  8
0
 62
1
100
AcDbSpline
 70
0
 71
3
 72
10
 73
6
 74
4
 40
0.000000
 40
0.000000
 40
0.000000
 40
0.000000
 40
0.238670
 40
0.480691
 40
0.689823
 40
0.689823
 40
0.689823
 40
0.689823
 10
3.648374
 20
3.978224
 30
0.0
 10
3.569947
 20
3.990214
 30
0.0
 10
3.411991
 20
4.014364
 30
0.0
 10
3.198867
 20
4.141868
 30
0.0
 10
3.152082
 20
4.289157
 30
0.0
 10
3.130395
 20
4.357433
 30
0.0
 11
3.648374
 21
3.978224
 31
0.0
 11
3.415420
 21
4.030145
 31
0.0
 11
3.215354
 21
4.166336
 31
0.0
 11
3.130395
 21
4.357433
 31
0.0
  0
LWPOLYLINE
  5
11f
100
AcDbEntity
  8
0
 62
1
100
AcDbPolyline
 90
2
 70
0
 10
3.130395
 20
4.357433
 30
0.0
 10
3.130395
 20
4.368004
 30
0.0
  0
SPLINE
  5
120
100
AcDbEntity
  8
0
 62
1
100
AcDbSpline
 70
0
 71
3
 72
16
 73
12
 74
10
 40
0.000000
 40
0.000000
 40
0.000000
 40
0.000000
 40
0.235842
 40
0.496203
 40
0.663931
 40
0.744240
 40
0.831559
 40
0.917691
 40
1.084637
 40
1.344858
 40
1.581953
 40
1.581953
 40
1.581953
 40
1.581953
 10
3.130395
 20
4.368004
 30
0.0
 10
3.152939
 20
4.444810
 30
0.0
 10
3.200370
 20
4.606407
 30
0.0
 10
3.363279
 20
4.762192
 30
0.0
 10
3.483780
 20
4.886631
 30
0.0
 10
3.594060
 20
4.919059
 30
0.0
 10
3.678775
 20
4.914310
 30
0.0
 10
3.793060
 20
4.894638
 30
0.0
 10
3.919975
 20
4.769855
 30
0.0
 10
4.074521
 20
4.607864
 30
0.0
 10
4.119705
 20
4.445439
 30
0.0
 10
4.141247
 20
4.368004
 30
0.0
 11
3.130395
 21
4.368004
 31
0.0
 11
3.214816
 21
4.588218
 31
0.0
 11
3.384686
 21
4.785531
 31
0.0
 11
3.514915
 21
4.891234
 31
0.0
 11
3.591946
 21
4.913940
 31
0.0
 11
3.679255
 21
4.912570
 31
0.0
 11
3.763333
 21
4.893876
 31
0.0
 11
3.895960
 21
4.792480
 31
0.0
 11
4.060594
 21
4.590959
 31
0.0
 11
4.141247
 21
4.368004
 31
0.0
  0
LWPOLYLINE
  5
121
100
AcDbEntity
  8
0
 62
1
100
AcDbPolyline
 90
2
 70
0
 10
4.141247
 20
4.368004
 30
0.0
 10
4.141247
 20
4.362718
 30
0.0
  0
SPLINE
  5
122
100
AcDbEntity
  8
0
 62
1
100
AcDbSpline
 70
0
 71
3
 72
10
 73
6
 74
4
 40
0.000000
 40
0.000000
 40
0.000000
 40
0.000000
 40
0.208064
 40
0.441458
 40
0.673804
 40
0.673804
 40
0.673804
 40
0.673804
 10
4.141247
 20
4.362718
 30
0.0
 10
4.121585
 20
4.294377
 30
0.0
 10
4.079868
 20
4.149374
 30
0.0
 10
3.878410
 20
4.014336
 30
0.0
 10
3.724937
 20
3.990243
 30
0.0
 10
3.648374
 20
3.978224
 30
0.0
 11
4.141247
 21
4.362718
 31
0.0
 11
4.062209
 21
4.170251
 31
0.0
 11
3.874525
 21
4.031516
 31
0.0
 11
3.648374
 21
3.978224
 31
0.0
  0
SPLINE
  5
123
100
AcDbEntity
  8
0
 62
1
100
AcDbSpline
 70
0
 71
3
 72
10
 73
6
 74
4
 40
0.000000
 40
0.000000
 40
0.000000
 40
0.000000
 40
0.175593
 40
0.357331
 40
0.545152
 40
0.545152
 40
0.545152
 40
0.545152
 10
4.931429
 20
4.057501
 30
0.0
 10
4.936926
 20
3.998919
 30
0.0
 10
4.948114
 20
3.879705
 30
0.0
 10
4.899631
 20
3.699468
 30
0.0
 10
4.830475
 20
3.596946
 30
0.0
 10
4.795327
 20
3.544841
 30
0.0
 11
4.931429
 21
4.057501
 31
0.0
 11
4.937546
 21
3.882014
 31
0.0
 11
4.891396
 21
3.706234
 31
0.0
 11
4.795327
 21
3.544841
 31
0.0
  0
LWPOLYLINE
  5
124
100
AcDbEntity
  8
0
 62
1
100
AcDbPolyline
 90
1
 70
1
 10
3.648374
 20
3.978224
 30
0.0
  0
SPLINE
  5
125
100
AcDbEntity
  8
0
 62
1
100
AcDbSpline
 70
0
 71
3
 72
16
 73
12
 74
10
 40
0.000000
 40
0.000000
 40
0.000000
 40
0.000000
 40
0.189083
 40
0.378125
 40
0.567264
 40
0.756701
 40
0.946146
 40
1.135327
 40
1.324326
 40
1.513649
 40
1.703151
 40
1.703151
 40
1.703151
 40
1.703151
 10
4.795327
 20
3.544841
 30
0.0
 10
4.747009
 20
3.503852
 30
0.0
 10
4.650383
 20
3.421881
 30
0.0
 10
4.471923
 20
3.350235
 30
0.0
 10
4.282644
 20
3.325120
 30
0.0
 10
4.092574
 20
3.349890
 30
0.0
 10
3.915844
 20
3.423602
 30
0.0
 10
3.763980
 20
3.540270
 30
0.0
 10
3.648181
 20
3.692024
 30
0.0
 10
3.572224
 20
3.868920
 30
0.0
 10
3.562209
 20
3.995502
 30
0.0
 10
3.557199
 20
4.058822
 30
0.0
 11
4.795327
 21
3.544841
 31
0.0
 11
4.644788
 21
3.430427
 31
0.0
 11
4.470171
 21
3.358001
 31
0.0
 11
4.282634
 21
3.333435
 31
0.0
 11
4.094803
 21
3.358050
 31
0.0
 11
3.919892
 21
3.430819
 31
0.0
 11
3.769940
 21
3.546162
 31
0.0
 11
3.654883
 21
3.696104
 31
0.0
 11
3.582403
 21
3.871004
 31
0.0
 11
3.557199
 21
4.058822
 31
0.0
  0
SPLINE
  5
126
100
AcDbEntity
  8
0
 62
1
100
AcDbSpline
 70
0
 71
3
 72
16
 73
12
 74
10
 40
0.000000
 40
0.000000
 40
0.000000
 40
0.000000
 40
0.189425
 40
0.378860
 40
0.568039
 40
0.757041
 40
0.946373
 40
1.135887
 40
1.325324
 40
1.514768
 40
1.703950
 40
1.703950
 40
1.703950
 40
1.703950
 10
3.709157
 20
4.058822
 30
0.0
 10
3.704416
 20
3.995487
 30
0.0
 10
3.694932
 20
3.868813
 30
0.0
 10
3.618385
 20
3.692002
 30
0.0
 10
3.502468
 20
3.540367
 30
0.0
 10
3.350493
 20
3.423796
 30
0.0
 10
3.173667
 20
3.350750
 30
0.0
 10
2.983667
 20
3.324878
 30
0.0
 10
2.794114
 20
3.350342
 30
0.0
 10
2.615315
 20
3.422023
 30
0.0
 10
2.519102
 20
3.504802
 30
0.0
 10
2.471029
 20
3.546162
 30
0.0
 11
3.709157
 21
4.058822
 31
0.0
 11
3.684540
 21
3.871004
 31
0.0
 11
3.611767
 21
3.696104
 31
0.0
 11
3.496416
 21
3.546162
 31
0.0
 11
3.346464
 21
3.431112
 31
0.0
 11
3.171553
 21
3.358637
 31
0.0
 11
2.983722
 21
3.333435
 31
0.0
 11
2.795891
 21
3.358050
 31
0.0
 11
2.620980
 21
3.430819
 31
0.0
 11
2.471029
 21
3.546162
 31
0.0
  0
SPLINE
  5
127
100
AcDbEntity
  8
0
 62
1
100
AcDbSpline
 70
0
 71
3
 72
10
 73
6
 74
4
 40
0.000000
 40
0.000000
 40
0.000000
 40
0.000000
 40
0.187286
 40
0.368890
 40
0.544145
 40
0.544145
 40
0.544145
 40
0.544145
 10
2.471029
 20
3.546162
 30
0.0
 10
2.436777
 20
3.598584
 30
0.0
 10
2.369312
 20
3.701837
 30
0.0
 10
2.319829
 20
3.881125
 30
0.0
 10
2.329954
 20
4.000297
 30
0.0
 10
2.334927
 20
4.058822
 30
0.0
 11
2.471029
 21
3.546162
 31
0.0
 11
2.377015
 21
3.708143
 31
0.0
 11
2.330278
 21
3.883629
 31
0.0
 11
2.334927
 21
4.058822
 31
0.0
  0
SPLINE
  5
128
100
AcDbEntity
  8
0
 62
1
100
AcDbSpline
 70
0
 71
3
 72
10
 73
6
 74
4
 40
0.000000
 40
0.000000
 40
0.000000
 40
0.000000
 40
0.167620
 40
0.328005
 40
0.482241
 40
0.482241
 40
0.482241
 40
0.482241
 10
2.334927
 20
4.058822
 30
0.0
 10
2.348638
 20
4.004509
 30
0.0
 10
2.375468
 20
3.898228
 30
0.0
 10
2.458867
 20
3.756732
 30
0.0
 10
2.538850
 20
3.688136
 30
0.0
 10
2.578060
 20
3.654508
 30
0.0
 11
2.334927
 21
4.058822
 31
0.0
 11
2.383867
 21
3.898506
 31
0.0
 11
2.466575
 21
3.761092
 31
0.0
 11
2.578060
 21
3.654508
 31
0.0
  0
LWPOLYLINE
  5
129
100
AcDbEntity
  8
0
 62
1
100
AcDbPolyline
 90
2
 70
0
 10
3.557199
 20
4.058822
 30
0.0
 10
3.709157
 20
4.058822
 30
0.0
  0
SPLINE
  5
12a
100
AcDbEntity
  8
0
 62
1
100
AcDbSpline
 70
0
 71
3
 72
16
 73
12
 74
10
 40
0.000000
 40
0.000000
 40
0.000000
 40
0.000000
 40
0.149323
 40
0.298374
 40
0.447967
 40
0.597561
 40
0.746611
 40
0.895935
 40
1.045256
 40
1.194299
 40
1.343883
 40
1.343883
 40
1.343883
 40
1.343883
 10
2.578060
 20
3.654508
 30
0.0
 10
2.615980
 20
3.621810
 30
0.0
 10
2.691752
 20
3.556474
 30
0.0
 10
2.832940
 20
3.500477
 30
0.0
 10
2.982311
 20
3.479881
 30
0.0
 10
3.132220
 20
3.500176
 30
0.0
 10
3.271800
 20
3.557677
 30
0.0
 10
3.391393
 20
3.649988
 30
0.0
 10
3.483089
 20
3.769399
 30
0.0
 10
3.542905
 20
3.909045
 30
0.0
 10
3.550668
 20
4.008836
 30
0.0
 10
3.554556
 20
4.058822
 30
0.0
 11
2.578060
 21
3.654508
 31
0.0
 11
2.696397
 21
3.563437
 31
0.0
 11
2.834113
 21
3.506426
 31
0.0
 11
2.982401
 21
3.486704
 31
0.0
 11
3.130689
 21
3.506426
 31
0.0
 11
3.268405
 21
3.563437
 31
0.0
 11
3.386742
 21
3.654508
 31
0.0
 11
3.477819
 21
3.772837
 31
0.0
 11
3.534833
 21
3.910544
 31
0.0
 11
3.554556
 21
4.058822
 31
0.0
  0
SPLINE
  5
12b
100
AcDbEntity
  8
0
 62
1
100
AcDbSpline
 70
0
 71
3
 72
16
 73
12
 74
10
 40
0.000000
 40
0.000000
 40
0.000000
 40
0.000000
 40
0.149584
 40
0.298628
 40
0.447949
 40
0.597272
 40
0.746323
 40
0.895916
 40
1.045509
 40
1.194560
 40
1.343883
 40
1.343883
 40
1.343883
 40
1.343883
 10
3.706514
 20
4.058822
 30
0.0
 10
3.710403
 20
4.008836
 30
0.0
 10
3.718166
 20
3.909045
 30
0.0
 10
3.777981
 20
3.769399
 30
0.0
 10
3.869678
 20
3.649988
 30
0.0
 10
3.989270
 20
3.557677
 30
0.0
 10
4.128851
 20
3.500176
 30
0.0
 10
4.278759
 20
3.479881
 30
0.0
 10
4.428130
 20
3.500477
 30
0.0
 10
4.569319
 20
3.556474
 30
0.0
 10
4.645090
 20
3.621810
 30
0.0
 10
4.683010
 20
3.654508
 30
0.0
 11
3.706514
 21
4.058822
 31
0.0
 11
3.726237
 21
3.910544
 31
0.0
 11
3.783252
 21
3.772837
 31
0.0
 11
3.874329
 21
3.654508
 31
0.0
 11
3.992665
 21
3.563437
 31
0.0
 11
4.130382
 21
3.506426
 31
0.0
 11
4.278670
 21
3.486704
 31
0.0
 11
4.426957
 21
3.506426
 31
0.0
 11
4.564674
 21
3.563437
 31
0.0
 11
4.683010
 21
3.654508
 31
0.0
  0
LWPOLYLINE
  5
12c
100
AcDbEntity
  8
0
 62
1
100
AcDbPolyline
 90
2
 70
0
 10
3.554556
 20
4.058822
 30
0.0
 10
3.706514
 20
4.058822
 30
0.0
  0
SPLINE
  5
12d
100
AcDbEntity
  8
0
 62
1
100
AcDbSpline
 70
0
 71
3
 72
10
 73
6
 74
4
 40
0.000000
 40
0.000000
 40
0.000000
 40
0.000000
 40
0.155438
 40
0.315895
 40
0.484154
 40
0.484154
 40
0.484154
 40
0.484154
 10
4.683010
 20
3.654508
 30
0.0
 10
4.722968
 20
3.687871
 30
0.0
 10
4.804174
 20
3.755675
 30
0.0
 10
4.889785
 20
3.896676
 30
0.0
 10
4.917330
 20
4.003051
 30
0.0
 10
4.931429
 20
4.057501
 30
0.0
 11
4.683010
 21
3.654508
 31
0.0
 11
4.796746
 21
3.760456
 31
0.0
 11
4.881119
 21
3.896940
 31
0.0
 11
4.931429
 21
4.057501
 31
0.0
  0
SPLINE
  5
12e
100
AcDbEntity
  8
0
 62
1
100
AcDbSpline
 70
0
 71
3
 72
16
 73
12
 74
10
 40
0.000000
 40
0.000000
 40
0.000000
 40
0.000000
 40
0.102100
 40
0.229549
 40
0.384618
 40
0.524945
 40
0.691342
 40
0.913662
 40
3.002901
 40
4.840631
 40
6.247723
 40
6.247723
 40
6.247723
 40
6.247723
 10
3.078861
 20
3.667721
 30
0.0
 10
3.102449
 20
3.692452
 30
0.0
 10
3.155482
 20
3.748054
 30
0.0
 10
3.275453
 20
3.804704
 30
0.0
 10
3.424274
 20
3.794260
 30
0.0
 10
3.554341
 20
3.696701
 30
0.0
 10
3.614399
 20
3.523743
 30
0.0
 10
3.653838
 20
2.697511
 30
0.0
 10
3.297240
 20
1.356439
 30
0.0
 10
2.297355
 20
-0.334391
 30
0.0
 10
1.171449
 20
-0.458860
 30
0.0
 10
0.683209
 20
-0.512835
 30
0.0
 11
3.078861
 21
3.667721
 31
0.0
 11
3.153299
 21
3.737602
 31
0.0
 11
3.269139
 21
3.790748
 31
0.0
 11
3.423740
 21
3.778709
 31
0.0
 11
3.536204
 21
3.694783
 31
0.0
 11
3.601098
 21
3.541562
 31
0.0
 11
3.621946
 21
3.320222
 31
0.0
 11
3.162793
 21
1.282062
 31
0.0
 11
2.050587
 21
-0.180898
 31
0.0
 11
0.683209
 21
-0.512835
 31
0.0
  0
SPLINE
  5
12f
100
AcDbEntity
  8
0
 62
1
100
AcDbSpline
 70
0
 71
3
 72
13
 73
9
 74
7
 40
0.000000
 40
0.000000
 40
0.000000
 40
0.000000
 40
0.654871
 40
1.311344
 40
2.130091
 40
2.765374
 40
3.678275
 40
4.655425
 40
4.655425
 40
4.655425
 40
4.655425
 10
0.683209
 20
-0.512835
 30
0.0
 10
0.483643
 20
-0.394327
 30
0.0
 10
0.084025
 20
-0.157022
 30
0.0
 10
0.078259
 20
0.667997
 30
0.0
 10
0.621324
 20
1.202772
 30
0.0
 10
1.366779
 20
1.452365
 30
0.0
 10
2.149319
 20
1.820649
 30
0.0
 10
2.529501
 20
2.335345
 30
0.0
 10
2.726054
 20
2.601441
 30
0.0
 11
0.683209
 21
-0.512835
 31
0.0
 11
0.183288
 21
-0.089827
 31
0.0
 11
0.154659
 21
0.566021
 31
0.0
 11
0.695101
 21
1.181056
 31
0.0
 11
1.278023
 21
1.433618
 31
0.0
 11
2.081468
 21
1.867050
 31
0.0
 11
2.726054
 21
2.601441
 31
0.0
  0
LWPOLYLINE
  5
130
100
AcDbEntity
  8
0
 62
1
100
AcDbPolyline
 90
1
 70
1
 10
4.931429
 20
4.057501
 30
0.0
  0
SPLINE
  5
131
100
AcDbEntity
  8
0
 62
1
100
AcDbSpline
 70
0
 71
3
 72
10
 73
6
 74
4
 40
0.000000
 40
0.000000
 40
0.000000
 40
0.000000
 40
0.380199
 40
0.747358
 40
1.131016
 40
1.131016
 40
1.131016
 40
1.131016
 10
2.726054
 20
2.601441
 30
0.0
 10
2.767086
 20
2.721514
 30
0.0
 10
2.847743
 20
2.957541
 30
0.0
 10
2.875867
 20
3.341659
 30
0.0
 10
3.010212
 20
3.557453
 30
0.0
 10
3.078861
 20
3.667721
 30
0.0
 11
2.726054
 21
2.601441
 31
0.0
 11
2.833086
 21
2.966264
 31
0.0
 11
2.903118
 21
3.326682
 31
0.0
 11
3.078861
 21
3.667721
 31
0.0
  0
SPLINE
  5
132
100
AcDbEntity
  8
0
 62
1
100
AcDbSpline
 70
0
 71
3
 72
16
 73
12
 74
10
 40
0.000000
 40
0.000000
 40
0.000000
 40
0.000000
 40
0.102100
 40
0.229549
 40
0.384618
 40
0.524945
 40
0.691342
 40
0.913662
 40
3.002901
 40
4.840631
 40
6.247723
 40
6.247723
 40
6.247723
 40
6.247723
 10
4.178245
 20
3.667721
 30
0.0
 10
4.154657
 20
3.692452
 30
0.0
 10
4.101625
 20
3.748054
 30
0.0
 10
3.981654
 20
3.804704
 30
0.0
 10
3.832832
 20
3.794260
 30
0.0
 10
3.702766
 20
3.696701
 30
0.0
 10
3.642707
 20
3.523743
 30
0.0
 10
3.603268
 20
2.697511
 30
0.0
 10
3.959867
 20
1.356439
 30
0.0
 10
4.959751
 20
-0.334391
 30
0.0
 10
6.085657
 20
-0.458860
 30
0.0
 10
6.573898
 20
-0.512835
 30
0.0
 11
4.178245
 21
3.667721
 31
0.0
 11
4.103808
 21
3.737602
 31
0.0
 11
3.987967
 21
3.790748
 31
0.0
 11
3.833366
 21
3.778709
 31
0.0
 11
3.720903
 21
3.694783
 31
0.0
 11
3.656008
 21
3.541562
 31
0.0
 11
3.635160
 21
3.320222
 31
0.0
 11
4.094313
 21
1.282062
 31
0.0
 11
5.206520
 21
-0.180898
 31
0.0
 11
6.573898
 21
-0.512835
 31
0.0
  0
LWPOLYLINE
  5
133
100
AcDbEntity
  8
0
 62
1
100
AcDbPolyline
 90
1
 70
1
 10
3.078861
 20
3.667721
 30
0.0
  0
SPLINE
  5
134
100
AcDbEntity
  8
0
 62
1
100
AcDbSpline
 70
0
 71
3
 72
16
 73
12
 74
10
 40
0.000000
 40
0.000000
 40
0.000000
 40
0.000000
 40
0.654871
 40
1.311344
 40
2.130091
 40
2.765374
 40
3.678275
 40
4.655425
 40
5.035376
 40
5.402535
 40
5.786597
 40
5.786597
 40
5.786597
 40
5.786597
 10
6.573898
 20
-0.512835
 30
0.0
 10
6.773489
 20
-0.394315
 30
0.0
 10
7.173160
 20
-0.156985
 30
0.0
 10
7.178500
 20
0.667836
 30
0.0
 10
6.637290
 20
1.203473
 30
0.0
 10
5.885347
 20
1.450049
 30
0.0
 10
5.136764
 20
1.834119
 30
0.0
 10
4.565953
 20
2.399196
 30
0.0
 10
4.414866
 20
2.959738
 30
0.0
 10
4.381058
 20
3.341327
 30
0.0
 10
4.246856
 20
3.557303
 30
0.0
 10
4.178245
 20
3.667721
 30
0.0
 11
6.573898
 21
-0.512835
 31
0.0
 11
7.073818
 21
-0.089827
 31
0.0
 11
7.102448
 21
0.566021
 31
0.0
 11
6.562005
 21
1.181056
 31
0.0
 11
5.979083
 21
1.433618
 31
0.0
 11
5.175639
 21
1.867050
 31
0.0
 11
4.531052
 21
2.601441
 31
0.0
 11
4.424902
 21
2.966264
 31
0.0
 11
4.354869
 21
3.326682
 31
0.0
 11
4.178245
 21
3.667721
 31
0.0
  0
SPLINE
  5
135
100
AcDbEntity
  8
0
 62
1
100
AcDbSpline
 70
0
 71
3
 72
28
 73
24
 74
22
 40
0.000000
 40
0.000000
 40
0.000000
 40
0.000000
 40
0.409883
 40
1.306089
 40
2.450741
 40
3.561834
 40
4.665220
 40
5.478939
 40
5.883586
 40
6.773894
 40
7.680644
 40
8.011915
 40
8.357852
 40
9.013562
 40
10.019657
 40
11.175115
 40
12.246704
 40
12.617232
 40
13.015976
 40
13.381354
 40
13.783975
 40
14.278340
 40
14.687108
 40
14.687108
 40
14.687108
 40
14.687108
 10
0.936913
 20
-6.586797
 30
0.0
 10
1.027452
 20
-6.484108
 30
0.0
 10
1.315954
 20
-6.156889
 30
0.0
 10
1.664265
 20
-5.398615
 30
0.0
 10
1.569500
 20
-4.232592
 30
0.0
 10
0.452370
 20
-3.564140
 30
0.0
 10
-0.382133
 20
-3.619219
 30
0.0
 10
-1.574740
 20
-4.382039
 30
0.0
 10
-1.038742
 20
-3.562083
 30
0.0
 10
-0.863829
 20
-2.964807
 30
0.0
 10
-0.541318
 20
-2.282779
 30
0.0
 10
-0.680391
 20
-1.702752
 30
0.0
 10
-1.219910
 20
-1.626751
 30
0.0
 10
-1.613245
 20
-2.275125
 30
0.0
 10
-2.107925
 20
-3.024813
 30
0.0
 10
-2.640123
 20
-3.974002
 30
0.0
 10
-3.202868
 20
-4.656509
 30
0.0
 10
-3.262971
 20
-5.312788
 30
0.0
 10
-2.987474
 20
-5.610093
 30
0.0
 10
-2.659871
 20
-5.828246
 30
0.0
 10
-2.229465
 20
-5.866326
 30
0.0
 10
-1.797495
 20
-5.874988
 30
0.0
 10
-1.496067
 20
-5.870189
 30
0.0
 10
-1.359637
 20
-5.868016
 30
0.0
 11
0.936913
 21
-6.586797
 31
0.0
 11
1.198398
 21
-6.271156
 31
0.0
 11
1.561189
 21
-5.451664
 31
0.0
 11
1.392787
 21
-4.319466
 31
0.0
 11
0.481577
 21
-3.683682
 31
0.0
 11
-0.613158
 21
-3.821585
 31
0.0
 11
-1.367565
 21
-4.126558
 31
0.0
 11
-1.184286
 21
-3.765798
 31
0.0
 11
-0.833338
 21
-2.947578
 31
0.0
 11
-0.613060
 21
-2.067991
 31
0.0
 11
-0.730467
 21
-1.758223
 31
0.0
 11
-1.069571
 21
-1.689809
 31
0.0
 11
-1.539344
 21
-2.147269
 31
0.0
 11
-2.076556
 21
-2.997934
 31
0.0
 11
-2.685123
 21
-3.980140
 31
0.0
 11
-3.208240
 21
-4.915367
 31
0.0
 11
-3.212890
 21
-5.285866
 31
0.0
 11
-2.971470
 21
-5.603220
 31
0.0
 11
-2.659870
 21
-5.794024
 31
0.0
 11
-2.262576
 21
-5.859306
 31
0.0
 11
-1.768382
 21
-5.872323
 31
0.0
 11
-1.359637
 21
-5.868016
 31
0.0
  0
LWPOLYLINE
  5
136
100
AcDbEntity
  8
0
 62
1
100
AcDbPolyline
 90
1
 70
1
 10
4.178245
 20
3.667721
 30
0.0
  0
SPLINE
  5
137
100
AcDbEntity
  8
0
 62
1
100
AcDbSpline
 70
0
 71
3
 72
28
 73
24
 74
22
 40
0.000000
 40
0.000000
 40
0.000000
 40
0.000000
 40
0.642109
 40
1.284322
 40
1.926525
 40
2.461902
 40
3.115696
 40
3.547907
 40
3.649590
 40
3.752137
 40
3.855323
 40
4.168759
 40
4.481990
 40
4.795125
 40
4.935953
 40
5.077248
 40
5.217975
 40
6.032686
 40
6.879363
 40
7.690238
 40
8.022966
 40
8.369029
 40
9.024484
 40
9.024484
 40
9.024484
 40
9.024484
 10
-1.538023
 20
-2.147269
 30
0.0
 10
-1.651700
 20
-2.328681
 30
0.0
 10
-1.879074
 20
-2.691536
 30
0.0
 10
-2.223251
 20
-3.232809
 30
0.0
 10
-2.547950
 20
-3.748354
 30
0.0
 10
-2.848976
 20
-4.269490
 30
0.0
 10
-3.192411
 20
-4.732788
 30
0.0
 10
-2.969851
 20
-5.215859
 30
0.0
 10
-2.750323
 20
-5.219556
 30
0.0
 10
-2.648939
 20
-5.209196
 30
0.0
 10
-2.480227
 20
-5.167983
 30
0.0
 10
-2.252274
 20
-5.079079
 30
0.0
 10
-1.985688
 20
-4.910953
 30
0.0
 10
-1.798337
 20
-4.734291
 30
0.0
 10
-1.674245
 20
-4.579285
 30
0.0
 10
-1.592732
 20
-4.464235
 30
0.0
 10
-1.388404
 20
-4.161185
 30
0.0
 10
-1.075818
 20
-3.645176
 30
0.0
 10
-0.774806
 20
-2.876356
 30
0.0
 10
-0.551865
 20
-2.250194
 30
0.0
 10
-0.678898
 20
-1.702632
 30
0.0
 10
-1.220244
 20
-1.627674
 30
0.0
 10
-1.412318
 20
-1.941731
 30
0.0
 10
-1.538023
 20
-2.147269
 30
0.0
 11
-1.538023
 21
-2.147269
 31
0.0
 11
-1.879574
 21
-2.691003
 31
0.0
 11
-2.223180
 21
-3.233563
 31
0.0
 11
-2.562088
 21
-3.779060
 31
0.0
 11
-2.840947
 21
-4.236079
 31
0.0
 11
-3.082220
 21
-4.843724
 31
0.0
 11
-2.852791
 21
-5.210015
 31
0.0
 11
-2.751387
 21
-5.217551
 31
0.0
 11
-2.649397
 21
-5.206883
 31
0.0
 11
-2.548874
 21
-5.183589
 31
0.0
 11
-2.256704
 21
-5.070105
 31
0.0
 11
-1.991841
 21
-4.902889
 31
0.0
 11
-1.763978
 21
-4.688106
 31
0.0
 11
-1.675446
 21
-4.578586
 31
0.0
 11
-1.593080
 21
-4.463781
 31
0.0
 11
-1.514238
 21
-4.347214
 31
0.0
 11
-1.102018
 21
-3.644484
 31
0.0
 11
-0.774659
 21
-2.863652
 31
0.0
 11
-0.611739
 21
-2.069313
 31
0.0
 11
-0.730026
 21
-1.758321
 31
0.0
 11
-1.069130
 21
-1.689271
 31
0.0
 11
-1.538023
 21
-2.147269
 31
0.0
  0
SPLINE
  5
138
100
AcDbEntity
  8
0
 62
1
100
AcDbSpline
 70
0
 71
3
 72
28
 73
24
 74
22
 40
0.000000
 40
0.000000
 40
0.000000
 40
0.000000
 40
0.409883
 40
1.306089
 40
2.450741
 40
3.561834
 40
4.665220
 40
5.478939
 40
5.883586
 40
6.773894
 40
7.680644
 40
8.011915
 40
8.357852
 40
9.013562
 40
10.019657
 40
11.175115
 40
12.246704
 40
12.624535
 40
13.009584
 40
13.425417
 40
13.830929
 40
14.322767
 40
14.728629
 40
14.728629
 40
14.728629
 40
14.728629
 10
0.936913
 20
-6.586797
 30
0.0
 10
1.027452
 20
-6.484108
 30
0.0
 10
1.315954
 20
-6.156889
 30
0.0
 10
1.664265
 20
-5.398615
 30
0.0
 10
1.569500
 20
-4.232592
 30
0.0
 10
0.452370
 20
-3.564140
 30
0.0
 10
-0.382133
 20
-3.619219
 30
0.0
 10
-1.574740
 20
-4.382039
 30
0.0
 10
-1.038741
 20
-3.562083
 30
0.0
 10
-0.863831
 20
-2.964806
 30
0.0
 10
-0.541311
 20
-2.282781
 30
0.0
 10
-0.680399
 20
-1.702749
 30
0.0
 10
-1.219862
 20
-1.626765
 30
0.0
 10
-1.613695
 20
-2.274995
 30
0.0
 10
-2.105122
 20
-3.025621
 30
0.0
 10
-2.651751
 20
-3.970652
 30
0.0
 10
-3.175551
 20
-4.666752
 30
0.0
 10
-3.297103
 20
-5.303371
 30
0.0
 10
-3.047518
 20
-5.653079
 30
0.0
 10
-2.667335
 20
-5.818316
 30
0.0
 10
-2.227220
 20
-5.837840
 30
0.0
 10
-1.794366
 20
-5.864478
 30
0.0
 10
-1.494989
 20
-5.866915
 30
0.0
 10
-1.359637
 20
-5.868016
 30
0.0
 11
0.936913
 21
-6.586797
 31
0.0
 11
1.198398
 21
-6.271156
 31
0.0
 11
1.561189
 21
-5.451664
 31
0.0
 11
1.392787
 21
-4.319466
 31
0.0
 11
0.481577
 21
-3.683682
 31
0.0
 11
-0.613158
 21
-3.821585
 31
0.0
 11
-1.367565
 21
-4.126558
 31
0.0
 11
-1.184286
 21
-3.765798
 31
0.0
 11
-0.833338
 21
-2.947578
 31
0.0
 11
-0.613060
 21
-2.067991
 31
0.0
 11
-0.730467
 21
-1.758223
 31
0.0
 11
-1.069571
 21
-1.689809
 31
0.0
 11
-1.539344
 21
-2.147269
 31
0.0
 11
-2.076556
 21
-2.997934
 31
0.0
 11
-2.685123
 21
-3.980140
 31
0.0
 11
-3.208240
 21
-4.915367
 31
0.0
 11
-3.244603
 21
-5.291445
 31
0.0
 11
-3.034896
 21
-5.614378
 31
0.0
 11
-2.659870
 21
-5.794024
 31
0.0
 11
-2.256704
 21
-5.837578
 31
0.0
 11
-1.765446
 21
-5.861459
 31
0.0
 11
-1.359637
 21
-5.868016
 31
0.0
  0
LWPOLYLINE
  5
139
100
AcDbEntity
  8
0
 62
1
100
AcDbPolyline
 90
1
 70
1
 10
-1.538023
 20
-2.147269
 30
0.0
  0
SPLINE
  5
13a
100
AcDbEntity
  8
0
 62
1
100
AcDbSpline
 70
0
 71
3
 72
10
 73
6
 74
4
 40
0.000000
 40
0.000000
 40
0.000000
 40
0.000000
 40
1.248364
 40
2.405465
 40
3.462303
 40
3.462303
 40
3.462303
 40
3.462303
 10
3.544284
 20
7.918950
 30
0.0
 10
3.128206
 20
7.896984
 30
0.0
 10
2.326469
 20
7.854658
 30
0.0
 10
1.198726
 20
7.546992
 30
0.0
 10
0.557100
 20
7.178246
 30
0.0
 10
0.250816
 20
7.002222
 30
0.0
 11
3.544284
 21
7.918950
 31
0.0
 11
2.300960
 21
7.806882
 31
0.0
 11
1.187784
 21
7.491096
 31
0.0
 11
0.250816
 21
7.002222
 31
0.0
  0
LWPOLYLINE
  5
13b
100
AcDbEntity
  8
0
 62
1
100
AcDbPolyline
 90
2
 70
0
 10
0.250816
 20
7.002222
 30
0.0
 10
0.644198
 20
6.743940
 30
0.0
  0
SPLINE
  5
13c
100
AcDbEntity
  8
0
 62
1
100
AcDbSpline
 70
0
 71
3
 72
19
 73
15
 74
13
 40
0.000000
 40
0.000000
 40
0.000000
 40
0.000000
 40
0.236145
 40
0.485582
 40
0.728947
 40
1.436896
 40
2.196775
 40
3.003747
 40
3.810718
 40
4.570562
 40
5.278355
 40
5.521757
 40
5.771190
 40
6.007430
 40
6.007430
 40
6.007430
 40
6.007430
 10
0.644198
 20
6.743940
 30
0.0
 10
0.715813
 20
6.709947
 30
0.0
 10
0.863074
 20
6.640047
 30
0.0
 10
1.114676
 20
6.632138
 30
0.0
 10
1.494258
 20
6.767140
 30
0.0
 10
2.004773
 20
7.025372
 30
0.0
 10
2.753727
 20
7.181617
 30
0.0
 10
3.544280
 20
7.245853
 30
0.0
 10
4.334842
 20
7.181643
 30
0.0
 10
5.083683
 20
7.025412
 30
0.0
 10
5.594433
 20
6.767817
 30
0.0
 10
5.973857
 20
6.632604
 30
0.0
 10
6.225558
 20
6.640280
 30
0.0
 10
6.372766
 20
6.710408
 30
0.0
 10
6.444371
 20
6.744519
 30
0.0
 11
0.644198
 21
6.743940
 31
0.0
 11
0.863854
 21
6.657246
 31
0.0
 11
1.113106
 21
6.647637
 31
0.0
 11
1.346286
 21
6.717301
 31
0.0
 11
1.999831
 21
6.989460
 31
0.0
 11
2.739618
 21
7.163043
 31
0.0
 11
3.544284
 21
7.224020
 31
0.0
 11
4.348949
 21
7.163064
 31
0.0
 11
5.088736
 21
6.989632
 31
0.0
 11
5.742282
 21
6.717880
 31
0.0
 11
5.975462
 21
6.648087
 31
0.0
 11
6.224715
 21
6.657567
 31
0.0
 11
6.444371
 21
6.744519
 31
0.0
  0
LWPOLYLINE
  5
13d
100
AcDbEntity
  8
0
 62
1
100
AcDbPolyline
 90
2
 70
0
 10
6.444371
 20
6.744519
 30
0.0
 10
6.837753
 20
7.002801
 30
0.0
  0
SPLINE
  5
13e
100
AcDbEntity
  8
0
 62
1
100
AcDbSpline
 70
0
 71
3
 72
10
 73
6
 74
4
 40
0.000000
 40
0.000000
 40
0.000000
 40
0.000000
 40
1.056650
 40
2.213710
 40
3.462072
 40
3.462072
 40
3.462072
 40
3.462072
 10
6.837753
 20
7.002801
 30
0.0
 10
6.531456
 20
7.178672
 30
0.0
 10
5.889758
 20
7.547124
 30
0.0
 10
4.762085
 20
7.854661
 30
0.0
 10
3.960361
 20
7.896985
 30
0.0
 10
3.544284
 20
7.918950
 30
0.0
 11
6.837753
 21
7.002801
 31
0.0
 11
5.900784
 21
7.491268
 31
0.0
 11
4.787607
 21
7.806903
 31
0.0
 11
3.544284
 21
7.918950
 31
0.0
  0
LWPOLYLINE
  5
13f
100
AcDbEntity
  8
0
 62
1
100
AcDbPolyline
 90
1
 70
1
 10
3.544284
 20
7.918950
 30
0.0
  0
SPLINE
  5
140
100
AcDbEntity
  8
0
 62
1
100
AcDbSpline
 70
0
 71
3
 72
10
 73
6
 74
4
 40
0.000000
 40
0.000000
 40
0.000000
 40
0.000000
 40
1.872083
 40
3.465362
 40
4.835189
 40
4.835189
 40
4.835189
 40
4.835189
 10
3.533617
 20
7.784597
 30
0.0
 10
4.153730
 20
7.721062
 30
0.0
 10
5.301605
 20
7.603456
 30
0.0
 10
6.805365
 20
6.697415
 30
0.0
 10
7.062544
 20
5.711047
 30
0.0
 10
7.181436
 20
5.255054
 30
0.0
 11
3.533617
 21
7.784597
 31
0.0
 11
5.373487
 21
7.438805
 31
0.0
 11
6.682775
 21
6.530893
 31
0.0
 11
7.181436
 21
5.255054
 31
0.0
  0
LWPOLYLINE
  5
141
100
AcDbEntity
  8
0
 62
1
100
AcDbPolyline
 90
4
 70
0
 10
7.181436
 20
5.255054
 30
0.0
 10
7.181436
 20
3.689147
 30
0.0
 10
7.876258
 20
3.689147
 30
0.0
 10
7.876258
 20
5.255054
 30
0.0
  0
SPLINE
  5
142
100
AcDbEntity
  8
0
 62
1
100
AcDbSpline
 70
0
 71
3
 72
13
 73
9
 74
7
 40
0.000000
 40
0.000000
 40
0.000000
 40
0.000000
 40
1.630599
 40
3.527554
 40
5.755931
 40
7.984305
 40
9.881259
 40
11.511858
 40
11.511858
 40
11.511858
 40
11.511858
 10
7.876258
 20
5.255054
 30
0.0
 10
7.734638
 20
5.799649
 30
0.0
 10
7.428266
 20
6.977796
 30
0.0
 10
5.638209
 20
8.020852
 30
0.0
 10
3.533618
 20
8.399060
 30
0.0
 10
1.429028
 20
8.020852
 30
0.0
 10
-0.361028
 20
6.977796
 30
0.0
 10
-0.667401
 20
5.799649
 30
0.0
 10
-0.809020
 20
5.255054
 30
0.0
 11
7.876258
 21
5.255054
 31
0.0
 11
7.282455
 21
6.773689
 31
0.0
 11
5.723620
 21
7.854647
 31
0.0
 11
3.533617
 21
8.266414
 31
0.0
 11
1.343617
 21
7.854647
 31
0.0
 11
-0.215217
 21
6.773689
 31
0.0
 11
-0.809020
 21
5.255054
 31
0.0
  0
LWPOLYLINE
  5
143
100
AcDbEntity
  8
0
 62
1
100
AcDbPolyline
 90
4
 70
0
 10
-0.809020
 20
5.255054
 30
0.0
 10
-0.809020
 20
3.689147
 30
0.0
 10
-0.114199
 20
3.689147
 30
0.0
 10
-0.114199
 20
5.255054
 30
0.0
  0
SPLINE
  5
144
100
AcDbEntity
  8
0
 62
1
100
AcDbSpline
 70
0
 71
3
 72
10
 73
6
 74
4
 40
0.000000
 40
0.000000
 40
0.000000
 40
0.000000
 40
1.369827
 40
2.963106
 40
4.835187
 40
4.835187
 40
4.835187
 40
4.835187
 10
-0.114199
 20
5.255054
 30
0.0
 10
0.004694
 20
5.711047
 30
0.0
 10
0.261873
 20
6.697415
 30
0.0
 10
1.765632
 20
7.603455
 30
0.0
 10
2.913505
 20
7.721062
 30
0.0
 10
3.533617
 20
7.784597
 30
0.0
 11
-0.114199
 21
5.255054
 31
0.0
 11
0.384463
 21
6.530893
 31
0.0
 11
1.693750
 21
7.438805
 31
0.0
 11
3.533617
 21
7.784597
 31
0.0
  0
LWPOLYLINE
  5
145
100
AcDbEntity
  8
0
 62
1
100
AcDbPolyline
 90
1
 70
1
 10
3.533617
 20
7.784597
 30
0.0
  0
LWPOLYLINE
  5
146
100
AcDbEntity
  8
0
 62
1
100
AcDbPolyline
 90
4
 70
0
 10
7.071621
 20
2.559296
 30
0.0
 10
6.581451
 20
2.559296
 30
0.0
 10
6.581451
 20
5.570656
 30
0.0
 10
7.071621
 20
5.570656
 30
0.0
  0
SPLINE
  5
147
100
AcDbEntity
  8
0
 62
1
100
AcDbSpline
 70
0
 71
3
 72
13
 73
9
 74
7
 40
0.000000
 40
0.000000
 40
0.000000
 40
0.000000
 40
0.545510
 40
1.201037
 40
1.974609
 40
2.748182
 40
3.403708
 40
3.949219
 40
3.949219
 40
3.949219
 40
3.949219
 10
7.071621
 20
5.570656
 30
0.0
 10
7.252685
 20
5.520235
 30
0.0
 10
7.651328
 20
5.409223
 30
0.0
 10
8.004745
 20
4.793989
 30
0.0
 10
8.140476
 20
4.064976
 30
0.0
 10
8.004746
 20
3.335963
 30
0.0
 10
7.651328
 20
2.720730
 30
0.0
 10
7.252685
 20
2.609718
 30
0.0
 10
7.071621
 20
2.559296
 30
0.0
 11
7.071621
 21
5.570656
 31
0.0
 11
7.576919
 21
5.365095
 31
0.0
 11
7.948328
 21
4.824937
 31
0.0
 11
8.092807
 21
4.064976
 31
0.0
 11
7.948328
 21
3.305015
 31
0.0
 11
7.576919
 21
2.764858
 31
0.0
 11
7.071621
 21
2.559296
 31
0.0
  0
LWPOLYLINE
  5
148
100
AcDbEntity
  8
0
 62
1
100
AcDbPolyline
 90
2
 70
0
 10
6.799067
 20
2.327653
 30
0.0
 10
6.917565
 20
2.327653
 30
0.0
  0
SPLINE
  5
149
100
AcDbEntity
  8
0
 62
1
100
AcDbSpline
 70
0
 71
3
 72
10
 73
6
 74
4
 40
0.000000
 40
0.000000
 40
0.000000
 40
0.000000
 40
0.201333
 40
0.400485
 40
0.609764
 40
0.609764
 40
0.609764
 40
0.609764
 10
6.917565
 20
2.327653
 30
0.0
 10
6.985086
 20
2.338885
 30
0.0
 10
7.119397
 20
2.361228
 30
0.0
 10
7.270758
 20
2.522132
 30
0.0
 10
7.290952
 20
2.658897
 30
0.0
 10
7.301299
 20
2.728975
 30
0.0
 11
6.917565
 21
2.327653
 31
0.0
 11
7.111308
 21
2.382411
 31
0.0
 11
7.248941
 21
2.526352
 31
0.0
 11
7.301299
 21
2.728975
 31
0.0
  0
LWPOLYLINE
  5
14a
100
AcDbEntity
  8
0
 62
1
100
AcDbPolyline
 90
2
 70
0
 10
7.301299
 20
2.728975
 30
0.0
 10
7.301299
 20
5.400978
 30
0.0
  0
SPLINE
  5
14b
100
AcDbEntity
  8
0
 62
1
100
AcDbSpline
 70
0
 71
3
 72
10
 73
6
 74
4
 40
0.000000
 40
0.000000
 40
0.000000
 40
0.000000
 40
0.209279
 40
0.408431
 40
0.609764
 40
0.609764
 40
0.609764
 40
0.609764
 10
7.301299
 20
5.400978
 30
0.0
 10
7.290952
 20
5.471056
 30
0.0
 10
7.270758
 20
5.607821
 30
0.0
 10
7.119397
 20
5.768725
 30
0.0
 10
6.985086
 20
5.791068
 30
0.0
 10
6.917565
 20
5.802300
 30
0.0
 11
7.301299
 21
5.400978
 31
0.0
 11
7.248941
 21
5.603601
 31
0.0
 11
7.111308
 21
5.747542
 31
0.0
 11
6.917565
 21
5.802300
 31
0.0
  0
LWPOLYLINE
  5
14c
100
AcDbEntity
  8
0
 62
1
100
AcDbPolyline
 90
2
 70
0
 10
6.917565
 20
5.802300
 30
0.0
 10
6.799067
 20
5.802300
 30
0.0
  0
SPLINE
  5
14d
100
AcDbEntity
  8
0
 62
1
100
AcDbSpline
 70
0
 71
3
 72
10
 73
6
 74
4
 40
0.000000
 40
0.000000
 40
0.000000
 40
0.000000
 40
0.201333
 40
0.400485
 40
0.609764
 40
0.609764
 40
0.609764
 40
0.609764
 10
6.799067
 20
5.802300
 30
0.0
 10
6.731545
 20
5.791068
 30
0.0
 10
6.597235
 20
5.768725
 30
0.0
 10
6.445873
 20
5.607821
 30
0.0
 10
6.425680
 20
5.471056
 30
0.0
 10
6.415333
 20
5.400978
 30
0.0
 11
6.799067
 21
5.802300
 31
0.0
 11
6.605323
 21
5.747542
 31
0.0
 11
6.467691
 21
5.603601
 31
0.0
 11
6.415333
 21
5.400978
 31
0.0
  0
LWPOLYLINE
  5
14e
100
AcDbEntity
  8
0
 62
1
100
AcDbPolyline
 90
2
 70
0
 10
6.415333
 20
5.400978
 30
0.0
 10
6.415333
 20
2.728975
 30
0.0
  0
SPLINE
  5
14f
100
AcDbEntity
  8
0
 62
1
100
AcDbSpline
 70
0
 71
3
 72
10
 73
6
 74
4
 40
0.000000
 40
0.000000
 40
0.000000
 40
0.000000
 40
0.209279
 40
0.408431
 40
0.609764
 40
0.609764
 40
0.609764
 40
0.609764
 10
6.415333
 20
2.728975
 30
0.0
 10
6.425680
 20
2.658897
 30
0.0
 10
6.445873
 20
2.522132
 30
0.0
 10
6.597235
 20
2.361228
 30
0.0
 10
6.731545
 20
2.338885
 30
0.0
 10
6.799067
 20
2.327653
 30
0.0
 11
6.415333
 21
2.728975
 31
0.0
 11
6.467691
 21
2.526352
 31
0.0
 11
6.605323
 21
2.382411
 31
0.0
 11
6.799067
 21
2.327653
 31
0.0
  0
LWPOLYLINE
  5
150
100
AcDbEntity
  8
0
 62
1
100
AcDbPolyline
 90
1
 70
1
 10
6.799067
 20
2.327653
 30
0.0
  0
LWPOLYLINE
  5
151
100
AcDbEntity
  8
0
 62
1
100
AcDbPolyline
 90
4
 70
0
 10
0.141285
 20
2.611162
 30
0.0
 10
0.661652
 20
2.611162
 30
0.0
 10
0.661653
 20
5.622523
 30
0.0
 10
0.141285
 20
5.622523
 30
0.0
  0
SPLINE
  5
152
100
AcDbEntity
  8
0
 62
1
100
AcDbSpline
 70
0
 71
3
 72
13
 73
9
 74
7
 40
0.000000
 40
0.000000
 40
0.000000
 40
0.000000
 40
0.574464
 40
1.243219
 40
2.018504
 40
2.793788
 40
3.462544
 40
4.037008
 40
4.037008
 40
4.037008
 40
4.037008
 10
0.141285
 20
5.622523
 30
0.0
 10
-0.050198
 20
5.573342
 30
0.0
 10
-0.464595
 20
5.466908
 30
0.0
 10
-0.848275
 20
4.852909
 30
0.0
 10
-0.993565
 20
4.116843
 30
0.0
 10
-0.848275
 20
3.380776
 30
0.0
 10
-0.464595
 20
2.766777
 30
0.0
 10
-0.050198
 20
2.660343
 30
0.0
 10
0.141285
 20
2.611162
 30
0.0
 11
0.141285
 21
5.622523
 31
0.0
 11
-0.395141
 21
5.416961
 31
0.0
 11
-0.789431
 21
4.876804
 31
0.0
 11
-0.942810
 21
4.116843
 31
0.0
 11
-0.789431
 21
3.356882
 31
0.0
 11
-0.395141
 21
2.816724
 31
0.0
 11
0.141285
 21
2.611162
 31
0.0
  0
LWPOLYLINE
  5
153
100
AcDbEntity
  8
0
 62
1
100
AcDbPolyline
 90
2
 70
0
 10
0.391467
 20
2.242916
 30
0.0
 10
0.265670
 20
2.242916
 30
0.0
  0
SPLINE
  5
154
100
AcDbEntity
  8
0
 62
1
100
AcDbSpline
 70
0
 71
3
 72
10
 73
6
 74
4
 40
0.000000
 40
0.000000
 40
0.000000
 40
0.000000
 40
0.212844
 40
0.417948
 40
0.628055
 40
0.628055
 40
0.628055
 40
0.628055
 10
0.265670
 20
2.242916
 30
0.0
 10
0.194353
 20
2.253868
 30
0.0
 10
0.054313
 20
2.275372
 30
0.0
 10
-0.108206
 20
2.434606
 30
0.0
 10
-0.130450
 20
2.573801
 30
0.0
 10
-0.141706
 20
2.644237
 30
0.0
 11
0.265670
 21
2.242916
 31
0.0
 11
0.059990
 21
2.297675
 31
0.0
 11
-0.086122
 21
2.441615
 31
0.0
 11
-0.141706
 21
2.644237
 31
0.0
  0
LWPOLYLINE
  5
155
100
AcDbEntity
  8
0
 62
1
100
AcDbPolyline
 90
2
 70
0
 10
-0.141706
 20
2.644237
 30
0.0
 10
-0.141705
 20
5.316241
 30
0.0
  0
SPLINE
  5
156
100
AcDbEntity
  8
0
 62
1
100
AcDbSpline
 70
0
 71
3
 72
10
 73
6
 74
4
 40
0.000000
 40
0.000000
 40
0.000000
 40
0.000000
 40
0.210109
 40
0.415211
 40
0.628054
 40
0.628054
 40
0.628054
 40
0.628054
 10
-0.141705
 20
5.316241
 30
0.0
 10
-0.130449
 20
5.386678
 30
0.0
 10
-0.108206
 20
5.525873
 30
0.0
 10
0.054312
 20
5.685107
 30
0.0
 10
0.194352
 20
5.706611
 30
0.0
 10
0.265668
 20
5.717562
 30
0.0
 11
-0.141705
 21
5.316241
 31
0.0
 11
-0.086122
 21
5.518864
 31
0.0
 11
0.059989
 21
5.662804
 31
0.0
 11
0.265668
 21
5.717562
 31
0.0
  0
LWPOLYLINE
  5
157
100
AcDbEntity
  8
0
 62
1
100
AcDbPolyline
 90
2
 70
0
 10
0.265668
 20
5.717562
 30
0.0
 10
0.391467
 20
5.717563
 30
0.0
  0
SPLINE
  5
158
100
AcDbEntity
  8
0
 62
1
100
AcDbSpline
 70
0
 71
3
 72
10
 73
6
 74
4
 40
0.000000
 40
0.000000
 40
0.000000
 40
0.000000
 40
0.212843
 40
0.417946
 40
0.628055
 40
0.628055
 40
0.628055
 40
0.628055
 10
0.391467
 20
5.717563
 30
0.0
 10
0.462783
 20
5.706612
 30
0.0
 10
0.602823
 20
5.685107
 30
0.0
 10
0.765341
 20
5.525873
 30
0.0
 10
0.787585
 20
5.386678
 30
0.0
 10
0.798841
 20
5.316241
 30
0.0
 11
0.391467
 21
5.717563
 31
0.0
 11
0.597146
 21
5.662805
 31
0.0
 11
0.743257
 21
5.518864
 31
0.0
 11
0.798841
 21
5.316241
 31
0.0
  0
LWPOLYLINE
  5
159
100
AcDbEntity
  8
0
 62
1
100
AcDbPolyline
 90
2
 70
0
 10
0.798841
 20
5.316241
 30
0.0
 10
0.798840
 20
2.644238
 30
0.0
  0
SPLINE
  5
15a
100
AcDbEntity
  8
0
 62
1
100
AcDbSpline
 70
0
 71
3
 72
10
 73
6
 74
4
 40
0.000000
 40
0.000000
 40
0.000000
 40
0.000000
 40
0.210109
 40
0.415212
 40
0.628055
 40
0.628055
 40
0.628055
 40
0.628055
 10
0.798840
 20
2.644238
 30
0.0
 10
0.787585
 20
2.573801
 30
0.0
 10
0.765341
 20
2.434606
 30
0.0
 10
0.602823
 20
2.275372
 30
0.0
 10
0.462783
 20
2.253868
 30
0.0
 10
0.391467
 20
2.242916
 30
0.0
 11
0.798840
 21
2.644238
 31
0.0
 11
0.743257
 21
2.441614
 31
0.0
 11
0.597146
 21
2.297674
 31
0.0
 11
0.391467
 21
2.242916
 31
0.0
  0
LWPOLYLINE
  5
15b
100
AcDbEntity
  8
0
 62
1
100
AcDbPolyline
 90
1
 70
1
 10
0.391467
 20
2.242916
 30
0.0
  0
ENDSEC
  0
SECTION
  2
OBJECTS
  0
DICTIONARY
  5
C
330
0
100
AcDbDictionary
  3
ACAD_GROUP
350
D
  3
ACAD_MLINESTYLE
350
17
  0
DICTIONARY
  5
D
330
C
100
AcDbDictionary
  0
DICTIONARY
  5
1A
330
C
100
AcDbDictionary
  0
DICTIONARY
  5
17
330
C
100
AcDbDictionary
  3
STANDARD
350
18
  0
DICTIONARY
  5
19
330
C
100
AcDbDictionary
  0
ENDSEC
  0
EOF
