%MOIN*%
%OFA0B0*%
%FSLAX46Y46*%
%IPPOS*%
%LPD*%
%ADD10C,0.0039370078740157488*%
%ADD21C,0.0039370078740157488*%
%ADD22C,0.0039370078740157488*%
D10*
G36*
X0001093777Y0000154231D02*
G01*
X0001097636Y0000153060D01*
X0001097636Y0000153060D01*
X0001097636Y0000153060D01*
X0001101192Y0000151159D01*
X0001104310Y0000148601D01*
X0001106868Y0000145484D01*
X0001108769Y0000141927D01*
X0001108769Y0000141927D01*
X0001109940Y0000138068D01*
X0001110236Y0000135060D01*
X0001110236Y0000109427D01*
X0001109940Y0000106419D01*
X0001108769Y0000102560D01*
X0001108769Y0000102560D01*
X0001108769Y0000102560D01*
X0001106868Y0000099004D01*
X0001104310Y0000095886D01*
X0001101192Y0000093328D01*
X0001097636Y0000091427D01*
X0001097636Y0000091427D01*
X0001093777Y0000090256D01*
X0001089763Y0000089861D01*
X0001085750Y0000090256D01*
X0001081891Y0000091427D01*
X0001081891Y0000091427D01*
X0001078334Y0000093328D01*
X0001075217Y0000095886D01*
X0001072659Y0000099004D01*
X0001070758Y0000102560D01*
X0001070453Y0000103564D01*
X0001069587Y0000106419D01*
X0001069514Y0000107157D01*
X0001069291Y0000109427D01*
X0001069291Y0000135060D01*
X0001069587Y0000138068D01*
X0001070758Y0000141927D01*
X0001070758Y0000141927D01*
X0001072659Y0000145484D01*
X0001075217Y0000148601D01*
X0001078334Y0000151159D01*
X0001081891Y0000153060D01*
X0001081891Y0000153060D01*
X0001081891Y0000153060D01*
X0001085750Y0000154231D01*
X0001089763Y0000154626D01*
X0001093777Y0000154231D01*
G37*
G36*
X0001433934Y0000154231D02*
G01*
X0001437793Y0000153060D01*
X0001437793Y0000153060D01*
X0001437793Y0000153060D01*
X0001441350Y0000151159D01*
X0001444467Y0000148601D01*
X0001447025Y0000145484D01*
X0001448926Y0000141927D01*
X0001448926Y0000141927D01*
X0001450097Y0000138068D01*
X0001450393Y0000135060D01*
X0001450393Y0000109427D01*
X0001450097Y0000106419D01*
X0001448926Y0000102560D01*
X0001448926Y0000102560D01*
X0001448926Y0000102560D01*
X0001447025Y0000099004D01*
X0001444467Y0000095886D01*
X0001441350Y0000093328D01*
X0001437793Y0000091427D01*
X0001437793Y0000091427D01*
X0001433934Y0000090256D01*
X0001429921Y0000089861D01*
X0001425907Y0000090256D01*
X0001422048Y0000091427D01*
X0001422048Y0000091427D01*
X0001418492Y0000093328D01*
X0001415375Y0000095886D01*
X0001412816Y0000099004D01*
X0001410915Y0000102560D01*
X0001410611Y0000103564D01*
X0001409745Y0000106419D01*
X0001409672Y0000107157D01*
X0001409448Y0000109427D01*
X0001409448Y0000135060D01*
X0001409745Y0000138068D01*
X0001410915Y0000141927D01*
X0001410915Y0000141927D01*
X0001412816Y0000145484D01*
X0001415375Y0000148601D01*
X0001418492Y0000151159D01*
X0001422048Y0000153060D01*
X0001422048Y0000153060D01*
X0001422048Y0000153060D01*
X0001425907Y0000154231D01*
X0001429921Y0000154626D01*
X0001433934Y0000154231D01*
G37*
G36*
X0001606299Y0000118110D02*
G01*
X0001527559Y0000118110D01*
X0001527559Y0000196850D01*
X0001606299Y0000196850D01*
X0001606299Y0000118110D01*
G37*
G36*
X0001093777Y0000328640D02*
G01*
X0001097636Y0000327470D01*
X0001097636Y0000327470D01*
X0001097636Y0000327470D01*
X0001101192Y0000325569D01*
X0001104310Y0000323010D01*
X0001106868Y0000319893D01*
X0001108769Y0000316337D01*
X0001108769Y0000316336D01*
X0001109940Y0000312477D01*
X0001110236Y0000309470D01*
X0001110236Y0000264151D01*
X0001109940Y0000261144D01*
X0001108769Y0000257285D01*
X0001108769Y0000257284D01*
X0001108769Y0000257284D01*
X0001106868Y0000253728D01*
X0001104310Y0000250611D01*
X0001101192Y0000248052D01*
X0001097636Y0000246151D01*
X0001097636Y0000246151D01*
X0001093777Y0000244981D01*
X0001089763Y0000244585D01*
X0001085750Y0000244981D01*
X0001081891Y0000246151D01*
X0001081891Y0000246151D01*
X0001078334Y0000248052D01*
X0001075217Y0000250611D01*
X0001072659Y0000253728D01*
X0001070758Y0000257284D01*
X0001070758Y0000257284D01*
X0001070758Y0000257285D01*
X0001069587Y0000261144D01*
X0001069291Y0000264151D01*
X0001069291Y0000309470D01*
X0001069587Y0000312477D01*
X0001070758Y0000316336D01*
X0001070758Y0000316337D01*
X0001072659Y0000319893D01*
X0001075217Y0000323010D01*
X0001078334Y0000325569D01*
X0001081891Y0000327470D01*
X0001081891Y0000327470D01*
X0001081891Y0000327470D01*
X0001085750Y0000328640D01*
X0001089763Y0000329036D01*
X0001093777Y0000328640D01*
G37*
G36*
X0001433934Y0000328640D02*
G01*
X0001437793Y0000327470D01*
X0001437793Y0000327470D01*
X0001437793Y0000327470D01*
X0001441350Y0000325569D01*
X0001444467Y0000323010D01*
X0001447025Y0000319893D01*
X0001448926Y0000316337D01*
X0001448926Y0000316336D01*
X0001450097Y0000312477D01*
X0001450393Y0000309470D01*
X0001450393Y0000264151D01*
X0001450097Y0000261144D01*
X0001448926Y0000257285D01*
X0001448926Y0000257284D01*
X0001448926Y0000257284D01*
X0001447025Y0000253728D01*
X0001444467Y0000250611D01*
X0001441350Y0000248052D01*
X0001437793Y0000246151D01*
X0001437793Y0000246151D01*
X0001433934Y0000244981D01*
X0001429921Y0000244585D01*
X0001425907Y0000244981D01*
X0001422048Y0000246151D01*
X0001422048Y0000246151D01*
X0001418492Y0000248052D01*
X0001415375Y0000250611D01*
X0001412816Y0000253728D01*
X0001410915Y0000257284D01*
X0001410915Y0000257284D01*
X0001410915Y0000257285D01*
X0001409745Y0000261144D01*
X0001409448Y0000264151D01*
X0001409448Y0000309470D01*
X0001409745Y0000312477D01*
X0001410915Y0000316336D01*
X0001410915Y0000316337D01*
X0001412816Y0000319893D01*
X0001415375Y0000323010D01*
X0001418492Y0000325569D01*
X0001422048Y0000327470D01*
X0001422048Y0000327470D01*
X0001422048Y0000327470D01*
X0001425907Y0000328640D01*
X0001429921Y0000329036D01*
X0001433934Y0000328640D01*
G37*
G36*
X0000992125Y0000249999D02*
G01*
X0000913385Y0000249999D01*
X0000913385Y0000328740D01*
X0000992125Y0000328740D01*
X0000992125Y0000249999D01*
G37*
G36*
X0001606299Y0000249999D02*
G01*
X0001527559Y0000249999D01*
X0001527559Y0000328740D01*
X0001606299Y0000328740D01*
X0001606299Y0000249999D01*
G37*
G36*
X0001377583Y0000279005D02*
G01*
X0001378819Y0000278493D01*
X0001380055Y0000277981D01*
X0001382280Y0000276495D01*
X0001384172Y0000274603D01*
X0001385658Y0000272378D01*
X0001386170Y0000271142D01*
X0001386682Y0000269906D01*
X0001387204Y0000267282D01*
X0001387204Y0000264607D01*
X0001386682Y0000261982D01*
X0001386335Y0000261144D01*
X0001385658Y0000259511D01*
X0001384172Y0000257286D01*
X0001382280Y0000255394D01*
X0001380055Y0000253907D01*
X0001378819Y0000253396D01*
X0001377583Y0000252884D01*
X0001374959Y0000252362D01*
X0001372284Y0000252362D01*
X0001369660Y0000252884D01*
X0001368424Y0000253396D01*
X0001367188Y0000253907D01*
X0001364963Y0000255394D01*
X0001363071Y0000257286D01*
X0001361585Y0000259511D01*
X0001360908Y0000261144D01*
X0001360561Y0000261982D01*
X0001360039Y0000264607D01*
X0001360039Y0000267282D01*
X0001360561Y0000269906D01*
X0001361073Y0000271142D01*
X0001361585Y0000272378D01*
X0001363071Y0000274603D01*
X0001364963Y0000276495D01*
X0001367188Y0000277981D01*
X0001368424Y0000278493D01*
X0001369660Y0000279005D01*
X0001372284Y0000279527D01*
X0001374959Y0000279527D01*
X0001377583Y0000279005D01*
G37*
G36*
X0001150024Y0000279005D02*
G01*
X0001151260Y0000278493D01*
X0001152496Y0000277981D01*
X0001154721Y0000276495D01*
X0001156613Y0000274603D01*
X0001158099Y0000272378D01*
X0001158611Y0000271142D01*
X0001159123Y0000269906D01*
X0001159645Y0000267282D01*
X0001159645Y0000264607D01*
X0001159123Y0000261982D01*
X0001158776Y0000261144D01*
X0001158099Y0000259511D01*
X0001156613Y0000257286D01*
X0001154721Y0000255394D01*
X0001152496Y0000253907D01*
X0001151260Y0000253396D01*
X0001150024Y0000252884D01*
X0001147400Y0000252362D01*
X0001144725Y0000252362D01*
X0001142101Y0000252884D01*
X0001140865Y0000253396D01*
X0001139629Y0000253907D01*
X0001137404Y0000255394D01*
X0001135512Y0000257286D01*
X0001134026Y0000259511D01*
X0001133349Y0000261144D01*
X0001133002Y0000261982D01*
X0001132480Y0000264607D01*
X0001132480Y0000267282D01*
X0001133002Y0000269906D01*
X0001133514Y0000271142D01*
X0001134026Y0000272378D01*
X0001135512Y0000274603D01*
X0001137404Y0000276495D01*
X0001139629Y0000277981D01*
X0001140865Y0000278493D01*
X0001142101Y0000279005D01*
X0001144725Y0000279527D01*
X0001147400Y0000279527D01*
X0001150024Y0000279005D01*
G37*
G36*
X0000571349Y0000359513D02*
G01*
X0000539983Y0000333194D01*
X0000488358Y0000394719D01*
X0000519723Y0000421038D01*
X0000571349Y0000359513D01*
G37*
G36*
X0001307193Y0000483003D02*
G01*
X0001312173Y0000480940D01*
X0001316655Y0000477946D01*
X0001320466Y0000474135D01*
X0001323460Y0000469653D01*
X0001325523Y0000464674D01*
X0001326574Y0000459387D01*
X0001326574Y0000453997D01*
X0001325523Y0000448711D01*
X0001323460Y0000443732D01*
X0001320466Y0000439250D01*
X0001316655Y0000435439D01*
X0001312173Y0000432444D01*
X0001307193Y0000430382D01*
X0001301907Y0000429330D01*
X0001296517Y0000429330D01*
X0001291231Y0000430382D01*
X0001286251Y0000432444D01*
X0001281770Y0000435439D01*
X0001277958Y0000439250D01*
X0001274964Y0000443732D01*
X0001272901Y0000448711D01*
X0001271850Y0000453997D01*
X0001271850Y0000459387D01*
X0001272901Y0000464674D01*
X0001274964Y0000469653D01*
X0001277958Y0000474135D01*
X0001281770Y0000477946D01*
X0001286251Y0000480940D01*
X0001291231Y0000483003D01*
X0001296517Y0000484055D01*
X0001301907Y0000484055D01*
X0001307193Y0000483003D01*
G37*
G36*
X0001228453Y0000483003D02*
G01*
X0001233433Y0000480940D01*
X0001237914Y0000477946D01*
X0001241726Y0000474135D01*
X0001244720Y0000469653D01*
X0001246783Y0000464674D01*
X0001247834Y0000459387D01*
X0001247834Y0000453997D01*
X0001246783Y0000448711D01*
X0001244720Y0000443732D01*
X0001241726Y0000439250D01*
X0001237914Y0000435439D01*
X0001233433Y0000432444D01*
X0001228453Y0000430382D01*
X0001223167Y0000429330D01*
X0001217777Y0000429330D01*
X0001212491Y0000430382D01*
X0001207511Y0000432444D01*
X0001203030Y0000435439D01*
X0001199218Y0000439250D01*
X0001196224Y0000443732D01*
X0001194161Y0000448711D01*
X0001193110Y0000453997D01*
X0001193110Y0000459387D01*
X0001194161Y0000464674D01*
X0001196224Y0000469653D01*
X0001199218Y0000474135D01*
X0001203030Y0000477946D01*
X0001207511Y0000480940D01*
X0001212491Y0000483003D01*
X0001217777Y0000484055D01*
X0001223167Y0000484055D01*
X0001228453Y0000483003D01*
G37*
G36*
X0001405314Y0000429330D02*
G01*
X0001350590Y0000429330D01*
X0001350590Y0000484055D01*
X0001405314Y0000484055D01*
X0001405314Y0000429330D01*
G37*
G36*
X0001149713Y0000483003D02*
G01*
X0001154693Y0000480940D01*
X0001159174Y0000477946D01*
X0001162985Y0000474135D01*
X0001165980Y0000469653D01*
X0001168042Y0000464674D01*
X0001169094Y0000459387D01*
X0001169094Y0000453997D01*
X0001168042Y0000448711D01*
X0001165980Y0000443732D01*
X0001162985Y0000439250D01*
X0001159174Y0000435439D01*
X0001154693Y0000432444D01*
X0001149713Y0000430382D01*
X0001144427Y0000429330D01*
X0001139037Y0000429330D01*
X0001133750Y0000430382D01*
X0001128771Y0000432444D01*
X0001124289Y0000435439D01*
X0001120478Y0000439250D01*
X0001117484Y0000443732D01*
X0001115421Y0000448711D01*
X0001114370Y0000453997D01*
X0001114370Y0000459387D01*
X0001115421Y0000464674D01*
X0001117484Y0000469653D01*
X0001120478Y0000474135D01*
X0001124289Y0000477946D01*
X0001128771Y0000480940D01*
X0001133750Y0000483003D01*
X0001139037Y0000484055D01*
X0001144427Y0000484055D01*
X0001149713Y0000483003D01*
G37*
G36*
X0000790987Y0000579787D02*
G01*
X0000774701Y0000566122D01*
X0000770272Y0000571400D01*
X0000770135Y0000571534D01*
X0000769973Y0000571640D01*
X0000769794Y0000571712D01*
X0000769604Y0000571747D01*
X0000769412Y0000571745D01*
X0000769223Y0000571705D01*
X0000769045Y0000571630D01*
X0000768886Y0000571521D01*
X0000762452Y0000566122D01*
X0000706155Y0000518883D01*
X0000706020Y0000518745D01*
X0000705914Y0000518583D01*
X0000705843Y0000518404D01*
X0000705807Y0000518215D01*
X0000705809Y0000518022D01*
X0000705849Y0000517833D01*
X0000705925Y0000517656D01*
X0000706033Y0000517496D01*
X0000728177Y0000491107D01*
X0000696811Y0000464788D01*
X0000645186Y0000526313D01*
X0000676551Y0000552632D01*
X0000698695Y0000526243D01*
X0000698833Y0000526108D01*
X0000698994Y0000526002D01*
X0000699173Y0000525930D01*
X0000699363Y0000525895D01*
X0000699556Y0000525897D01*
X0000699744Y0000525937D01*
X0000699922Y0000526012D01*
X0000700081Y0000526121D01*
X0000762812Y0000578759D01*
X0000762947Y0000578897D01*
X0000763053Y0000579059D01*
X0000763125Y0000579238D01*
X0000763160Y0000579427D01*
X0000763158Y0000579620D01*
X0000763118Y0000579809D01*
X0000763043Y0000579986D01*
X0000762934Y0000580146D01*
X0000758505Y0000585424D01*
X0000774791Y0000599089D01*
X0000790987Y0000579787D01*
G37*
G36*
X0001459055Y0000491338D02*
G01*
X0001328346Y0000491338D01*
X0001328346Y0000670078D01*
X0001459055Y0000670078D01*
X0001459055Y0000491338D01*
G37*
G36*
X0001992519Y0000491338D02*
G01*
X0001861811Y0000491338D01*
X0001861811Y0000670078D01*
X0001992519Y0000670078D01*
X0001992519Y0000491338D01*
G37*
G36*
X0000859323Y0000579809D02*
G01*
X0000874120Y0000562174D01*
X0000874120Y0000562174D01*
X0000806564Y0000505487D01*
X0000789341Y0000526012D01*
X0000777714Y0000539869D01*
X0000777714Y0000539869D01*
X0000845271Y0000596556D01*
X0000859323Y0000579809D01*
G37*
G36*
X0000849658Y0000676874D02*
G01*
X0000849802Y0000676816D01*
X0000849932Y0000676732D01*
X0000850078Y0000676589D01*
X0000880383Y0000640472D01*
X0000880411Y0000640432D01*
X0000880498Y0000640304D01*
X0000880559Y0000640161D01*
X0000880591Y0000640010D01*
X0000880593Y0000639854D01*
X0000880564Y0000639702D01*
X0000880506Y0000639558D01*
X0000880422Y0000639428D01*
X0000880279Y0000639282D01*
X0000835115Y0000601385D01*
X0000835074Y0000601357D01*
X0000834946Y0000601270D01*
X0000834804Y0000601209D01*
X0000834652Y0000601177D01*
X0000834497Y0000601175D01*
X0000834344Y0000601204D01*
X0000834332Y0000601209D01*
X0000834200Y0000601262D01*
X0000834071Y0000601346D01*
X0000833925Y0000601489D01*
X0000822447Y0000615168D01*
X0000822309Y0000615303D01*
X0000822147Y0000615408D01*
X0000821968Y0000615480D01*
X0000821779Y0000615516D01*
X0000821586Y0000615514D01*
X0000821397Y0000615474D01*
X0000821220Y0000615398D01*
X0000821060Y0000615289D01*
X0000815042Y0000610239D01*
X0000814907Y0000610101D01*
X0000814801Y0000609939D01*
X0000814729Y0000609760D01*
X0000814694Y0000609571D01*
X0000814696Y0000609378D01*
X0000814736Y0000609189D01*
X0000814811Y0000609011D01*
X0000814920Y0000608852D01*
X0000818806Y0000604221D01*
X0000818834Y0000604181D01*
X0000818921Y0000604053D01*
X0000818982Y0000603910D01*
X0000819014Y0000603759D01*
X0000819016Y0000603603D01*
X0000818987Y0000603451D01*
X0000818929Y0000603307D01*
X0000818845Y0000603177D01*
X0000818702Y0000603031D01*
X0000803697Y0000590441D01*
X0000803657Y0000590413D01*
X0000803529Y0000590325D01*
X0000803386Y0000590265D01*
X0000803234Y0000590233D01*
X0000803079Y0000590231D01*
X0000802927Y0000590260D01*
X0000802914Y0000590265D01*
X0000802783Y0000590317D01*
X0000802653Y0000590402D01*
X0000802507Y0000590545D01*
X0000787385Y0000608566D01*
X0000787270Y0000608734D01*
X0000787270Y0000608734D01*
X0000787209Y0000608877D01*
X0000787177Y0000609028D01*
X0000787176Y0000609184D01*
X0000787204Y0000609336D01*
X0000787221Y0000609378D01*
X0000787262Y0000609480D01*
X0000787347Y0000609610D01*
X0000787490Y0000609756D01*
X0000802495Y0000622347D01*
X0000802663Y0000622462D01*
X0000802663Y0000622462D01*
X0000802806Y0000622522D01*
X0000802958Y0000622554D01*
X0000803113Y0000622556D01*
X0000803265Y0000622528D01*
X0000803409Y0000622470D01*
X0000803539Y0000622385D01*
X0000803685Y0000622242D01*
X0000807570Y0000617611D01*
X0000807708Y0000617476D01*
X0000807870Y0000617371D01*
X0000808049Y0000617299D01*
X0000808239Y0000617264D01*
X0000808431Y0000617266D01*
X0000808620Y0000617305D01*
X0000808798Y0000617381D01*
X0000808957Y0000617490D01*
X0000814976Y0000622540D01*
X0000815111Y0000622678D01*
X0000815216Y0000622840D01*
X0000815288Y0000623019D01*
X0000815324Y0000623209D01*
X0000815322Y0000623402D01*
X0000815282Y0000623590D01*
X0000815206Y0000623768D01*
X0000815097Y0000623927D01*
X0000803619Y0000637606D01*
X0000803504Y0000637774D01*
X0000803504Y0000637774D01*
X0000803443Y0000637917D01*
X0000803411Y0000638068D01*
X0000803410Y0000638224D01*
X0000803438Y0000638376D01*
X0000803496Y0000638520D01*
X0000803581Y0000638650D01*
X0000803723Y0000638796D01*
X0000848888Y0000676693D01*
X0000849056Y0000676808D01*
X0000849056Y0000676808D01*
X0000849199Y0000676869D01*
X0000849351Y0000676901D01*
X0000849506Y0000676903D01*
X0000849658Y0000676874D01*
G37*
G36*
X0000786306Y0000666827D02*
G01*
X0000800731Y0000649636D01*
X0000800731Y0000649636D01*
X0000733174Y0000592949D01*
X0000714429Y0000615289D01*
X0000704325Y0000627331D01*
X0000704325Y0000627331D01*
X0000771882Y0000684018D01*
X0000786306Y0000666827D01*
G37*
G36*
X0000873818Y0000740354D02*
G01*
X0000832874Y0000740354D01*
X0000832874Y0000799015D01*
X0000873818Y0000799015D01*
X0000873818Y0000740354D01*
G37*
G36*
X0000824606Y0000740354D02*
G01*
X0000763976Y0000740354D01*
X0000763976Y0000773425D01*
X0000824606Y0000773425D01*
X0000824606Y0000740354D01*
G37*
G36*
X0000525393Y0000740354D02*
G01*
X0000464763Y0000740354D01*
X0000464763Y0000793110D01*
X0000525393Y0000793110D01*
X0000525393Y0000740354D01*
G37*
G36*
X0000525393Y0000799409D02*
G01*
X0000454921Y0000799409D01*
X0000454921Y0000828543D01*
X0000525393Y0000828543D01*
X0000525393Y0000799409D01*
G37*
G36*
X0000525393Y0000842716D02*
G01*
X0000454921Y0000842716D01*
X0000454921Y0000871850D01*
X0000525393Y0000871850D01*
X0000525393Y0000842716D01*
G37*
G36*
X0000525393Y0000886023D02*
G01*
X0000454921Y0000886023D01*
X0000454921Y0000915157D01*
X0000525393Y0000915157D01*
X0000525393Y0000886023D01*
G37*
G36*
X0000525393Y0000929330D02*
G01*
X0000454921Y0000929330D01*
X0000454921Y0000958464D01*
X0000525393Y0000958464D01*
X0000525393Y0000929330D01*
G37*
G36*
X0001133464Y0000948031D02*
G01*
X0001112204Y0000948031D01*
X0001112204Y0000973228D01*
X0001133464Y0000973228D01*
X0001133464Y0000948031D01*
G37*
G36*
X0001096456Y0000948031D02*
G01*
X0001075196Y0000948031D01*
X0001075196Y0000973228D01*
X0001096456Y0000973228D01*
X0001096456Y0000948031D01*
G37*
G36*
X0001208065Y0000987492D02*
G01*
X0001193032Y0000972459D01*
X0001175215Y0000990276D01*
X0001190248Y0001005309D01*
X0001208065Y0000987492D01*
G37*
G36*
X0000525393Y0000972637D02*
G01*
X0000454921Y0000972637D01*
X0000454921Y0001001771D01*
X0000525393Y0001001771D01*
X0000525393Y0000972637D01*
G37*
G36*
X0001158267Y0000981496D02*
G01*
X0001133070Y0000981496D01*
X0001133070Y0001018503D01*
X0001158267Y0001018503D01*
X0001158267Y0000981496D01*
G37*
G36*
X0001099212Y0000981496D02*
G01*
X0001074015Y0000981496D01*
X0001074015Y0001018503D01*
X0001099212Y0001018503D01*
X0001099212Y0000981496D01*
G37*
G36*
X0001234233Y0001013660D02*
G01*
X0001219200Y0000998627D01*
X0001201383Y0001016444D01*
X0001216416Y0001031477D01*
X0001234233Y0001013660D01*
G37*
G36*
X0000525393Y0001015944D02*
G01*
X0000454921Y0001015944D01*
X0000454921Y0001045078D01*
X0000525393Y0001045078D01*
X0000525393Y0001015944D01*
G37*
G36*
X0000525393Y0001059251D02*
G01*
X0000454921Y0001059251D01*
X0000454921Y0001088385D01*
X0000525393Y0001088385D01*
X0000525393Y0001059251D01*
G37*
G36*
X0000525393Y0001102559D02*
G01*
X0000454921Y0001102559D01*
X0000454921Y0001131692D01*
X0000525393Y0001131692D01*
X0000525393Y0001102559D01*
G37*
G36*
X0000525393Y0001183267D02*
G01*
X0000464763Y0001183267D01*
X0000464763Y0001243897D01*
X0000525393Y0001243897D01*
X0000525393Y0001183267D01*
G37*
G36*
X0001499015Y0001186220D02*
G01*
X0001473818Y0001186220D01*
X0001473818Y0001325590D01*
X0001499015Y0001325590D01*
X0001499015Y0001186220D01*
G37*
G36*
X0001549015Y0001186220D02*
G01*
X0001523818Y0001186220D01*
X0001523818Y0001325590D01*
X0001549015Y0001325590D01*
X0001549015Y0001186220D01*
G37*
G36*
X0001599015Y0001186220D02*
G01*
X0001573818Y0001186220D01*
X0001573818Y0001325590D01*
X0001599015Y0001325590D01*
X0001599015Y0001186220D01*
G37*
G36*
X0001649015Y0001186220D02*
G01*
X0001623818Y0001186220D01*
X0001623818Y0001325590D01*
X0001649015Y0001325590D01*
X0001649015Y0001186220D01*
G37*
G36*
X0001749015Y0001186220D02*
G01*
X0001723818Y0001186220D01*
X0001723818Y0001325590D01*
X0001749015Y0001325590D01*
X0001749015Y0001186220D01*
G37*
G36*
X0001799015Y0001186220D02*
G01*
X0001773818Y0001186220D01*
X0001773818Y0001325590D01*
X0001799015Y0001325590D01*
X0001799015Y0001186220D01*
G37*
G36*
X0001849015Y0001186220D02*
G01*
X0001823818Y0001186220D01*
X0001823818Y0001325590D01*
X0001849015Y0001325590D01*
X0001849015Y0001186220D01*
G37*
G36*
X0001899015Y0001186220D02*
G01*
X0001873818Y0001186220D01*
X0001873818Y0001325590D01*
X0001899015Y0001325590D01*
X0001899015Y0001186220D01*
G37*
G36*
X0001449015Y0001186220D02*
G01*
X0001423818Y0001186220D01*
X0001423818Y0001325590D01*
X0001449015Y0001325590D01*
X0001449015Y0001186220D01*
G37*
G36*
X0001699015Y0001186220D02*
G01*
X0001673818Y0001186220D01*
X0001673818Y0001325590D01*
X0001699015Y0001325590D01*
X0001699015Y0001186220D01*
G37*
G36*
X0000946653Y0001191141D02*
G01*
X0000884055Y0001191141D01*
X0000884055Y0001232086D01*
X0000946653Y0001232086D01*
X0000946653Y0001191141D01*
G37*
G36*
X0000848228Y0001210826D02*
G01*
X0000791535Y0001210826D01*
X0000791535Y0001243897D01*
X0000848228Y0001243897D01*
X0000848228Y0001210826D01*
G37*
G36*
X0000495669Y0001259055D02*
G01*
X0000474409Y0001259055D01*
X0000474409Y0001284251D01*
X0000495669Y0001284251D01*
X0000495669Y0001259055D01*
G37*
G36*
X0000458661Y0001259055D02*
G01*
X0000437401Y0001259055D01*
X0000437401Y0001284251D01*
X0000458661Y0001284251D01*
X0000458661Y0001259055D01*
G37*
G36*
X0000996911Y0001443347D02*
G01*
X0001001512Y0001441951D01*
X0001004521Y0001440343D01*
X0001005752Y0001439685D01*
X0001009469Y0001436634D01*
X0001012519Y0001432918D01*
X0001013177Y0001431687D01*
X0001014786Y0001428677D01*
X0001016182Y0001424076D01*
X0001016535Y0001420490D01*
X0001016535Y0001386596D01*
X0001016182Y0001383010D01*
X0001014786Y0001378408D01*
X0001013177Y0001375399D01*
X0001012519Y0001374168D01*
X0001009469Y0001370451D01*
X0001005752Y0001367401D01*
X0001005752Y0001367401D01*
X0001001512Y0001365134D01*
X0000996911Y0001363739D01*
X0000992125Y0001363267D01*
X0000987340Y0001363739D01*
X0000982739Y0001365134D01*
X0000979730Y0001366743D01*
X0000978499Y0001367401D01*
X0000974782Y0001370451D01*
X0000971732Y0001374168D01*
X0000971602Y0001374411D01*
X0000969465Y0001378408D01*
X0000968069Y0001383010D01*
X0000967716Y0001386596D01*
X0000967716Y0001420490D01*
X0000968069Y0001424076D01*
X0000969465Y0001428677D01*
X0000970598Y0001430797D01*
X0000971732Y0001432918D01*
X0000974782Y0001436634D01*
X0000978499Y0001439685D01*
X0000979730Y0001440343D01*
X0000982739Y0001441951D01*
X0000987340Y0001443347D01*
X0000992125Y0001443818D01*
X0000996911Y0001443347D01*
G37*
G36*
X0001705572Y0001443347D02*
G01*
X0001710173Y0001441951D01*
X0001713183Y0001440343D01*
X0001714414Y0001439685D01*
X0001718130Y0001436634D01*
X0001721181Y0001432918D01*
X0001721839Y0001431687D01*
X0001723447Y0001428677D01*
X0001724843Y0001424076D01*
X0001725196Y0001420490D01*
X0001725196Y0001386596D01*
X0001724843Y0001383010D01*
X0001723447Y0001378408D01*
X0001721839Y0001375399D01*
X0001721181Y0001374168D01*
X0001718130Y0001370451D01*
X0001714414Y0001367401D01*
X0001714414Y0001367401D01*
X0001710173Y0001365134D01*
X0001705572Y0001363739D01*
X0001700787Y0001363267D01*
X0001696002Y0001363739D01*
X0001691400Y0001365134D01*
X0001688391Y0001366743D01*
X0001687160Y0001367401D01*
X0001683443Y0001370451D01*
X0001680393Y0001374168D01*
X0001680263Y0001374411D01*
X0001678126Y0001378408D01*
X0001676731Y0001383010D01*
X0001676377Y0001386596D01*
X0001676377Y0001420490D01*
X0001676731Y0001424076D01*
X0001678126Y0001428677D01*
X0001679260Y0001430797D01*
X0001680393Y0001432918D01*
X0001683443Y0001436634D01*
X0001687160Y0001439685D01*
X0001688391Y0001440343D01*
X0001691401Y0001441951D01*
X0001696002Y0001443347D01*
X0001700787Y0001443818D01*
X0001705572Y0001443347D01*
G37*
G36*
X0001523682Y0001510276D02*
G01*
X0001528284Y0001508880D01*
X0001531293Y0001507272D01*
X0001532524Y0001506614D01*
X0001536241Y0001503564D01*
X0001538145Y0001501243D01*
X0001539291Y0001499847D01*
X0001541558Y0001495606D01*
X0001541970Y0001494247D01*
X0001542953Y0001491005D01*
X0001543301Y0001487480D01*
X0001543307Y0001487419D01*
X0001543307Y0001453525D01*
X0001542953Y0001449939D01*
X0001541558Y0001445337D01*
X0001540494Y0001443347D01*
X0001539291Y0001441097D01*
X0001536241Y0001437380D01*
X0001532524Y0001434330D01*
X0001532524Y0001434330D01*
X0001528284Y0001432063D01*
X0001523682Y0001430668D01*
X0001518897Y0001430196D01*
X0001514112Y0001430668D01*
X0001509511Y0001432063D01*
X0001506501Y0001433672D01*
X0001505270Y0001434330D01*
X0001501554Y0001437380D01*
X0001498503Y0001441097D01*
X0001498047Y0001441951D01*
X0001496237Y0001445338D01*
X0001494841Y0001449939D01*
X0001494488Y0001453525D01*
X0001494488Y0001487419D01*
X0001494494Y0001487480D01*
X0001494794Y0001490530D01*
X0001494841Y0001491005D01*
X0001496237Y0001495606D01*
X0001497777Y0001498487D01*
X0001498503Y0001499847D01*
X0001501554Y0001503564D01*
X0001505270Y0001506614D01*
X0001506501Y0001507272D01*
X0001509511Y0001508880D01*
X0001514112Y0001510276D01*
X0001518897Y0001510747D01*
X0001523682Y0001510276D01*
G37*
G36*
X0000815021Y0001510276D02*
G01*
X0000819622Y0001508880D01*
X0000822632Y0001507272D01*
X0000823862Y0001506614D01*
X0000827579Y0001503564D01*
X0000829484Y0001501243D01*
X0000830630Y0001499847D01*
X0000832896Y0001495606D01*
X0000833309Y0001494247D01*
X0000834292Y0001491005D01*
X0000834639Y0001487480D01*
X0000834645Y0001487419D01*
X0000834645Y0001453525D01*
X0000834292Y0001449939D01*
X0000832896Y0001445337D01*
X0000831832Y0001443347D01*
X0000830630Y0001441097D01*
X0000827579Y0001437380D01*
X0000823862Y0001434330D01*
X0000823862Y0001434330D01*
X0000819622Y0001432063D01*
X0000815021Y0001430668D01*
X0000810236Y0001430196D01*
X0000805451Y0001430668D01*
X0000800849Y0001432063D01*
X0000797840Y0001433672D01*
X0000796609Y0001434330D01*
X0000792892Y0001437380D01*
X0000789842Y0001441097D01*
X0000789385Y0001441951D01*
X0000787575Y0001445338D01*
X0000786179Y0001449939D01*
X0000785826Y0001453525D01*
X0000785826Y0001487419D01*
X0000785832Y0001487480D01*
X0000786133Y0001490530D01*
X0000786179Y0001491005D01*
X0000787575Y0001495606D01*
X0000789115Y0001498487D01*
X0000789842Y0001499847D01*
X0000792892Y0001503564D01*
X0000796609Y0001506614D01*
X0000797840Y0001507272D01*
X0000800849Y0001508880D01*
X0000805451Y0001510276D01*
X0000810236Y0001510747D01*
X0000815021Y0001510276D01*
G37*
G36*
X0001621293Y0001505754D02*
G01*
X0001625735Y0001503914D01*
X0001629733Y0001501243D01*
X0001633133Y0001497843D01*
X0001635804Y0001493845D01*
X0001637644Y0001489403D01*
X0001638582Y0001484687D01*
X0001638582Y0001479879D01*
X0001637644Y0001475163D01*
X0001635804Y0001470721D01*
X0001633133Y0001466723D01*
X0001629733Y0001463323D01*
X0001625735Y0001460652D01*
X0001621293Y0001458812D01*
X0001616577Y0001457874D01*
X0001611769Y0001457874D01*
X0001607053Y0001458812D01*
X0001602611Y0001460652D01*
X0001598613Y0001463323D01*
X0001595213Y0001466723D01*
X0001592541Y0001470721D01*
X0001590701Y0001475163D01*
X0001589763Y0001479879D01*
X0001589763Y0001484687D01*
X0001590701Y0001489403D01*
X0001592541Y0001493845D01*
X0001595213Y0001497843D01*
X0001598613Y0001501243D01*
X0001602611Y0001503914D01*
X0001607053Y0001505754D01*
X0001611769Y0001506692D01*
X0001616577Y0001506692D01*
X0001621293Y0001505754D01*
G37*
G36*
X0000912631Y0001505754D02*
G01*
X0000917073Y0001503914D01*
X0000921071Y0001501243D01*
X0000924471Y0001497843D01*
X0000927143Y0001493845D01*
X0000928983Y0001489403D01*
X0000929921Y0001484687D01*
X0000929921Y0001479879D01*
X0000928983Y0001475163D01*
X0000927143Y0001470721D01*
X0000924471Y0001466723D01*
X0000921071Y0001463323D01*
X0000917073Y0001460652D01*
X0000912631Y0001458812D01*
X0000907915Y0001457874D01*
X0000903107Y0001457874D01*
X0000898391Y0001458812D01*
X0000893949Y0001460652D01*
X0000889951Y0001463323D01*
X0000886551Y0001466723D01*
X0000883880Y0001470721D01*
X0000882040Y0001475163D01*
X0000881102Y0001479879D01*
X0000881102Y0001484687D01*
X0000882040Y0001489403D01*
X0000883880Y0001493845D01*
X0000886551Y0001497843D01*
X0000889951Y0001501243D01*
X0000893949Y0001503914D01*
X0000898391Y0001505754D01*
X0000903107Y0001506692D01*
X0000907915Y0001506692D01*
X0000912631Y0001505754D01*
G37*
G36*
X0001351241Y0001563426D02*
G01*
X0001355843Y0001562030D01*
X0001358852Y0001560421D01*
X0001360083Y0001559763D01*
X0001363800Y0001556713D01*
X0001366850Y0001552996D01*
X0001367508Y0001551765D01*
X0001369117Y0001548756D01*
X0001370512Y0001544155D01*
X0001370512Y0001544155D01*
X0001370866Y0001540568D01*
X0001370866Y0001506675D01*
X0001370775Y0001505754D01*
X0001370512Y0001503088D01*
X0001369117Y0001498487D01*
X0001367508Y0001495478D01*
X0001366850Y0001494247D01*
X0001363800Y0001490530D01*
X0001360083Y0001487480D01*
X0001360083Y0001487480D01*
X0001355843Y0001485213D01*
X0001351241Y0001483817D01*
X0001346456Y0001483346D01*
X0001341671Y0001483817D01*
X0001338804Y0001484687D01*
X0001337070Y0001485213D01*
X0001334060Y0001486822D01*
X0001332829Y0001487480D01*
X0001329113Y0001490530D01*
X0001326062Y0001494247D01*
X0001325336Y0001495606D01*
X0001323796Y0001498487D01*
X0001322400Y0001503088D01*
X0001322047Y0001506675D01*
X0001322047Y0001540568D01*
X0001322400Y0001544155D01*
X0001322400Y0001544155D01*
X0001323796Y0001548756D01*
X0001326062Y0001552996D01*
X0001329113Y0001556713D01*
X0001332829Y0001559763D01*
X0001334060Y0001560421D01*
X0001337070Y0001562030D01*
X0001341671Y0001563426D01*
X0001346456Y0001563897D01*
X0001351241Y0001563426D01*
G37*
G36*
X0000570594Y0001578295D02*
G01*
X0000531561Y0001539938D01*
X0000493205Y0001578970D01*
X0000532237Y0001617327D01*
X0000570594Y0001578295D01*
G37*
G36*
X0001169352Y0001630355D02*
G01*
X0001173953Y0001628959D01*
X0001176962Y0001627351D01*
X0001178193Y0001626693D01*
X0001181910Y0001623642D01*
X0001184192Y0001620861D01*
X0001184960Y0001619925D01*
X0001187227Y0001615685D01*
X0001188623Y0001611084D01*
X0001188623Y0001611084D01*
X0001188975Y0001607511D01*
X0001188976Y0001607497D01*
X0001188976Y0001573604D01*
X0001188623Y0001570018D01*
X0001187227Y0001565416D01*
X0001186163Y0001563426D01*
X0001184960Y0001561176D01*
X0001181910Y0001557459D01*
X0001178193Y0001554409D01*
X0001178193Y0001554409D01*
X0001173953Y0001552142D01*
X0001169351Y0001550746D01*
X0001164566Y0001550275D01*
X0001159781Y0001550746D01*
X0001155180Y0001552142D01*
X0001152171Y0001553751D01*
X0001150940Y0001554409D01*
X0001147223Y0001557459D01*
X0001144172Y0001561176D01*
X0001143716Y0001562030D01*
X0001141906Y0001565416D01*
X0001140510Y0001570018D01*
X0001140157Y0001573604D01*
X0001140157Y0001607497D01*
X0001140158Y0001607511D01*
X0001140510Y0001611084D01*
X0001140510Y0001611084D01*
X0001141906Y0001615685D01*
X0001144173Y0001619925D01*
X0001144940Y0001620861D01*
X0001147223Y0001623642D01*
X0001150940Y0001626693D01*
X0001152171Y0001627351D01*
X0001155180Y0001628959D01*
X0001159781Y0001630355D01*
X0001164566Y0001630826D01*
X0001169352Y0001630355D01*
G37*
G36*
X0001266962Y0001625833D02*
G01*
X0001271404Y0001623993D01*
X0001275402Y0001621322D01*
X0001278802Y0001617922D01*
X0001281473Y0001613924D01*
X0001283313Y0001609482D01*
X0001284251Y0001604766D01*
X0001284251Y0001599958D01*
X0001283313Y0001595242D01*
X0001281473Y0001590799D01*
X0001278802Y0001586802D01*
X0001275402Y0001583402D01*
X0001271404Y0001580730D01*
X0001266962Y0001578890D01*
X0001262246Y0001577952D01*
X0001257438Y0001577952D01*
X0001252722Y0001578890D01*
X0001248280Y0001580730D01*
X0001244282Y0001583402D01*
X0001240882Y0001586802D01*
X0001238211Y0001590799D01*
X0001236371Y0001595242D01*
X0001235433Y0001599958D01*
X0001235433Y0001604766D01*
X0001236371Y0001609482D01*
X0001238211Y0001613924D01*
X0001240882Y0001617922D01*
X0001244282Y0001621322D01*
X0001248280Y0001623993D01*
X0001252722Y0001625833D01*
X0001257438Y0001626771D01*
X0001262246Y0001626771D01*
X0001266962Y0001625833D01*
G37*
G36*
X0001005572Y0001667757D02*
G01*
X0001010173Y0001666361D01*
X0001013161Y0001664764D01*
X0001014414Y0001664094D01*
X0001014414Y0001664094D01*
X0001014414Y0001664094D01*
X0001018130Y0001661044D01*
X0001021181Y0001657327D01*
X0001023447Y0001653087D01*
X0001024843Y0001648485D01*
X0001025196Y0001644899D01*
X0001025196Y0001611005D01*
X0001024843Y0001607419D01*
X0001023447Y0001602818D01*
X0001021919Y0001599958D01*
X0001021181Y0001598577D01*
X0001018130Y0001594861D01*
X0001014414Y0001591810D01*
X0001014414Y0001591810D01*
X0001010173Y0001589544D01*
X0001005572Y0001588148D01*
X0001000787Y0001587677D01*
X0000996002Y0001588148D01*
X0000991400Y0001589544D01*
X0000988391Y0001591152D01*
X0000987160Y0001591810D01*
X0000983443Y0001594861D01*
X0000980393Y0001598577D01*
X0000979655Y0001599958D01*
X0000978126Y0001602818D01*
X0000976731Y0001607419D01*
X0000976527Y0001609482D01*
X0000976377Y0001611005D01*
X0000976377Y0001644899D01*
X0000976731Y0001648485D01*
X0000976731Y0001648486D01*
X0000978126Y0001653087D01*
X0000980393Y0001657327D01*
X0000983443Y0001661044D01*
X0000987160Y0001664094D01*
X0000987160Y0001664094D01*
X0000987160Y0001664094D01*
X0000988413Y0001664764D01*
X0000991400Y0001666361D01*
X0000996002Y0001667757D01*
X0001000787Y0001668228D01*
X0001005572Y0001667757D01*
G37*
G36*
X0001714233Y0001667757D02*
G01*
X0001718835Y0001666361D01*
X0001721823Y0001664764D01*
X0001723075Y0001664094D01*
X0001723075Y0001664094D01*
X0001723075Y0001664094D01*
X0001726792Y0001661044D01*
X0001729842Y0001657327D01*
X0001732109Y0001653087D01*
X0001733505Y0001648485D01*
X0001733858Y0001644899D01*
X0001733858Y0001611005D01*
X0001733505Y0001607419D01*
X0001732109Y0001602818D01*
X0001730580Y0001599958D01*
X0001729842Y0001598577D01*
X0001726792Y0001594861D01*
X0001723075Y0001591810D01*
X0001723075Y0001591810D01*
X0001718835Y0001589544D01*
X0001714233Y0001588148D01*
X0001709448Y0001587677D01*
X0001704663Y0001588148D01*
X0001700062Y0001589544D01*
X0001697052Y0001591152D01*
X0001695822Y0001591810D01*
X0001692105Y0001594861D01*
X0001689054Y0001598577D01*
X0001688317Y0001599958D01*
X0001686788Y0001602818D01*
X0001685392Y0001607419D01*
X0001685189Y0001609482D01*
X0001685039Y0001611005D01*
X0001685039Y0001644899D01*
X0001685392Y0001648485D01*
X0001685392Y0001648486D01*
X0001686788Y0001653087D01*
X0001689054Y0001657327D01*
X0001692105Y0001661044D01*
X0001695822Y0001664094D01*
X0001695822Y0001664094D01*
X0001695822Y0001664094D01*
X0001697074Y0001664764D01*
X0001700062Y0001666361D01*
X0001704663Y0001667757D01*
X0001709448Y0001668228D01*
X0001714233Y0001667757D01*
G37*
G36*
X0000596042Y0001660133D02*
G01*
X0000601021Y0001658070D01*
X0000605503Y0001655076D01*
X0000609314Y0001651264D01*
X0000612309Y0001646783D01*
X0000614371Y0001641803D01*
X0000615423Y0001636517D01*
X0000615423Y0001631127D01*
X0000614371Y0001625841D01*
X0000612309Y0001620861D01*
X0000609314Y0001616380D01*
X0000605503Y0001612568D01*
X0000601021Y0001609574D01*
X0000596042Y0001607511D01*
X0000590755Y0001606460D01*
X0000585366Y0001606460D01*
X0000580079Y0001607511D01*
X0000575100Y0001609574D01*
X0000570618Y0001612568D01*
X0000566807Y0001616380D01*
X0000563812Y0001620861D01*
X0000561750Y0001625841D01*
X0000560698Y0001631127D01*
X0000560698Y0001636517D01*
X0000561750Y0001641803D01*
X0000563812Y0001646783D01*
X0000566807Y0001651264D01*
X0000570618Y0001655076D01*
X0000575100Y0001658070D01*
X0000580079Y0001660133D01*
X0000585366Y0001661184D01*
X0000590755Y0001661184D01*
X0000596042Y0001660133D01*
G37*
G36*
X0000652203Y0001715322D02*
G01*
X0000657183Y0001713260D01*
X0000661664Y0001710265D01*
X0000665476Y0001706454D01*
X0000668470Y0001701973D01*
X0000670533Y0001696993D01*
X0000671584Y0001691707D01*
X0000671584Y0001686317D01*
X0000670533Y0001681030D01*
X0000668470Y0001676051D01*
X0000665476Y0001671569D01*
X0000661664Y0001667758D01*
X0000657183Y0001664764D01*
X0000652203Y0001662701D01*
X0000646917Y0001661649D01*
X0000641527Y0001661649D01*
X0000636241Y0001662701D01*
X0000631261Y0001664764D01*
X0000626780Y0001667758D01*
X0000622968Y0001671569D01*
X0000619974Y0001676051D01*
X0000617911Y0001681030D01*
X0000616860Y0001686317D01*
X0000616860Y0001691707D01*
X0000617911Y0001696993D01*
X0000619974Y0001701973D01*
X0000622968Y0001706454D01*
X0000626780Y0001710265D01*
X0000631261Y0001713260D01*
X0000636241Y0001715322D01*
X0000641527Y0001716374D01*
X0000646917Y0001716374D01*
X0000652203Y0001715322D01*
G37*
G36*
X0001523682Y0001774056D02*
G01*
X0001528284Y0001772660D01*
X0001530335Y0001771564D01*
X0001532524Y0001770393D01*
X0001534753Y0001768564D01*
X0001536241Y0001767343D01*
X0001539291Y0001763626D01*
X0001541558Y0001759386D01*
X0001542232Y0001757162D01*
X0001542953Y0001754785D01*
X0001543307Y0001751198D01*
X0001543307Y0001717305D01*
X0001543111Y0001715322D01*
X0001542953Y0001713718D01*
X0001541558Y0001709117D01*
X0001539949Y0001706108D01*
X0001539291Y0001704877D01*
X0001536241Y0001701160D01*
X0001532524Y0001698110D01*
X0001532524Y0001698110D01*
X0001528284Y0001695843D01*
X0001523682Y0001694447D01*
X0001518897Y0001693976D01*
X0001514112Y0001694447D01*
X0001509511Y0001695843D01*
X0001506501Y0001697452D01*
X0001505270Y0001698110D01*
X0001501554Y0001701160D01*
X0001498503Y0001704877D01*
X0001497660Y0001706454D01*
X0001496237Y0001709117D01*
X0001494841Y0001713718D01*
X0001494606Y0001716099D01*
X0001494488Y0001717305D01*
X0001494488Y0001751198D01*
X0001494639Y0001752738D01*
X0001494841Y0001754785D01*
X0001496237Y0001759386D01*
X0001498503Y0001763626D01*
X0001501554Y0001767343D01*
X0001503041Y0001768564D01*
X0001505270Y0001770393D01*
X0001507460Y0001771564D01*
X0001509511Y0001772660D01*
X0001514112Y0001774056D01*
X0001518897Y0001774527D01*
X0001523682Y0001774056D01*
G37*
G36*
X0000815021Y0001774056D02*
G01*
X0000819622Y0001772660D01*
X0000821673Y0001771564D01*
X0000823862Y0001770393D01*
X0000826091Y0001768564D01*
X0000827579Y0001767343D01*
X0000830630Y0001763626D01*
X0000832896Y0001759386D01*
X0000833571Y0001757162D01*
X0000834292Y0001754785D01*
X0000834645Y0001751198D01*
X0000834645Y0001717305D01*
X0000834450Y0001715322D01*
X0000834292Y0001713718D01*
X0000832896Y0001709117D01*
X0000831288Y0001706108D01*
X0000830630Y0001704877D01*
X0000827579Y0001701160D01*
X0000823862Y0001698110D01*
X0000823862Y0001698110D01*
X0000819622Y0001695843D01*
X0000815021Y0001694447D01*
X0000810236Y0001693976D01*
X0000805451Y0001694447D01*
X0000800849Y0001695843D01*
X0000797840Y0001697452D01*
X0000796609Y0001698110D01*
X0000792892Y0001701160D01*
X0000789842Y0001704877D01*
X0000788999Y0001706454D01*
X0000787575Y0001709117D01*
X0000786179Y0001713718D01*
X0000785945Y0001716099D01*
X0000785826Y0001717305D01*
X0000785826Y0001751198D01*
X0000785978Y0001752738D01*
X0000786179Y0001754785D01*
X0000787575Y0001759386D01*
X0000789842Y0001763626D01*
X0000792892Y0001767343D01*
X0000794380Y0001768564D01*
X0000796609Y0001770393D01*
X0000798798Y0001771564D01*
X0000800849Y0001772660D01*
X0000805451Y0001774056D01*
X0000810236Y0001774527D01*
X0000815021Y0001774056D01*
G37*
G36*
X0000912631Y0001741975D02*
G01*
X0000917073Y0001740135D01*
X0000921071Y0001737464D01*
X0000924471Y0001734064D01*
X0000927143Y0001730066D01*
X0000928983Y0001725623D01*
X0000929921Y0001720908D01*
X0000929921Y0001716099D01*
X0000928983Y0001711383D01*
X0000927143Y0001706941D01*
X0000924471Y0001702943D01*
X0000921071Y0001699543D01*
X0000917073Y0001696872D01*
X0000912631Y0001695032D01*
X0000907915Y0001694094D01*
X0000903107Y0001694094D01*
X0000898391Y0001695032D01*
X0000893949Y0001696872D01*
X0000889951Y0001699543D01*
X0000886551Y0001702943D01*
X0000883880Y0001706941D01*
X0000882040Y0001711383D01*
X0000881102Y0001716099D01*
X0000881102Y0001720908D01*
X0000882040Y0001725623D01*
X0000883880Y0001730066D01*
X0000886551Y0001734064D01*
X0000889951Y0001737464D01*
X0000893949Y0001740135D01*
X0000898391Y0001741975D01*
X0000903107Y0001742913D01*
X0000907915Y0001742913D01*
X0000912631Y0001741975D01*
G37*
G36*
X0001621293Y0001741975D02*
G01*
X0001625735Y0001740135D01*
X0001629733Y0001737464D01*
X0001633133Y0001734064D01*
X0001635804Y0001730066D01*
X0001637644Y0001725623D01*
X0001638582Y0001720908D01*
X0001638582Y0001716099D01*
X0001637644Y0001711383D01*
X0001635804Y0001706941D01*
X0001633133Y0001702943D01*
X0001629733Y0001699543D01*
X0001625735Y0001696872D01*
X0001621293Y0001695032D01*
X0001616577Y0001694094D01*
X0001611769Y0001694094D01*
X0001607053Y0001695032D01*
X0001602611Y0001696872D01*
X0001598613Y0001699543D01*
X0001595213Y0001702943D01*
X0001592541Y0001706941D01*
X0001590701Y0001711383D01*
X0001589763Y0001716099D01*
X0001589763Y0001720908D01*
X0001590701Y0001725623D01*
X0001592541Y0001730066D01*
X0001595213Y0001734064D01*
X0001598613Y0001737464D01*
X0001602611Y0001740135D01*
X0001607053Y0001741975D01*
X0001611769Y0001742913D01*
X0001616577Y0001742913D01*
X0001621293Y0001741975D01*
G37*
G36*
X0001359903Y0001787835D02*
G01*
X0001364504Y0001786439D01*
X0001367513Y0001784831D01*
X0001368744Y0001784173D01*
X0001368744Y0001784173D01*
X0001368744Y0001784173D01*
X0001372461Y0001781123D01*
X0001375511Y0001777406D01*
X0001377778Y0001773165D01*
X0001379174Y0001768564D01*
X0001379527Y0001764978D01*
X0001379527Y0001731084D01*
X0001379174Y0001727498D01*
X0001377778Y0001722897D01*
X0001376715Y0001720908D01*
X0001375512Y0001718656D01*
X0001372461Y0001714939D01*
X0001368744Y0001711889D01*
X0001368744Y0001711889D01*
X0001364504Y0001709623D01*
X0001359903Y0001708227D01*
X0001355118Y0001707755D01*
X0001350332Y0001708227D01*
X0001345731Y0001709623D01*
X0001342437Y0001711383D01*
X0001341491Y0001711889D01*
X0001337774Y0001714939D01*
X0001334724Y0001718656D01*
X0001334030Y0001719953D01*
X0001332457Y0001722897D01*
X0001331061Y0001727498D01*
X0001330708Y0001731084D01*
X0001330708Y0001764978D01*
X0001331061Y0001768564D01*
X0001332457Y0001773165D01*
X0001334724Y0001777406D01*
X0001337774Y0001781123D01*
X0001341491Y0001784173D01*
X0001341491Y0001784173D01*
X0001341491Y0001784173D01*
X0001342722Y0001784831D01*
X0001345731Y0001786439D01*
X0001350333Y0001787835D01*
X0001355118Y0001788307D01*
X0001359903Y0001787835D01*
G37*
G36*
X0000708365Y0001770512D02*
G01*
X0000713344Y0001768449D01*
X0000717826Y0001765455D01*
X0000721637Y0001761644D01*
X0000724631Y0001757162D01*
X0000726694Y0001752183D01*
X0000727746Y0001746896D01*
X0000727746Y0001741506D01*
X0000726694Y0001736220D01*
X0000724631Y0001731241D01*
X0000721637Y0001726759D01*
X0000717826Y0001722948D01*
X0000713344Y0001719953D01*
X0000708365Y0001717891D01*
X0000703078Y0001716839D01*
X0000697688Y0001716839D01*
X0000692402Y0001717891D01*
X0000687422Y0001719953D01*
X0000682941Y0001722948D01*
X0000679130Y0001726759D01*
X0000676135Y0001731241D01*
X0000674073Y0001736220D01*
X0000673021Y0001741506D01*
X0000673021Y0001746896D01*
X0000674073Y0001752183D01*
X0000676135Y0001757162D01*
X0000679130Y0001761644D01*
X0000682941Y0001765455D01*
X0000687422Y0001768449D01*
X0000692402Y0001770512D01*
X0000697688Y0001771564D01*
X0000703078Y0001771564D01*
X0000708365Y0001770512D01*
G37*
G36*
X0001005572Y0001809489D02*
G01*
X0001010173Y0001808093D01*
X0001013183Y0001806484D01*
X0001014414Y0001805826D01*
X0001014414Y0001805826D01*
X0001014414Y0001805826D01*
X0001018130Y0001802776D01*
X0001021181Y0001799059D01*
X0001023447Y0001794819D01*
X0001024843Y0001790218D01*
X0001025196Y0001786631D01*
X0001025196Y0001752738D01*
X0001024843Y0001749151D01*
X0001023447Y0001744550D01*
X0001022071Y0001741975D01*
X0001021181Y0001740310D01*
X0001018130Y0001736593D01*
X0001014414Y0001733543D01*
X0001014414Y0001733543D01*
X0001010173Y0001731276D01*
X0001009541Y0001731084D01*
X0001005572Y0001729880D01*
X0001000787Y0001729409D01*
X0000996002Y0001729880D01*
X0000991400Y0001731276D01*
X0000988391Y0001732885D01*
X0000987160Y0001733543D01*
X0000983443Y0001736593D01*
X0000980393Y0001740310D01*
X0000980263Y0001740552D01*
X0000978126Y0001744550D01*
X0000976731Y0001749151D01*
X0000976529Y0001751198D01*
X0000976377Y0001752738D01*
X0000976377Y0001786631D01*
X0000976731Y0001790218D01*
X0000976731Y0001790218D01*
X0000978126Y0001794819D01*
X0000980393Y0001799059D01*
X0000983443Y0001802776D01*
X0000987160Y0001805826D01*
X0000987160Y0001805826D01*
X0000987160Y0001805826D01*
X0000988391Y0001806484D01*
X0000991400Y0001808093D01*
X0000996002Y0001809489D01*
X0001000787Y0001809960D01*
X0001005572Y0001809489D01*
G37*
G36*
X0001714233Y0001809489D02*
G01*
X0001718835Y0001808093D01*
X0001721844Y0001806484D01*
X0001723075Y0001805826D01*
X0001723075Y0001805826D01*
X0001723075Y0001805826D01*
X0001726792Y0001802776D01*
X0001729842Y0001799059D01*
X0001732109Y0001794819D01*
X0001733505Y0001790218D01*
X0001733858Y0001786631D01*
X0001733858Y0001752738D01*
X0001733505Y0001749151D01*
X0001732109Y0001744550D01*
X0001730732Y0001741975D01*
X0001729842Y0001740310D01*
X0001726792Y0001736593D01*
X0001723075Y0001733543D01*
X0001723075Y0001733543D01*
X0001718835Y0001731276D01*
X0001718202Y0001731084D01*
X0001714233Y0001729880D01*
X0001709448Y0001729409D01*
X0001704663Y0001729880D01*
X0001700062Y0001731276D01*
X0001697052Y0001732885D01*
X0001695822Y0001733543D01*
X0001692105Y0001736593D01*
X0001689054Y0001740310D01*
X0001688925Y0001740552D01*
X0001686788Y0001744550D01*
X0001685392Y0001749151D01*
X0001685191Y0001751198D01*
X0001685039Y0001752738D01*
X0001685039Y0001786631D01*
X0001685392Y0001790218D01*
X0001685392Y0001790218D01*
X0001686788Y0001794819D01*
X0001689054Y0001799059D01*
X0001692105Y0001802776D01*
X0001695822Y0001805826D01*
X0001695822Y0001805826D01*
X0001695822Y0001805826D01*
X0001697053Y0001806484D01*
X0001700062Y0001808093D01*
X0001704663Y0001809489D01*
X0001709448Y0001809960D01*
X0001714233Y0001809489D01*
G37*
G36*
X0001169352Y0001894134D02*
G01*
X0001173953Y0001892739D01*
X0001176962Y0001891130D01*
X0001178193Y0001890472D01*
X0001178193Y0001890472D01*
X0001178193Y0001890472D01*
X0001181910Y0001887422D01*
X0001184960Y0001883705D01*
X0001187227Y0001879465D01*
X0001188623Y0001874863D01*
X0001188623Y0001874863D01*
X0001188976Y0001871277D01*
X0001188976Y0001837383D01*
X0001188623Y0001833797D01*
X0001188623Y0001833797D01*
X0001187227Y0001829196D01*
X0001185618Y0001826186D01*
X0001184960Y0001824955D01*
X0001181910Y0001821239D01*
X0001178193Y0001818188D01*
X0001178193Y0001818188D01*
X0001173953Y0001815922D01*
X0001169351Y0001814526D01*
X0001164566Y0001814055D01*
X0001159781Y0001814526D01*
X0001155180Y0001815922D01*
X0001152171Y0001817530D01*
X0001150940Y0001818188D01*
X0001147223Y0001821239D01*
X0001144172Y0001824955D01*
X0001143069Y0001827020D01*
X0001141906Y0001829196D01*
X0001140510Y0001833797D01*
X0001140276Y0001836178D01*
X0001140157Y0001837383D01*
X0001140157Y0001871277D01*
X0001140309Y0001872817D01*
X0001140510Y0001874863D01*
X0001141906Y0001879464D01*
X0001144173Y0001883705D01*
X0001147223Y0001887422D01*
X0001150940Y0001890472D01*
X0001150940Y0001890472D01*
X0001150940Y0001890472D01*
X0001152171Y0001891130D01*
X0001155180Y0001892739D01*
X0001159781Y0001894134D01*
X0001164566Y0001894606D01*
X0001169352Y0001894134D01*
G37*
G36*
X0001266962Y0001862054D02*
G01*
X0001271404Y0001860214D01*
X0001275402Y0001857542D01*
X0001278802Y0001854142D01*
X0001281473Y0001850144D01*
X0001283313Y0001845702D01*
X0001284251Y0001840986D01*
X0001284251Y0001836178D01*
X0001283313Y0001831462D01*
X0001281473Y0001827020D01*
X0001278802Y0001823022D01*
X0001275402Y0001819622D01*
X0001271404Y0001816951D01*
X0001266962Y0001815111D01*
X0001262246Y0001814173D01*
X0001257438Y0001814173D01*
X0001252722Y0001815111D01*
X0001248280Y0001816951D01*
X0001244282Y0001819622D01*
X0001240882Y0001823022D01*
X0001238211Y0001827020D01*
X0001236371Y0001831462D01*
X0001235433Y0001836178D01*
X0001235433Y0001840986D01*
X0001236371Y0001845702D01*
X0001238211Y0001850144D01*
X0001240882Y0001854142D01*
X0001244282Y0001857542D01*
X0001248280Y0001860214D01*
X0001252722Y0001862054D01*
X0001257438Y0001862992D01*
X0001262246Y0001862992D01*
X0001266962Y0001862054D01*
G37*
G36*
X0001359903Y0001929567D02*
G01*
X0001364504Y0001928172D01*
X0001367513Y0001926563D01*
X0001368744Y0001925905D01*
X0001368744Y0001925905D01*
X0001368744Y0001925905D01*
X0001372461Y0001922855D01*
X0001375511Y0001919138D01*
X0001377778Y0001914898D01*
X0001379174Y0001910296D01*
X0001379527Y0001906710D01*
X0001379527Y0001872817D01*
X0001379174Y0001869230D01*
X0001377778Y0001864629D01*
X0001376402Y0001862054D01*
X0001375512Y0001860388D01*
X0001372461Y0001856672D01*
X0001368744Y0001853621D01*
X0001368744Y0001853621D01*
X0001364504Y0001851355D01*
X0001360514Y0001850144D01*
X0001359903Y0001849959D01*
X0001355118Y0001849488D01*
X0001350332Y0001849959D01*
X0001345731Y0001851355D01*
X0001342722Y0001852963D01*
X0001341491Y0001853621D01*
X0001337774Y0001856672D01*
X0001334724Y0001860389D01*
X0001334594Y0001860631D01*
X0001332457Y0001864629D01*
X0001331061Y0001869230D01*
X0001330860Y0001871277D01*
X0001330708Y0001872817D01*
X0001330708Y0001906710D01*
X0001331061Y0001910296D01*
X0001331061Y0001910297D01*
X0001332457Y0001914897D01*
X0001334724Y0001919138D01*
X0001337774Y0001922855D01*
X0001341491Y0001925905D01*
X0001341491Y0001925905D01*
X0001341491Y0001925905D01*
X0001342722Y0001926563D01*
X0001345731Y0001928172D01*
X0001350333Y0001929567D01*
X0001355118Y0001930039D01*
X0001359903Y0001929567D01*
G37*
G04 next file*
G04 #@! TF.GenerationSoftware,KiCad,Pcbnew,5.1.5+dfsg1-2build2*
G04 #@! TF.CreationDate,2021-02-18T18:31:01+01:00*
G04 #@! TF.ProjectId,Edgerails,45646765-7261-4696-9c73-2e6b69636164,rev?*
G04 #@! TF.SameCoordinates,Original*
G04 #@! TF.FileFunction,Soldermask,Bot*
G04 #@! TF.FilePolarity,Negative*
G04 Gerber Fmt 4.6, Leading zero omitted, Abs format (unit mm)*
G04 Created by KiCad (PCBNEW 5.1.5+dfsg1-2build2) date 2021-02-18 18:31:01*
G04 APERTURE LIST*
G04 APERTURE END LIST*
D21*
G36*
X0000083555Y0001913974D02*
G01*
X0000085940Y0001913500D01*
X0000088186Y0001912569D01*
X0000090432Y0001911639D01*
X0000094475Y0001908937D01*
X0000097914Y0001905499D01*
X0000100615Y0001901456D01*
X0000102476Y0001896964D01*
X0000103425Y0001892195D01*
X0000103425Y0001887332D01*
X0000102476Y0001882563D01*
X0000100615Y0001878070D01*
X0000097914Y0001874028D01*
X0000094475Y0001870589D01*
X0000090432Y0001867888D01*
X0000088186Y0001866957D01*
X0000085940Y0001866027D01*
X0000083555Y0001865553D01*
X0000081171Y0001865078D01*
X0000076308Y0001865078D01*
X0000073924Y0001865553D01*
X0000071539Y0001866027D01*
X0000069293Y0001866957D01*
X0000067047Y0001867888D01*
X0000063004Y0001870589D01*
X0000059565Y0001874028D01*
X0000056864Y0001878070D01*
X0000055003Y0001882563D01*
X0000054055Y0001887332D01*
X0000054055Y0001892195D01*
X0000055003Y0001896964D01*
X0000056864Y0001901456D01*
X0000059565Y0001905499D01*
X0000063004Y0001908937D01*
X0000067047Y0001911639D01*
X0000069293Y0001912569D01*
X0000071539Y0001913500D01*
X0000073924Y0001913974D01*
X0000076308Y0001914448D01*
X0000081171Y0001914448D01*
X0000083555Y0001913974D01*
G37*
G04 next file*
G04 #@! TF.GenerationSoftware,KiCad,Pcbnew,5.1.5+dfsg1-2build2*
G04 #@! TF.CreationDate,2021-02-18T18:31:01+01:00*
G04 #@! TF.ProjectId,Edgerails,45646765-7261-4696-9c73-2e6b69636164,rev?*
G04 #@! TF.SameCoordinates,Original*
G04 #@! TF.FileFunction,Soldermask,Bot*
G04 #@! TF.FilePolarity,Negative*
G04 Gerber Fmt 4.6, Leading zero omitted, Abs format (unit mm)*
G04 Created by KiCad (PCBNEW 5.1.5+dfsg1-2build2) date 2021-02-18 18:31:01*
G04 APERTURE LIST*
G04 APERTURE END LIST*
D22*
G36*
X0002436129Y0000054529D02*
G01*
X0002433744Y0000055003D01*
X0002431498Y0000055934D01*
X0002429252Y0000056864D01*
X0002425209Y0000059565D01*
X0002421770Y0000063004D01*
X0002419069Y0000067047D01*
X0002417208Y0000071539D01*
X0002416259Y0000076308D01*
X0002416259Y0000081171D01*
X0002417208Y0000085940D01*
X0002419069Y0000090432D01*
X0002421770Y0000094475D01*
X0002425209Y0000097914D01*
X0002429252Y0000100615D01*
X0002431498Y0000101546D01*
X0002433744Y0000102476D01*
X0002436129Y0000102950D01*
X0002438513Y0000103425D01*
X0002443376Y0000103425D01*
X0002445760Y0000102950D01*
X0002448145Y0000102476D01*
X0002450391Y0000101546D01*
X0002452637Y0000100615D01*
X0002456680Y0000097914D01*
X0002460119Y0000094475D01*
X0002462820Y0000090432D01*
X0002464681Y0000085940D01*
X0002465629Y0000081171D01*
X0002465629Y0000076308D01*
X0002464681Y0000071539D01*
X0002462820Y0000067047D01*
X0002460119Y0000063004D01*
X0002456680Y0000059565D01*
X0002452637Y0000056864D01*
X0002450391Y0000055934D01*
X0002448145Y0000055003D01*
X0002445760Y0000054529D01*
X0002443376Y0000054055D01*
X0002438513Y0000054055D01*
X0002436129Y0000054529D01*
G37*
M02*