%
M48
METRIC,000.000
T01C0.50
%
T01
X010831Y038762
X010303Y037913
X009808Y037043
X009349Y036155
X008925Y035250
X008537Y034328
X004250Y035607
X004250Y036607
X004250Y037607
X004250Y038607
X004250Y039607
X004250Y040607
X008880Y014850
X009301Y013943
X009756Y013053
X010246Y012181
X010771Y011330
X004250Y009607
X004250Y010607
X004250Y011607
X004250Y012607
X004250Y013607
X004250Y014607
X055309Y034707
X054906Y035622
X054468Y036520
X053994Y037401
X053485Y038262
X059750Y040178
X059750Y039178
X059750Y038178
X059750Y037178
X059750Y036178
X059750Y035178
X053447Y011675
X053958Y012535
X054434Y013414
X054875Y014311
X055281Y015225
X059750Y014178
X059750Y013178
X059750Y012178
X059750Y011178
X059750Y010178
X059750Y009178
M30