%
M48
METRIC,000.000
T01C0.65
T02C1.20
T10C0.20
T11C0.30
T12C0.50
T13C0.60
T14C0.80
T15C1.15
%
T01
X029109Y006755
X034890Y006755
T02
X023000Y043648
X023000Y037649
X040999Y043648
X040999Y037649
X031999Y046699
X031999Y040699
T10
X008156Y031207
X008459Y027138
X008459Y026285
X008459Y025480
X008459Y024649
X008464Y027969
X008489Y022820
X008695Y029630
X008705Y028800
X008774Y030461
X008799Y032051
X009050Y022820
X009274Y033100
X009299Y032051
X009650Y019300
X010549Y032399
X010600Y031799
X010750Y017999
X011639Y035030
X013099Y032299
X013600Y032598
X013600Y031949
X014024Y029976
X014400Y027900
X014610Y020799
X014798Y025899
X014824Y018439
X014948Y029574
X015007Y026420
X015050Y021825
X015050Y021149
X015474Y020689
X015499Y026801
X015875Y021124
X016132Y032815
X016599Y039099
X016775Y029574
X017199Y033750
X017648Y030324
X017648Y020174
X017849Y040699
X018550Y020425
X019025Y041400
X019449Y030499
X019449Y020423
X019594Y039155
X019599Y035000
X019749Y028350
X019825Y027550
X019825Y026199
X019868Y032589
X020569Y033168
X020630Y025625
X020689Y027900
X020750Y020999
X021039Y031210
X021349Y020999
X021974Y020974
X021974Y017050
X022025Y031301
X022025Y031850
X022139Y030499
X022324Y003699
X022500Y016699
X022561Y022036
X022624Y030989
X022799Y010999
X023000Y032299
X023325Y009198
X023399Y024250
X023399Y010999
X023399Y010400
X023470Y021642
X023498Y020222
X023526Y019358
X023536Y021080
X023574Y027298
X023600Y007949
X023800Y042698
X023899Y032201
X023998Y022300
X023998Y010999
X023998Y010400
X023998Y009800
X024389Y031649
X024410Y020260
X024499Y032299
X024699Y030824
X024798Y006750
X024925Y018723
X025060Y021558
X025080Y023930
X025469Y022869
X025598Y018723
X025598Y008701
X025637Y021451
X025659Y026620
X025726Y029259
X026236Y025363
X026249Y024050
X026274Y022737
X026368Y027418
X026548Y016199
X026625Y019275
X026782Y020687
X026782Y020037
X026825Y018774
X027125Y029579
X027199Y031599
X027298Y022749
X027425Y012899
X027430Y019612
X027450Y018949
X027537Y025363
X027549Y029214
X027549Y023725
X027562Y024687
X027648Y041799
X027900Y031200
X028149Y016248
X028177Y026249
X028189Y023125
X028194Y021444
X028250Y012899
X028299Y025246
X028332Y022584
X028349Y029501
X028550Y030776
X028550Y013999
X028598Y015800
X028850Y023725
X028974Y029475
X029020Y026011
X029099Y030776
X029210Y016709
X029325Y020799
X029579Y022671
X029579Y017281
X029599Y029399
X029609Y024591
X029609Y021990
X029680Y026209
X029957Y017743
X029995Y025746
X030150Y024929
X030216Y029335
X030668Y023280
X030673Y026023
X030686Y021568
X030772Y017926
X030828Y023816
X030849Y029346
X030925Y018749
X030935Y020321
X031014Y020875
X031298Y016498
X031324Y026125
X031400Y034050
X031451Y029346
X031603Y018962
X031849Y017850
X031959Y023275
X031974Y022625
X031982Y020687
X031989Y027410
X032098Y023951
X032247Y021972
X032351Y019343
X032423Y018690
X032631Y020037
X032799Y017900
X033249Y014525
X033285Y028060
X033300Y029374
X033351Y034024
X033508Y027189
X033650Y024304
X033998Y027677
X034125Y018175
X034148Y022772
X034174Y028309
X034214Y019874
X034265Y026816
X034849Y018408
X034880Y024385
X034880Y021340
X035299Y021759
X035400Y015249
X035449Y016750
X035479Y025584
X035774Y032025
X035949Y016750
X036000Y015249
X036180Y027629
X036228Y034222
X036409Y028248
X036749Y015399
X036805Y029399
X037219Y028299
X037641Y029501
X037994Y028830
X038004Y026976
X038900Y019775
X038900Y019125
X038918Y028071
X038931Y027446
X038931Y026869
X039259Y019450
X039274Y018800
X039500Y020250
X039871Y024431
X040450Y026389
X040501Y019849
X041100Y020148
X041225Y025548
X041400Y026978
X041400Y026402
X041514Y027850
X041766Y028675
X041799Y020148
X042350Y009775
X043048Y019300
X043650Y010926
X045456Y018784
X046300Y009198
X046800Y008800
X047001Y011898
X047300Y009198
X047966Y014629
X048100Y009198
X048499Y014649
X048601Y008800
X048624Y033323
X048624Y032073
X048890Y036900
X049000Y017499
X049099Y009198
X049325Y029976
X049350Y037453
X049398Y015889
X050198Y029600
X050595Y030694
X050600Y031401
X050600Y029998
X050950Y016849
X050950Y016248
X050950Y015650
X051199Y019351
X051799Y020100
X051974Y014250
T11
X007824Y022950
X008890Y020245
X008901Y019175
X010021Y014029
X010249Y020699
X010249Y019650
X011120Y015030
X011174Y022874
X011349Y029673
X012220Y016027
X012876Y022874
X013150Y029600
X013150Y019800
X013150Y019048
X013320Y017029
X014024Y028474
X014824Y023849
X015726Y024799
X015799Y028573
X016599Y023648
X016599Y022399
X016675Y021149
X016825Y027725
X017399Y005399
X017999Y016999
X018499Y006399
X019599Y007400
X019850Y022925
X019873Y021324
X019924Y024550
X020399Y017199
X020699Y008398
X021298Y013001
X022401Y014799
X022401Y006300
X022500Y005299
X022789Y004390
X022799Y013199
X023130Y004949
X023800Y002899
X024100Y006001
X024400Y003900
X024699Y015800
X024699Y014499
X024798Y007949
X025101Y009399
X025499Y034101
X025598Y011500
X025598Y003001
X025700Y006001
X026200Y039300
X026399Y037479
X026399Y035398
X027999Y010100
X028799Y009021
X028819Y005879
X029299Y010499
X029398Y012899
X030300Y010499
X030600Y013400
X030640Y006028
X031799Y037400
X032159Y030049
X032401Y036600
X032549Y012676
X032598Y016549
X032720Y029709
X033368Y006011
X033379Y009940
X033584Y029943
X034499Y035000
X035598Y036399
X035799Y017999
X036350Y009574
X036599Y018810
X036599Y017999
X037100Y008800
X037150Y021949
X037150Y021251
X037224Y024339
X037224Y023648
X037300Y019849
X037300Y018810
X037399Y017999
X037600Y007799
X037600Y006699
X039000Y034189
X039050Y021700
X039200Y007949
X039200Y006750
X039200Y004598
X039200Y003400
X039248Y017700
X039299Y011700
X039800Y013349
X039924Y034189
X040099Y017400
X040176Y023100
X040325Y022457
X040399Y007949
X040399Y006750
X040399Y004598
X040399Y003400
X040821Y022952
X040950Y021700
X041199Y011749
X041199Y008850
X041199Y008050
X041199Y007199
X041440Y022350
X041900Y021700
X041999Y008299
X042251Y023199
X042350Y006801
X042700Y016199
X042700Y015200
X042700Y014200
X042700Y013199
X042700Y008299
X042799Y023750
X042799Y022650
X043450Y026849
X043549Y023648
X043549Y022950
X043699Y016199
X043699Y015200
X043699Y014200
X043699Y013199
X043800Y009650
X043950Y022150
X043950Y021149
X043950Y020148
X044199Y027298
X044499Y007550
X044499Y006750
X044499Y006001
X044699Y016199
X044699Y015200
X044699Y014200
X044699Y013199
X044999Y034499
X045400Y035274
X045675Y009650
X045700Y016199
X045700Y015200
X045700Y014200
X045700Y013199
X045748Y006600
X045949Y039450
X045949Y038800
X045949Y038149
X046000Y008099
X046051Y020324
X046399Y007100
X046548Y037601
X046548Y036950
X046698Y025960
X046899Y020324
X047001Y006450
X047399Y026625
X047425Y025960
X047750Y020324
X048400Y007149
X048448Y011949
X048448Y011050
X048499Y020999
X048499Y020199
X048499Y019501
X049325Y035274
X049701Y008200
X049889Y019673
X050000Y010999
X050000Y009998
X050000Y009000
X050249Y028299
X050249Y026900
X050501Y035851
X050501Y035099
X050950Y028299
X050950Y026900
X050998Y010999
X051999Y010999
X052449Y019501
X052500Y018500
X052500Y017499
X052599Y032399
X053249Y016498
X053249Y015500
X053249Y014499
X053249Y013499
X053399Y032899
X053500Y019501
X054440Y028850
X054440Y028149
X054499Y019501
X054900Y032299
X055438Y028850
X055438Y028149
X055499Y019480
T12
X020579Y043648G85X020579Y044448
X020579Y036950G85X020579Y037751
X025200Y035249G85X025200Y036049
X025421Y044550G85X025421Y045350
X025421Y040948G85X025421Y041748
X038580Y043648G85X038580Y044448
X038580Y036950G85X038580Y037751
X043201Y035249G85X043201Y036049
X043419Y044550G85X043419Y045350
X043419Y040948G85X043419Y041748
X029579Y046699G85X029579Y047499
X029579Y039998G85X029579Y040799
X034199Y038299G85X034199Y039099
X034420Y047601G85X034420Y048401
X034420Y043999G85X034420Y044799
T13
X027679Y007834G85X027679Y006735
X027679Y003405G85X027679Y002805
X036320Y007834G85X036320Y006735
X036320Y003405G85X036320Y002805
T14
X013511Y040097
X014936Y041500
X016363Y042902
X017788Y044301
X029000Y011599
X030999Y011599
X033000Y011599
X034999Y011599
T15
X001998Y048001
X062001Y001998
M30