G04 #@! TF.GenerationSoftware,KiCad,Pcbnew,5.1.5+dfsg1-2build2*
G04 #@! TF.CreationDate,2021-02-19T16:57:28+01:00*
G04 #@! TF.ProjectId,OtterCastAudioV2,4f747465-7243-4617-9374-417564696f56,rev?*
G04 #@! TF.SameCoordinates,Original*
G04 #@! TF.FileFunction,Paste,Bot*
G04 #@! TF.FilePolarity,Positive*
%FSLAX46Y46*%
G04 Gerber Fmt 4.6, Leading zero omitted, Abs format (unit mm)*
G04 Created by KiCad (PCBNEW 5.1.5+dfsg1-2build2) date 2021-02-19 16:57:28*
%MOMM*%
%LPD*%
G04 APERTURE LIST*
%ADD10R,0.600000X3.500000*%
%ADD11R,3.280000X4.500000*%
%ADD12R,0.500000X0.600000*%
%ADD13C,0.100000*%
%ADD14R,1.550000X1.000000*%
%ADD15R,1.500000X1.500000*%
%ADD16R,1.750000X0.700000*%
%ADD17R,1.400000X0.800000*%
%ADD18R,1.000000X1.450000*%
%ADD19R,1.500000X0.800000*%
%ADD20R,1.500000X1.300000*%
%ADD21R,0.600000X0.900000*%
G04 APERTURE END LIST*
D10*
X114645000Y-93100000D03*
X112105000Y-93100000D03*
X113375000Y-93100000D03*
X109565000Y-93100000D03*
X110835000Y-93100000D03*
X107025000Y-93100000D03*
X108295000Y-93100000D03*
X105755000Y-93100000D03*
X115915000Y-93100000D03*
X104485000Y-93100000D03*
D11*
X103400000Y-110250000D03*
X116950000Y-110250000D03*
D12*
X80320000Y-92700000D03*
X79380000Y-92700000D03*
D13*
G36*
X87677240Y-109811302D02*
G01*
X88062912Y-110270928D01*
X87679890Y-110592322D01*
X87294218Y-110132696D01*
X87677240Y-109811302D01*
G37*
G36*
X85918043Y-109068252D02*
G01*
X87603341Y-107654119D01*
X88310407Y-108496768D01*
X86625109Y-109910901D01*
X85918043Y-109068252D01*
G37*
G36*
X87782127Y-111289781D02*
G01*
X89467425Y-109875648D01*
X90174491Y-110718297D01*
X88489193Y-112132430D01*
X87782127Y-111289781D01*
G37*
G36*
X85181951Y-110991314D02*
G01*
X86467526Y-112523403D01*
X85701481Y-113166190D01*
X84415906Y-111634101D01*
X85181951Y-110991314D01*
G37*
G36*
X81718049Y-116508686D02*
G01*
X80432474Y-114976597D01*
X81198519Y-114333810D01*
X82484094Y-115865899D01*
X81718049Y-116508686D01*
G37*
G36*
X90347050Y-108745932D02*
G01*
X89197984Y-109710114D01*
X88876590Y-109327091D01*
X88654437Y-109513500D01*
X88782994Y-109666709D01*
X88399972Y-109988102D01*
X88014300Y-109528476D01*
X88397322Y-109207082D01*
X88525879Y-109360291D01*
X88748032Y-109173882D01*
X88426638Y-108790860D01*
X89575705Y-107826679D01*
X90347050Y-108745932D01*
G37*
D14*
X91250000Y-94225000D03*
D15*
X80575000Y-94175000D03*
D16*
X80450000Y-96625000D03*
X80450000Y-97725000D03*
X80450000Y-98825000D03*
X80450000Y-99925000D03*
X80450000Y-101025000D03*
X80450000Y-102125000D03*
X80450000Y-103225000D03*
D17*
X88825000Y-93825000D03*
D18*
X89675000Y-105450000D03*
D19*
X88175000Y-105775000D03*
D20*
X80575000Y-105525000D03*
D16*
X80450000Y-104325000D03*
D21*
X95600000Y-99600000D03*
X97100000Y-99600000D03*
D13*
G36*
X98232305Y-99493431D02*
G01*
X98656569Y-99917695D01*
X98303015Y-100271249D01*
X97878751Y-99846985D01*
X98232305Y-99493431D01*
G37*
G36*
X98896985Y-98828751D02*
G01*
X99321249Y-99253015D01*
X98967695Y-99606569D01*
X98543431Y-99182305D01*
X98896985Y-98828751D01*
G37*
D12*
X95580000Y-100600000D03*
X96520000Y-100600000D03*
M02*
