G04 #@! TF.GenerationSoftware,KiCad,Pcbnew,5.1.5+dfsg1-2build2*
G04 #@! TF.CreationDate,2021-02-19T16:57:28+01:00*
G04 #@! TF.ProjectId,OtterCastAudioV2,4f747465-7243-4617-9374-417564696f56,rev?*
G04 #@! TF.SameCoordinates,Original*
G04 #@! TF.FileFunction,Soldermask,Bot*
G04 #@! TF.FilePolarity,Negative*
%FSLAX46Y46*%
G04 Gerber Fmt 4.6, Leading zero omitted, Abs format (unit mm)*
G04 Created by KiCad (PCBNEW 5.1.5+dfsg1-2build2) date 2021-02-19 16:57:28*
%MOMM*%
%LPD*%
G04 APERTURE LIST*
%ADD10C,0.100000*%
G04 APERTURE END LIST*
D10*
G36*
X95781937Y-121082524D02*
G01*
X95879957Y-121112258D01*
X95879960Y-121112260D01*
X95879961Y-121112260D01*
X95970295Y-121160544D01*
X96049475Y-121225525D01*
X96114456Y-121304705D01*
X96162740Y-121395038D01*
X96162742Y-121395042D01*
X96192476Y-121493062D01*
X96200000Y-121569455D01*
X96200000Y-122220545D01*
X96192476Y-122296938D01*
X96162742Y-122394958D01*
X96162740Y-122394961D01*
X96162740Y-122394962D01*
X96114456Y-122485295D01*
X96049475Y-122564475D01*
X95970295Y-122629456D01*
X95879962Y-122677740D01*
X95879958Y-122677742D01*
X95781938Y-122707476D01*
X95680000Y-122717516D01*
X95578063Y-122707476D01*
X95480043Y-122677742D01*
X95480039Y-122677740D01*
X95389706Y-122629456D01*
X95310526Y-122564475D01*
X95245545Y-122485295D01*
X95197260Y-122394962D01*
X95189523Y-122369456D01*
X95167525Y-122296938D01*
X95165679Y-122278196D01*
X95160000Y-122220541D01*
X95160000Y-121569455D01*
X95167524Y-121493063D01*
X95197258Y-121395043D01*
X95197261Y-121395038D01*
X95245544Y-121304705D01*
X95310525Y-121225525D01*
X95389705Y-121160544D01*
X95480038Y-121112260D01*
X95480039Y-121112260D01*
X95480042Y-121112258D01*
X95578062Y-121082524D01*
X95680000Y-121072484D01*
X95781937Y-121082524D01*
G37*
G36*
X104421937Y-121082524D02*
G01*
X104519957Y-121112258D01*
X104519960Y-121112260D01*
X104519961Y-121112260D01*
X104610295Y-121160544D01*
X104689475Y-121225525D01*
X104754456Y-121304705D01*
X104802740Y-121395038D01*
X104802742Y-121395042D01*
X104832476Y-121493062D01*
X104840000Y-121569455D01*
X104840000Y-122220545D01*
X104832476Y-122296938D01*
X104802742Y-122394958D01*
X104802740Y-122394961D01*
X104802740Y-122394962D01*
X104754456Y-122485295D01*
X104689475Y-122564475D01*
X104610295Y-122629456D01*
X104519962Y-122677740D01*
X104519958Y-122677742D01*
X104421938Y-122707476D01*
X104320000Y-122717516D01*
X104218063Y-122707476D01*
X104120043Y-122677742D01*
X104120039Y-122677740D01*
X104029706Y-122629456D01*
X103950526Y-122564475D01*
X103885545Y-122485295D01*
X103837260Y-122394962D01*
X103829523Y-122369456D01*
X103807525Y-122296938D01*
X103805679Y-122278196D01*
X103800000Y-122220541D01*
X103800000Y-121569455D01*
X103807524Y-121493063D01*
X103837258Y-121395043D01*
X103837261Y-121395038D01*
X103885544Y-121304705D01*
X103950525Y-121225525D01*
X104029705Y-121160544D01*
X104120038Y-121112260D01*
X104120039Y-121112260D01*
X104120042Y-121112258D01*
X104218062Y-121082524D01*
X104320000Y-121072484D01*
X104421937Y-121082524D01*
G37*
G36*
X108800000Y-122000000D02*
G01*
X106800000Y-122000000D01*
X106800000Y-120000000D01*
X108800000Y-120000000D01*
X108800000Y-122000000D01*
G37*
G36*
X95781937Y-116652524D02*
G01*
X95879957Y-116682258D01*
X95879960Y-116682260D01*
X95879961Y-116682260D01*
X95970295Y-116730544D01*
X96049475Y-116795525D01*
X96114456Y-116874705D01*
X96162740Y-116965038D01*
X96162742Y-116965042D01*
X96192476Y-117063062D01*
X96200000Y-117139455D01*
X96200000Y-118290545D01*
X96192476Y-118366938D01*
X96162742Y-118464958D01*
X96162740Y-118464961D01*
X96162740Y-118464962D01*
X96114456Y-118555295D01*
X96049475Y-118634475D01*
X95970295Y-118699456D01*
X95879962Y-118747740D01*
X95879958Y-118747742D01*
X95781938Y-118777476D01*
X95680000Y-118787516D01*
X95578063Y-118777476D01*
X95480043Y-118747742D01*
X95480039Y-118747740D01*
X95389706Y-118699456D01*
X95310526Y-118634475D01*
X95245545Y-118555295D01*
X95197261Y-118464962D01*
X95197261Y-118464961D01*
X95197259Y-118464958D01*
X95167525Y-118366938D01*
X95160001Y-118290545D01*
X95160000Y-117139456D01*
X95167524Y-117063063D01*
X95197258Y-116965043D01*
X95197261Y-116965038D01*
X95245544Y-116874705D01*
X95310525Y-116795525D01*
X95389705Y-116730544D01*
X95480038Y-116682260D01*
X95480039Y-116682260D01*
X95480042Y-116682258D01*
X95578062Y-116652524D01*
X95680000Y-116642484D01*
X95781937Y-116652524D01*
G37*
G36*
X104421937Y-116652524D02*
G01*
X104519957Y-116682258D01*
X104519960Y-116682260D01*
X104519961Y-116682260D01*
X104610295Y-116730544D01*
X104689475Y-116795525D01*
X104754456Y-116874705D01*
X104802740Y-116965038D01*
X104802742Y-116965042D01*
X104832476Y-117063062D01*
X104840000Y-117139455D01*
X104840000Y-118290545D01*
X104832476Y-118366938D01*
X104802742Y-118464958D01*
X104802740Y-118464961D01*
X104802740Y-118464962D01*
X104754456Y-118555295D01*
X104689475Y-118634475D01*
X104610295Y-118699456D01*
X104519962Y-118747740D01*
X104519958Y-118747742D01*
X104421938Y-118777476D01*
X104320000Y-118787516D01*
X104218063Y-118777476D01*
X104120043Y-118747742D01*
X104120039Y-118747740D01*
X104029706Y-118699456D01*
X103950526Y-118634475D01*
X103885545Y-118555295D01*
X103837261Y-118464962D01*
X103837261Y-118464961D01*
X103837259Y-118464958D01*
X103807525Y-118366938D01*
X103800001Y-118290545D01*
X103800000Y-117139456D01*
X103807524Y-117063063D01*
X103837258Y-116965043D01*
X103837261Y-116965038D01*
X103885544Y-116874705D01*
X103950525Y-116795525D01*
X104029705Y-116730544D01*
X104120038Y-116682260D01*
X104120039Y-116682260D01*
X104120042Y-116682258D01*
X104218062Y-116652524D01*
X104320000Y-116642484D01*
X104421937Y-116652524D01*
G37*
G36*
X93200000Y-118650000D02*
G01*
X91200000Y-118650000D01*
X91200000Y-116650000D01*
X93200000Y-116650000D01*
X93200000Y-118650000D01*
G37*
G36*
X108800000Y-118650000D02*
G01*
X106800000Y-118650000D01*
X106800000Y-116650000D01*
X108800000Y-116650000D01*
X108800000Y-118650000D01*
G37*
G36*
X102990633Y-117913258D02*
G01*
X103022026Y-117926262D01*
X103053418Y-117939264D01*
X103109925Y-117977022D01*
X103157978Y-118025075D01*
X103195736Y-118081582D01*
X103208738Y-118112974D01*
X103221742Y-118144367D01*
X103235000Y-118211020D01*
X103235000Y-118278980D01*
X103221742Y-118345633D01*
X103212917Y-118366938D01*
X103195736Y-118408418D01*
X103157978Y-118464925D01*
X103109925Y-118512978D01*
X103053418Y-118550736D01*
X103022026Y-118563739D01*
X102990633Y-118576742D01*
X102923980Y-118590000D01*
X102856020Y-118590000D01*
X102789367Y-118576742D01*
X102757974Y-118563739D01*
X102726582Y-118550736D01*
X102670075Y-118512978D01*
X102622022Y-118464925D01*
X102584264Y-118408418D01*
X102567083Y-118366938D01*
X102558258Y-118345633D01*
X102545000Y-118278980D01*
X102545000Y-118211020D01*
X102558258Y-118144367D01*
X102571261Y-118112974D01*
X102584264Y-118081582D01*
X102622022Y-118025075D01*
X102670075Y-117977022D01*
X102726582Y-117939264D01*
X102757974Y-117926262D01*
X102789367Y-117913258D01*
X102856020Y-117900000D01*
X102923980Y-117900000D01*
X102990633Y-117913258D01*
G37*
G36*
X97210633Y-117913258D02*
G01*
X97242026Y-117926262D01*
X97273418Y-117939264D01*
X97329925Y-117977022D01*
X97377978Y-118025075D01*
X97415736Y-118081582D01*
X97428738Y-118112974D01*
X97441742Y-118144367D01*
X97455000Y-118211020D01*
X97455000Y-118278980D01*
X97441742Y-118345633D01*
X97432917Y-118366938D01*
X97415736Y-118408418D01*
X97377978Y-118464925D01*
X97329925Y-118512978D01*
X97273418Y-118550736D01*
X97242026Y-118563739D01*
X97210633Y-118576742D01*
X97143980Y-118590000D01*
X97076020Y-118590000D01*
X97009367Y-118576742D01*
X96977974Y-118563739D01*
X96946582Y-118550736D01*
X96890075Y-118512978D01*
X96842022Y-118464925D01*
X96804264Y-118408418D01*
X96787083Y-118366938D01*
X96778258Y-118345633D01*
X96765000Y-118278980D01*
X96765000Y-118211020D01*
X96778258Y-118144367D01*
X96791261Y-118112974D01*
X96804264Y-118081582D01*
X96842022Y-118025075D01*
X96890075Y-117977022D01*
X96946582Y-117939264D01*
X96977974Y-117926262D01*
X97009367Y-117913258D01*
X97076020Y-117900000D01*
X97143980Y-117900000D01*
X97210633Y-117913258D01*
G37*
G36*
X82512271Y-115868364D02*
G01*
X81715584Y-116536863D01*
X80404297Y-114974132D01*
X81200984Y-114305633D01*
X82512271Y-115868364D01*
G37*
G36*
X101202724Y-112731708D02*
G01*
X101329206Y-112784099D01*
X101443037Y-112860158D01*
X101539842Y-112956963D01*
X101615901Y-113070794D01*
X101668292Y-113197276D01*
X101695000Y-113331548D01*
X101695000Y-113468452D01*
X101668292Y-113602724D01*
X101615901Y-113729206D01*
X101539842Y-113843037D01*
X101443037Y-113939842D01*
X101329206Y-114015901D01*
X101202724Y-114068292D01*
X101068452Y-114095000D01*
X100931548Y-114095000D01*
X100797276Y-114068292D01*
X100670794Y-114015901D01*
X100556963Y-113939842D01*
X100460158Y-113843037D01*
X100384099Y-113729206D01*
X100331708Y-113602724D01*
X100305000Y-113468452D01*
X100305000Y-113331548D01*
X100331708Y-113197276D01*
X100384099Y-113070794D01*
X100460158Y-112956963D01*
X100556963Y-112860158D01*
X100670794Y-112784099D01*
X100797276Y-112731708D01*
X100931548Y-112705000D01*
X101068452Y-112705000D01*
X101202724Y-112731708D01*
G37*
G36*
X99202724Y-112731708D02*
G01*
X99329206Y-112784099D01*
X99443037Y-112860158D01*
X99539842Y-112956963D01*
X99615901Y-113070794D01*
X99668292Y-113197276D01*
X99695000Y-113331548D01*
X99695000Y-113468452D01*
X99668292Y-113602724D01*
X99615901Y-113729206D01*
X99539842Y-113843037D01*
X99443037Y-113939842D01*
X99329206Y-114015901D01*
X99202724Y-114068292D01*
X99068452Y-114095000D01*
X98931548Y-114095000D01*
X98797276Y-114068292D01*
X98670794Y-114015901D01*
X98556963Y-113939842D01*
X98460158Y-113843037D01*
X98384099Y-113729206D01*
X98331708Y-113602724D01*
X98305000Y-113468452D01*
X98305000Y-113331548D01*
X98331708Y-113197276D01*
X98384099Y-113070794D01*
X98460158Y-112956963D01*
X98556963Y-112860158D01*
X98670794Y-112784099D01*
X98797276Y-112731708D01*
X98931548Y-112705000D01*
X99068452Y-112705000D01*
X99202724Y-112731708D01*
G37*
G36*
X103695000Y-114095000D02*
G01*
X102305000Y-114095000D01*
X102305000Y-112705000D01*
X103695000Y-112705000D01*
X103695000Y-114095000D01*
G37*
G36*
X97202724Y-112731708D02*
G01*
X97329206Y-112784099D01*
X97443037Y-112860158D01*
X97539842Y-112956963D01*
X97615901Y-113070794D01*
X97668292Y-113197276D01*
X97695000Y-113331548D01*
X97695000Y-113468452D01*
X97668292Y-113602724D01*
X97615901Y-113729206D01*
X97539842Y-113843037D01*
X97443037Y-113939842D01*
X97329206Y-114015901D01*
X97202724Y-114068292D01*
X97068452Y-114095000D01*
X96931548Y-114095000D01*
X96797276Y-114068292D01*
X96670794Y-114015901D01*
X96556963Y-113939842D01*
X96460158Y-113843037D01*
X96384099Y-113729206D01*
X96331708Y-113602724D01*
X96305000Y-113468452D01*
X96305000Y-113331548D01*
X96331708Y-113197276D01*
X96384099Y-113070794D01*
X96460158Y-112956963D01*
X96556963Y-112860158D01*
X96670794Y-112784099D01*
X96797276Y-112731708D01*
X96931548Y-112705000D01*
X97068452Y-112705000D01*
X97202724Y-112731708D01*
G37*
G36*
X88091089Y-110273394D02*
G01*
X87677425Y-110620499D01*
X87564933Y-110486436D01*
X87561435Y-110483013D01*
X87557330Y-110480335D01*
X87552783Y-110478509D01*
X87547966Y-110477605D01*
X87543065Y-110477659D01*
X87538270Y-110478667D01*
X87533763Y-110480592D01*
X87529720Y-110483358D01*
X87366281Y-110620499D01*
X85936344Y-111820359D01*
X85932917Y-111823862D01*
X85930239Y-111827966D01*
X85928413Y-111832514D01*
X85927509Y-111837330D01*
X85927563Y-111842231D01*
X85928571Y-111847026D01*
X85930496Y-111851533D01*
X85933263Y-111855578D01*
X86495703Y-112525868D01*
X85699016Y-113194367D01*
X84387729Y-111631636D01*
X85184416Y-110963137D01*
X85746856Y-111633427D01*
X85750359Y-111636854D01*
X85754463Y-111639532D01*
X85759011Y-111641358D01*
X85763827Y-111642262D01*
X85768728Y-111642208D01*
X85773523Y-111641200D01*
X85778030Y-111639275D01*
X85782075Y-111636508D01*
X87375449Y-110299508D01*
X87378876Y-110296005D01*
X87381554Y-110291901D01*
X87383380Y-110287353D01*
X87384284Y-110282537D01*
X87384230Y-110277636D01*
X87383222Y-110272841D01*
X87381297Y-110268334D01*
X87378530Y-110264289D01*
X87266041Y-110130230D01*
X87679705Y-109783125D01*
X88091089Y-110273394D01*
G37*
G36*
X105060000Y-112520000D02*
G01*
X101740000Y-112520000D01*
X101740000Y-107980000D01*
X105060000Y-107980000D01*
X105060000Y-112520000D01*
G37*
G36*
X118610000Y-112520000D02*
G01*
X115290000Y-112520000D01*
X115290000Y-107980000D01*
X118610000Y-107980000D01*
X118610000Y-112520000D01*
G37*
G36*
X89826817Y-110272841D02*
G01*
X90202668Y-110720762D01*
X90202668Y-110720763D01*
X88486728Y-112160607D01*
X88049279Y-111639275D01*
X87753950Y-111287316D01*
X87753950Y-111287315D01*
X89469890Y-109847471D01*
X89826817Y-110272841D01*
G37*
G36*
X89581329Y-107807385D02*
G01*
X89584984Y-107808852D01*
X89588284Y-107811006D01*
X89591985Y-107814627D01*
X90361746Y-108731992D01*
X90362445Y-108733014D01*
X90364670Y-108736266D01*
X90366217Y-108739889D01*
X90367028Y-108743744D01*
X90367071Y-108747684D01*
X90366344Y-108751556D01*
X90364877Y-108755211D01*
X90362723Y-108758511D01*
X90359102Y-108762212D01*
X89211924Y-109724810D01*
X89210902Y-109725509D01*
X89207650Y-109727734D01*
X89204027Y-109729281D01*
X89200172Y-109730092D01*
X89196232Y-109730135D01*
X89192360Y-109729408D01*
X89192044Y-109729281D01*
X89188705Y-109727941D01*
X89185405Y-109725787D01*
X89181704Y-109722166D01*
X88890167Y-109374725D01*
X88886664Y-109371298D01*
X88882560Y-109368620D01*
X88878012Y-109366794D01*
X88873196Y-109365890D01*
X88868295Y-109365944D01*
X88863500Y-109366952D01*
X88858993Y-109368877D01*
X88854948Y-109371644D01*
X88702071Y-109499923D01*
X88698644Y-109503426D01*
X88695966Y-109507530D01*
X88694140Y-109512078D01*
X88693236Y-109516894D01*
X88693290Y-109521795D01*
X88694298Y-109526590D01*
X88696223Y-109531097D01*
X88698990Y-109535142D01*
X88797690Y-109652769D01*
X88798389Y-109653791D01*
X88800614Y-109657043D01*
X88802161Y-109660666D01*
X88802972Y-109664521D01*
X88803015Y-109668461D01*
X88802288Y-109672333D01*
X88800821Y-109675988D01*
X88798667Y-109679288D01*
X88795046Y-109682989D01*
X88413912Y-110002798D01*
X88412890Y-110003497D01*
X88409638Y-110005722D01*
X88406015Y-110007269D01*
X88402160Y-110008080D01*
X88398220Y-110008123D01*
X88394348Y-110007396D01*
X88394032Y-110007269D01*
X88390693Y-110005929D01*
X88387393Y-110003775D01*
X88383692Y-110000154D01*
X87999604Y-109542416D01*
X87996681Y-109538143D01*
X87996680Y-109538142D01*
X87995133Y-109534519D01*
X87994322Y-109530664D01*
X87994279Y-109526724D01*
X87995006Y-109522852D01*
X87995430Y-109521795D01*
X87996473Y-109519197D01*
X87998627Y-109515897D01*
X88002248Y-109512196D01*
X88383382Y-109192386D01*
X88387655Y-109189463D01*
X88387656Y-109189462D01*
X88391279Y-109187915D01*
X88395134Y-109187104D01*
X88399074Y-109187061D01*
X88402946Y-109187788D01*
X88406601Y-109189255D01*
X88409901Y-109191409D01*
X88413602Y-109195030D01*
X88512302Y-109312657D01*
X88515804Y-109316084D01*
X88519909Y-109318762D01*
X88524456Y-109320588D01*
X88529273Y-109321492D01*
X88534173Y-109321438D01*
X88538969Y-109320430D01*
X88543476Y-109318505D01*
X88547521Y-109315738D01*
X88700398Y-109187459D01*
X88703825Y-109183956D01*
X88706503Y-109179852D01*
X88708329Y-109175304D01*
X88709233Y-109170488D01*
X88709179Y-109165587D01*
X88708171Y-109160792D01*
X88706246Y-109156285D01*
X88703479Y-109152240D01*
X88411942Y-108804800D01*
X88409019Y-108800527D01*
X88409018Y-108800526D01*
X88407471Y-108796903D01*
X88406660Y-108793048D01*
X88406617Y-108789108D01*
X88407344Y-108785236D01*
X88408811Y-108781581D01*
X88410965Y-108778281D01*
X88414586Y-108774580D01*
X89561765Y-107811983D01*
X89566038Y-107809060D01*
X89566039Y-107809059D01*
X89569662Y-107807512D01*
X89573517Y-107806701D01*
X89577457Y-107806658D01*
X89581329Y-107807385D01*
G37*
G36*
X87972195Y-108062588D02*
G01*
X88338584Y-108499233D01*
X88338584Y-108499234D01*
X86622644Y-109939078D01*
X86146511Y-109371644D01*
X85889866Y-109065787D01*
X85889866Y-109065786D01*
X87605806Y-107625942D01*
X87972195Y-108062588D01*
G37*
G36*
X90195000Y-106195000D02*
G01*
X89155000Y-106195000D01*
X89155000Y-104705000D01*
X90195000Y-104705000D01*
X90195000Y-106195000D01*
G37*
G36*
X88945000Y-106195000D02*
G01*
X87405000Y-106195000D01*
X87405000Y-105355000D01*
X88945000Y-105355000D01*
X88945000Y-106195000D01*
G37*
G36*
X81345000Y-106195000D02*
G01*
X79805000Y-106195000D01*
X79805000Y-104855000D01*
X81345000Y-104855000D01*
X81345000Y-106195000D01*
G37*
G36*
X81345000Y-104695000D02*
G01*
X79555000Y-104695000D01*
X79555000Y-103955000D01*
X81345000Y-103955000D01*
X81345000Y-104695000D01*
G37*
G36*
X81345000Y-103595000D02*
G01*
X79555000Y-103595000D01*
X79555000Y-102855000D01*
X81345000Y-102855000D01*
X81345000Y-103595000D01*
G37*
G36*
X81345000Y-102495000D02*
G01*
X79555000Y-102495000D01*
X79555000Y-101755000D01*
X81345000Y-101755000D01*
X81345000Y-102495000D01*
G37*
G36*
X81345000Y-101395000D02*
G01*
X79555000Y-101395000D01*
X79555000Y-100655000D01*
X81345000Y-100655000D01*
X81345000Y-101395000D01*
G37*
G36*
X96790000Y-100920000D02*
G01*
X96250000Y-100920000D01*
X96250000Y-100280000D01*
X96790000Y-100280000D01*
X96790000Y-100920000D01*
G37*
G36*
X95850000Y-100920000D02*
G01*
X95310000Y-100920000D01*
X95310000Y-100280000D01*
X95850000Y-100280000D01*
X95850000Y-100920000D01*
G37*
G36*
X98684853Y-99917695D02*
G01*
X98303015Y-100299533D01*
X97850467Y-99846985D01*
X98232305Y-99465147D01*
X98684853Y-99917695D01*
G37*
G36*
X81345000Y-100295000D02*
G01*
X79555000Y-100295000D01*
X79555000Y-99555000D01*
X81345000Y-99555000D01*
X81345000Y-100295000D01*
G37*
G36*
X97420000Y-100070000D02*
G01*
X96780000Y-100070000D01*
X96780000Y-99130000D01*
X97420000Y-99130000D01*
X97420000Y-100070000D01*
G37*
G36*
X95920000Y-100070000D02*
G01*
X95280000Y-100070000D01*
X95280000Y-99130000D01*
X95920000Y-99130000D01*
X95920000Y-100070000D01*
G37*
G36*
X99349533Y-99253015D02*
G01*
X98967695Y-99634853D01*
X98515147Y-99182305D01*
X98896985Y-98800467D01*
X99349533Y-99253015D01*
G37*
G36*
X81345000Y-99195000D02*
G01*
X79555000Y-99195000D01*
X79555000Y-98455000D01*
X81345000Y-98455000D01*
X81345000Y-99195000D01*
G37*
G36*
X81345000Y-98095000D02*
G01*
X79555000Y-98095000D01*
X79555000Y-97355000D01*
X81345000Y-97355000D01*
X81345000Y-98095000D01*
G37*
G36*
X81345000Y-96995000D02*
G01*
X79555000Y-96995000D01*
X79555000Y-96255000D01*
X81345000Y-96255000D01*
X81345000Y-96995000D01*
G37*
G36*
X81345000Y-94945000D02*
G01*
X79805000Y-94945000D01*
X79805000Y-93405000D01*
X81345000Y-93405000D01*
X81345000Y-94945000D01*
G37*
G36*
X106075000Y-94870000D02*
G01*
X105435000Y-94870000D01*
X105435000Y-91330000D01*
X106075000Y-91330000D01*
X106075000Y-94870000D01*
G37*
G36*
X107345000Y-94870000D02*
G01*
X106705000Y-94870000D01*
X106705000Y-91330000D01*
X107345000Y-91330000D01*
X107345000Y-94870000D01*
G37*
G36*
X108615000Y-94870000D02*
G01*
X107975000Y-94870000D01*
X107975000Y-91330000D01*
X108615000Y-91330000D01*
X108615000Y-94870000D01*
G37*
G36*
X109885000Y-94870000D02*
G01*
X109245000Y-94870000D01*
X109245000Y-91330000D01*
X109885000Y-91330000D01*
X109885000Y-94870000D01*
G37*
G36*
X112425000Y-94870000D02*
G01*
X111785000Y-94870000D01*
X111785000Y-91330000D01*
X112425000Y-91330000D01*
X112425000Y-94870000D01*
G37*
G36*
X113695000Y-94870000D02*
G01*
X113055000Y-94870000D01*
X113055000Y-91330000D01*
X113695000Y-91330000D01*
X113695000Y-94870000D01*
G37*
G36*
X114965000Y-94870000D02*
G01*
X114325000Y-94870000D01*
X114325000Y-91330000D01*
X114965000Y-91330000D01*
X114965000Y-94870000D01*
G37*
G36*
X116235000Y-94870000D02*
G01*
X115595000Y-94870000D01*
X115595000Y-91330000D01*
X116235000Y-91330000D01*
X116235000Y-94870000D01*
G37*
G36*
X104805000Y-94870000D02*
G01*
X104165000Y-94870000D01*
X104165000Y-91330000D01*
X104805000Y-91330000D01*
X104805000Y-94870000D01*
G37*
G36*
X111155000Y-94870000D02*
G01*
X110515000Y-94870000D01*
X110515000Y-91330000D01*
X111155000Y-91330000D01*
X111155000Y-94870000D01*
G37*
G36*
X92045000Y-94745000D02*
G01*
X90455000Y-94745000D01*
X90455000Y-93705000D01*
X92045000Y-93705000D01*
X92045000Y-94745000D01*
G37*
G36*
X89545000Y-94245000D02*
G01*
X88105000Y-94245000D01*
X88105000Y-93405000D01*
X89545000Y-93405000D01*
X89545000Y-94245000D01*
G37*
G36*
X80590000Y-93020000D02*
G01*
X80050000Y-93020000D01*
X80050000Y-92380000D01*
X80590000Y-92380000D01*
X80590000Y-93020000D01*
G37*
G36*
X79650000Y-93020000D02*
G01*
X79110000Y-93020000D01*
X79110000Y-92380000D01*
X79650000Y-92380000D01*
X79650000Y-93020000D01*
G37*
G36*
X93321541Y-88338972D02*
G01*
X93438415Y-88374425D01*
X93514854Y-88415283D01*
X93546120Y-88431995D01*
X93640527Y-88509473D01*
X93718005Y-88603880D01*
X93734717Y-88635146D01*
X93775575Y-88711585D01*
X93811028Y-88828459D01*
X93820000Y-88919553D01*
X93820000Y-89780447D01*
X93811028Y-89871541D01*
X93775575Y-89988415D01*
X93734717Y-90064854D01*
X93718005Y-90096120D01*
X93640527Y-90190527D01*
X93546119Y-90268005D01*
X93546117Y-90268006D01*
X93438414Y-90325575D01*
X93321540Y-90361028D01*
X93200000Y-90372999D01*
X93078459Y-90361028D01*
X92961585Y-90325575D01*
X92885146Y-90284717D01*
X92853880Y-90268005D01*
X92759473Y-90190527D01*
X92681995Y-90096119D01*
X92678703Y-90089959D01*
X92624425Y-89988414D01*
X92588972Y-89871540D01*
X92580000Y-89780446D01*
X92580000Y-88919553D01*
X92588972Y-88828455D01*
X92624424Y-88711590D01*
X92653211Y-88657734D01*
X92681996Y-88603880D01*
X92759474Y-88509473D01*
X92853881Y-88431995D01*
X92885147Y-88415283D01*
X92961586Y-88374425D01*
X93078460Y-88338972D01*
X93200000Y-88327001D01*
X93321541Y-88338972D01*
G37*
G36*
X111321541Y-88338972D02*
G01*
X111438415Y-88374425D01*
X111514854Y-88415283D01*
X111546120Y-88431995D01*
X111640527Y-88509473D01*
X111718005Y-88603880D01*
X111734717Y-88635146D01*
X111775575Y-88711585D01*
X111811028Y-88828459D01*
X111820000Y-88919553D01*
X111820000Y-89780447D01*
X111811028Y-89871541D01*
X111775575Y-89988415D01*
X111734717Y-90064854D01*
X111718005Y-90096120D01*
X111640527Y-90190527D01*
X111546119Y-90268005D01*
X111546117Y-90268006D01*
X111438414Y-90325575D01*
X111321540Y-90361028D01*
X111200000Y-90372999D01*
X111078459Y-90361028D01*
X110961585Y-90325575D01*
X110885146Y-90284717D01*
X110853880Y-90268005D01*
X110759473Y-90190527D01*
X110681995Y-90096119D01*
X110678703Y-90089959D01*
X110624425Y-89988414D01*
X110588972Y-89871540D01*
X110580000Y-89780446D01*
X110580000Y-88919553D01*
X110588972Y-88828455D01*
X110624424Y-88711590D01*
X110653211Y-88657734D01*
X110681996Y-88603880D01*
X110759474Y-88509473D01*
X110853881Y-88431995D01*
X110885147Y-88415283D01*
X110961586Y-88374425D01*
X111078460Y-88338972D01*
X111200000Y-88327001D01*
X111321541Y-88338972D01*
G37*
G36*
X106701541Y-86638972D02*
G01*
X106818415Y-86674425D01*
X106894854Y-86715283D01*
X106926120Y-86731995D01*
X107020527Y-86809473D01*
X107068900Y-86868415D01*
X107098004Y-86903879D01*
X107155575Y-87011585D01*
X107166050Y-87046117D01*
X107191028Y-87128459D01*
X107199848Y-87218004D01*
X107200000Y-87219553D01*
X107200000Y-88080447D01*
X107191028Y-88171541D01*
X107155575Y-88288415D01*
X107128551Y-88338972D01*
X107098005Y-88396120D01*
X107020527Y-88490527D01*
X106926119Y-88568005D01*
X106926117Y-88568006D01*
X106818414Y-88625575D01*
X106701540Y-88661028D01*
X106580000Y-88672999D01*
X106458459Y-88661028D01*
X106341585Y-88625575D01*
X106265146Y-88584717D01*
X106233880Y-88568005D01*
X106139473Y-88490527D01*
X106061995Y-88396119D01*
X106050399Y-88374424D01*
X106004425Y-88288414D01*
X105968972Y-88171540D01*
X105960000Y-88080446D01*
X105960000Y-87219553D01*
X105960153Y-87218004D01*
X105967783Y-87140527D01*
X105968972Y-87128455D01*
X106004424Y-87011590D01*
X106043537Y-86938415D01*
X106061996Y-86903880D01*
X106139474Y-86809473D01*
X106233881Y-86731995D01*
X106265147Y-86715283D01*
X106341586Y-86674425D01*
X106458460Y-86638972D01*
X106580000Y-86627001D01*
X106701541Y-86638972D01*
G37*
G36*
X88701541Y-86638972D02*
G01*
X88818415Y-86674425D01*
X88894854Y-86715283D01*
X88926120Y-86731995D01*
X89020527Y-86809473D01*
X89068900Y-86868415D01*
X89098004Y-86903879D01*
X89155575Y-87011585D01*
X89166050Y-87046117D01*
X89191028Y-87128459D01*
X89199848Y-87218004D01*
X89200000Y-87219553D01*
X89200000Y-88080447D01*
X89191028Y-88171541D01*
X89155575Y-88288415D01*
X89128551Y-88338972D01*
X89098005Y-88396120D01*
X89020527Y-88490527D01*
X88926119Y-88568005D01*
X88926117Y-88568006D01*
X88818414Y-88625575D01*
X88701540Y-88661028D01*
X88580000Y-88672999D01*
X88458459Y-88661028D01*
X88341585Y-88625575D01*
X88265146Y-88584717D01*
X88233880Y-88568005D01*
X88139473Y-88490527D01*
X88061995Y-88396119D01*
X88050399Y-88374424D01*
X88004425Y-88288414D01*
X87968972Y-88171540D01*
X87960000Y-88080446D01*
X87960000Y-87219553D01*
X87960153Y-87218004D01*
X87967783Y-87140527D01*
X87968972Y-87128455D01*
X88004424Y-87011590D01*
X88043537Y-86938415D01*
X88061996Y-86903880D01*
X88139474Y-86809473D01*
X88233881Y-86731995D01*
X88265147Y-86715283D01*
X88341586Y-86674425D01*
X88458460Y-86638972D01*
X88580000Y-86627001D01*
X88701541Y-86638972D01*
G37*
G36*
X109180847Y-86753826D02*
G01*
X109293680Y-86800563D01*
X109395227Y-86868414D01*
X109481586Y-86954773D01*
X109549437Y-87056320D01*
X109596174Y-87169153D01*
X109620000Y-87288935D01*
X109620000Y-87411065D01*
X109596174Y-87530847D01*
X109549437Y-87643680D01*
X109481586Y-87745227D01*
X109395227Y-87831586D01*
X109293680Y-87899437D01*
X109180847Y-87946174D01*
X109061065Y-87970000D01*
X108938935Y-87970000D01*
X108819153Y-87946174D01*
X108706320Y-87899437D01*
X108604773Y-87831586D01*
X108518414Y-87745227D01*
X108450563Y-87643680D01*
X108403826Y-87530847D01*
X108380000Y-87411065D01*
X108380000Y-87288935D01*
X108403826Y-87169153D01*
X108450563Y-87056320D01*
X108518414Y-86954773D01*
X108604773Y-86868414D01*
X108706320Y-86800563D01*
X108819153Y-86753826D01*
X108938935Y-86730000D01*
X109061065Y-86730000D01*
X109180847Y-86753826D01*
G37*
G36*
X91180847Y-86753826D02*
G01*
X91293680Y-86800563D01*
X91395227Y-86868414D01*
X91481586Y-86954773D01*
X91549437Y-87056320D01*
X91596174Y-87169153D01*
X91620000Y-87288935D01*
X91620000Y-87411065D01*
X91596174Y-87530847D01*
X91549437Y-87643680D01*
X91481586Y-87745227D01*
X91395227Y-87831586D01*
X91293680Y-87899437D01*
X91180847Y-87946174D01*
X91061065Y-87970000D01*
X90938935Y-87970000D01*
X90819153Y-87946174D01*
X90706320Y-87899437D01*
X90604773Y-87831586D01*
X90518414Y-87745227D01*
X90450563Y-87643680D01*
X90403826Y-87530847D01*
X90380000Y-87411065D01*
X90380000Y-87288935D01*
X90403826Y-87169153D01*
X90450563Y-87056320D01*
X90518414Y-86954773D01*
X90604773Y-86868414D01*
X90706320Y-86800563D01*
X90819153Y-86753826D01*
X90938935Y-86730000D01*
X91061065Y-86730000D01*
X91180847Y-86753826D01*
G37*
G36*
X102321541Y-85288972D02*
G01*
X102438415Y-85324425D01*
X102514854Y-85365283D01*
X102546120Y-85381995D01*
X102640527Y-85459473D01*
X102718005Y-85553880D01*
X102734717Y-85585146D01*
X102775575Y-85661585D01*
X102811027Y-85778455D01*
X102811028Y-85778459D01*
X102820000Y-85869551D01*
X102820000Y-86730449D01*
X102817697Y-86753827D01*
X102811028Y-86821541D01*
X102775575Y-86938415D01*
X102734717Y-87014854D01*
X102718005Y-87046120D01*
X102640527Y-87140527D01*
X102546119Y-87218005D01*
X102546117Y-87218006D01*
X102438414Y-87275575D01*
X102321540Y-87311028D01*
X102200000Y-87322999D01*
X102078459Y-87311028D01*
X102005634Y-87288937D01*
X101961585Y-87275575D01*
X101885146Y-87234717D01*
X101853880Y-87218005D01*
X101759473Y-87140527D01*
X101681995Y-87046119D01*
X101663539Y-87011590D01*
X101624425Y-86938414D01*
X101588972Y-86821540D01*
X101580000Y-86730448D01*
X101580000Y-85869551D01*
X101588972Y-85778459D01*
X101588972Y-85778455D01*
X101624424Y-85661590D01*
X101681996Y-85553880D01*
X101759474Y-85459473D01*
X101853881Y-85381995D01*
X101885147Y-85365283D01*
X101961586Y-85324425D01*
X102078460Y-85288972D01*
X102200000Y-85277001D01*
X102321541Y-85288972D01*
G37*
G36*
X82493090Y-84911305D02*
G01*
X81501672Y-85885569D01*
X80527408Y-84894151D01*
X81518826Y-83919887D01*
X82493090Y-84911305D01*
G37*
G36*
X97701541Y-83588972D02*
G01*
X97818415Y-83624425D01*
X97894854Y-83665283D01*
X97926120Y-83681995D01*
X98020527Y-83759473D01*
X98078502Y-83830115D01*
X98098004Y-83853879D01*
X98155575Y-83961585D01*
X98191027Y-84078455D01*
X98191028Y-84078459D01*
X98199966Y-84169201D01*
X98200000Y-84169553D01*
X98200000Y-85030447D01*
X98191028Y-85121541D01*
X98155575Y-85238415D01*
X98128551Y-85288972D01*
X98098005Y-85346120D01*
X98020527Y-85440527D01*
X97926119Y-85518005D01*
X97926117Y-85518006D01*
X97818414Y-85575575D01*
X97701540Y-85611028D01*
X97580000Y-85622999D01*
X97458459Y-85611028D01*
X97341585Y-85575575D01*
X97265146Y-85534717D01*
X97233880Y-85518005D01*
X97139473Y-85440527D01*
X97061995Y-85346119D01*
X97050399Y-85324424D01*
X97004425Y-85238414D01*
X96968972Y-85121540D01*
X96960000Y-85030446D01*
X96960000Y-84169553D01*
X96960035Y-84169201D01*
X96968972Y-84078459D01*
X96968972Y-84078455D01*
X97004424Y-83961590D01*
X97061997Y-83853879D01*
X97081500Y-83830115D01*
X97139474Y-83759473D01*
X97233881Y-83681995D01*
X97265147Y-83665283D01*
X97341586Y-83624425D01*
X97458460Y-83588972D01*
X97580000Y-83577001D01*
X97701541Y-83588972D01*
G37*
G36*
X100180847Y-83703826D02*
G01*
X100293680Y-83750563D01*
X100395227Y-83818414D01*
X100481586Y-83904773D01*
X100549437Y-84006320D01*
X100596174Y-84119153D01*
X100620000Y-84238935D01*
X100620000Y-84361065D01*
X100596174Y-84480847D01*
X100549437Y-84593680D01*
X100481586Y-84695227D01*
X100395227Y-84781586D01*
X100293680Y-84849437D01*
X100180847Y-84896174D01*
X100061065Y-84920000D01*
X99938935Y-84920000D01*
X99819153Y-84896174D01*
X99706320Y-84849437D01*
X99604773Y-84781586D01*
X99518414Y-84695227D01*
X99450563Y-84593680D01*
X99403826Y-84480847D01*
X99380000Y-84361065D01*
X99380000Y-84238935D01*
X99403826Y-84119153D01*
X99450563Y-84006320D01*
X99518414Y-83904773D01*
X99604773Y-83818414D01*
X99706320Y-83750563D01*
X99819153Y-83703826D01*
X99938935Y-83680000D01*
X100061065Y-83680000D01*
X100180847Y-83703826D01*
G37*
G36*
X93541541Y-82638972D02*
G01*
X93658415Y-82674425D01*
X93734309Y-82714992D01*
X93766120Y-82731995D01*
X93766122Y-82731996D01*
X93766121Y-82731996D01*
X93860527Y-82809473D01*
X93938004Y-82903879D01*
X93995575Y-83011585D01*
X94031028Y-83128459D01*
X94040000Y-83219553D01*
X94040000Y-84080447D01*
X94031028Y-84171541D01*
X93995575Y-84288415D01*
X93956743Y-84361063D01*
X93938005Y-84396120D01*
X93860527Y-84490527D01*
X93766119Y-84568005D01*
X93766117Y-84568006D01*
X93658414Y-84625575D01*
X93541540Y-84661028D01*
X93420000Y-84672999D01*
X93298459Y-84661028D01*
X93181585Y-84625575D01*
X93105146Y-84584717D01*
X93073880Y-84568005D01*
X92979473Y-84490527D01*
X92901995Y-84396119D01*
X92883257Y-84361063D01*
X92844425Y-84288414D01*
X92808972Y-84171540D01*
X92803812Y-84119152D01*
X92800000Y-84080448D01*
X92800000Y-83219551D01*
X92808972Y-83128459D01*
X92808972Y-83128455D01*
X92844424Y-83011590D01*
X92901997Y-82903879D01*
X92979474Y-82809473D01*
X93073880Y-82731996D01*
X93073879Y-82731996D01*
X93073881Y-82731995D01*
X93105692Y-82714992D01*
X93181586Y-82674425D01*
X93298460Y-82638972D01*
X93420000Y-82627001D01*
X93541541Y-82638972D01*
G37*
G36*
X111541541Y-82638972D02*
G01*
X111658415Y-82674425D01*
X111734309Y-82714992D01*
X111766120Y-82731995D01*
X111766122Y-82731996D01*
X111766121Y-82731996D01*
X111860527Y-82809473D01*
X111938004Y-82903879D01*
X111995575Y-83011585D01*
X112031028Y-83128459D01*
X112040000Y-83219553D01*
X112040000Y-84080447D01*
X112031028Y-84171541D01*
X111995575Y-84288415D01*
X111956743Y-84361063D01*
X111938005Y-84396120D01*
X111860527Y-84490527D01*
X111766119Y-84568005D01*
X111766117Y-84568006D01*
X111658414Y-84625575D01*
X111541540Y-84661028D01*
X111420000Y-84672999D01*
X111298459Y-84661028D01*
X111181585Y-84625575D01*
X111105146Y-84584717D01*
X111073880Y-84568005D01*
X110979473Y-84490527D01*
X110901995Y-84396119D01*
X110883257Y-84361063D01*
X110844425Y-84288414D01*
X110808972Y-84171540D01*
X110803812Y-84119152D01*
X110800000Y-84080448D01*
X110800000Y-83219551D01*
X110808972Y-83128459D01*
X110808972Y-83128455D01*
X110844424Y-83011590D01*
X110901997Y-82903879D01*
X110979474Y-82809473D01*
X111073880Y-82731996D01*
X111073879Y-82731996D01*
X111073881Y-82731995D01*
X111105692Y-82714992D01*
X111181586Y-82674425D01*
X111298460Y-82638972D01*
X111420000Y-82627001D01*
X111541541Y-82638972D01*
G37*
G36*
X83139474Y-82832617D02*
G01*
X83265956Y-82885008D01*
X83379787Y-82961067D01*
X83476592Y-83057872D01*
X83552651Y-83171703D01*
X83605042Y-83298185D01*
X83631750Y-83432457D01*
X83631750Y-83569361D01*
X83605042Y-83703633D01*
X83552651Y-83830115D01*
X83476592Y-83943946D01*
X83379787Y-84040751D01*
X83265956Y-84116810D01*
X83139474Y-84169201D01*
X83005202Y-84195909D01*
X82868298Y-84195909D01*
X82734026Y-84169201D01*
X82607544Y-84116810D01*
X82493713Y-84040751D01*
X82396908Y-83943946D01*
X82320849Y-83830115D01*
X82268458Y-83703633D01*
X82241750Y-83569361D01*
X82241750Y-83432457D01*
X82268458Y-83298185D01*
X82320849Y-83171703D01*
X82396908Y-83057872D01*
X82493713Y-82961067D01*
X82607544Y-82885008D01*
X82734026Y-82832617D01*
X82868298Y-82805909D01*
X83005202Y-82805909D01*
X83139474Y-82832617D01*
G37*
G36*
X84565974Y-81430799D02*
G01*
X84692456Y-81483190D01*
X84806287Y-81559249D01*
X84903092Y-81656054D01*
X84979151Y-81769885D01*
X85031542Y-81896367D01*
X85058250Y-82030639D01*
X85058250Y-82167543D01*
X85031542Y-82301815D01*
X84979151Y-82428297D01*
X84903092Y-82542128D01*
X84806287Y-82638933D01*
X84692456Y-82714992D01*
X84565974Y-82767383D01*
X84431702Y-82794091D01*
X84294798Y-82794091D01*
X84160526Y-82767383D01*
X84034044Y-82714992D01*
X83920213Y-82638933D01*
X83823408Y-82542128D01*
X83747349Y-82428297D01*
X83694958Y-82301815D01*
X83668250Y-82167543D01*
X83668250Y-82030639D01*
X83694958Y-81896367D01*
X83747349Y-81769885D01*
X83823408Y-81656054D01*
X83920213Y-81559249D01*
X84034044Y-81483190D01*
X84160526Y-81430799D01*
X84294798Y-81404091D01*
X84431702Y-81404091D01*
X84565974Y-81430799D01*
G37*
G36*
X106701541Y-79938972D02*
G01*
X106818415Y-79974425D01*
X106870512Y-80002272D01*
X106926120Y-80031995D01*
X106982736Y-80078459D01*
X107020527Y-80109473D01*
X107098004Y-80203879D01*
X107155575Y-80311585D01*
X107172708Y-80368066D01*
X107191028Y-80428459D01*
X107200000Y-80519551D01*
X107200000Y-81380449D01*
X107195041Y-81430799D01*
X107191028Y-81471541D01*
X107155575Y-81588415D01*
X107114717Y-81664854D01*
X107098005Y-81696120D01*
X107020527Y-81790527D01*
X106926119Y-81868005D01*
X106926117Y-81868006D01*
X106818414Y-81925575D01*
X106701540Y-81961028D01*
X106580000Y-81972999D01*
X106458459Y-81961028D01*
X106341585Y-81925575D01*
X106265146Y-81884717D01*
X106233880Y-81868005D01*
X106139473Y-81790527D01*
X106061995Y-81696119D01*
X106040580Y-81656054D01*
X106004425Y-81588414D01*
X105968972Y-81471540D01*
X105963016Y-81411065D01*
X105960000Y-81380448D01*
X105960000Y-80519551D01*
X105963851Y-80480448D01*
X105968972Y-80428455D01*
X106004424Y-80311590D01*
X106061997Y-80203879D01*
X106139474Y-80109473D01*
X106177265Y-80078459D01*
X106233881Y-80031995D01*
X106289489Y-80002272D01*
X106341586Y-79974425D01*
X106458460Y-79938972D01*
X106580000Y-79927001D01*
X106701541Y-79938972D01*
G37*
G36*
X88701541Y-79938972D02*
G01*
X88818415Y-79974425D01*
X88870512Y-80002272D01*
X88926120Y-80031995D01*
X88982736Y-80078459D01*
X89020527Y-80109473D01*
X89098004Y-80203879D01*
X89155575Y-80311585D01*
X89172708Y-80368066D01*
X89191028Y-80428459D01*
X89200000Y-80519551D01*
X89200000Y-81380449D01*
X89195041Y-81430799D01*
X89191028Y-81471541D01*
X89155575Y-81588415D01*
X89114717Y-81664854D01*
X89098005Y-81696120D01*
X89020527Y-81790527D01*
X88926119Y-81868005D01*
X88926117Y-81868006D01*
X88818414Y-81925575D01*
X88701540Y-81961028D01*
X88580000Y-81972999D01*
X88458459Y-81961028D01*
X88341585Y-81925575D01*
X88265146Y-81884717D01*
X88233880Y-81868005D01*
X88139473Y-81790527D01*
X88061995Y-81696119D01*
X88040580Y-81656054D01*
X88004425Y-81588414D01*
X87968972Y-81471540D01*
X87963016Y-81411065D01*
X87960000Y-81380448D01*
X87960000Y-80519551D01*
X87963851Y-80480448D01*
X87968972Y-80428455D01*
X88004424Y-80311590D01*
X88061997Y-80203879D01*
X88139474Y-80109473D01*
X88177265Y-80078459D01*
X88233881Y-80031995D01*
X88289489Y-80002272D01*
X88341586Y-79974425D01*
X88458460Y-79938972D01*
X88580000Y-79927001D01*
X88701541Y-79938972D01*
G37*
G36*
X91180847Y-80753826D02*
G01*
X91293680Y-80800563D01*
X91395227Y-80868414D01*
X91481586Y-80954773D01*
X91549437Y-81056320D01*
X91596174Y-81169153D01*
X91620000Y-81288935D01*
X91620000Y-81411065D01*
X91596174Y-81530847D01*
X91549437Y-81643680D01*
X91481586Y-81745227D01*
X91395227Y-81831586D01*
X91293680Y-81899437D01*
X91180847Y-81946174D01*
X91061065Y-81970000D01*
X90938935Y-81970000D01*
X90819153Y-81946174D01*
X90706320Y-81899437D01*
X90604773Y-81831586D01*
X90518414Y-81745227D01*
X90450563Y-81643680D01*
X90403826Y-81530847D01*
X90380000Y-81411065D01*
X90380000Y-81288935D01*
X90403826Y-81169153D01*
X90450563Y-81056320D01*
X90518414Y-80954773D01*
X90604773Y-80868414D01*
X90706320Y-80800563D01*
X90819153Y-80753826D01*
X90938935Y-80730000D01*
X91061065Y-80730000D01*
X91180847Y-80753826D01*
G37*
G36*
X109180847Y-80753826D02*
G01*
X109293680Y-80800563D01*
X109395227Y-80868414D01*
X109481586Y-80954773D01*
X109549437Y-81056320D01*
X109596174Y-81169153D01*
X109620000Y-81288935D01*
X109620000Y-81411065D01*
X109596174Y-81530847D01*
X109549437Y-81643680D01*
X109481586Y-81745227D01*
X109395227Y-81831586D01*
X109293680Y-81899437D01*
X109180847Y-81946174D01*
X109061065Y-81970000D01*
X108938935Y-81970000D01*
X108819153Y-81946174D01*
X108706320Y-81899437D01*
X108604773Y-81831586D01*
X108518414Y-81745227D01*
X108450563Y-81643680D01*
X108403826Y-81530847D01*
X108380000Y-81411065D01*
X108380000Y-81288935D01*
X108403826Y-81169153D01*
X108450563Y-81056320D01*
X108518414Y-80954773D01*
X108604773Y-80868414D01*
X108706320Y-80800563D01*
X108819153Y-80753826D01*
X108938935Y-80730000D01*
X109061065Y-80730000D01*
X109180847Y-80753826D01*
G37*
G36*
X102541541Y-79588972D02*
G01*
X102658415Y-79624425D01*
X102734854Y-79665283D01*
X102766120Y-79681995D01*
X102766122Y-79681996D01*
X102766121Y-79681996D01*
X102860527Y-79759473D01*
X102938004Y-79853879D01*
X102995575Y-79961585D01*
X103031028Y-80078459D01*
X103040000Y-80169553D01*
X103040000Y-81030447D01*
X103031028Y-81121541D01*
X102995575Y-81238415D01*
X102968571Y-81288935D01*
X102938005Y-81346120D01*
X102860527Y-81440527D01*
X102766119Y-81518005D01*
X102766117Y-81518006D01*
X102658414Y-81575575D01*
X102541540Y-81611028D01*
X102420000Y-81622999D01*
X102298459Y-81611028D01*
X102181585Y-81575575D01*
X102097906Y-81530847D01*
X102073880Y-81518005D01*
X101979473Y-81440527D01*
X101901995Y-81346119D01*
X101884385Y-81313173D01*
X101844425Y-81238414D01*
X101808972Y-81121540D01*
X101800000Y-81030446D01*
X101800000Y-80169553D01*
X101808972Y-80078455D01*
X101844424Y-79961590D01*
X101901997Y-79853879D01*
X101979474Y-79759473D01*
X102073880Y-79681996D01*
X102073879Y-79681996D01*
X102073881Y-79681995D01*
X102105147Y-79665283D01*
X102181586Y-79624425D01*
X102298460Y-79588972D01*
X102420000Y-79577001D01*
X102541541Y-79588972D01*
G37*
G36*
X85992475Y-80028980D02*
G01*
X86118957Y-80081371D01*
X86232788Y-80157430D01*
X86329593Y-80254235D01*
X86405652Y-80368066D01*
X86458043Y-80494548D01*
X86484751Y-80628820D01*
X86484751Y-80765724D01*
X86458043Y-80899996D01*
X86405652Y-81026478D01*
X86329593Y-81140309D01*
X86232788Y-81237114D01*
X86118957Y-81313173D01*
X85992475Y-81365564D01*
X85858203Y-81392272D01*
X85721299Y-81392272D01*
X85587027Y-81365564D01*
X85460545Y-81313173D01*
X85346714Y-81237114D01*
X85249909Y-81140309D01*
X85173850Y-81026478D01*
X85121459Y-80899996D01*
X85094751Y-80765724D01*
X85094751Y-80628820D01*
X85121459Y-80494548D01*
X85173850Y-80368066D01*
X85249909Y-80254235D01*
X85346714Y-80157430D01*
X85460545Y-80081371D01*
X85587027Y-80028980D01*
X85721299Y-80002272D01*
X85858203Y-80002272D01*
X85992475Y-80028980D01*
G37*
G36*
X93541541Y-79038972D02*
G01*
X93658415Y-79074425D01*
X93734854Y-79115283D01*
X93766120Y-79131995D01*
X93766122Y-79131996D01*
X93766121Y-79131996D01*
X93860527Y-79209473D01*
X93938004Y-79303879D01*
X93995575Y-79411585D01*
X94031028Y-79528459D01*
X94040000Y-79619553D01*
X94040000Y-80480447D01*
X94031028Y-80571541D01*
X93995575Y-80688415D01*
X93960611Y-80753827D01*
X93938005Y-80796120D01*
X93860527Y-80890527D01*
X93766119Y-80968005D01*
X93766117Y-80968006D01*
X93658414Y-81025575D01*
X93642346Y-81030449D01*
X93541540Y-81061028D01*
X93420000Y-81072999D01*
X93298459Y-81061028D01*
X93181585Y-81025575D01*
X93105146Y-80984717D01*
X93073880Y-80968005D01*
X92979473Y-80890527D01*
X92901995Y-80796119D01*
X92898703Y-80789959D01*
X92844425Y-80688414D01*
X92808972Y-80571540D01*
X92803852Y-80519553D01*
X92800000Y-80480448D01*
X92800000Y-79619551D01*
X92808972Y-79528459D01*
X92808972Y-79528455D01*
X92844424Y-79411590D01*
X92901997Y-79303879D01*
X92979474Y-79209473D01*
X93073880Y-79131996D01*
X93073879Y-79131996D01*
X93073881Y-79131995D01*
X93105147Y-79115283D01*
X93181586Y-79074425D01*
X93298460Y-79038972D01*
X93420000Y-79027001D01*
X93541541Y-79038972D01*
G37*
G36*
X111541541Y-79038972D02*
G01*
X111658415Y-79074425D01*
X111734854Y-79115283D01*
X111766120Y-79131995D01*
X111766122Y-79131996D01*
X111766121Y-79131996D01*
X111860527Y-79209473D01*
X111938004Y-79303879D01*
X111995575Y-79411585D01*
X112031028Y-79528459D01*
X112040000Y-79619553D01*
X112040000Y-80480447D01*
X112031028Y-80571541D01*
X111995575Y-80688415D01*
X111960611Y-80753827D01*
X111938005Y-80796120D01*
X111860527Y-80890527D01*
X111766119Y-80968005D01*
X111766117Y-80968006D01*
X111658414Y-81025575D01*
X111642346Y-81030449D01*
X111541540Y-81061028D01*
X111420000Y-81072999D01*
X111298459Y-81061028D01*
X111181585Y-81025575D01*
X111105146Y-80984717D01*
X111073880Y-80968005D01*
X110979473Y-80890527D01*
X110901995Y-80796119D01*
X110898703Y-80789959D01*
X110844425Y-80688414D01*
X110808972Y-80571540D01*
X110803852Y-80519553D01*
X110800000Y-80480448D01*
X110800000Y-79619551D01*
X110808972Y-79528459D01*
X110808972Y-79528455D01*
X110844424Y-79411590D01*
X110901997Y-79303879D01*
X110979474Y-79209473D01*
X111073880Y-79131996D01*
X111073879Y-79131996D01*
X111073881Y-79131995D01*
X111105147Y-79115283D01*
X111181586Y-79074425D01*
X111298460Y-79038972D01*
X111420000Y-79027001D01*
X111541541Y-79038972D01*
G37*
G36*
X97701541Y-76888972D02*
G01*
X97818415Y-76924425D01*
X97894854Y-76965283D01*
X97926120Y-76981995D01*
X97926122Y-76981996D01*
X97926121Y-76981996D01*
X98020527Y-77059473D01*
X98098004Y-77153879D01*
X98155575Y-77261585D01*
X98191027Y-77378455D01*
X98191028Y-77378459D01*
X98200000Y-77469551D01*
X98200000Y-78330449D01*
X98191028Y-78421540D01*
X98191028Y-78421541D01*
X98155575Y-78538415D01*
X98114717Y-78614854D01*
X98098005Y-78646120D01*
X98020527Y-78740527D01*
X97926119Y-78818005D01*
X97926117Y-78818006D01*
X97818414Y-78875575D01*
X97701540Y-78911028D01*
X97580000Y-78922999D01*
X97458459Y-78911028D01*
X97341585Y-78875575D01*
X97265146Y-78834717D01*
X97233880Y-78818005D01*
X97139473Y-78740527D01*
X97061995Y-78646119D01*
X97033966Y-78593680D01*
X97004425Y-78538414D01*
X96968972Y-78421540D01*
X96963016Y-78361065D01*
X96960000Y-78330448D01*
X96960000Y-77469551D01*
X96963851Y-77430448D01*
X96968972Y-77378455D01*
X97004424Y-77261590D01*
X97061997Y-77153879D01*
X97139474Y-77059473D01*
X97233880Y-76981996D01*
X97233879Y-76981996D01*
X97233881Y-76981995D01*
X97265147Y-76965283D01*
X97341586Y-76924425D01*
X97458460Y-76888972D01*
X97580000Y-76877001D01*
X97701541Y-76888972D01*
G37*
G36*
X100180847Y-77703826D02*
G01*
X100293680Y-77750563D01*
X100395227Y-77818414D01*
X100481586Y-77904773D01*
X100549437Y-78006320D01*
X100596174Y-78119153D01*
X100620000Y-78238935D01*
X100620000Y-78361065D01*
X100596174Y-78480847D01*
X100549437Y-78593680D01*
X100481586Y-78695227D01*
X100395227Y-78781586D01*
X100293680Y-78849437D01*
X100180847Y-78896174D01*
X100061065Y-78920000D01*
X99938935Y-78920000D01*
X99819153Y-78896174D01*
X99706320Y-78849437D01*
X99604773Y-78781586D01*
X99518414Y-78695227D01*
X99450563Y-78593680D01*
X99403826Y-78480847D01*
X99380000Y-78361065D01*
X99380000Y-78238935D01*
X99403826Y-78119153D01*
X99450563Y-78006320D01*
X99518414Y-77904773D01*
X99604773Y-77818414D01*
X99706320Y-77750563D01*
X99819153Y-77703826D01*
X99938935Y-77680000D01*
X100061065Y-77680000D01*
X100180847Y-77703826D01*
G37*
G36*
X102541541Y-75988972D02*
G01*
X102658415Y-76024425D01*
X102734854Y-76065283D01*
X102766120Y-76081995D01*
X102766122Y-76081996D01*
X102766121Y-76081996D01*
X102860527Y-76159473D01*
X102938004Y-76253879D01*
X102995575Y-76361585D01*
X103031028Y-76478459D01*
X103040000Y-76569553D01*
X103040000Y-77430447D01*
X103031028Y-77521541D01*
X102995575Y-77638415D01*
X102960611Y-77703827D01*
X102938005Y-77746120D01*
X102860527Y-77840527D01*
X102766119Y-77918005D01*
X102766117Y-77918006D01*
X102658414Y-77975575D01*
X102557060Y-78006320D01*
X102541540Y-78011028D01*
X102420000Y-78022999D01*
X102298459Y-78011028D01*
X102181585Y-77975575D01*
X102105146Y-77934717D01*
X102073880Y-77918005D01*
X101979473Y-77840527D01*
X101901995Y-77746119D01*
X101898703Y-77739959D01*
X101844425Y-77638414D01*
X101808972Y-77521540D01*
X101803852Y-77469553D01*
X101800000Y-77430448D01*
X101800000Y-76569551D01*
X101808972Y-76478459D01*
X101808972Y-76478455D01*
X101844424Y-76361590D01*
X101901997Y-76253879D01*
X101979474Y-76159473D01*
X102073880Y-76081996D01*
X102073879Y-76081996D01*
X102073881Y-76081995D01*
X102105147Y-76065283D01*
X102181586Y-76024425D01*
X102298460Y-75988972D01*
X102420000Y-75977001D01*
X102541541Y-75988972D01*
G37*
M02*
