M48
; DRILL file {KiCad 5.1.5+dfsg1-2build2} date Fri 19 Feb 2021 04:57:32 PM CET
; FORMAT={-:-/ absolute / inch / decimal}
; #@! TF.CreationDate,2021-02-19T16:57:32+01:00
; #@! TF.GenerationSoftware,Kicad,Pcbnew,5.1.5+dfsg1-2build2
; #@! TF.FileFunction,Plated,1,4,PTH
FMAT,2
INCH
T1C0.0079
T2C0.0118
T3C0.0197
T4C0.0236
T5C0.0315
%
G90
G05
T1
X2.9983Y-3.6926
X3.0102Y-3.8528
X3.0102Y-3.8864
X3.0102Y-3.9181
X3.0102Y-3.9508
X3.0104Y-3.8201
X3.0114Y-4.0228
X3.0195Y-3.7547
X3.0199Y-3.7874
X3.0226Y-3.722
X3.0236Y-3.6594
X3.0335Y-4.0228
X3.0423Y-3.6181
X3.0433Y-3.6594
X3.0571Y-4.1614
X3.0925Y-3.6457
X3.0945Y-3.6693
X3.1004Y-4.2126
X3.1354Y-3.5421
X3.1929Y-3.6496
X3.2126Y-3.6378
X3.2126Y-3.6634
X3.2293Y-3.7411
X3.2441Y-3.8228
X3.2524Y-4.1024
X3.2598Y-3.9016
X3.2608Y-4.1953
X3.2657Y-3.7569
X3.268Y-3.8811
X3.2697Y-4.062
X3.2697Y-4.0886
X3.2864Y-4.1067
X3.2874Y-3.8661
X3.3022Y-4.0896
X3.3123Y-3.6293
X3.3307Y-3.3819
X3.3376Y-3.7569
X3.3543Y-3.5925
X3.372Y-3.7274
X3.372Y-4.127
X3.4075Y-4.1171
X3.4262Y-3.2913
X3.4429Y-3.7205
X3.4429Y-4.1172
X3.4486Y-3.3797
X3.4488Y-3.5433
X3.4547Y-3.8051
X3.4577Y-3.8366
X3.4577Y-3.8898
X3.4594Y-3.6382
X3.487Y-3.6154
X3.4894Y-3.9124
X3.4917Y-3.8228
X3.4941Y-4.0945
X3.5055Y-3.6925
X3.5177Y-4.0945
X3.5423Y-4.0955
X3.5423Y-4.25
X3.5443Y-3.6889
X3.5443Y-3.6673
X3.5488Y-3.7205
X3.5561Y-4.7756
X3.563Y-4.2638
X3.5654Y-4.0537
X3.5679Y-3.7012
X3.5748Y-4.4882
X3.5827Y-3.6496
X3.5955Y-4.5591
X3.5984Y-3.9665
X3.5984Y-4.4882
X3.5984Y-4.5118
X3.6012Y-4.0692
X3.6023Y-4.1251
X3.6034Y-4.1591
X3.6038Y-4.0913
X3.6053Y-3.8465
X3.6063Y-4.6083
X3.6142Y-3.2402
X3.6181Y-3.6535
X3.622Y-4.0433
X3.622Y-4.4882
X3.622Y-4.5118
X3.622Y-4.5354
X3.6374Y-3.6752
X3.6382Y-4.1236
X3.6417Y-3.6496
X3.6496Y-3.7077
X3.6535Y-4.6555
X3.6585Y-4.1841
X3.6638Y-4.0725
X3.6646Y-3.9791
X3.6799Y-4.0209
X3.685Y-4.1841
X3.685Y-4.5787
X3.6865Y-4.0767
X3.6874Y-3.8732
X3.69Y-3.7693
X3.7101Y-3.9227
X3.7106Y-3.9744
X3.7116Y-4.0261
X3.7153Y-3.8418
X3.7224Y-4.2835
X3.7254Y-4.1624
X3.7316Y-4.1068
X3.7316Y-4.1324
X3.7333Y-4.1821
X3.7451Y-3.7567
X3.748Y-3.6772
X3.7519Y-4.0256
X3.7569Y-4.4134
X3.7571Y-4.1491
X3.7579Y-4.1752
X3.7613Y-3.9227
X3.7618Y-3.7711
X3.7618Y-3.9872
X3.7623Y-3.9493
X3.7657Y-3.2756
X3.7756Y-3.6929
X3.7854Y-4.2815
X3.7865Y-3.8878
X3.787Y-4.0108
X3.7872Y-4.077
X3.7894Y-4.4134
X3.7913Y-3.9273
X3.7926Y-4.0321
X3.7933Y-3.7598
X3.8012Y-3.7096
X3.8012Y-4.3701
X3.8031Y-4.2992
X3.813Y-3.9872
X3.8179Y-3.7608
X3.8197Y-3.8972
X3.8228Y-3.7096
X3.8272Y-4.2634
X3.8317Y-4.1024
X3.8417Y-4.0287
X3.8417Y-4.2409
X3.8425Y-3.7638
X3.8429Y-3.9531
X3.8429Y-4.0555
X3.8457Y-3.8894
X3.8566Y-4.2227
X3.8581Y-3.9076
X3.8642Y-3.9398
X3.8668Y-3.7663
X3.8846Y-4.0047
X3.8848Y-3.8967
X3.8853Y-4.0721
X3.8887Y-4.2155
X3.8909Y-3.9836
X3.8917Y-3.7659
X3.8947Y-4.1831
X3.8951Y-4.1212
X3.8982Y-4.0994
X3.9094Y-4.2717
X3.9104Y-3.8927
X3.9134Y-3.5807
X3.9154Y-3.7659
X3.9214Y-4.1747
X3.9311Y-4.2185
X3.9354Y-4.0049
X3.936Y-4.0305
X3.9363Y-4.1068
X3.9366Y-3.8421
X3.9409Y-3.9783
X3.9468Y-4.0562
X3.9509Y-4.1597
X3.9537Y-4.1854
X3.9619Y-4.1324
X3.9685Y-4.2165
X3.9862Y-4.3494
X3.9876Y-3.8165
X3.9882Y-3.7648
X3.9902Y-3.5817
X3.9964Y-3.8508
X4.002Y-3.9644
X4.0157Y-3.8316
X4.0207Y-4.2057
X4.0216Y-4.0247
X4.0226Y-3.8067
X4.0242Y-4.1388
X4.0262Y-3.8655
X4.0492Y-4.1965
X4.0504Y-3.9612
X4.0504Y-4.0811
X4.0669Y-4.0646
X4.0709Y-4.3209
X4.0728Y-4.2618
X4.074Y-3.914
X4.0856Y-3.6604
X4.0925Y-4.2618
X4.0945Y-4.3209
X4.1016Y-3.8335
X4.1035Y-3.5739
X4.1106Y-3.8091
X4.124Y-4.315
X4.1262Y-3.7638
X4.1425Y-3.8071
X4.1591Y-3.7598
X4.173Y-3.7862
X4.1734Y-3.8592
X4.2087Y-4.1427
X4.2087Y-4.1683
X4.2094Y-3.8161
X4.2099Y-3.8407
X4.2099Y-3.8634
X4.2228Y-4.1555
X4.2234Y-4.1811
X4.2323Y-4.124
X4.2469Y-3.9594
X4.2697Y-3.8823
X4.2717Y-4.1398
X4.2953Y-4.128
X4.3002Y-3.9154
X4.3071Y-3.8591
X4.3071Y-3.8818
X4.3116Y-3.8248
X4.3215Y-3.7923
X4.3228Y-4.128
X4.3445Y-4.5364
X4.3701Y-3.7539
X4.372Y-4.1614
X4.3957Y-4.4911
X4.3962Y-3.7564
X4.4668Y-4.1817
X4.5Y-4.5591
X4.5197Y-4.5748
X4.5276Y-4.4528
X4.5394Y-4.5591
X4.5656Y-4.3453
X4.5709Y-4.5591
X4.5866Y-4.3445
X4.5906Y-4.5748
X4.5915Y-3.6093
X4.5915Y-3.6585
X4.602Y-3.4685
X4.6063Y-4.2323
X4.6102Y-4.5591
X4.6191Y-3.7411
X4.6201Y-3.4467
X4.622Y-4.2957
X4.6535Y-3.7559
X4.6634Y-4.1949
X4.6674Y-4.1218
X4.6691Y-3.7128
X4.6693Y-3.685
X4.6693Y-3.7402
X4.6831Y-4.2579
X4.6831Y-4.2815
X4.6831Y-4.3051
X4.685Y-4.1772
X4.7234Y-4.3602
T2
X2.9852Y-4.0177
X3.0272Y-4.1242
X3.0276Y-4.1663
X3.0717Y-4.3689
X3.0807Y-4.1063
X3.0807Y-4.1476
X3.115Y-4.3295
X3.1171Y-4.0207
X3.124Y-3.753
X3.1583Y-4.2902
X3.1841Y-4.0207
X3.1949Y-3.7559
X3.1949Y-4.1417
X3.1949Y-4.1713
X3.2016Y-4.2508
X3.2293Y-3.8002
X3.2608Y-3.9823
X3.2963Y-3.9449
X3.2992Y-3.7963
X3.3307Y-3.9902
X3.3307Y-4.0394
X3.3337Y-4.0886
X3.3396Y-3.8297
X3.3622Y-4.7087
X3.3858Y-4.252
X3.4055Y-4.6693
X3.4488Y-4.6299
X3.4587Y-4.0187
X3.4596Y-4.0817
X3.4616Y-3.9547
X3.4803Y-4.2441
X3.4921Y-4.5906
X3.5157Y-4.4094
X3.5591Y-4.3386
X3.5591Y-4.6732
X3.563Y-4.7126
X3.5744Y-4.7484
X3.5748Y-4.4016
X3.5878Y-4.7264
X3.6142Y-4.8071
X3.626Y-4.685
X3.6378Y-4.7677
X3.6496Y-4.2992
X3.6496Y-4.3504
X3.6535Y-4.6083
X3.6654Y-4.5512
X3.6811Y-3.5787
X3.685Y-4.4685
X3.685Y-4.8031
X3.689Y-4.685
X3.7087Y-3.374
X3.7165Y-3.4457
X3.7165Y-3.5276
X3.7795Y-4.5236
X3.811Y-4.5661
X3.8118Y-4.6898
X3.8307Y-4.5079
X3.8346Y-4.4134
X3.8701Y-4.5079
X3.8819Y-4.3937
X3.8835Y-4.6839
X3.9291Y-3.4488
X3.9433Y-3.7382
X3.9528Y-3.4803
X3.9606Y-4.2688
X3.9646Y-4.3957
X3.9654Y-3.7516
X3.9909Y-4.6846
X3.9913Y-4.5299
X3.9994Y-3.7424
X4.0354Y-3.5433
X4.0787Y-3.4882
X4.0866Y-4.2126
X4.1083Y-4.5443
X4.1181Y-4.1807
X4.1181Y-4.2126
X4.1378Y-4.5748
X4.1398Y-4.0571
X4.1398Y-4.0846
X4.1427Y-3.963
X4.1427Y-3.9902
X4.1457Y-4.1398
X4.1457Y-4.1807
X4.1496Y-4.2126
X4.1575Y-4.6142
X4.1575Y-4.6575
X4.2126Y-3.5752
X4.2146Y-4.0669
X4.2205Y-4.6083
X4.2205Y-4.6555
X4.2205Y-4.7402
X4.2205Y-4.7874
X4.2224Y-4.2244
X4.2244Y-4.4606
X4.2441Y-4.3957
X4.249Y-3.5752
X4.2559Y-4.2362
X4.2589Y-4.0118
X4.2648Y-4.0371
X4.2677Y-4.6083
X4.2677Y-4.6555
X4.2677Y-4.7402
X4.2677Y-4.7874
X4.2843Y-4.0176
X4.2894Y-4.0669
X4.2992Y-4.4587
X4.2992Y-4.5728
X4.2992Y-4.6043
X4.2992Y-4.6378
X4.3087Y-4.0413
X4.3268Y-4.0669
X4.3307Y-4.5945
X4.3406Y-4.0079
X4.3445Y-4.6535
X4.3583Y-4.2835
X4.3583Y-4.3228
X4.3583Y-4.3622
X4.3583Y-4.4016
X4.3583Y-4.5945
X4.3622Y-3.9862
X4.3622Y-4.0295
X4.3878Y-3.8642
X4.3917Y-3.9902
X4.3917Y-4.0177
X4.3976Y-4.2835
X4.3976Y-4.3228
X4.3976Y-4.3622
X4.3976Y-4.4016
X4.4016Y-4.5413
X4.4075Y-4.0492
X4.4075Y-4.0886
X4.4075Y-4.128
X4.4173Y-3.8465
X4.4291Y-4.624
X4.4291Y-4.6555
X4.4291Y-4.685
X4.437Y-4.2835
X4.437Y-4.3228
X4.437Y-4.3622
X4.437Y-4.4016
X4.4488Y-3.563
X4.4646Y-3.5325
X4.4754Y-4.5413
X4.4764Y-4.2835
X4.4764Y-4.3228
X4.4764Y-4.3622
X4.4764Y-4.4016
X4.4783Y-4.6614
X4.4862Y-3.3681
X4.4862Y-3.3937
X4.4862Y-3.4193
X4.4882Y-4.6024
X4.4902Y-4.1211
X4.5039Y-4.6417
X4.5098Y-3.4409
X4.5098Y-3.4665
X4.5157Y-3.8992
X4.5236Y-4.1211
X4.5276Y-4.6673
X4.5433Y-3.873
X4.5443Y-3.8992
X4.5571Y-4.1211
X4.5827Y-4.6398
X4.5846Y-4.4508
X4.5846Y-4.4862
X4.5866Y-4.0945
X4.5866Y-4.126
X4.5866Y-4.1535
X4.6191Y-3.5325
X4.6339Y-4.5984
X4.6413Y-4.1467
X4.6457Y-4.4882
X4.6457Y-4.5276
X4.6457Y-4.5669
X4.6555Y-3.8071
X4.6555Y-3.8622
X4.6654Y-3.5098
X4.6654Y-3.5394
X4.6831Y-3.8071
X4.6831Y-3.8622
X4.685Y-4.4882
X4.7244Y-4.4882
X4.7421Y-4.1535
X4.7441Y-4.1929
X4.7441Y-4.2323
X4.748Y-3.6457
X4.7736Y-4.2717
X4.7736Y-4.311
X4.7736Y-4.3504
X4.7736Y-4.3898
X4.7795Y-3.626
X4.7835Y-4.1535
X4.8205Y-3.7854
X4.8205Y-3.813
X4.8228Y-4.1535
X4.8386Y-3.6496
X4.8598Y-3.7854
X4.8598Y-3.813
X4.8622Y-4.1543
T5
X3.2091Y-3.3426
X3.2652Y-3.2874
X3.3214Y-3.2322
X3.3775Y-3.1771
X3.8189Y-4.4646
X3.8976Y-4.4646
X3.9764Y-4.4646
X4.0551Y-4.4646
T3
X3.8417Y-3.0827G85X3.8417Y-3.0512
G05
X3.8417Y-3.3465G85X3.8417Y-3.315
G05
X4.0236Y-3.4134G85X4.0236Y-3.3819
G05
X4.0323Y-3.0472G85X4.0323Y-3.0157
G05
X4.0323Y-3.189G85X4.0323Y-3.1575
G05
X3.4874Y-3.2028G85X3.4874Y-3.1713
G05
X3.4874Y-3.4665G85X3.4874Y-3.435
G05
X3.6693Y-3.5335G85X3.6693Y-3.502
G05
X3.678Y-3.1673G85X3.678Y-3.1358
G05
X3.678Y-3.3091G85X3.678Y-3.2776
G05
X4.1961Y-3.2028G85X4.1961Y-3.1713
G05
X4.1961Y-3.4665G85X4.1961Y-3.435
G05
X4.378Y-3.5335G85X4.378Y-3.502
G05
X4.3866Y-3.1673G85X4.3866Y-3.1358
G05
X4.3866Y-3.3091G85X4.3866Y-3.2776
G05
T4
X3.7669Y-4.6128G85X3.7669Y-4.6561
G05
X3.7669Y-4.7872G85X3.7669Y-4.8108
G05
X4.1071Y-4.6128G85X4.1071Y-4.6561
G05
X4.1071Y-4.7872G85X4.1071Y-4.8108
G05
T0
M30
