G04 #@! TF.GenerationSoftware,KiCad,Pcbnew,5.1.5+dfsg1-2build2*
G04 #@! TF.CreationDate,2021-02-19T16:57:28+01:00*
G04 #@! TF.ProjectId,OtterCastAudioV2,4f747465-7243-4617-9374-417564696f56,rev?*
G04 #@! TF.SameCoordinates,Original*
G04 #@! TF.FileFunction,Paste,Top*
G04 #@! TF.FilePolarity,Positive*
%FSLAX46Y46*%
G04 Gerber Fmt 4.6, Leading zero omitted, Abs format (unit mm)*
G04 Created by KiCad (PCBNEW 5.1.5+dfsg1-2build2) date 2021-02-19 16:57:28*
%MOMM*%
%LPD*%
G04 APERTURE LIST*
%ADD10R,0.600000X0.500000*%
%ADD11R,0.500000X0.600000*%
%ADD12R,1.200000X0.510000*%
%ADD13R,0.510000X1.200000*%
%ADD14R,0.250000X0.900000*%
%ADD15R,0.900000X0.250000*%
%ADD16R,3.140000X3.140000*%
%ADD17C,0.100000*%
%ADD18R,0.790000X0.440000*%
%ADD19R,0.800000X2.700000*%
%ADD20R,0.900000X0.600000*%
%ADD21R,1.300000X0.700000*%
%ADD22R,0.650000X0.800000*%
%ADD23R,2.250000X1.315000*%
%ADD24R,1.250000X1.400000*%
%ADD25R,1.400000X1.250000*%
%ADD26R,0.750000X1.500000*%
%ADD27R,0.800000X0.900000*%
%ADD28R,0.600000X0.900000*%
%ADD29R,0.800000X0.200000*%
%ADD30R,0.200000X0.800000*%
%ADD31R,1.620000X1.620000*%
%ADD32R,2.700000X0.800000*%
%ADD33R,0.600000X1.450000*%
%ADD34R,0.300000X1.450000*%
%ADD35R,0.950000X1.200000*%
%ADD36R,0.650000X1.060000*%
%ADD37R,0.900000X0.800000*%
%ADD38C,0.900000*%
%ADD39R,0.700000X1.300000*%
%ADD40R,2.300000X2.500000*%
%ADD41R,1.225000X0.850000*%
G04 APERTURE END LIST*
D10*
X119100000Y-104570000D03*
X119100000Y-103630000D03*
D11*
X103270000Y-112000000D03*
X102330000Y-112000000D03*
D12*
X78130000Y-100700000D03*
X78130000Y-98000000D03*
X78130000Y-104300000D03*
X78130000Y-103400000D03*
X78130000Y-97100000D03*
X78130000Y-98900000D03*
X78130000Y-99800000D03*
X78130000Y-101600000D03*
X78130000Y-96200000D03*
X78130000Y-102500000D03*
X78130000Y-95300000D03*
X89570000Y-100700000D03*
X89570000Y-98000000D03*
X89570000Y-104300000D03*
X89570000Y-103400000D03*
X89570000Y-97100000D03*
X89570000Y-98900000D03*
X89570000Y-99800000D03*
X89570000Y-101600000D03*
X89570000Y-96200000D03*
X89570000Y-102500000D03*
X89570000Y-95300000D03*
D13*
X82950000Y-94080000D03*
X85650000Y-94080000D03*
X79350000Y-94080000D03*
X80250000Y-94080000D03*
X86550000Y-94080000D03*
X84750000Y-94080000D03*
X83850000Y-94080000D03*
X82050000Y-94080000D03*
X87450000Y-94080000D03*
X81150000Y-94080000D03*
X88350000Y-94080000D03*
X80250000Y-105520000D03*
X81150000Y-105520000D03*
X82050000Y-105520000D03*
X82950000Y-105520000D03*
X83850000Y-105520000D03*
X84750000Y-105520000D03*
X85650000Y-105520000D03*
X86550000Y-105520000D03*
X87450000Y-105520000D03*
X79350000Y-105520000D03*
X88350000Y-105520000D03*
D14*
X115800000Y-95400000D03*
X114300000Y-95400000D03*
X116300000Y-95400000D03*
X116800000Y-95400000D03*
X114800000Y-95400000D03*
X115300000Y-95400000D03*
X113800000Y-95400000D03*
X114800000Y-90600000D03*
X116300000Y-90600000D03*
X114300000Y-90600000D03*
X113800000Y-90600000D03*
X115800000Y-90600000D03*
X115300000Y-90600000D03*
X116800000Y-90600000D03*
D15*
X117700000Y-93500000D03*
X117700000Y-92000000D03*
X117700000Y-94000000D03*
X117700000Y-94500000D03*
X117700000Y-92500000D03*
X117700000Y-93000000D03*
X117700000Y-91500000D03*
X112900000Y-93500000D03*
X112900000Y-94000000D03*
X112900000Y-94500000D03*
X112900000Y-91500000D03*
X112900000Y-92000000D03*
X112900000Y-92500000D03*
X112900000Y-93000000D03*
D16*
X115300000Y-93000000D03*
D17*
G36*
X86568431Y-82517695D02*
G01*
X86992695Y-82093431D01*
X87346249Y-82446985D01*
X86921985Y-82871249D01*
X86568431Y-82517695D01*
G37*
G36*
X85903751Y-81853015D02*
G01*
X86328015Y-81428751D01*
X86681569Y-81782305D01*
X86257305Y-82206569D01*
X85903751Y-81853015D01*
G37*
G36*
X83693431Y-85392695D02*
G01*
X84117695Y-84968431D01*
X84471249Y-85321985D01*
X84046985Y-85746249D01*
X83693431Y-85392695D01*
G37*
G36*
X83028751Y-84728015D02*
G01*
X83453015Y-84303751D01*
X83806569Y-84657305D01*
X83382305Y-85081569D01*
X83028751Y-84728015D01*
G37*
D18*
X89220000Y-91240000D03*
X89220000Y-93040000D03*
X88220000Y-93040000D03*
X88220000Y-91240000D03*
D19*
X80260000Y-91760000D03*
X78060000Y-91760000D03*
D20*
X76990000Y-92210000D03*
X76990000Y-93710000D03*
D21*
X122940000Y-93500000D03*
X122940000Y-95400000D03*
D11*
X105420000Y-98260000D03*
X106360000Y-98260000D03*
X105430000Y-97410000D03*
X106370000Y-97410000D03*
X107865000Y-98820000D03*
X108805000Y-98820000D03*
X107855000Y-97990001D03*
X108795000Y-97990001D03*
D10*
X102900000Y-101295000D03*
X102900000Y-100355000D03*
D11*
X108820000Y-99650000D03*
X107880000Y-99650000D03*
D10*
X104585000Y-95700000D03*
X104585000Y-96640000D03*
X99200000Y-107845000D03*
X99200000Y-106905000D03*
X102850000Y-105270000D03*
X102850000Y-104330000D03*
X90825000Y-103320000D03*
X90825000Y-102380000D03*
X90825000Y-100730000D03*
X90825000Y-101670000D03*
D11*
X103800000Y-96650000D03*
X102860000Y-96650000D03*
X94855000Y-108650000D03*
X95795000Y-108650000D03*
D10*
X95500000Y-107845000D03*
X95500000Y-106905000D03*
D11*
X103800000Y-97550000D03*
X102860000Y-97550000D03*
D10*
X83930000Y-92770000D03*
X83930000Y-91830000D03*
D11*
X77050000Y-97030000D03*
X76110000Y-97030000D03*
D10*
X90825000Y-98345000D03*
X90825000Y-97405000D03*
D11*
X87460000Y-106770000D03*
X86520000Y-106770000D03*
D10*
X87220000Y-92770000D03*
X87220000Y-91830000D03*
X84750000Y-92770000D03*
X84750000Y-91830000D03*
X83110000Y-92770000D03*
X83110000Y-91830000D03*
X82290000Y-92770000D03*
X82290000Y-91830000D03*
D11*
X77045000Y-97860000D03*
X76105000Y-97860000D03*
X77045000Y-99520000D03*
X76105000Y-99520000D03*
X77045000Y-98690000D03*
X76105000Y-98690000D03*
X77045000Y-100350000D03*
X76105000Y-100350000D03*
D10*
X86400000Y-92770000D03*
X86400000Y-91830000D03*
X85580000Y-92770000D03*
X85580000Y-91830000D03*
X113000000Y-81080000D03*
X113000000Y-82020000D03*
X96000000Y-86670000D03*
X96000000Y-85730000D03*
X104000000Y-83570000D03*
X104000000Y-82630000D03*
D11*
X98830000Y-88400000D03*
X99770000Y-88400000D03*
X104030000Y-88300000D03*
X104970000Y-88300000D03*
X101920000Y-88400000D03*
X100980000Y-88400000D03*
D10*
X119800000Y-94670000D03*
X119800000Y-93730000D03*
D11*
X92745000Y-91350000D03*
X91805000Y-91350000D03*
D10*
X105440000Y-95700000D03*
X105440000Y-96640000D03*
X106280000Y-95200000D03*
X106280000Y-96140000D03*
D11*
X107080000Y-95090000D03*
X108020000Y-95090000D03*
X108770000Y-94850000D03*
X109710000Y-94850000D03*
D10*
X95000000Y-84880000D03*
X95000000Y-85820000D03*
D11*
X109745000Y-93375000D03*
X108805000Y-93375000D03*
X95920000Y-84050000D03*
X94980000Y-84050000D03*
X91070000Y-91350000D03*
X90130000Y-91350000D03*
D10*
X104825000Y-90220000D03*
X104825000Y-89280000D03*
X103000000Y-88330000D03*
X103000000Y-89270000D03*
X95000000Y-80630000D03*
X95000000Y-81570000D03*
X95000000Y-82280000D03*
X95000000Y-83220000D03*
D11*
X102860000Y-95750000D03*
X103800000Y-95750000D03*
X91220000Y-116525000D03*
X90280000Y-116525000D03*
D10*
X90650000Y-115745000D03*
X90650000Y-114805000D03*
D11*
X90130000Y-118250000D03*
X91070000Y-118250000D03*
X90130000Y-119075000D03*
X91070000Y-119075000D03*
D10*
X97550000Y-108580000D03*
X97550000Y-109520000D03*
X96550000Y-111345000D03*
X96550000Y-110405000D03*
X95725000Y-110395000D03*
X95725000Y-109455000D03*
X94900000Y-110370000D03*
X94900000Y-109430000D03*
D11*
X108830000Y-115050000D03*
X109770000Y-115050000D03*
X107920000Y-115050000D03*
X106980000Y-115050000D03*
X106070000Y-114750000D03*
X105130000Y-114750000D03*
X103170000Y-115300000D03*
X102230000Y-115300000D03*
X96830000Y-115300000D03*
X97770000Y-115300000D03*
D10*
X100500000Y-114530000D03*
X100500000Y-115470000D03*
X99500000Y-114530000D03*
X99500000Y-115470000D03*
D11*
X94670000Y-122775000D03*
X93730000Y-122775000D03*
X117300000Y-107350000D03*
X116360000Y-107350000D03*
X118170000Y-105300000D03*
X117230000Y-105300000D03*
D10*
X105700000Y-113795000D03*
X105700000Y-112855000D03*
D11*
X116120000Y-113950000D03*
X115180000Y-113950000D03*
D17*
G36*
X110556569Y-120382305D02*
G01*
X110132305Y-120806569D01*
X109778751Y-120453015D01*
X110203015Y-120028751D01*
X110556569Y-120382305D01*
G37*
G36*
X111221249Y-121046985D02*
G01*
X110796985Y-121471249D01*
X110443431Y-121117695D01*
X110867695Y-120693431D01*
X111221249Y-121046985D01*
G37*
D11*
X90080000Y-92450000D03*
X91020000Y-92450000D03*
X81030000Y-106775000D03*
X81970000Y-106775000D03*
X80295000Y-106775000D03*
X79355000Y-106775000D03*
X78595000Y-106350000D03*
X77655000Y-106350000D03*
X76120000Y-96200000D03*
X77060000Y-96200000D03*
X76110000Y-95370000D03*
X77050000Y-95370000D03*
X76190000Y-94540000D03*
X77130000Y-94540000D03*
X86080000Y-85900000D03*
X87020000Y-85900000D03*
X86080000Y-90000000D03*
X87020000Y-90000000D03*
D10*
X90825000Y-99995000D03*
X90825000Y-99055000D03*
X94675000Y-107845000D03*
X94675000Y-106905000D03*
X114625000Y-97370000D03*
X114625000Y-96430000D03*
X90500000Y-105705000D03*
X90500000Y-106645000D03*
D22*
X122475000Y-99700000D03*
X122475000Y-104100000D03*
X120325000Y-99700000D03*
X120325000Y-104100000D03*
D11*
X103820000Y-98450000D03*
X102880000Y-98450000D03*
D23*
X119850000Y-88012500D03*
X119850000Y-91087500D03*
D17*
G36*
X116023241Y-82732251D02*
G01*
X114432251Y-84323241D01*
X113502405Y-83393395D01*
X115093395Y-81802405D01*
X116023241Y-82732251D01*
G37*
G36*
X118197595Y-84906605D02*
G01*
X116606605Y-86497595D01*
X115676759Y-85567749D01*
X117267749Y-83976759D01*
X118197595Y-84906605D01*
G37*
D24*
X121400000Y-93150000D03*
X121400000Y-95450000D03*
D25*
X107475000Y-91800000D03*
X109775000Y-91800000D03*
D24*
X99400000Y-89800000D03*
X99400000Y-92100000D03*
X101350000Y-89800000D03*
X101350000Y-92100000D03*
X115025000Y-101125000D03*
X115025000Y-98825000D03*
X117400000Y-99700000D03*
X117400000Y-97400000D03*
X97500000Y-89000000D03*
X97500000Y-91300000D03*
X95549999Y-89000000D03*
X95549999Y-91300000D03*
D25*
X113525000Y-87950000D03*
X115825000Y-87950000D03*
D26*
X103750000Y-105800000D03*
X106150000Y-105800000D03*
D27*
X100700000Y-111600000D03*
X99750000Y-109600000D03*
X101650000Y-109600000D03*
D17*
G36*
X85806066Y-84771752D02*
G01*
X86371752Y-84206066D01*
X87008148Y-84842462D01*
X86442462Y-85408148D01*
X85806066Y-84771752D01*
G37*
G36*
X83720101Y-84029290D02*
G01*
X84285787Y-83463604D01*
X84922183Y-84100000D01*
X84356497Y-84665686D01*
X83720101Y-84029290D01*
G37*
G36*
X85063604Y-82685787D02*
G01*
X85629290Y-82120101D01*
X86265686Y-82756497D01*
X85700000Y-83322183D01*
X85063604Y-82685787D01*
G37*
D28*
X101940000Y-94820000D03*
X100440000Y-94820000D03*
D10*
X107950000Y-109605000D03*
X107950000Y-110545000D03*
D11*
X111370000Y-106050000D03*
X110430000Y-106050000D03*
D29*
X115175000Y-108100000D03*
X115175000Y-108500000D03*
X115175000Y-108900000D03*
X115175000Y-109300000D03*
X115175000Y-109700000D03*
X115175000Y-110100000D03*
X115175000Y-110500000D03*
X115175000Y-110900000D03*
X115175000Y-111300000D03*
X115175000Y-111700000D03*
X115175000Y-112100000D03*
X115175000Y-112500000D03*
D30*
X114400000Y-113275000D03*
X114000000Y-113275000D03*
X113600000Y-113275000D03*
X113200000Y-113275000D03*
X112800000Y-113275000D03*
X112400000Y-113275000D03*
X112000000Y-113275000D03*
X111600000Y-113275000D03*
X111200000Y-113275000D03*
X110800000Y-113275000D03*
X110400000Y-113275000D03*
X110000000Y-113275000D03*
D29*
X109225000Y-112500000D03*
X109225000Y-112100000D03*
X109225000Y-111700000D03*
X109225000Y-111300000D03*
X109225000Y-110900000D03*
X109225000Y-110500000D03*
X109225000Y-110100000D03*
X109225000Y-109700000D03*
X109225000Y-109300000D03*
X109225000Y-108900000D03*
X109225000Y-108500000D03*
X109225000Y-108100000D03*
D30*
X110000000Y-107325000D03*
X110400000Y-107325000D03*
X110800000Y-107325000D03*
X111200000Y-107325000D03*
X111600000Y-107325000D03*
X112000000Y-107325000D03*
X112400000Y-107325000D03*
X112800000Y-107325000D03*
X113200000Y-107325000D03*
X113600000Y-107325000D03*
X114000000Y-107325000D03*
X114400000Y-107325000D03*
D31*
X112200000Y-110300000D03*
D19*
X93775000Y-109950000D03*
X91575000Y-109950000D03*
D32*
X105700000Y-110400000D03*
X105700000Y-108200000D03*
D17*
G36*
X112659100Y-119842930D02*
G01*
X112679741Y-119845900D01*
X112699992Y-119850879D01*
X112719657Y-119857819D01*
X112738547Y-119866652D01*
X112756481Y-119877295D01*
X112773285Y-119889645D01*
X112788797Y-119903582D01*
X112802869Y-119918972D01*
X112815364Y-119935668D01*
X113053021Y-120288009D01*
X113063820Y-120305848D01*
X113072819Y-120324661D01*
X113079930Y-120344265D01*
X113085085Y-120364471D01*
X113088235Y-120385086D01*
X113089349Y-120405910D01*
X113088417Y-120426743D01*
X113085447Y-120447384D01*
X113080468Y-120467635D01*
X113073528Y-120487300D01*
X113064695Y-120506190D01*
X113054052Y-120524124D01*
X113041702Y-120540928D01*
X113027765Y-120556440D01*
X113012375Y-120570512D01*
X112995679Y-120583007D01*
X112332448Y-121030362D01*
X112314609Y-121041161D01*
X112295796Y-121050160D01*
X112276192Y-121057271D01*
X112255986Y-121062426D01*
X112235371Y-121065576D01*
X112214547Y-121066690D01*
X112193714Y-121065758D01*
X112173073Y-121062788D01*
X112152822Y-121057809D01*
X112133157Y-121050869D01*
X112114267Y-121042036D01*
X112096333Y-121031393D01*
X112079529Y-121019043D01*
X112064017Y-121005106D01*
X112049945Y-120989716D01*
X112037450Y-120973020D01*
X111799793Y-120620679D01*
X111788994Y-120602840D01*
X111779995Y-120584027D01*
X111772884Y-120564423D01*
X111767729Y-120544217D01*
X111764579Y-120523602D01*
X111763465Y-120502778D01*
X111764397Y-120481945D01*
X111767367Y-120461304D01*
X111772346Y-120441053D01*
X111779286Y-120421388D01*
X111788119Y-120402498D01*
X111798762Y-120384564D01*
X111811112Y-120367760D01*
X111825049Y-120352248D01*
X111840439Y-120338176D01*
X111857135Y-120325681D01*
X112520366Y-119878326D01*
X112538205Y-119867527D01*
X112557018Y-119858528D01*
X112576622Y-119851417D01*
X112596828Y-119846262D01*
X112617443Y-119843112D01*
X112638267Y-119841998D01*
X112659100Y-119842930D01*
G37*
G36*
X114006286Y-118934242D02*
G01*
X114026927Y-118937212D01*
X114047178Y-118942191D01*
X114066843Y-118949131D01*
X114085733Y-118957964D01*
X114103667Y-118968607D01*
X114120471Y-118980957D01*
X114135983Y-118994894D01*
X114150055Y-119010284D01*
X114162550Y-119026980D01*
X114400207Y-119379321D01*
X114411006Y-119397160D01*
X114420005Y-119415973D01*
X114427116Y-119435577D01*
X114432271Y-119455783D01*
X114435421Y-119476398D01*
X114436535Y-119497222D01*
X114435603Y-119518055D01*
X114432633Y-119538696D01*
X114427654Y-119558947D01*
X114420714Y-119578612D01*
X114411881Y-119597502D01*
X114401238Y-119615436D01*
X114388888Y-119632240D01*
X114374951Y-119647752D01*
X114359561Y-119661824D01*
X114342865Y-119674319D01*
X113679634Y-120121674D01*
X113661795Y-120132473D01*
X113642982Y-120141472D01*
X113623378Y-120148583D01*
X113603172Y-120153738D01*
X113582557Y-120156888D01*
X113561733Y-120158002D01*
X113540900Y-120157070D01*
X113520259Y-120154100D01*
X113500008Y-120149121D01*
X113480343Y-120142181D01*
X113461453Y-120133348D01*
X113443519Y-120122705D01*
X113426715Y-120110355D01*
X113411203Y-120096418D01*
X113397131Y-120081028D01*
X113384636Y-120064332D01*
X113146979Y-119711991D01*
X113136180Y-119694152D01*
X113127181Y-119675339D01*
X113120070Y-119655735D01*
X113114915Y-119635529D01*
X113111765Y-119614914D01*
X113110651Y-119594090D01*
X113111583Y-119573257D01*
X113114553Y-119552616D01*
X113119532Y-119532365D01*
X113126472Y-119512700D01*
X113135305Y-119493810D01*
X113145948Y-119475876D01*
X113158298Y-119459072D01*
X113172235Y-119443560D01*
X113187625Y-119429488D01*
X113204321Y-119416993D01*
X113867552Y-118969638D01*
X113885391Y-118958839D01*
X113904204Y-118949840D01*
X113923808Y-118942729D01*
X113944014Y-118937574D01*
X113964629Y-118934424D01*
X113985453Y-118933310D01*
X114006286Y-118934242D01*
G37*
D10*
X116200000Y-112870000D03*
X116200000Y-111930000D03*
D33*
X97600000Y-116800000D03*
X102400000Y-116800000D03*
X103200000Y-116800000D03*
X96800000Y-116800000D03*
X103200000Y-116800000D03*
X102400000Y-116800000D03*
D34*
X101750000Y-116800000D03*
X101250000Y-116800000D03*
X100750000Y-116800000D03*
X100250000Y-116800000D03*
X99750000Y-116800000D03*
X99250000Y-116800000D03*
X98750000Y-116800000D03*
X98250000Y-116800000D03*
D33*
X97600000Y-116800000D03*
X96800000Y-116800000D03*
D35*
X106075000Y-101000000D03*
X106075000Y-103400000D03*
X104325000Y-103400000D03*
X104325000Y-101000000D03*
X111125000Y-99150000D03*
X111125000Y-96750000D03*
X112875000Y-96750000D03*
X112875000Y-99150000D03*
D36*
X94000000Y-120150000D03*
X92100000Y-120150000D03*
X92100000Y-117950000D03*
X93050000Y-117950000D03*
X94000000Y-117950000D03*
X93625000Y-114625000D03*
X91725000Y-114625000D03*
X91725000Y-112425000D03*
X92675000Y-112425000D03*
X93625000Y-112425000D03*
D37*
X115900000Y-103000000D03*
X117900000Y-102050000D03*
X117900000Y-103950000D03*
D17*
G36*
X105544972Y-92026666D02*
G01*
X105629479Y-92153141D01*
X105701183Y-92287290D01*
X105759393Y-92427821D01*
X105803548Y-92573381D01*
X105833224Y-92722568D01*
X105848133Y-92873945D01*
X105848133Y-93026055D01*
X105833224Y-93177433D01*
X105803548Y-93326619D01*
X105759393Y-93472179D01*
X105701183Y-93612711D01*
X105629479Y-93746859D01*
X105544972Y-93873335D01*
X105448475Y-93990916D01*
X105340916Y-94098475D01*
X105223335Y-94194972D01*
X105096859Y-94279479D01*
X104962711Y-94351183D01*
X104822179Y-94409393D01*
X104676619Y-94453548D01*
X104527433Y-94483224D01*
X104376055Y-94498133D01*
X104223945Y-94498133D01*
X104072568Y-94483224D01*
X103923381Y-94453548D01*
X103777821Y-94409393D01*
X103637290Y-94351183D01*
X103503141Y-94279479D01*
X103376666Y-94194972D01*
X103259084Y-94098475D01*
X103151526Y-93990916D01*
X103055028Y-93873335D01*
X102970521Y-93746859D01*
X102898817Y-93612711D01*
X102840607Y-93472179D01*
X102796452Y-93326619D01*
X102766776Y-93177433D01*
X102751868Y-93026055D01*
X102751868Y-92873945D01*
X102766776Y-92722568D01*
X102796452Y-92573381D01*
X102840607Y-92427821D01*
X102898817Y-92287290D01*
X102970521Y-92153141D01*
X103055028Y-92026666D01*
X103151526Y-91909084D01*
X103186693Y-91873917D01*
X103197216Y-91861095D01*
X103211095Y-91847216D01*
X103223917Y-91836693D01*
X103245205Y-91815404D01*
X103527707Y-92097906D01*
X103447906Y-92177707D01*
X103376312Y-92264946D01*
X103313612Y-92358782D01*
X103260412Y-92458311D01*
X103217225Y-92562576D01*
X103184464Y-92670573D01*
X103162447Y-92781260D01*
X103151385Y-92893572D01*
X103151385Y-93006428D01*
X103162447Y-93118741D01*
X103184464Y-93229428D01*
X103217225Y-93337424D01*
X103260412Y-93441689D01*
X103313612Y-93541218D01*
X103376312Y-93635054D01*
X103447906Y-93722293D01*
X103527707Y-93802094D01*
X103614946Y-93873689D01*
X103708782Y-93936388D01*
X103808311Y-93989588D01*
X103912576Y-94032776D01*
X104020573Y-94065536D01*
X104131260Y-94087553D01*
X104243572Y-94098615D01*
X104356428Y-94098615D01*
X104468741Y-94087553D01*
X104579428Y-94065536D01*
X104687424Y-94032776D01*
X104791689Y-93989588D01*
X104891218Y-93936388D01*
X104985054Y-93873689D01*
X105072293Y-93802094D01*
X105152094Y-93722293D01*
X105223689Y-93635054D01*
X105286388Y-93541218D01*
X105339588Y-93441689D01*
X105382776Y-93337424D01*
X105415536Y-93229428D01*
X105437553Y-93118741D01*
X105448615Y-93006428D01*
X105448615Y-92893572D01*
X105437553Y-92781260D01*
X105415536Y-92670573D01*
X105382776Y-92562576D01*
X105339588Y-92458311D01*
X105286388Y-92358782D01*
X105223689Y-92264946D01*
X105152094Y-92177707D01*
X105072293Y-92097906D01*
X104985054Y-92026312D01*
X104891218Y-91963612D01*
X104791689Y-91910412D01*
X104687424Y-91867225D01*
X104579428Y-91834464D01*
X104468741Y-91812447D01*
X104356428Y-91801385D01*
X104243572Y-91801385D01*
X104131260Y-91812447D01*
X104020573Y-91834464D01*
X103912576Y-91867225D01*
X103808311Y-91910412D01*
X103708782Y-91963612D01*
X103614946Y-92026312D01*
X103527707Y-92097906D01*
X103245205Y-91815404D01*
X103259084Y-91801526D01*
X103376666Y-91705028D01*
X103503141Y-91620521D01*
X103637290Y-91548817D01*
X103777821Y-91490607D01*
X103923381Y-91446452D01*
X104072568Y-91416776D01*
X104223945Y-91401868D01*
X104376055Y-91401868D01*
X104527433Y-91416776D01*
X104676619Y-91446452D01*
X104822179Y-91490607D01*
X104962711Y-91548817D01*
X105096859Y-91620521D01*
X105223335Y-91705028D01*
X105340916Y-91801526D01*
X105448475Y-91909084D01*
X105544972Y-92026666D01*
G37*
D38*
X104300000Y-92950000D03*
D19*
X110800000Y-104000000D03*
X113000000Y-104000000D03*
D39*
X113175000Y-86275000D03*
X115075000Y-86275000D03*
X119500000Y-97375000D03*
X121400000Y-97375000D03*
D21*
X76640000Y-103130000D03*
X76640000Y-101230000D03*
D40*
X107450000Y-117050000D03*
X107450000Y-121350000D03*
D41*
X86717500Y-87145000D03*
X85092500Y-87145000D03*
X86717500Y-88750000D03*
X85092500Y-88750000D03*
D21*
X119975000Y-112650000D03*
X119975000Y-110750000D03*
D11*
X109870000Y-97150000D03*
X108930000Y-97150000D03*
X110120000Y-96330000D03*
X109180000Y-96330000D03*
D10*
X104600000Y-98320000D03*
X104600000Y-97380000D03*
D11*
X108190000Y-96610000D03*
X107250000Y-96610000D03*
X103820000Y-99550000D03*
X102880000Y-99550000D03*
X104870000Y-104525000D03*
X103930000Y-104525000D03*
D10*
X102850000Y-106945000D03*
X102850000Y-106005000D03*
D20*
X100200000Y-108450000D03*
X100200000Y-106950000D03*
D11*
X105605000Y-104525000D03*
X106545000Y-104525000D03*
D10*
X107075000Y-101230000D03*
X107075000Y-102170000D03*
D28*
X106100000Y-99710000D03*
X104600000Y-99710000D03*
D10*
X97350000Y-107850000D03*
X97350000Y-106910000D03*
X96575000Y-109545000D03*
X96575000Y-108605000D03*
X107100000Y-100295000D03*
X107100000Y-99355000D03*
X96500000Y-107845000D03*
X96500000Y-106905000D03*
X90825000Y-104030000D03*
X90825000Y-104970000D03*
D11*
X89720000Y-106750000D03*
X88780000Y-106750000D03*
D10*
X82290000Y-91110000D03*
X82290000Y-90170000D03*
D11*
X90120000Y-107575000D03*
X89180000Y-107575000D03*
D20*
X81330000Y-91730000D03*
X81330000Y-90230000D03*
D10*
X90825000Y-95655000D03*
X90825000Y-96595000D03*
D20*
X90950000Y-94875000D03*
X90950000Y-93375000D03*
D10*
X114000000Y-81080000D03*
X114000000Y-82020000D03*
D11*
X104030000Y-87400000D03*
X104970000Y-87400000D03*
D10*
X115975000Y-97370000D03*
X115975000Y-96430000D03*
X113050000Y-89995000D03*
X113050000Y-89055000D03*
D11*
X120070000Y-92600000D03*
X119130000Y-92600000D03*
X114730000Y-89150000D03*
X115670000Y-89150000D03*
X93480000Y-91350000D03*
X94420000Y-91350000D03*
D10*
X113875000Y-99620000D03*
X113875000Y-98680000D03*
X110125000Y-98870000D03*
X110125000Y-97930000D03*
X95000000Y-87520000D03*
X95000000Y-86580000D03*
D11*
X106955000Y-93375000D03*
X107895000Y-93375000D03*
X103030000Y-90150000D03*
X103970000Y-90150000D03*
D39*
X92050000Y-116300000D03*
X93950000Y-116300000D03*
D11*
X91070000Y-117350000D03*
X90130000Y-117350000D03*
D21*
X95475000Y-115925000D03*
X95475000Y-114025000D03*
D39*
X92650000Y-121600000D03*
X94550000Y-121600000D03*
D28*
X91525000Y-107775000D03*
X93025000Y-107775000D03*
D20*
X96840000Y-93425000D03*
X96840000Y-94925000D03*
D11*
X92080000Y-106800000D03*
X93020000Y-106800000D03*
D10*
X97810000Y-94130000D03*
X97810000Y-95070000D03*
X98630000Y-94130000D03*
X98630000Y-95070000D03*
X93850000Y-107845000D03*
X93850000Y-106905000D03*
X99450000Y-94130000D03*
X99450000Y-95070000D03*
D20*
X95100000Y-112850000D03*
X95100000Y-111350000D03*
X90500000Y-112525000D03*
X90500000Y-114025000D03*
X109500000Y-104100000D03*
X109500000Y-105600000D03*
D28*
X118750000Y-112000000D03*
X117250000Y-112000000D03*
X118750000Y-110800000D03*
X117250000Y-110800000D03*
D20*
X108300000Y-104400000D03*
X108300000Y-105900000D03*
X110350000Y-117450000D03*
X110350000Y-115950000D03*
X108100000Y-106800000D03*
X108100000Y-108300000D03*
X103400000Y-109000000D03*
X103400000Y-110500000D03*
D28*
X112300000Y-101700000D03*
X110800000Y-101700000D03*
D20*
X115500000Y-103925000D03*
X115500000Y-105425000D03*
D28*
X119825000Y-108350000D03*
X118325000Y-108350000D03*
D20*
X114300000Y-103925000D03*
X114300000Y-105425000D03*
D28*
X119700000Y-109650000D03*
X118200000Y-109650000D03*
D20*
X113350000Y-116050000D03*
X113350000Y-114550000D03*
D17*
G36*
X90710356Y-120091117D02*
G01*
X89791117Y-121010356D01*
X89296142Y-120515381D01*
X90215381Y-119596142D01*
X90710356Y-120091117D01*
G37*
G36*
X92053858Y-121434619D02*
G01*
X91134619Y-122353858D01*
X90639644Y-121858883D01*
X91558883Y-120939644D01*
X92053858Y-121434619D01*
G37*
D11*
X117370000Y-108420000D03*
X116430000Y-108420000D03*
D39*
X113450000Y-117400000D03*
X111550000Y-117400000D03*
D21*
X114850000Y-116950000D03*
X114850000Y-115050000D03*
D28*
X108150000Y-113300000D03*
X106650000Y-113300000D03*
D10*
X104700000Y-113470000D03*
X104700000Y-112530000D03*
D11*
X105430000Y-111600000D03*
X106370000Y-111600000D03*
D20*
X111650000Y-116050000D03*
X111650000Y-114550000D03*
D21*
X116550000Y-116950000D03*
X116550000Y-115050000D03*
D20*
X76840000Y-105505000D03*
X76840000Y-104005000D03*
M02*
